G75*
%MOIN*%
%OFA0B0*%
%FSLAX24Y24*%
%IPPOS*%
%LPD*%
%AMOC8*
5,1,8,0,0,1.08239X$1,22.5*
%
%ADD10C,0.0120*%
%ADD11C,0.0160*%
%ADD12C,0.0705*%
%ADD13C,0.0480*%
%ADD14C,0.0600*%
%ADD15C,0.0000*%
%ADD16C,0.1300*%
%ADD17OC8,0.0480*%
%ADD18OC8,0.0500*%
%ADD19C,0.0500*%
%ADD20C,0.0480*%
%ADD21C,0.0669*%
%ADD22R,0.0689X0.0689*%
%ADD23R,0.0591X0.0591*%
%ADD24C,0.0591*%
%ADD25OC8,0.0540*%
%ADD26R,0.0591X0.0512*%
%ADD27C,0.2756*%
D10*
X013160Y000180D02*
X052530Y000180D01*
X052530Y031676D01*
X013160Y031676D01*
D11*
X013160Y000180D01*
D12*
X037426Y029328D02*
X037426Y030033D01*
X039395Y030033D02*
X039395Y029328D01*
X044926Y029328D02*
X044926Y030033D01*
X046895Y030033D02*
X046895Y029328D01*
D13*
X040900Y022430D02*
X040420Y022430D01*
X040420Y021430D02*
X040900Y021430D01*
X040900Y020430D02*
X040420Y020430D01*
X040420Y019430D02*
X040900Y019430D01*
X040900Y018430D02*
X040420Y018430D01*
X040420Y017430D02*
X040900Y017430D01*
X040900Y016430D02*
X040420Y016430D01*
X040420Y015430D02*
X040900Y015430D01*
X040900Y014430D02*
X040420Y014430D01*
X040420Y013430D02*
X040900Y013430D01*
X040900Y012430D02*
X040420Y012430D01*
X040420Y011430D02*
X040900Y011430D01*
X040900Y010430D02*
X040420Y010430D01*
X040420Y009430D02*
X040900Y009430D01*
X037900Y009430D02*
X037420Y009430D01*
X037420Y010430D02*
X037900Y010430D01*
X037900Y011430D02*
X037420Y011430D01*
X037420Y012430D02*
X037900Y012430D01*
X037900Y013430D02*
X037420Y013430D01*
X037420Y014430D02*
X037900Y014430D01*
X037900Y015430D02*
X037420Y015430D01*
X037420Y016430D02*
X037900Y016430D01*
X037900Y017430D02*
X037420Y017430D01*
X037420Y018430D02*
X037900Y018430D01*
X037900Y019430D02*
X037420Y019430D01*
X037420Y020430D02*
X037900Y020430D01*
X037900Y021430D02*
X037420Y021430D01*
X037420Y022430D02*
X037900Y022430D01*
X028150Y017930D02*
X027670Y017930D01*
X027670Y016930D02*
X028150Y016930D01*
X028150Y015930D02*
X027670Y015930D01*
X027670Y014930D02*
X028150Y014930D01*
X028150Y013930D02*
X027670Y013930D01*
X027670Y012930D02*
X028150Y012930D01*
X028150Y011930D02*
X027670Y011930D01*
X025150Y011930D02*
X024670Y011930D01*
X024670Y012930D02*
X025150Y012930D01*
X025150Y013930D02*
X024670Y013930D01*
X024670Y014930D02*
X025150Y014930D01*
X025150Y015930D02*
X024670Y015930D01*
X024670Y016930D02*
X025150Y016930D01*
X025150Y017930D02*
X024670Y017930D01*
D14*
X025660Y026130D02*
X025660Y026730D01*
X026660Y026730D02*
X026660Y026130D01*
X027140Y028290D02*
X027740Y028290D01*
X027740Y030070D02*
X027140Y030070D01*
X025180Y030070D02*
X024580Y030070D01*
X024580Y028290D02*
X025180Y028290D01*
X021490Y028290D02*
X020890Y028290D01*
X020410Y026730D02*
X020410Y026130D01*
X019410Y026130D02*
X019410Y026730D01*
X018930Y028290D02*
X018330Y028290D01*
X018330Y030070D02*
X018930Y030070D01*
X020890Y030070D02*
X021490Y030070D01*
X030830Y030070D02*
X031430Y030070D01*
X031430Y028290D02*
X030830Y028290D01*
X031910Y026730D02*
X031910Y026130D01*
X032910Y026130D02*
X032910Y026730D01*
X033390Y028290D02*
X033990Y028290D01*
X033990Y030070D02*
X033390Y030070D01*
X044298Y023430D02*
X044898Y023430D01*
X044898Y022430D02*
X044298Y022430D01*
X044298Y021430D02*
X044898Y021430D01*
D15*
X049848Y022430D02*
X049850Y022480D01*
X049856Y022530D01*
X049866Y022580D01*
X049879Y022628D01*
X049896Y022676D01*
X049917Y022722D01*
X049941Y022766D01*
X049969Y022808D01*
X050000Y022848D01*
X050034Y022885D01*
X050071Y022920D01*
X050110Y022951D01*
X050151Y022980D01*
X050195Y023005D01*
X050241Y023027D01*
X050288Y023045D01*
X050336Y023059D01*
X050385Y023070D01*
X050435Y023077D01*
X050485Y023080D01*
X050536Y023079D01*
X050586Y023074D01*
X050636Y023065D01*
X050684Y023053D01*
X050732Y023036D01*
X050778Y023016D01*
X050823Y022993D01*
X050866Y022966D01*
X050906Y022936D01*
X050944Y022903D01*
X050979Y022867D01*
X051012Y022828D01*
X051041Y022787D01*
X051067Y022744D01*
X051090Y022699D01*
X051109Y022652D01*
X051124Y022604D01*
X051136Y022555D01*
X051144Y022505D01*
X051148Y022455D01*
X051148Y022405D01*
X051144Y022355D01*
X051136Y022305D01*
X051124Y022256D01*
X051109Y022208D01*
X051090Y022161D01*
X051067Y022116D01*
X051041Y022073D01*
X051012Y022032D01*
X050979Y021993D01*
X050944Y021957D01*
X050906Y021924D01*
X050866Y021894D01*
X050823Y021867D01*
X050778Y021844D01*
X050732Y021824D01*
X050684Y021807D01*
X050636Y021795D01*
X050586Y021786D01*
X050536Y021781D01*
X050485Y021780D01*
X050435Y021783D01*
X050385Y021790D01*
X050336Y021801D01*
X050288Y021815D01*
X050241Y021833D01*
X050195Y021855D01*
X050151Y021880D01*
X050110Y021909D01*
X050071Y021940D01*
X050034Y021975D01*
X050000Y022012D01*
X049969Y022052D01*
X049941Y022094D01*
X049917Y022138D01*
X049896Y022184D01*
X049879Y022232D01*
X049866Y022280D01*
X049856Y022330D01*
X049850Y022380D01*
X049848Y022430D01*
D16*
X050498Y022430D03*
D17*
X044660Y025930D03*
X044660Y026930D03*
X041910Y024930D03*
X040910Y024930D03*
X041160Y026430D03*
X037160Y026430D03*
X035410Y024680D03*
X034410Y024680D03*
X034410Y023680D03*
X035410Y023680D03*
X030410Y024680D03*
X029160Y024680D03*
X028160Y024680D03*
X028160Y023680D03*
X029160Y023680D03*
X026910Y019680D03*
X025910Y019680D03*
X023410Y019680D03*
X023410Y015680D03*
X023660Y012930D03*
X019660Y012930D03*
X029660Y015180D03*
X031160Y015180D03*
X034910Y014430D03*
X036160Y014430D03*
X036160Y015430D03*
X036160Y016430D03*
X036160Y013430D03*
X034910Y013430D03*
X031160Y019180D03*
X029660Y019180D03*
X023910Y023680D03*
X022910Y023680D03*
X022910Y024680D03*
X021910Y024680D03*
X024160Y024680D03*
X022910Y028680D03*
X017910Y024680D03*
X029160Y028680D03*
X035410Y028680D03*
X041910Y016180D03*
X041910Y015180D03*
X043410Y015180D03*
X043410Y016180D03*
X043160Y013430D03*
X042410Y011430D03*
X046410Y011430D03*
X047160Y013430D03*
D18*
X046410Y026030D03*
D19*
X046410Y026830D03*
D20*
X035610Y011680D03*
X033710Y011680D03*
D21*
X038160Y027430D03*
X041160Y027430D03*
D22*
X048660Y010680D03*
X049660Y010680D03*
X049660Y009680D03*
X048660Y009680D03*
X048660Y008680D03*
X049660Y008680D03*
D23*
X042160Y028930D03*
X042160Y029930D03*
X019660Y023180D03*
X018660Y023180D03*
X018660Y020680D03*
X019660Y020680D03*
X019660Y018180D03*
X018660Y018180D03*
X018660Y015680D03*
X019660Y015680D03*
D24*
X038410Y003350D02*
X038410Y002760D01*
X039410Y002760D02*
X039410Y003350D01*
X040410Y003350D02*
X040410Y002760D01*
X041410Y002760D02*
X041410Y003350D01*
X042410Y003350D02*
X042410Y002760D01*
X043410Y002760D02*
X043410Y003350D01*
X044410Y003350D02*
X044410Y002760D01*
X045410Y002760D02*
X045410Y003350D01*
D25*
X032160Y003680D03*
X031160Y003680D03*
X030160Y003680D03*
X029160Y003680D03*
X028160Y003680D03*
X028160Y002680D03*
X029160Y002680D03*
X030160Y002680D03*
X031160Y002680D03*
X032160Y002680D03*
X023660Y002680D03*
X022660Y002680D03*
X021660Y002680D03*
X020660Y002680D03*
X019660Y002680D03*
X019660Y003680D03*
X020660Y003680D03*
X021660Y003680D03*
X022660Y003680D03*
X023660Y003680D03*
D26*
X023660Y005306D03*
X023660Y006054D03*
X024660Y006054D03*
X024660Y005306D03*
X025660Y005306D03*
X025660Y006054D03*
X021660Y006054D03*
X020660Y006054D03*
X020660Y005306D03*
X021660Y005306D03*
X019660Y005306D03*
X019660Y006054D03*
X031160Y006054D03*
X031160Y005306D03*
X040410Y005554D03*
X040410Y004806D03*
X041410Y004806D03*
X041410Y005554D03*
X042410Y005554D03*
X042410Y004806D03*
X043410Y004806D03*
X043410Y005554D03*
X044410Y005554D03*
X045410Y005554D03*
X045410Y004806D03*
X044410Y004806D03*
D27*
X050562Y002149D03*
X050562Y029708D03*
X015129Y029708D03*
X015129Y002149D03*
M02*
