G75*
%MOIN*%
%OFA0B0*%
%FSLAX24Y24*%
%IPPOS*%
%LPD*%
%AMOC8*
5,1,8,0,0,1.08239X$1,22.5*
%
%ADD10C,0.0120*%
%ADD11C,0.0160*%
%ADD12C,0.0060*%
%ADD13C,0.0240*%
%ADD14C,0.0300*%
%ADD15C,0.0200*%
%ADD16C,0.0140*%
%ADD17C,0.0110*%
%ADD18C,0.0050*%
%ADD19C,0.0070*%
%ADD20C,0.0020*%
%ADD21C,0.0040*%
%ADD22R,0.0350X0.0500*%
%ADD23C,0.0000*%
%ADD24C,0.0100*%
%ADD25R,0.0200X0.0736*%
%ADD26R,0.0250X0.0335*%
%ADD27R,0.0240X0.0340*%
%ADD28R,0.0340X0.0240*%
%ADD29R,0.0200X0.0200*%
D10*
X013160Y000180D02*
X052530Y000180D01*
X052530Y031676D01*
X013160Y031676D01*
D11*
X013160Y000180D01*
X033460Y010680D02*
X035860Y010680D01*
X035922Y010682D01*
X035983Y010688D01*
X036044Y010697D01*
X036104Y010710D01*
X036163Y010727D01*
X036221Y010748D01*
X036278Y010772D01*
X036333Y010799D01*
X036386Y010830D01*
X036438Y010864D01*
X036487Y010901D01*
X036534Y010941D01*
X036578Y010984D01*
X036619Y011029D01*
X036658Y011077D01*
X036694Y011128D01*
X036726Y011180D01*
X036755Y011234D01*
X036781Y011290D01*
X036803Y011348D01*
X036822Y011406D01*
X036837Y011466D01*
X036848Y011527D01*
X036856Y011588D01*
X036860Y011649D01*
X036860Y011711D01*
X036856Y011772D01*
X036848Y011833D01*
X036837Y011894D01*
X036822Y011954D01*
X036803Y012012D01*
X036781Y012070D01*
X036755Y012126D01*
X036726Y012180D01*
X036694Y012232D01*
X036658Y012283D01*
X036619Y012331D01*
X036578Y012376D01*
X036534Y012419D01*
X036487Y012459D01*
X036438Y012496D01*
X036386Y012530D01*
X036333Y012561D01*
X036278Y012588D01*
X036221Y012612D01*
X036163Y012633D01*
X036104Y012650D01*
X036044Y012663D01*
X035983Y012672D01*
X035922Y012678D01*
X035860Y012680D01*
X033460Y012680D01*
X033398Y012678D01*
X033337Y012672D01*
X033276Y012663D01*
X033216Y012650D01*
X033157Y012633D01*
X033099Y012612D01*
X033042Y012588D01*
X032987Y012561D01*
X032934Y012530D01*
X032882Y012496D01*
X032833Y012459D01*
X032786Y012419D01*
X032742Y012376D01*
X032701Y012331D01*
X032662Y012283D01*
X032626Y012232D01*
X032594Y012180D01*
X032565Y012126D01*
X032539Y012070D01*
X032517Y012012D01*
X032498Y011954D01*
X032483Y011894D01*
X032472Y011833D01*
X032464Y011772D01*
X032460Y011711D01*
X032460Y011649D01*
X032464Y011588D01*
X032472Y011527D01*
X032483Y011466D01*
X032498Y011406D01*
X032517Y011348D01*
X032539Y011290D01*
X032565Y011234D01*
X032594Y011180D01*
X032626Y011128D01*
X032662Y011077D01*
X032701Y011029D01*
X032742Y010984D01*
X032786Y010941D01*
X032833Y010901D01*
X032882Y010864D01*
X032934Y010830D01*
X032987Y010799D01*
X033042Y010772D01*
X033099Y010748D01*
X033157Y010727D01*
X033216Y010710D01*
X033276Y010697D01*
X033337Y010688D01*
X033398Y010682D01*
X033460Y010680D01*
D12*
X033460Y010880D02*
X035860Y010880D01*
X034930Y011280D02*
X034930Y011680D01*
X034930Y012080D01*
X034790Y012080D02*
X034790Y011280D01*
X034540Y011280D01*
X034540Y012080D01*
X034790Y012080D01*
X034390Y012080D02*
X034390Y011680D01*
X034110Y011680D01*
X034390Y011680D02*
X034390Y011280D01*
X034930Y011680D02*
X035210Y011680D01*
X035860Y010880D02*
X035916Y010882D01*
X035971Y010888D01*
X036026Y010897D01*
X036081Y010911D01*
X036134Y010928D01*
X036185Y010949D01*
X036236Y010974D01*
X036284Y011002D01*
X036330Y011033D01*
X036374Y011067D01*
X036416Y011105D01*
X036455Y011145D01*
X036490Y011187D01*
X036523Y011233D01*
X036553Y011280D01*
X036579Y011329D01*
X036602Y011380D01*
X036621Y011433D01*
X036636Y011486D01*
X036648Y011541D01*
X036656Y011596D01*
X036660Y011652D01*
X036660Y011708D01*
X036656Y011764D01*
X036648Y011819D01*
X036636Y011874D01*
X036621Y011927D01*
X036602Y011980D01*
X036579Y012031D01*
X036553Y012080D01*
X036523Y012127D01*
X036490Y012173D01*
X036455Y012215D01*
X036416Y012255D01*
X036374Y012293D01*
X036330Y012327D01*
X036284Y012358D01*
X036236Y012386D01*
X036185Y012411D01*
X036134Y012432D01*
X036081Y012449D01*
X036026Y012463D01*
X035971Y012472D01*
X035916Y012478D01*
X035860Y012480D01*
X033460Y012480D01*
X033404Y012478D01*
X033349Y012472D01*
X033294Y012463D01*
X033239Y012449D01*
X033186Y012432D01*
X033135Y012411D01*
X033084Y012386D01*
X033036Y012358D01*
X032990Y012327D01*
X032946Y012293D01*
X032904Y012255D01*
X032865Y012215D01*
X032830Y012173D01*
X032797Y012127D01*
X032767Y012080D01*
X032741Y012031D01*
X032718Y011980D01*
X032699Y011927D01*
X032684Y011874D01*
X032672Y011819D01*
X032664Y011764D01*
X032660Y011708D01*
X032660Y011652D01*
X032664Y011596D01*
X032672Y011541D01*
X032684Y011486D01*
X032699Y011433D01*
X032718Y011380D01*
X032741Y011329D01*
X032767Y011280D01*
X032797Y011233D01*
X032830Y011187D01*
X032865Y011145D01*
X032904Y011105D01*
X032946Y011067D01*
X032990Y011033D01*
X033036Y011002D01*
X033084Y010974D01*
X033135Y010949D01*
X033186Y010928D01*
X033239Y010911D01*
X033294Y010897D01*
X033349Y010888D01*
X033404Y010882D01*
X033460Y010880D01*
X034510Y012980D02*
X035310Y012980D01*
X035327Y012982D01*
X035344Y012986D01*
X035360Y012993D01*
X035374Y013003D01*
X035387Y013016D01*
X035397Y013030D01*
X035404Y013046D01*
X035408Y013063D01*
X035410Y013080D01*
X035410Y014780D01*
X035408Y014797D01*
X035404Y014814D01*
X035397Y014830D01*
X035387Y014844D01*
X035374Y014857D01*
X035360Y014867D01*
X035344Y014874D01*
X035327Y014878D01*
X035310Y014880D01*
X034510Y014880D01*
X034493Y014878D01*
X034476Y014874D01*
X034460Y014867D01*
X034446Y014857D01*
X034433Y014844D01*
X034423Y014830D01*
X034416Y014814D01*
X034412Y014797D01*
X034410Y014780D01*
X034410Y013080D01*
X034412Y013063D01*
X034416Y013046D01*
X034423Y013030D01*
X034433Y013016D01*
X034446Y013003D01*
X034460Y012993D01*
X034476Y012986D01*
X034493Y012982D01*
X034510Y012980D01*
X034910Y013780D02*
X034910Y013830D01*
X034910Y014030D02*
X034910Y014080D01*
X035660Y014780D02*
X035660Y013080D01*
X035662Y013063D01*
X035666Y013046D01*
X035673Y013030D01*
X035683Y013016D01*
X035696Y013003D01*
X035710Y012993D01*
X035726Y012986D01*
X035743Y012982D01*
X035760Y012980D01*
X036560Y012980D01*
X036577Y012982D01*
X036594Y012986D01*
X036610Y012993D01*
X036624Y013003D01*
X036637Y013016D01*
X036647Y013030D01*
X036654Y013046D01*
X036658Y013063D01*
X036660Y013080D01*
X036660Y014780D01*
X036658Y014797D01*
X036654Y014814D01*
X036647Y014830D01*
X036637Y014844D01*
X036624Y014857D01*
X036610Y014867D01*
X036594Y014874D01*
X036577Y014878D01*
X036560Y014880D01*
X035760Y014880D01*
X035760Y014980D02*
X036560Y014980D01*
X036577Y014982D01*
X036594Y014986D01*
X036610Y014993D01*
X036624Y015003D01*
X036637Y015016D01*
X036647Y015030D01*
X036654Y015046D01*
X036658Y015063D01*
X036660Y015080D01*
X036660Y016780D01*
X036658Y016797D01*
X036654Y016814D01*
X036647Y016830D01*
X036637Y016844D01*
X036624Y016857D01*
X036610Y016867D01*
X036594Y016874D01*
X036577Y016878D01*
X036560Y016880D01*
X035760Y016880D01*
X035743Y016878D01*
X035726Y016874D01*
X035710Y016867D01*
X035696Y016857D01*
X035683Y016844D01*
X035673Y016830D01*
X035666Y016814D01*
X035662Y016797D01*
X035660Y016780D01*
X035660Y015080D01*
X035662Y015063D01*
X035666Y015046D01*
X035673Y015030D01*
X035683Y015016D01*
X035696Y015003D01*
X035710Y014993D01*
X035726Y014986D01*
X035743Y014982D01*
X035760Y014980D01*
X035760Y014880D02*
X035743Y014878D01*
X035726Y014874D01*
X035710Y014867D01*
X035696Y014857D01*
X035683Y014844D01*
X035673Y014830D01*
X035666Y014814D01*
X035662Y014797D01*
X035660Y014780D01*
X036160Y014080D02*
X036160Y014030D01*
X036160Y013830D02*
X036160Y013780D01*
X036160Y015780D02*
X036160Y015830D01*
X036160Y016030D02*
X036160Y016080D01*
X031610Y016030D02*
X031610Y016180D01*
X031560Y016230D01*
X031560Y018130D01*
X031610Y018180D01*
X031610Y018330D01*
X031608Y018347D01*
X031604Y018364D01*
X031597Y018380D01*
X031587Y018394D01*
X031574Y018407D01*
X031560Y018417D01*
X031544Y018424D01*
X031527Y018428D01*
X031510Y018430D01*
X030810Y018430D01*
X030793Y018428D01*
X030776Y018424D01*
X030760Y018417D01*
X030746Y018407D01*
X030733Y018394D01*
X030723Y018380D01*
X030716Y018364D01*
X030712Y018347D01*
X030710Y018330D01*
X030710Y018180D01*
X030760Y018130D01*
X030760Y016230D01*
X030710Y016180D01*
X030710Y016030D01*
X030712Y016013D01*
X030716Y015996D01*
X030723Y015980D01*
X030733Y015966D01*
X030746Y015953D01*
X030760Y015943D01*
X030776Y015936D01*
X030793Y015932D01*
X030810Y015930D01*
X031510Y015930D01*
X031527Y015932D01*
X031544Y015936D01*
X031560Y015943D01*
X031574Y015953D01*
X031587Y015966D01*
X031597Y015980D01*
X031604Y015996D01*
X031608Y016013D01*
X031610Y016030D01*
X030110Y016030D02*
X030110Y016180D01*
X030060Y016230D01*
X030060Y018130D01*
X030110Y018180D01*
X030110Y018330D01*
X030108Y018347D01*
X030104Y018364D01*
X030097Y018380D01*
X030087Y018394D01*
X030074Y018407D01*
X030060Y018417D01*
X030044Y018424D01*
X030027Y018428D01*
X030010Y018430D01*
X029310Y018430D01*
X029293Y018428D01*
X029276Y018424D01*
X029260Y018417D01*
X029246Y018407D01*
X029233Y018394D01*
X029223Y018380D01*
X029216Y018364D01*
X029212Y018347D01*
X029210Y018330D01*
X029210Y018180D01*
X029260Y018130D01*
X029260Y016230D01*
X029210Y016180D01*
X029210Y016030D01*
X029212Y016013D01*
X029216Y015996D01*
X029223Y015980D01*
X029233Y015966D01*
X029246Y015953D01*
X029260Y015943D01*
X029276Y015936D01*
X029293Y015932D01*
X029310Y015930D01*
X030010Y015930D01*
X030027Y015932D01*
X030044Y015936D01*
X030060Y015943D01*
X030074Y015953D01*
X030087Y015966D01*
X030097Y015980D01*
X030104Y015996D01*
X030108Y016013D01*
X030110Y016030D01*
X027560Y018430D02*
X026810Y018430D01*
X026808Y018391D01*
X026802Y018352D01*
X026793Y018314D01*
X026780Y018277D01*
X026763Y018241D01*
X026743Y018208D01*
X026719Y018176D01*
X026693Y018147D01*
X026664Y018121D01*
X026632Y018097D01*
X026599Y018077D01*
X026563Y018060D01*
X026526Y018047D01*
X026488Y018038D01*
X026449Y018032D01*
X026410Y018030D01*
X026371Y018032D01*
X026332Y018038D01*
X026294Y018047D01*
X026257Y018060D01*
X026221Y018077D01*
X026188Y018097D01*
X026156Y018121D01*
X026127Y018147D01*
X026101Y018176D01*
X026077Y018208D01*
X026057Y018241D01*
X026040Y018277D01*
X026027Y018314D01*
X026018Y018352D01*
X026012Y018391D01*
X026010Y018430D01*
X025260Y018430D01*
X025260Y011430D01*
X027560Y011430D01*
X027560Y018430D01*
X027260Y019180D02*
X025560Y019180D01*
X025543Y019182D01*
X025526Y019186D01*
X025510Y019193D01*
X025496Y019203D01*
X025483Y019216D01*
X025473Y019230D01*
X025466Y019246D01*
X025462Y019263D01*
X025460Y019280D01*
X025460Y020080D01*
X025462Y020097D01*
X025466Y020114D01*
X025473Y020130D01*
X025483Y020144D01*
X025496Y020157D01*
X025510Y020167D01*
X025526Y020174D01*
X025543Y020178D01*
X025560Y020180D01*
X027260Y020180D01*
X027277Y020178D01*
X027294Y020174D01*
X027310Y020167D01*
X027324Y020157D01*
X027337Y020144D01*
X027347Y020130D01*
X027354Y020114D01*
X027358Y020097D01*
X027360Y020080D01*
X027360Y019280D01*
X027358Y019263D01*
X027354Y019246D01*
X027347Y019230D01*
X027337Y019216D01*
X027324Y019203D01*
X027310Y019193D01*
X027294Y019186D01*
X027277Y019182D01*
X027260Y019180D01*
X026560Y019680D02*
X026510Y019680D01*
X026310Y019680D02*
X026260Y019680D01*
X023860Y018830D02*
X023860Y018680D01*
X023810Y018630D01*
X023810Y016730D01*
X023860Y016680D01*
X023860Y016530D01*
X023858Y016513D01*
X023854Y016496D01*
X023847Y016480D01*
X023837Y016466D01*
X023824Y016453D01*
X023810Y016443D01*
X023794Y016436D01*
X023777Y016432D01*
X023760Y016430D01*
X023060Y016430D01*
X023043Y016432D01*
X023026Y016436D01*
X023010Y016443D01*
X022996Y016453D01*
X022983Y016466D01*
X022973Y016480D01*
X022966Y016496D01*
X022962Y016513D01*
X022960Y016530D01*
X022960Y016680D01*
X023010Y016730D01*
X023010Y018630D01*
X022960Y018680D01*
X022960Y018830D01*
X022962Y018847D01*
X022966Y018864D01*
X022973Y018880D01*
X022983Y018894D01*
X022996Y018907D01*
X023010Y018917D01*
X023026Y018924D01*
X023043Y018928D01*
X023060Y018930D01*
X023760Y018930D01*
X023777Y018928D01*
X023794Y018924D01*
X023810Y018917D01*
X023824Y018907D01*
X023837Y018894D01*
X023847Y018880D01*
X023854Y018864D01*
X023858Y018847D01*
X023860Y018830D01*
X019160Y017580D02*
X019115Y017582D01*
X019069Y017587D01*
X019025Y017595D01*
X018981Y017607D01*
X018938Y017623D01*
X018896Y017641D01*
X018856Y017663D01*
X018818Y017687D01*
X018782Y017714D01*
X018747Y017744D01*
X018716Y017777D01*
X018686Y017812D01*
X019160Y018780D02*
X019207Y018778D01*
X019255Y018772D01*
X019301Y018763D01*
X019347Y018750D01*
X019391Y018734D01*
X019435Y018713D01*
X019476Y018690D01*
X019515Y018664D01*
X019552Y018634D01*
X019587Y018601D01*
X019619Y018566D01*
X019648Y018529D01*
X019160Y018780D02*
X019114Y018778D01*
X019068Y018773D01*
X019022Y018764D01*
X018977Y018752D01*
X018934Y018736D01*
X018892Y018717D01*
X018851Y018694D01*
X018812Y018669D01*
X018776Y018641D01*
X018741Y018610D01*
X018709Y018576D01*
X018680Y018540D01*
X019160Y017580D02*
X019205Y017582D01*
X019251Y017587D01*
X019295Y017595D01*
X019339Y017607D01*
X019382Y017623D01*
X019424Y017641D01*
X019464Y017663D01*
X019502Y017687D01*
X019538Y017714D01*
X019573Y017744D01*
X019604Y017777D01*
X019634Y017812D01*
X018686Y015312D02*
X018716Y015277D01*
X018747Y015244D01*
X018782Y015214D01*
X018818Y015187D01*
X018856Y015163D01*
X018896Y015141D01*
X018938Y015123D01*
X018981Y015107D01*
X019025Y015095D01*
X019069Y015087D01*
X019115Y015082D01*
X019160Y015080D01*
X018680Y016040D02*
X018709Y016076D01*
X018741Y016110D01*
X018776Y016141D01*
X018812Y016169D01*
X018851Y016194D01*
X018892Y016217D01*
X018934Y016236D01*
X018977Y016252D01*
X019022Y016264D01*
X019068Y016273D01*
X019114Y016278D01*
X019160Y016280D01*
X019634Y015312D02*
X019604Y015277D01*
X019573Y015244D01*
X019538Y015214D01*
X019502Y015187D01*
X019464Y015163D01*
X019424Y015141D01*
X019382Y015123D01*
X019339Y015107D01*
X019295Y015095D01*
X019251Y015087D01*
X019205Y015082D01*
X019160Y015080D01*
X019648Y016029D02*
X019619Y016066D01*
X019587Y016101D01*
X019552Y016134D01*
X019515Y016164D01*
X019476Y016190D01*
X019435Y016213D01*
X019391Y016234D01*
X019347Y016250D01*
X019301Y016263D01*
X019255Y016272D01*
X019207Y016278D01*
X019160Y016280D01*
X020510Y013380D02*
X020660Y013380D01*
X020710Y013330D01*
X022610Y013330D01*
X022660Y013380D01*
X022810Y013380D01*
X022827Y013378D01*
X022844Y013374D01*
X022860Y013367D01*
X022874Y013357D01*
X022887Y013344D01*
X022897Y013330D01*
X022904Y013314D01*
X022908Y013297D01*
X022910Y013280D01*
X022910Y012580D01*
X022908Y012563D01*
X022904Y012546D01*
X022897Y012530D01*
X022887Y012516D01*
X022874Y012503D01*
X022860Y012493D01*
X022844Y012486D01*
X022827Y012482D01*
X022810Y012480D01*
X022660Y012480D01*
X022610Y012530D01*
X020710Y012530D01*
X020660Y012480D01*
X020510Y012480D01*
X020493Y012482D01*
X020476Y012486D01*
X020460Y012493D01*
X020446Y012503D01*
X020433Y012516D01*
X020423Y012530D01*
X020416Y012546D01*
X020412Y012563D01*
X020410Y012580D01*
X020410Y013280D01*
X020412Y013297D01*
X020416Y013314D01*
X020423Y013330D01*
X020433Y013344D01*
X020446Y013357D01*
X020460Y013367D01*
X020476Y013374D01*
X020493Y013378D01*
X020510Y013380D01*
X018680Y021040D02*
X018709Y021076D01*
X018741Y021110D01*
X018776Y021141D01*
X018812Y021169D01*
X018851Y021194D01*
X018892Y021217D01*
X018934Y021236D01*
X018977Y021252D01*
X019022Y021264D01*
X019068Y021273D01*
X019114Y021278D01*
X019160Y021280D01*
X018686Y020312D02*
X018716Y020277D01*
X018747Y020244D01*
X018782Y020214D01*
X018818Y020187D01*
X018856Y020163D01*
X018896Y020141D01*
X018938Y020123D01*
X018981Y020107D01*
X019025Y020095D01*
X019069Y020087D01*
X019115Y020082D01*
X019160Y020080D01*
X019648Y021029D02*
X019619Y021066D01*
X019587Y021101D01*
X019552Y021134D01*
X019515Y021164D01*
X019476Y021190D01*
X019435Y021213D01*
X019391Y021234D01*
X019347Y021250D01*
X019301Y021263D01*
X019255Y021272D01*
X019207Y021278D01*
X019160Y021280D01*
X019634Y020312D02*
X019604Y020277D01*
X019573Y020244D01*
X019538Y020214D01*
X019502Y020187D01*
X019464Y020163D01*
X019424Y020141D01*
X019382Y020123D01*
X019339Y020107D01*
X019295Y020095D01*
X019251Y020087D01*
X019205Y020082D01*
X019160Y020080D01*
X018680Y023540D02*
X018709Y023576D01*
X018741Y023610D01*
X018776Y023641D01*
X018812Y023669D01*
X018851Y023694D01*
X018892Y023717D01*
X018934Y023736D01*
X018977Y023752D01*
X019022Y023764D01*
X019068Y023773D01*
X019114Y023778D01*
X019160Y023780D01*
X018686Y022812D02*
X018716Y022777D01*
X018747Y022744D01*
X018782Y022714D01*
X018818Y022687D01*
X018856Y022663D01*
X018896Y022641D01*
X018938Y022623D01*
X018981Y022607D01*
X019025Y022595D01*
X019069Y022587D01*
X019115Y022582D01*
X019160Y022580D01*
X019648Y023529D02*
X019619Y023566D01*
X019587Y023601D01*
X019552Y023634D01*
X019515Y023664D01*
X019476Y023690D01*
X019435Y023713D01*
X019391Y023734D01*
X019347Y023750D01*
X019301Y023763D01*
X019255Y023772D01*
X019207Y023778D01*
X019160Y023780D01*
X019634Y022812D02*
X019604Y022777D01*
X019573Y022744D01*
X019538Y022714D01*
X019502Y022687D01*
X019464Y022663D01*
X019424Y022641D01*
X019382Y022623D01*
X019339Y022607D01*
X019295Y022595D01*
X019251Y022587D01*
X019205Y022582D01*
X019160Y022580D01*
X018910Y024730D02*
X018960Y024780D01*
X020860Y024780D01*
X020910Y024730D01*
X021060Y024730D01*
X021077Y024732D01*
X021094Y024736D01*
X021110Y024743D01*
X021124Y024753D01*
X021137Y024766D01*
X021147Y024780D01*
X021154Y024796D01*
X021158Y024813D01*
X021160Y024830D01*
X021160Y025530D01*
X021158Y025547D01*
X021154Y025564D01*
X021147Y025580D01*
X021137Y025594D01*
X021124Y025607D01*
X021110Y025617D01*
X021094Y025624D01*
X021077Y025628D01*
X021060Y025630D01*
X020910Y025630D01*
X020860Y025580D01*
X018960Y025580D01*
X018910Y025630D01*
X018760Y025630D01*
X018743Y025628D01*
X018726Y025624D01*
X018710Y025617D01*
X018696Y025607D01*
X018683Y025594D01*
X018673Y025580D01*
X018666Y025564D01*
X018662Y025547D01*
X018660Y025530D01*
X018660Y024830D01*
X018662Y024813D01*
X018666Y024796D01*
X018673Y024780D01*
X018683Y024766D01*
X018696Y024753D01*
X018710Y024743D01*
X018726Y024736D01*
X018743Y024732D01*
X018760Y024730D01*
X018910Y024730D01*
X019160Y025930D02*
X019660Y025930D01*
X019910Y026180D01*
X020160Y025930D01*
X020660Y025930D01*
X020910Y026180D01*
X020910Y026680D01*
X020660Y026930D01*
X020160Y026930D01*
X019910Y026680D01*
X019910Y026180D01*
X019910Y026680D02*
X019660Y026930D01*
X019160Y026930D01*
X018910Y026680D01*
X018910Y026180D01*
X019160Y025930D01*
X019060Y027980D02*
X019410Y027980D01*
X020410Y027980D01*
X020760Y027980D01*
X021110Y028780D02*
X021110Y028880D01*
X021210Y028880D01*
X021210Y029480D01*
X021110Y029480D01*
X021110Y029580D01*
X020760Y030380D02*
X020410Y030380D01*
X019460Y030380D01*
X019060Y030380D01*
X018710Y029580D02*
X018710Y029480D01*
X018610Y029480D01*
X018610Y028880D01*
X018710Y028880D01*
X018710Y028780D01*
X019810Y029180D02*
X019812Y029200D01*
X019818Y029218D01*
X019827Y029236D01*
X019839Y029251D01*
X019854Y029263D01*
X019872Y029272D01*
X019890Y029278D01*
X019910Y029280D01*
X019930Y029278D01*
X019948Y029272D01*
X019966Y029263D01*
X019981Y029251D01*
X019993Y029236D01*
X020002Y029218D01*
X020008Y029200D01*
X020010Y029180D01*
X020008Y029160D01*
X020002Y029142D01*
X019993Y029124D01*
X019981Y029109D01*
X019966Y029097D01*
X019948Y029088D01*
X019930Y029082D01*
X019910Y029080D01*
X019890Y029082D01*
X019872Y029088D01*
X019854Y029097D01*
X019839Y029109D01*
X019827Y029124D01*
X019818Y029142D01*
X019812Y029160D01*
X019810Y029180D01*
X019210Y029180D02*
X019212Y029232D01*
X019218Y029284D01*
X019228Y029336D01*
X019241Y029386D01*
X019258Y029436D01*
X019279Y029484D01*
X019304Y029530D01*
X019332Y029574D01*
X019363Y029616D01*
X019397Y029656D01*
X019434Y029693D01*
X019474Y029727D01*
X019516Y029758D01*
X019560Y029786D01*
X019606Y029811D01*
X019654Y029832D01*
X019704Y029849D01*
X019754Y029862D01*
X019806Y029872D01*
X019858Y029878D01*
X019910Y029880D01*
X019962Y029878D01*
X020014Y029872D01*
X020066Y029862D01*
X020116Y029849D01*
X020166Y029832D01*
X020214Y029811D01*
X020260Y029786D01*
X020304Y029758D01*
X020346Y029727D01*
X020386Y029693D01*
X020423Y029656D01*
X020457Y029616D01*
X020488Y029574D01*
X020516Y029530D01*
X020541Y029484D01*
X020562Y029436D01*
X020579Y029386D01*
X020592Y029336D01*
X020602Y029284D01*
X020608Y029232D01*
X020610Y029180D01*
X020608Y029128D01*
X020602Y029076D01*
X020592Y029024D01*
X020579Y028974D01*
X020562Y028924D01*
X020541Y028876D01*
X020516Y028830D01*
X020488Y028786D01*
X020457Y028744D01*
X020423Y028704D01*
X020386Y028667D01*
X020346Y028633D01*
X020304Y028602D01*
X020260Y028574D01*
X020214Y028549D01*
X020166Y028528D01*
X020116Y028511D01*
X020066Y028498D01*
X020014Y028488D01*
X019962Y028482D01*
X019910Y028480D01*
X019858Y028482D01*
X019806Y028488D01*
X019754Y028498D01*
X019704Y028511D01*
X019654Y028528D01*
X019606Y028549D01*
X019560Y028574D01*
X019516Y028602D01*
X019474Y028633D01*
X019434Y028667D01*
X019397Y028704D01*
X019363Y028744D01*
X019332Y028786D01*
X019304Y028830D01*
X019279Y028876D01*
X019258Y028924D01*
X019241Y028974D01*
X019228Y029024D01*
X019218Y029076D01*
X019212Y029128D01*
X019210Y029180D01*
X022460Y028330D02*
X022460Y028180D01*
X022510Y028130D01*
X022510Y026230D01*
X022460Y026180D01*
X022460Y026030D01*
X022462Y026013D01*
X022466Y025996D01*
X022473Y025980D01*
X022483Y025966D01*
X022496Y025953D01*
X022510Y025943D01*
X022526Y025936D01*
X022543Y025932D01*
X022560Y025930D01*
X023260Y025930D01*
X023277Y025932D01*
X023294Y025936D01*
X023310Y025943D01*
X023324Y025953D01*
X023337Y025966D01*
X023347Y025980D01*
X023354Y025996D01*
X023358Y026013D01*
X023360Y026030D01*
X023360Y026180D01*
X023310Y026230D01*
X023310Y028130D01*
X023360Y028180D01*
X023360Y028330D01*
X023358Y028347D01*
X023354Y028364D01*
X023347Y028380D01*
X023337Y028394D01*
X023324Y028407D01*
X023310Y028417D01*
X023294Y028424D01*
X023277Y028428D01*
X023260Y028430D01*
X022560Y028430D01*
X022543Y028428D01*
X022526Y028424D01*
X022510Y028417D01*
X022496Y028407D01*
X022483Y028394D01*
X022473Y028380D01*
X022466Y028364D01*
X022462Y028347D01*
X022460Y028330D01*
X024860Y028880D02*
X024960Y028880D01*
X024960Y028780D01*
X024860Y028880D02*
X024860Y029480D01*
X024960Y029480D01*
X024960Y029580D01*
X025310Y030380D02*
X025710Y030380D01*
X026660Y030380D01*
X027010Y030380D01*
X027360Y029580D02*
X027360Y029480D01*
X027460Y029480D01*
X027460Y028880D01*
X027360Y028880D01*
X027360Y028780D01*
X027010Y027980D02*
X026660Y027980D01*
X025660Y027980D01*
X025310Y027980D01*
X025410Y026930D02*
X025160Y026680D01*
X025160Y026180D01*
X025410Y025930D01*
X025910Y025930D01*
X026160Y026180D01*
X026410Y025930D01*
X026910Y025930D01*
X027160Y026180D01*
X027160Y026680D01*
X026910Y026930D01*
X026410Y026930D01*
X026160Y026680D01*
X026160Y026180D01*
X026160Y026680D02*
X025910Y026930D01*
X025410Y026930D01*
X025160Y025630D02*
X025210Y025580D01*
X027110Y025580D01*
X027160Y025630D01*
X027310Y025630D01*
X027327Y025628D01*
X027344Y025624D01*
X027360Y025617D01*
X027374Y025607D01*
X027387Y025594D01*
X027397Y025580D01*
X027404Y025564D01*
X027408Y025547D01*
X027410Y025530D01*
X027410Y024830D01*
X027408Y024813D01*
X027404Y024796D01*
X027397Y024780D01*
X027387Y024766D01*
X027374Y024753D01*
X027360Y024743D01*
X027344Y024736D01*
X027327Y024732D01*
X027310Y024730D01*
X027160Y024730D01*
X027110Y024780D01*
X025210Y024780D01*
X025160Y024730D01*
X025010Y024730D01*
X024993Y024732D01*
X024976Y024736D01*
X024960Y024743D01*
X024946Y024753D01*
X024933Y024766D01*
X024923Y024780D01*
X024916Y024796D01*
X024912Y024813D01*
X024910Y024830D01*
X024910Y025530D01*
X024912Y025547D01*
X024916Y025564D01*
X024923Y025580D01*
X024933Y025594D01*
X024946Y025607D01*
X024960Y025617D01*
X024976Y025624D01*
X024993Y025628D01*
X025010Y025630D01*
X025160Y025630D01*
X024260Y024680D02*
X022560Y024680D01*
X022543Y024678D01*
X022526Y024674D01*
X022510Y024667D01*
X022496Y024657D01*
X022483Y024644D01*
X022473Y024630D01*
X022466Y024614D01*
X022462Y024597D01*
X022460Y024580D01*
X022460Y023780D01*
X022462Y023763D01*
X022466Y023746D01*
X022473Y023730D01*
X022483Y023716D01*
X022496Y023703D01*
X022510Y023693D01*
X022526Y023686D01*
X022543Y023682D01*
X022560Y023680D01*
X024260Y023680D01*
X024277Y023682D01*
X024294Y023686D01*
X024310Y023693D01*
X024324Y023703D01*
X024337Y023716D01*
X024347Y023730D01*
X024354Y023746D01*
X024358Y023763D01*
X024360Y023780D01*
X024360Y024580D01*
X024358Y024597D01*
X024354Y024614D01*
X024347Y024630D01*
X024337Y024644D01*
X024324Y024657D01*
X024310Y024667D01*
X024294Y024674D01*
X024277Y024678D01*
X024260Y024680D01*
X023560Y024180D02*
X023510Y024180D01*
X023310Y024180D02*
X023260Y024180D01*
X027710Y023780D02*
X027710Y024580D01*
X027712Y024597D01*
X027716Y024614D01*
X027723Y024630D01*
X027733Y024644D01*
X027746Y024657D01*
X027760Y024667D01*
X027776Y024674D01*
X027793Y024678D01*
X027810Y024680D01*
X029510Y024680D01*
X029527Y024678D01*
X029544Y024674D01*
X029560Y024667D01*
X029574Y024657D01*
X029587Y024644D01*
X029597Y024630D01*
X029604Y024614D01*
X029608Y024597D01*
X029610Y024580D01*
X029610Y023780D01*
X029608Y023763D01*
X029604Y023746D01*
X029597Y023730D01*
X029587Y023716D01*
X029574Y023703D01*
X029560Y023693D01*
X029544Y023686D01*
X029527Y023682D01*
X029510Y023680D01*
X027810Y023680D01*
X027793Y023682D01*
X027776Y023686D01*
X027760Y023693D01*
X027746Y023703D01*
X027733Y023716D01*
X027723Y023730D01*
X027716Y023746D01*
X027712Y023763D01*
X027710Y023780D01*
X028510Y024180D02*
X028560Y024180D01*
X028760Y024180D02*
X028810Y024180D01*
X028810Y025930D02*
X029510Y025930D01*
X029527Y025932D01*
X029544Y025936D01*
X029560Y025943D01*
X029574Y025953D01*
X029587Y025966D01*
X029597Y025980D01*
X029604Y025996D01*
X029608Y026013D01*
X029610Y026030D01*
X029610Y026180D01*
X029560Y026230D01*
X029560Y028130D01*
X029610Y028180D01*
X029610Y028330D01*
X029608Y028347D01*
X029604Y028364D01*
X029597Y028380D01*
X029587Y028394D01*
X029574Y028407D01*
X029560Y028417D01*
X029544Y028424D01*
X029527Y028428D01*
X029510Y028430D01*
X028810Y028430D01*
X028793Y028428D01*
X028776Y028424D01*
X028760Y028417D01*
X028746Y028407D01*
X028733Y028394D01*
X028723Y028380D01*
X028716Y028364D01*
X028712Y028347D01*
X028710Y028330D01*
X028710Y028180D01*
X028760Y028130D01*
X028760Y026230D01*
X028710Y026180D01*
X028710Y026030D01*
X028712Y026013D01*
X028716Y025996D01*
X028723Y025980D01*
X028733Y025966D01*
X028746Y025953D01*
X028760Y025943D01*
X028776Y025936D01*
X028793Y025932D01*
X028810Y025930D01*
X031160Y025530D02*
X031160Y024830D01*
X031162Y024813D01*
X031166Y024796D01*
X031173Y024780D01*
X031183Y024766D01*
X031196Y024753D01*
X031210Y024743D01*
X031226Y024736D01*
X031243Y024732D01*
X031260Y024730D01*
X031410Y024730D01*
X031460Y024780D01*
X033360Y024780D01*
X033410Y024730D01*
X033560Y024730D01*
X033577Y024732D01*
X033594Y024736D01*
X033610Y024743D01*
X033624Y024753D01*
X033637Y024766D01*
X033647Y024780D01*
X033654Y024796D01*
X033658Y024813D01*
X033660Y024830D01*
X033660Y025530D01*
X033658Y025547D01*
X033654Y025564D01*
X033647Y025580D01*
X033637Y025594D01*
X033624Y025607D01*
X033610Y025617D01*
X033594Y025624D01*
X033577Y025628D01*
X033560Y025630D01*
X033410Y025630D01*
X033360Y025580D01*
X031460Y025580D01*
X031410Y025630D01*
X031260Y025630D01*
X031243Y025628D01*
X031226Y025624D01*
X031210Y025617D01*
X031196Y025607D01*
X031183Y025594D01*
X031173Y025580D01*
X031166Y025564D01*
X031162Y025547D01*
X031160Y025530D01*
X031660Y025930D02*
X032160Y025930D01*
X032410Y026180D01*
X032660Y025930D01*
X033160Y025930D01*
X033410Y026180D01*
X033410Y026680D01*
X033160Y026930D01*
X032660Y026930D01*
X032410Y026680D01*
X032410Y026180D01*
X032410Y026680D02*
X032160Y026930D01*
X031660Y026930D01*
X031410Y026680D01*
X031410Y026180D01*
X031660Y025930D01*
X031560Y027980D02*
X031910Y027980D01*
X032910Y027980D01*
X033260Y027980D01*
X033610Y028780D02*
X033610Y028880D01*
X033710Y028880D01*
X033710Y029480D01*
X033610Y029480D01*
X033610Y029580D01*
X033260Y030380D02*
X032910Y030380D01*
X031960Y030380D01*
X031560Y030380D01*
X031210Y029580D02*
X031210Y029480D01*
X031110Y029480D01*
X031110Y028880D01*
X031210Y028880D01*
X031210Y028780D01*
X032310Y029180D02*
X032312Y029200D01*
X032318Y029218D01*
X032327Y029236D01*
X032339Y029251D01*
X032354Y029263D01*
X032372Y029272D01*
X032390Y029278D01*
X032410Y029280D01*
X032430Y029278D01*
X032448Y029272D01*
X032466Y029263D01*
X032481Y029251D01*
X032493Y029236D01*
X032502Y029218D01*
X032508Y029200D01*
X032510Y029180D01*
X032508Y029160D01*
X032502Y029142D01*
X032493Y029124D01*
X032481Y029109D01*
X032466Y029097D01*
X032448Y029088D01*
X032430Y029082D01*
X032410Y029080D01*
X032390Y029082D01*
X032372Y029088D01*
X032354Y029097D01*
X032339Y029109D01*
X032327Y029124D01*
X032318Y029142D01*
X032312Y029160D01*
X032310Y029180D01*
X031710Y029180D02*
X031712Y029232D01*
X031718Y029284D01*
X031728Y029336D01*
X031741Y029386D01*
X031758Y029436D01*
X031779Y029484D01*
X031804Y029530D01*
X031832Y029574D01*
X031863Y029616D01*
X031897Y029656D01*
X031934Y029693D01*
X031974Y029727D01*
X032016Y029758D01*
X032060Y029786D01*
X032106Y029811D01*
X032154Y029832D01*
X032204Y029849D01*
X032254Y029862D01*
X032306Y029872D01*
X032358Y029878D01*
X032410Y029880D01*
X032462Y029878D01*
X032514Y029872D01*
X032566Y029862D01*
X032616Y029849D01*
X032666Y029832D01*
X032714Y029811D01*
X032760Y029786D01*
X032804Y029758D01*
X032846Y029727D01*
X032886Y029693D01*
X032923Y029656D01*
X032957Y029616D01*
X032988Y029574D01*
X033016Y029530D01*
X033041Y029484D01*
X033062Y029436D01*
X033079Y029386D01*
X033092Y029336D01*
X033102Y029284D01*
X033108Y029232D01*
X033110Y029180D01*
X033108Y029128D01*
X033102Y029076D01*
X033092Y029024D01*
X033079Y028974D01*
X033062Y028924D01*
X033041Y028876D01*
X033016Y028830D01*
X032988Y028786D01*
X032957Y028744D01*
X032923Y028704D01*
X032886Y028667D01*
X032846Y028633D01*
X032804Y028602D01*
X032760Y028574D01*
X032714Y028549D01*
X032666Y028528D01*
X032616Y028511D01*
X032566Y028498D01*
X032514Y028488D01*
X032462Y028482D01*
X032410Y028480D01*
X032358Y028482D01*
X032306Y028488D01*
X032254Y028498D01*
X032204Y028511D01*
X032154Y028528D01*
X032106Y028549D01*
X032060Y028574D01*
X032016Y028602D01*
X031974Y028633D01*
X031934Y028667D01*
X031897Y028704D01*
X031863Y028744D01*
X031832Y028786D01*
X031804Y028830D01*
X031779Y028876D01*
X031758Y028924D01*
X031741Y028974D01*
X031728Y029024D01*
X031718Y029076D01*
X031712Y029128D01*
X031710Y029180D01*
X034960Y028330D02*
X034960Y028180D01*
X035010Y028130D01*
X035010Y026230D01*
X034960Y026180D01*
X034960Y026030D01*
X034962Y026013D01*
X034966Y025996D01*
X034973Y025980D01*
X034983Y025966D01*
X034996Y025953D01*
X035010Y025943D01*
X035026Y025936D01*
X035043Y025932D01*
X035060Y025930D01*
X035760Y025930D01*
X035777Y025932D01*
X035794Y025936D01*
X035810Y025943D01*
X035824Y025953D01*
X035837Y025966D01*
X035847Y025980D01*
X035854Y025996D01*
X035858Y026013D01*
X035860Y026030D01*
X035860Y026180D01*
X035810Y026230D01*
X035810Y028130D01*
X035860Y028180D01*
X035860Y028330D01*
X035858Y028347D01*
X035854Y028364D01*
X035847Y028380D01*
X035837Y028394D01*
X035824Y028407D01*
X035810Y028417D01*
X035794Y028424D01*
X035777Y028428D01*
X035760Y028430D01*
X035060Y028430D01*
X035043Y028428D01*
X035026Y028424D01*
X035010Y028417D01*
X034996Y028407D01*
X034983Y028394D01*
X034973Y028380D01*
X034966Y028364D01*
X034962Y028347D01*
X034960Y028330D01*
X036446Y028030D02*
X036446Y028970D01*
X036446Y031570D01*
X036446Y031650D01*
X040376Y031650D01*
X040376Y031570D01*
X040376Y028970D01*
X040376Y028030D01*
X036446Y028030D01*
X036446Y028970D02*
X037076Y028970D01*
X037776Y028970D02*
X039046Y028970D01*
X039746Y028970D02*
X040376Y028970D01*
X040480Y027792D02*
X038841Y027792D01*
X038841Y027068D01*
X040480Y027068D01*
X040480Y027792D01*
X039910Y027430D02*
X039660Y027430D01*
X039660Y027680D01*
X039660Y027430D02*
X039660Y027180D01*
X039660Y027430D02*
X039260Y027680D01*
X039260Y027180D01*
X039660Y027430D01*
X039060Y027430D01*
X038210Y026830D02*
X040110Y026830D01*
X040160Y026880D01*
X040310Y026880D01*
X040327Y026878D01*
X040344Y026874D01*
X040360Y026867D01*
X040374Y026857D01*
X040387Y026844D01*
X040397Y026830D01*
X040404Y026814D01*
X040408Y026797D01*
X040410Y026780D01*
X040410Y026080D01*
X040408Y026063D01*
X040404Y026046D01*
X040397Y026030D01*
X040387Y026016D01*
X040374Y026003D01*
X040360Y025993D01*
X040344Y025986D01*
X040327Y025982D01*
X040310Y025980D01*
X040160Y025980D01*
X040110Y026030D01*
X038210Y026030D01*
X038160Y025980D01*
X038010Y025980D01*
X037993Y025982D01*
X037976Y025986D01*
X037960Y025993D01*
X037946Y026003D01*
X037933Y026016D01*
X037923Y026030D01*
X037916Y026046D01*
X037912Y026063D01*
X037910Y026080D01*
X037910Y026780D01*
X037912Y026797D01*
X037916Y026814D01*
X037923Y026830D01*
X037933Y026844D01*
X037946Y026857D01*
X037960Y026867D01*
X037976Y026874D01*
X037993Y026878D01*
X038010Y026880D01*
X038160Y026880D01*
X038210Y026830D01*
X040710Y025330D02*
X040710Y024530D01*
X040712Y024513D01*
X040716Y024496D01*
X040723Y024480D01*
X040733Y024466D01*
X040746Y024453D01*
X040760Y024443D01*
X040776Y024436D01*
X040793Y024432D01*
X040810Y024430D01*
X042510Y024430D01*
X042527Y024432D01*
X042544Y024436D01*
X042560Y024443D01*
X042574Y024453D01*
X042587Y024466D01*
X042597Y024480D01*
X042604Y024496D01*
X042608Y024513D01*
X042610Y024530D01*
X042610Y025330D01*
X042608Y025347D01*
X042604Y025364D01*
X042597Y025380D01*
X042587Y025394D01*
X042574Y025407D01*
X042560Y025417D01*
X042544Y025424D01*
X042527Y025428D01*
X042510Y025430D01*
X040810Y025430D01*
X040793Y025428D01*
X040776Y025424D01*
X040760Y025417D01*
X040746Y025407D01*
X040733Y025394D01*
X040723Y025380D01*
X040716Y025364D01*
X040712Y025347D01*
X040710Y025330D01*
X041510Y024930D02*
X041560Y024930D01*
X041760Y024930D02*
X041810Y024930D01*
X040260Y023230D02*
X040260Y008630D01*
X038060Y008630D01*
X038060Y023230D01*
X038910Y023230D01*
X038912Y023200D01*
X038917Y023170D01*
X038926Y023141D01*
X038939Y023114D01*
X038954Y023088D01*
X038973Y023064D01*
X038994Y023043D01*
X039018Y023024D01*
X039044Y023009D01*
X039071Y022996D01*
X039100Y022987D01*
X039130Y022982D01*
X039160Y022980D01*
X039190Y022982D01*
X039220Y022987D01*
X039249Y022996D01*
X039276Y023009D01*
X039302Y023024D01*
X039326Y023043D01*
X039347Y023064D01*
X039366Y023088D01*
X039381Y023114D01*
X039394Y023141D01*
X039403Y023170D01*
X039408Y023200D01*
X039410Y023230D01*
X040260Y023230D01*
X044160Y025580D02*
X044160Y027280D01*
X044162Y027297D01*
X044166Y027314D01*
X044173Y027330D01*
X044183Y027344D01*
X044196Y027357D01*
X044210Y027367D01*
X044226Y027374D01*
X044243Y027378D01*
X044260Y027380D01*
X045060Y027380D01*
X045077Y027378D01*
X045094Y027374D01*
X045110Y027367D01*
X045124Y027357D01*
X045137Y027344D01*
X045147Y027330D01*
X045154Y027314D01*
X045158Y027297D01*
X045160Y027280D01*
X045160Y025580D01*
X045158Y025563D01*
X045154Y025546D01*
X045147Y025530D01*
X045137Y025516D01*
X045124Y025503D01*
X045110Y025493D01*
X045094Y025486D01*
X045077Y025482D01*
X045060Y025480D01*
X044260Y025480D01*
X044243Y025482D01*
X044226Y025486D01*
X044210Y025493D01*
X044196Y025503D01*
X044183Y025516D01*
X044173Y025530D01*
X044166Y025546D01*
X044162Y025563D01*
X044160Y025580D01*
X044660Y026280D02*
X044660Y026330D01*
X044660Y026530D02*
X044660Y026580D01*
X043946Y028030D02*
X043946Y028970D01*
X043946Y031570D01*
X043946Y031650D01*
X047876Y031650D01*
X047876Y031570D01*
X047876Y028970D01*
X047876Y028030D01*
X043946Y028030D01*
X043946Y028970D02*
X044576Y028970D01*
X045276Y028970D02*
X046546Y028970D01*
X047246Y028970D02*
X047876Y028970D01*
X047110Y026930D02*
X047110Y026730D01*
X047010Y026830D02*
X047210Y026830D01*
X045410Y026430D02*
X045412Y026493D01*
X045418Y026555D01*
X045428Y026617D01*
X045441Y026679D01*
X045459Y026739D01*
X045480Y026798D01*
X045505Y026856D01*
X045534Y026912D01*
X045566Y026966D01*
X045601Y027018D01*
X045639Y027067D01*
X045681Y027115D01*
X045725Y027159D01*
X045773Y027201D01*
X045822Y027239D01*
X045874Y027274D01*
X045928Y027306D01*
X045984Y027335D01*
X046042Y027360D01*
X046101Y027381D01*
X046161Y027399D01*
X046223Y027412D01*
X046285Y027422D01*
X046347Y027428D01*
X046410Y027430D01*
X046473Y027428D01*
X046535Y027422D01*
X046597Y027412D01*
X046659Y027399D01*
X046719Y027381D01*
X046778Y027360D01*
X046836Y027335D01*
X046892Y027306D01*
X046946Y027274D01*
X046998Y027239D01*
X047047Y027201D01*
X047095Y027159D01*
X047139Y027115D01*
X047181Y027067D01*
X047219Y027018D01*
X047254Y026966D01*
X047286Y026912D01*
X047315Y026856D01*
X047340Y026798D01*
X047361Y026739D01*
X047379Y026679D01*
X047392Y026617D01*
X047402Y026555D01*
X047408Y026493D01*
X047410Y026430D01*
X047408Y026367D01*
X047402Y026305D01*
X047392Y026243D01*
X047379Y026181D01*
X047361Y026121D01*
X047340Y026062D01*
X047315Y026004D01*
X047286Y025948D01*
X047254Y025894D01*
X047219Y025842D01*
X047181Y025793D01*
X047139Y025745D01*
X047095Y025701D01*
X047047Y025659D01*
X046998Y025621D01*
X046946Y025586D01*
X046892Y025554D01*
X046836Y025525D01*
X046778Y025500D01*
X046719Y025479D01*
X046659Y025461D01*
X046597Y025448D01*
X046535Y025438D01*
X046473Y025432D01*
X046410Y025430D01*
X046347Y025432D01*
X046285Y025438D01*
X046223Y025448D01*
X046161Y025461D01*
X046101Y025479D01*
X046042Y025500D01*
X045984Y025525D01*
X045928Y025554D01*
X045874Y025586D01*
X045822Y025621D01*
X045773Y025659D01*
X045725Y025701D01*
X045681Y025745D01*
X045639Y025793D01*
X045601Y025842D01*
X045566Y025894D01*
X045534Y025948D01*
X045505Y026004D01*
X045480Y026062D01*
X045459Y026121D01*
X045441Y026181D01*
X045428Y026243D01*
X045418Y026305D01*
X045412Y026367D01*
X045410Y026430D01*
X045598Y024480D02*
X050498Y024480D01*
X050498Y024130D01*
X051098Y024130D01*
X051098Y024480D01*
X051848Y024480D01*
X051848Y020380D01*
X051098Y020380D01*
X051098Y020730D01*
X050498Y020730D01*
X050498Y020380D01*
X045598Y020380D01*
X045598Y024480D01*
X049788Y022430D02*
X049790Y022483D01*
X049796Y022536D01*
X049806Y022588D01*
X049820Y022639D01*
X049837Y022689D01*
X049858Y022738D01*
X049883Y022785D01*
X049911Y022830D01*
X049943Y022873D01*
X049978Y022913D01*
X050015Y022950D01*
X050055Y022985D01*
X050098Y023017D01*
X050143Y023045D01*
X050190Y023070D01*
X050239Y023091D01*
X050289Y023108D01*
X050340Y023122D01*
X050392Y023132D01*
X050445Y023138D01*
X050498Y023140D01*
X050551Y023138D01*
X050604Y023132D01*
X050656Y023122D01*
X050707Y023108D01*
X050757Y023091D01*
X050806Y023070D01*
X050853Y023045D01*
X050898Y023017D01*
X050941Y022985D01*
X050981Y022950D01*
X051018Y022913D01*
X051053Y022873D01*
X051085Y022830D01*
X051113Y022785D01*
X051138Y022738D01*
X051159Y022689D01*
X051176Y022639D01*
X051190Y022588D01*
X051200Y022536D01*
X051206Y022483D01*
X051208Y022430D01*
X051206Y022377D01*
X051200Y022324D01*
X051190Y022272D01*
X051176Y022221D01*
X051159Y022171D01*
X051138Y022122D01*
X051113Y022075D01*
X051085Y022030D01*
X051053Y021987D01*
X051018Y021947D01*
X050981Y021910D01*
X050941Y021875D01*
X050898Y021843D01*
X050853Y021815D01*
X050806Y021790D01*
X050757Y021769D01*
X050707Y021752D01*
X050656Y021738D01*
X050604Y021728D01*
X050551Y021722D01*
X050498Y021720D01*
X050445Y021722D01*
X050392Y021728D01*
X050340Y021738D01*
X050289Y021752D01*
X050239Y021769D01*
X050190Y021790D01*
X050143Y021815D01*
X050098Y021843D01*
X050055Y021875D01*
X050015Y021910D01*
X049978Y021947D01*
X049943Y021987D01*
X049911Y022030D01*
X049883Y022075D01*
X049858Y022122D01*
X049837Y022171D01*
X049820Y022221D01*
X049806Y022272D01*
X049796Y022324D01*
X049790Y022377D01*
X049788Y022430D01*
X043810Y016630D02*
X043010Y016630D01*
X042993Y016628D01*
X042976Y016624D01*
X042960Y016617D01*
X042946Y016607D01*
X042933Y016594D01*
X042923Y016580D01*
X042916Y016564D01*
X042912Y016547D01*
X042910Y016530D01*
X042910Y014830D01*
X042912Y014813D01*
X042916Y014796D01*
X042923Y014780D01*
X042933Y014766D01*
X042946Y014753D01*
X042960Y014743D01*
X042976Y014736D01*
X042993Y014732D01*
X043010Y014730D01*
X043810Y014730D01*
X043827Y014732D01*
X043844Y014736D01*
X043860Y014743D01*
X043874Y014753D01*
X043887Y014766D01*
X043897Y014780D01*
X043904Y014796D01*
X043908Y014813D01*
X043910Y014830D01*
X043910Y016530D01*
X043908Y016547D01*
X043904Y016564D01*
X043897Y016580D01*
X043887Y016594D01*
X043874Y016607D01*
X043860Y016617D01*
X043844Y016624D01*
X043827Y016628D01*
X043810Y016630D01*
X043410Y015830D02*
X043410Y015780D01*
X043410Y015580D02*
X043410Y015530D01*
X042410Y014830D02*
X042410Y016530D01*
X042408Y016547D01*
X042404Y016564D01*
X042397Y016580D01*
X042387Y016594D01*
X042374Y016607D01*
X042360Y016617D01*
X042344Y016624D01*
X042327Y016628D01*
X042310Y016630D01*
X041510Y016630D01*
X041493Y016628D01*
X041476Y016624D01*
X041460Y016617D01*
X041446Y016607D01*
X041433Y016594D01*
X041423Y016580D01*
X041416Y016564D01*
X041412Y016547D01*
X041410Y016530D01*
X041410Y014830D01*
X041412Y014813D01*
X041416Y014796D01*
X041423Y014780D01*
X041433Y014766D01*
X041446Y014753D01*
X041460Y014743D01*
X041476Y014736D01*
X041493Y014732D01*
X041510Y014730D01*
X042310Y014730D01*
X042327Y014732D01*
X042344Y014736D01*
X042360Y014743D01*
X042374Y014753D01*
X042387Y014766D01*
X042397Y014780D01*
X042404Y014796D01*
X042408Y014813D01*
X042410Y014830D01*
X041910Y015530D02*
X041910Y015580D01*
X041910Y015780D02*
X041910Y015830D01*
X043910Y013780D02*
X043910Y013080D01*
X043912Y013063D01*
X043916Y013046D01*
X043923Y013030D01*
X043933Y013016D01*
X043946Y013003D01*
X043960Y012993D01*
X043976Y012986D01*
X043993Y012982D01*
X044010Y012980D01*
X044160Y012980D01*
X044210Y013030D01*
X046110Y013030D01*
X046160Y012980D01*
X046310Y012980D01*
X046327Y012982D01*
X046344Y012986D01*
X046360Y012993D01*
X046374Y013003D01*
X046387Y013016D01*
X046397Y013030D01*
X046404Y013046D01*
X046408Y013063D01*
X046410Y013080D01*
X046410Y013780D01*
X046408Y013797D01*
X046404Y013814D01*
X046397Y013830D01*
X046387Y013844D01*
X046374Y013857D01*
X046360Y013867D01*
X046344Y013874D01*
X046327Y013878D01*
X046310Y013880D01*
X046160Y013880D01*
X046110Y013830D01*
X044210Y013830D01*
X044160Y013880D01*
X044010Y013880D01*
X043993Y013878D01*
X043976Y013874D01*
X043960Y013867D01*
X043946Y013857D01*
X043933Y013844D01*
X043923Y013830D01*
X043916Y013814D01*
X043912Y013797D01*
X043910Y013780D01*
X043410Y011880D02*
X043260Y011880D01*
X043243Y011878D01*
X043226Y011874D01*
X043210Y011867D01*
X043196Y011857D01*
X043183Y011844D01*
X043173Y011830D01*
X043166Y011814D01*
X043162Y011797D01*
X043160Y011780D01*
X043160Y011080D01*
X043162Y011063D01*
X043166Y011046D01*
X043173Y011030D01*
X043183Y011016D01*
X043196Y011003D01*
X043210Y010993D01*
X043226Y010986D01*
X043243Y010982D01*
X043260Y010980D01*
X043410Y010980D01*
X043460Y011030D01*
X045360Y011030D01*
X045410Y010980D01*
X045560Y010980D01*
X045577Y010982D01*
X045594Y010986D01*
X045610Y010993D01*
X045624Y011003D01*
X045637Y011016D01*
X045647Y011030D01*
X045654Y011046D01*
X045658Y011063D01*
X045660Y011080D01*
X045660Y011780D01*
X045658Y011797D01*
X045654Y011814D01*
X045647Y011830D01*
X045637Y011844D01*
X045624Y011857D01*
X045610Y011867D01*
X045594Y011874D01*
X045577Y011878D01*
X045560Y011880D01*
X045410Y011880D01*
X045360Y011830D01*
X043460Y011830D01*
X043410Y011880D01*
X047310Y011680D02*
X047410Y011680D01*
X047410Y009930D01*
X047310Y009930D01*
X047310Y009430D01*
X047410Y009430D01*
X047410Y007680D01*
X047310Y007680D01*
X047310Y007180D01*
X047410Y007180D01*
X047410Y006680D01*
X050910Y006680D01*
X050910Y008180D01*
X050860Y008180D01*
X050860Y008680D01*
X050910Y008680D01*
X050910Y008880D01*
X050510Y008880D01*
X050410Y008880D01*
X050410Y007180D01*
X047910Y007180D01*
X047910Y012180D01*
X050410Y012180D01*
X050410Y010480D01*
X050510Y010480D01*
X050910Y010480D01*
X050910Y008880D01*
X050410Y008880D02*
X050110Y008880D01*
X050110Y010480D01*
X050410Y010480D01*
X050910Y010480D02*
X050910Y012680D01*
X047410Y012680D01*
X047410Y012180D01*
X047310Y012180D01*
X047310Y011680D01*
X051453Y011616D02*
X051453Y011510D01*
X051667Y011296D01*
X051880Y011296D02*
X051453Y011296D01*
X051560Y011079D02*
X051667Y011079D01*
X051667Y010652D01*
X051774Y010652D02*
X051560Y010652D01*
X051453Y010758D01*
X051453Y010972D01*
X051560Y011079D01*
X051880Y010972D02*
X051880Y010758D01*
X051774Y010652D01*
X051880Y010434D02*
X051560Y010434D01*
X051453Y010327D01*
X051560Y010221D01*
X051880Y010221D01*
X051880Y010007D02*
X051453Y010007D01*
X051453Y010114D01*
X051560Y010221D01*
X051560Y009789D02*
X051880Y009789D01*
X051880Y009576D02*
X051560Y009576D01*
X051453Y009683D01*
X051560Y009789D01*
X051560Y009576D02*
X051453Y009469D01*
X051453Y009362D01*
X051880Y009362D01*
X051880Y009145D02*
X051880Y008825D01*
X051774Y008718D01*
X051667Y008825D01*
X051667Y009145D01*
X051560Y009145D02*
X051880Y009145D01*
X051560Y009145D02*
X051453Y009038D01*
X051453Y008825D01*
X051453Y008501D02*
X051453Y008394D01*
X051667Y008181D01*
X051880Y008181D02*
X051453Y008181D01*
X051453Y007963D02*
X051453Y007643D01*
X051560Y007536D01*
X051774Y007536D01*
X051880Y007643D01*
X051880Y007963D01*
X051987Y007963D02*
X051453Y007963D01*
X051987Y007963D02*
X052094Y007856D01*
X052094Y007750D01*
X051774Y007319D02*
X051560Y007319D01*
X051453Y007212D01*
X051453Y006998D01*
X051560Y006892D01*
X051774Y006892D01*
X051880Y006998D01*
X051880Y007212D01*
X051774Y007319D01*
X051453Y006675D02*
X051453Y006568D01*
X051667Y006355D01*
X051880Y006355D02*
X051453Y006355D01*
X051347Y006137D02*
X051240Y006030D01*
X051240Y005710D01*
X051880Y005710D01*
X051667Y005710D02*
X051667Y006030D01*
X051560Y006137D01*
X051347Y006137D01*
X041805Y000887D02*
X041805Y000353D01*
X041698Y000246D01*
X041591Y000246D01*
X041485Y000460D02*
X041805Y000460D01*
X041485Y000460D02*
X041378Y000567D01*
X041378Y000887D01*
X041160Y000780D02*
X041160Y000460D01*
X040840Y000460D01*
X040733Y000567D01*
X040840Y000674D01*
X041160Y000674D01*
X041160Y000780D02*
X041054Y000887D01*
X040840Y000887D01*
X040410Y001101D02*
X040410Y000460D01*
X040304Y000460D02*
X040517Y000460D01*
X040086Y000567D02*
X039979Y000460D01*
X039659Y000460D01*
X039659Y000246D02*
X039659Y000887D01*
X039979Y000887D01*
X040086Y000780D01*
X040086Y000567D01*
X040304Y001101D02*
X040410Y001101D01*
X039442Y000887D02*
X039121Y000887D01*
X039015Y000780D01*
X039121Y000674D01*
X039335Y000674D01*
X039442Y000567D01*
X039335Y000460D01*
X039015Y000460D01*
X038798Y000460D02*
X038585Y000460D01*
X038692Y000460D02*
X038692Y000887D01*
X038585Y000887D01*
X038692Y001101D02*
X038692Y001207D01*
X038367Y000994D02*
X038367Y000567D01*
X038261Y000460D01*
X037940Y000460D01*
X037940Y001101D01*
X038261Y001101D01*
X038367Y000994D01*
X034160Y001430D02*
X034160Y004930D01*
X032410Y004930D01*
X032410Y004880D01*
X031910Y004880D01*
X031910Y004930D01*
X030960Y004930D01*
X030960Y004530D01*
X030960Y004430D01*
X033660Y004430D01*
X033660Y001930D01*
X026660Y001930D01*
X026660Y004430D01*
X028360Y004430D01*
X028960Y004430D01*
X029360Y004430D01*
X029360Y004530D01*
X029360Y004930D01*
X030960Y004930D01*
X030960Y004430D02*
X030960Y004130D01*
X029360Y004130D01*
X029360Y004430D01*
X029160Y004730D02*
X028960Y004730D01*
X028360Y004730D01*
X028360Y004530D01*
X028360Y004430D01*
X028360Y004730D02*
X028160Y004730D01*
X028010Y004930D01*
X026160Y004930D01*
X026160Y001430D01*
X026660Y001430D01*
X026660Y001330D01*
X027160Y001330D01*
X027160Y001430D01*
X029910Y001430D01*
X029910Y001330D01*
X030410Y001330D01*
X030410Y001430D01*
X033160Y001430D01*
X033160Y001330D01*
X033660Y001330D01*
X033660Y001430D01*
X034160Y001430D01*
X032096Y000780D02*
X032096Y000460D01*
X032096Y000780D02*
X031989Y000887D01*
X031669Y000887D01*
X031669Y000460D01*
X031452Y000887D02*
X031345Y000887D01*
X031132Y000674D01*
X031132Y000887D02*
X031132Y000460D01*
X030914Y000460D02*
X030914Y000887D01*
X030487Y000887D02*
X030487Y000567D01*
X030594Y000460D01*
X030914Y000460D01*
X030271Y000460D02*
X030164Y000567D01*
X030164Y000994D01*
X030058Y000887D02*
X030271Y000887D01*
X029840Y000780D02*
X029840Y000674D01*
X029413Y000674D01*
X029413Y000780D02*
X029520Y000887D01*
X029733Y000887D01*
X029840Y000780D01*
X029733Y000460D02*
X029520Y000460D01*
X029413Y000567D01*
X029413Y000780D01*
X029196Y000780D02*
X029089Y000674D01*
X028769Y000674D01*
X028982Y000674D02*
X029196Y000460D01*
X029196Y000780D02*
X029196Y000994D01*
X029089Y001101D01*
X028769Y001101D01*
X028769Y000460D01*
X027906Y000567D02*
X027800Y000674D01*
X027586Y000674D01*
X027479Y000780D01*
X027586Y000887D01*
X027906Y000887D01*
X027906Y000567D02*
X027800Y000460D01*
X027479Y000460D01*
X027262Y000460D02*
X027262Y000887D01*
X027262Y000460D02*
X026942Y000460D01*
X026835Y000567D01*
X026835Y000887D01*
X026617Y000887D02*
X026511Y000780D01*
X026190Y000780D01*
X026190Y000460D02*
X026511Y000460D01*
X026617Y000567D01*
X026617Y000674D01*
X026511Y000780D01*
X026617Y000887D02*
X026617Y000994D01*
X026511Y001101D01*
X026190Y001101D01*
X026190Y000460D01*
X025660Y001430D02*
X025160Y001430D01*
X025160Y001330D01*
X024660Y001330D01*
X024660Y001430D01*
X021910Y001430D01*
X021910Y001330D01*
X021410Y001330D01*
X021410Y001430D01*
X018660Y001430D01*
X018660Y001330D01*
X018160Y001330D01*
X018160Y001430D01*
X017660Y001430D01*
X017660Y004930D01*
X019510Y004930D01*
X019660Y004730D01*
X019860Y004730D01*
X020460Y004730D01*
X020660Y004730D01*
X020810Y004930D01*
X020860Y004930D01*
X020860Y004530D01*
X020860Y004430D01*
X020460Y004430D01*
X019860Y004430D01*
X019860Y004530D01*
X019860Y004730D01*
X019860Y004430D02*
X018160Y004430D01*
X018160Y001930D01*
X025160Y001930D01*
X025160Y004430D01*
X022460Y004430D01*
X022460Y004530D01*
X022460Y004930D01*
X023410Y004930D01*
X023410Y004880D01*
X023910Y004880D01*
X023910Y004930D01*
X025660Y004930D01*
X025660Y001430D01*
X022460Y004130D02*
X022460Y004430D01*
X022460Y004130D02*
X020860Y004130D01*
X020860Y004430D01*
X020460Y004430D02*
X020460Y004530D01*
X020460Y004730D01*
X020860Y004930D02*
X022460Y004930D01*
X021664Y000994D02*
X021664Y000567D01*
X021771Y000460D01*
X021771Y000887D02*
X021558Y000887D01*
X021340Y000887D02*
X021340Y000460D01*
X021020Y000460D01*
X020913Y000567D01*
X020913Y000887D01*
X020696Y000994D02*
X020696Y000567D01*
X020589Y000460D01*
X020375Y000460D01*
X020269Y000567D01*
X020269Y000994D01*
X020375Y001101D01*
X020589Y001101D01*
X020696Y000994D01*
X019406Y000887D02*
X019086Y000887D01*
X018979Y000780D01*
X019086Y000674D01*
X019300Y000674D01*
X019406Y000567D01*
X019300Y000460D01*
X018979Y000460D01*
X018762Y000460D02*
X018762Y000887D01*
X018762Y000460D02*
X018442Y000460D01*
X018335Y000567D01*
X018335Y000887D01*
X018117Y000887D02*
X018011Y000780D01*
X017690Y000780D01*
X017690Y000460D02*
X018011Y000460D01*
X018117Y000567D01*
X018117Y000674D01*
X018011Y000780D01*
X018117Y000887D02*
X018117Y000994D01*
X018011Y001101D01*
X017690Y001101D01*
X017690Y000460D01*
X028960Y004430D02*
X028960Y004530D01*
X028960Y004730D01*
X029160Y004730D02*
X029310Y004930D01*
X029360Y004930D01*
X034060Y023680D02*
X035760Y023680D01*
X035777Y023682D01*
X035794Y023686D01*
X035810Y023693D01*
X035824Y023703D01*
X035837Y023716D01*
X035847Y023730D01*
X035854Y023746D01*
X035858Y023763D01*
X035860Y023780D01*
X035860Y024580D01*
X035858Y024597D01*
X035854Y024614D01*
X035847Y024630D01*
X035837Y024644D01*
X035824Y024657D01*
X035810Y024667D01*
X035794Y024674D01*
X035777Y024678D01*
X035760Y024680D01*
X034060Y024680D01*
X034043Y024678D01*
X034026Y024674D01*
X034010Y024667D01*
X033996Y024657D01*
X033983Y024644D01*
X033973Y024630D01*
X033966Y024614D01*
X033962Y024597D01*
X033960Y024580D01*
X033960Y023780D01*
X033962Y023763D01*
X033966Y023746D01*
X033973Y023730D01*
X033983Y023716D01*
X033996Y023703D01*
X034010Y023693D01*
X034026Y023686D01*
X034043Y023682D01*
X034060Y023680D01*
X034760Y024180D02*
X034810Y024180D01*
X035010Y024180D02*
X035060Y024180D01*
X041560Y029430D02*
X041562Y029477D01*
X041568Y029525D01*
X041577Y029571D01*
X041590Y029617D01*
X041606Y029661D01*
X041627Y029705D01*
X041650Y029746D01*
X041676Y029785D01*
X041706Y029822D01*
X041739Y029857D01*
X041774Y029889D01*
X041811Y029918D01*
X042760Y029430D02*
X042758Y029385D01*
X042753Y029339D01*
X042745Y029295D01*
X042733Y029251D01*
X042717Y029208D01*
X042699Y029166D01*
X042677Y029126D01*
X042653Y029088D01*
X042626Y029052D01*
X042596Y029017D01*
X042563Y028986D01*
X042528Y028956D01*
X042760Y029430D02*
X042758Y029475D01*
X042753Y029521D01*
X042745Y029565D01*
X042733Y029609D01*
X042717Y029652D01*
X042699Y029694D01*
X042677Y029734D01*
X042653Y029772D01*
X042626Y029808D01*
X042596Y029843D01*
X042563Y029874D01*
X042528Y029904D01*
X041560Y029430D02*
X041562Y029384D01*
X041567Y029338D01*
X041576Y029292D01*
X041588Y029247D01*
X041604Y029204D01*
X041623Y029162D01*
X041646Y029121D01*
X041671Y029082D01*
X041699Y029046D01*
X041730Y029011D01*
X041764Y028979D01*
X041800Y028950D01*
X039196Y031050D02*
X039198Y031078D01*
X039204Y031105D01*
X039213Y031131D01*
X039226Y031156D01*
X039243Y031179D01*
X039262Y031199D01*
X039284Y031216D01*
X039308Y031230D01*
X039334Y031240D01*
X039361Y031247D01*
X039389Y031250D01*
X039417Y031249D01*
X039444Y031244D01*
X039471Y031235D01*
X039496Y031223D01*
X039519Y031208D01*
X039540Y031189D01*
X039558Y031168D01*
X039573Y031144D01*
X039584Y031118D01*
X039592Y031092D01*
X039596Y031064D01*
X039596Y031036D01*
X039592Y031008D01*
X039584Y030982D01*
X039573Y030956D01*
X039558Y030932D01*
X039540Y030911D01*
X039519Y030892D01*
X039496Y030877D01*
X039471Y030865D01*
X039444Y030856D01*
X039417Y030851D01*
X039389Y030850D01*
X039361Y030853D01*
X039334Y030860D01*
X039308Y030870D01*
X039284Y030884D01*
X039262Y030901D01*
X039243Y030921D01*
X039226Y030944D01*
X039213Y030969D01*
X039204Y030995D01*
X039198Y031022D01*
X039196Y031050D01*
X040376Y031570D02*
X036446Y031570D01*
X037226Y031050D02*
X037228Y031078D01*
X037234Y031105D01*
X037243Y031131D01*
X037256Y031156D01*
X037273Y031179D01*
X037292Y031199D01*
X037314Y031216D01*
X037338Y031230D01*
X037364Y031240D01*
X037391Y031247D01*
X037419Y031250D01*
X037447Y031249D01*
X037474Y031244D01*
X037501Y031235D01*
X037526Y031223D01*
X037549Y031208D01*
X037570Y031189D01*
X037588Y031168D01*
X037603Y031144D01*
X037614Y031118D01*
X037622Y031092D01*
X037626Y031064D01*
X037626Y031036D01*
X037622Y031008D01*
X037614Y030982D01*
X037603Y030956D01*
X037588Y030932D01*
X037570Y030911D01*
X037549Y030892D01*
X037526Y030877D01*
X037501Y030865D01*
X037474Y030856D01*
X037447Y030851D01*
X037419Y030850D01*
X037391Y030853D01*
X037364Y030860D01*
X037338Y030870D01*
X037314Y030884D01*
X037292Y030901D01*
X037273Y030921D01*
X037256Y030944D01*
X037243Y030969D01*
X037234Y030995D01*
X037228Y031022D01*
X037226Y031050D01*
X043946Y031570D02*
X047876Y031570D01*
X046696Y031050D02*
X046698Y031078D01*
X046704Y031105D01*
X046713Y031131D01*
X046726Y031156D01*
X046743Y031179D01*
X046762Y031199D01*
X046784Y031216D01*
X046808Y031230D01*
X046834Y031240D01*
X046861Y031247D01*
X046889Y031250D01*
X046917Y031249D01*
X046944Y031244D01*
X046971Y031235D01*
X046996Y031223D01*
X047019Y031208D01*
X047040Y031189D01*
X047058Y031168D01*
X047073Y031144D01*
X047084Y031118D01*
X047092Y031092D01*
X047096Y031064D01*
X047096Y031036D01*
X047092Y031008D01*
X047084Y030982D01*
X047073Y030956D01*
X047058Y030932D01*
X047040Y030911D01*
X047019Y030892D01*
X046996Y030877D01*
X046971Y030865D01*
X046944Y030856D01*
X046917Y030851D01*
X046889Y030850D01*
X046861Y030853D01*
X046834Y030860D01*
X046808Y030870D01*
X046784Y030884D01*
X046762Y030901D01*
X046743Y030921D01*
X046726Y030944D01*
X046713Y030969D01*
X046704Y030995D01*
X046698Y031022D01*
X046696Y031050D01*
X044726Y031050D02*
X044728Y031078D01*
X044734Y031105D01*
X044743Y031131D01*
X044756Y031156D01*
X044773Y031179D01*
X044792Y031199D01*
X044814Y031216D01*
X044838Y031230D01*
X044864Y031240D01*
X044891Y031247D01*
X044919Y031250D01*
X044947Y031249D01*
X044974Y031244D01*
X045001Y031235D01*
X045026Y031223D01*
X045049Y031208D01*
X045070Y031189D01*
X045088Y031168D01*
X045103Y031144D01*
X045114Y031118D01*
X045122Y031092D01*
X045126Y031064D01*
X045126Y031036D01*
X045122Y031008D01*
X045114Y030982D01*
X045103Y030956D01*
X045088Y030932D01*
X045070Y030911D01*
X045049Y030892D01*
X045026Y030877D01*
X045001Y030865D01*
X044974Y030856D01*
X044947Y030851D01*
X044919Y030850D01*
X044891Y030853D01*
X044864Y030860D01*
X044838Y030870D01*
X044814Y030884D01*
X044792Y030901D01*
X044773Y030921D01*
X044756Y030944D01*
X044743Y030969D01*
X044734Y030995D01*
X044728Y031022D01*
X044726Y031050D01*
X026060Y029180D02*
X026062Y029200D01*
X026068Y029218D01*
X026077Y029236D01*
X026089Y029251D01*
X026104Y029263D01*
X026122Y029272D01*
X026140Y029278D01*
X026160Y029280D01*
X026180Y029278D01*
X026198Y029272D01*
X026216Y029263D01*
X026231Y029251D01*
X026243Y029236D01*
X026252Y029218D01*
X026258Y029200D01*
X026260Y029180D01*
X026258Y029160D01*
X026252Y029142D01*
X026243Y029124D01*
X026231Y029109D01*
X026216Y029097D01*
X026198Y029088D01*
X026180Y029082D01*
X026160Y029080D01*
X026140Y029082D01*
X026122Y029088D01*
X026104Y029097D01*
X026089Y029109D01*
X026077Y029124D01*
X026068Y029142D01*
X026062Y029160D01*
X026060Y029180D01*
X025460Y029180D02*
X025462Y029232D01*
X025468Y029284D01*
X025478Y029336D01*
X025491Y029386D01*
X025508Y029436D01*
X025529Y029484D01*
X025554Y029530D01*
X025582Y029574D01*
X025613Y029616D01*
X025647Y029656D01*
X025684Y029693D01*
X025724Y029727D01*
X025766Y029758D01*
X025810Y029786D01*
X025856Y029811D01*
X025904Y029832D01*
X025954Y029849D01*
X026004Y029862D01*
X026056Y029872D01*
X026108Y029878D01*
X026160Y029880D01*
X026212Y029878D01*
X026264Y029872D01*
X026316Y029862D01*
X026366Y029849D01*
X026416Y029832D01*
X026464Y029811D01*
X026510Y029786D01*
X026554Y029758D01*
X026596Y029727D01*
X026636Y029693D01*
X026673Y029656D01*
X026707Y029616D01*
X026738Y029574D01*
X026766Y029530D01*
X026791Y029484D01*
X026812Y029436D01*
X026829Y029386D01*
X026842Y029336D01*
X026852Y029284D01*
X026858Y029232D01*
X026860Y029180D01*
X026858Y029128D01*
X026852Y029076D01*
X026842Y029024D01*
X026829Y028974D01*
X026812Y028924D01*
X026791Y028876D01*
X026766Y028830D01*
X026738Y028786D01*
X026707Y028744D01*
X026673Y028704D01*
X026636Y028667D01*
X026596Y028633D01*
X026554Y028602D01*
X026510Y028574D01*
X026464Y028549D01*
X026416Y028528D01*
X026366Y028511D01*
X026316Y028498D01*
X026264Y028488D01*
X026212Y028482D01*
X026160Y028480D01*
X026108Y028482D01*
X026056Y028488D01*
X026004Y028498D01*
X025954Y028511D01*
X025904Y028528D01*
X025856Y028549D01*
X025810Y028574D01*
X025766Y028602D01*
X025724Y028633D01*
X025684Y028667D01*
X025647Y028704D01*
X025613Y028744D01*
X025582Y028786D01*
X025554Y028830D01*
X025529Y028876D01*
X025508Y028924D01*
X025491Y028974D01*
X025478Y029024D01*
X025468Y029076D01*
X025462Y029128D01*
X025460Y029180D01*
D13*
X035410Y030680D02*
X036160Y030680D01*
X035785Y031055D02*
X035785Y030305D01*
X040535Y030680D02*
X041285Y030680D01*
X043035Y030680D02*
X043785Y030680D01*
X043410Y031055D02*
X043410Y030305D01*
X048160Y030680D02*
X048910Y030680D01*
D14*
X018260Y012336D02*
X018260Y011936D01*
X018060Y011736D01*
X017660Y011936D02*
X017660Y012537D01*
X018060Y012537D02*
X017260Y012537D01*
X017059Y012336D01*
X017059Y011936D01*
X017260Y011736D01*
X017460Y011736D01*
X017660Y011936D01*
X018260Y012336D02*
X018060Y012537D01*
X018260Y011155D02*
X018260Y010355D01*
X018260Y010755D02*
X017059Y010755D01*
X017460Y010355D01*
X017260Y009774D02*
X018060Y008974D01*
X018260Y009174D01*
X018260Y009574D01*
X018060Y009774D01*
X017260Y009774D01*
X017059Y009574D01*
X017059Y009174D01*
X017260Y008974D01*
X018060Y008974D01*
X018260Y008393D02*
X018260Y007592D01*
X017460Y008393D01*
X017260Y008393D01*
X017059Y008193D01*
X017059Y007793D01*
X017260Y007592D01*
X016010Y007592D02*
X016010Y008193D01*
X015810Y008393D01*
X015410Y008393D01*
X015210Y008193D01*
X015210Y007592D01*
X014809Y007592D02*
X016010Y007592D01*
X015810Y007012D02*
X015410Y007012D01*
X015210Y006812D01*
X015210Y006411D01*
X015410Y006211D01*
X015810Y006211D01*
X016010Y006411D01*
X016010Y006812D01*
X015810Y007012D01*
X016010Y005631D02*
X015610Y005230D01*
X015610Y005431D02*
X015610Y004830D01*
X016010Y004830D02*
X014809Y004830D01*
X014809Y005431D01*
X015010Y005631D01*
X015410Y005631D01*
X015610Y005431D01*
X015410Y008974D02*
X015210Y009174D01*
X015210Y009574D01*
X015410Y009774D01*
X015810Y009774D01*
X016010Y009574D01*
X016010Y009174D01*
X015810Y008974D01*
X015410Y008974D01*
X015210Y010355D02*
X015410Y010555D01*
X015410Y010955D01*
X015610Y011155D01*
X015810Y011155D01*
X016010Y010955D01*
X016010Y010555D01*
X015810Y010355D01*
X015210Y010355D02*
X015010Y010355D01*
X014809Y010555D01*
X014809Y010955D01*
X015010Y011155D01*
X015210Y011736D02*
X014809Y012136D01*
X015210Y012537D01*
X016010Y012537D01*
X015410Y012537D02*
X015410Y011736D01*
X015210Y011736D02*
X016010Y011736D01*
X016010Y013117D02*
X014809Y013918D01*
X014809Y013117D02*
X016010Y013918D01*
D15*
X015953Y015280D02*
X015419Y015280D01*
X015419Y016081D01*
X015953Y016081D01*
X016340Y016081D02*
X016740Y016081D01*
X016873Y015947D01*
X016873Y015413D01*
X016740Y015280D01*
X016340Y015280D01*
X016340Y016081D01*
X015686Y015680D02*
X015419Y015680D01*
X015032Y015280D02*
X014498Y015280D01*
X014498Y016081D01*
X014555Y017780D02*
X014955Y017780D01*
X015089Y017913D01*
X015089Y018047D01*
X014955Y018180D01*
X014555Y018180D01*
X014555Y017780D02*
X014555Y018581D01*
X014955Y018581D01*
X015089Y018447D01*
X015089Y018314D01*
X014955Y018180D01*
X015476Y018314D02*
X015743Y018314D01*
X015609Y018447D02*
X015609Y017913D01*
X015743Y017780D01*
X016090Y017780D02*
X016090Y018314D01*
X016490Y018314D01*
X016623Y018180D01*
X016623Y017780D01*
X016740Y020280D02*
X016340Y020280D01*
X016340Y021081D01*
X016740Y021081D01*
X016873Y020947D01*
X016873Y020814D01*
X016740Y020680D01*
X016340Y020680D01*
X015953Y020680D02*
X015686Y020680D01*
X015953Y020680D02*
X015953Y020413D01*
X015819Y020280D01*
X015552Y020280D01*
X015419Y020413D01*
X015419Y020947D01*
X015552Y021081D01*
X015819Y021081D01*
X015953Y020947D01*
X016740Y020680D02*
X016873Y020547D01*
X016873Y020413D01*
X016740Y020280D01*
X015032Y020280D02*
X014765Y020547D01*
X014898Y020547D02*
X014498Y020547D01*
X014498Y020280D02*
X014498Y021081D01*
X014898Y021081D01*
X015032Y020947D01*
X015032Y020680D01*
X014898Y020547D01*
D16*
X014809Y022250D02*
X014622Y022437D01*
X014716Y022437D02*
X014435Y022437D01*
X014435Y022250D02*
X014435Y022810D01*
X014716Y022810D01*
X014809Y022717D01*
X014809Y022530D01*
X014716Y022437D01*
X015080Y022437D02*
X015454Y022437D01*
X015454Y022530D01*
X015360Y022624D01*
X015173Y022624D01*
X015080Y022530D01*
X015080Y022343D01*
X015173Y022250D01*
X015360Y022250D01*
X015818Y022343D02*
X015911Y022250D01*
X015818Y022343D02*
X015818Y022717D01*
X015911Y022624D02*
X015724Y022624D01*
X016154Y022624D02*
X016154Y022343D01*
X016248Y022250D01*
X016528Y022250D01*
X016528Y022624D01*
X016799Y022624D02*
X016799Y022250D01*
X016799Y022437D02*
X016986Y022624D01*
X017079Y022624D01*
X017336Y022624D02*
X017616Y022624D01*
X017709Y022530D01*
X017709Y022250D01*
X017336Y022250D02*
X017336Y022624D01*
X016098Y023393D02*
X016005Y023300D01*
X015724Y023300D01*
X015724Y023860D01*
X016005Y023860D01*
X016098Y023767D01*
X016098Y023674D01*
X016005Y023580D01*
X015724Y023580D01*
X015454Y023580D02*
X015267Y023580D01*
X015454Y023580D02*
X015454Y023393D01*
X015360Y023300D01*
X015173Y023300D01*
X015080Y023393D01*
X015080Y023767D01*
X015173Y023860D01*
X015360Y023860D01*
X015454Y023767D01*
X016005Y023580D02*
X016098Y023487D01*
X016098Y023393D01*
X014809Y023300D02*
X014622Y023487D01*
X014716Y023487D02*
X014435Y023487D01*
X014435Y023300D02*
X014435Y023860D01*
X014716Y023860D01*
X014809Y023767D01*
X014809Y023580D01*
X014716Y023487D01*
D17*
X040640Y028807D02*
X041230Y028807D01*
X041230Y028610D02*
X041230Y029004D01*
X041230Y029255D02*
X040837Y029648D01*
X040738Y029648D01*
X040640Y029550D01*
X040640Y029353D01*
X040738Y029255D01*
X040640Y028807D02*
X040837Y028610D01*
X041230Y029255D02*
X041230Y029648D01*
X041034Y029899D02*
X041230Y030096D01*
X041034Y030293D01*
X040640Y030293D01*
X040640Y029899D02*
X041034Y029899D01*
X043215Y029777D02*
X043215Y029580D01*
X043314Y029481D01*
X043511Y029481D01*
X043609Y029580D01*
X043609Y029678D01*
X043511Y029875D01*
X043806Y029875D01*
X043806Y029481D01*
X043806Y029230D02*
X043412Y029230D01*
X043215Y029034D01*
X043412Y028837D01*
X043806Y028837D01*
X043215Y029777D02*
X043314Y029875D01*
X048265Y029773D02*
X048659Y029773D01*
X048855Y029576D01*
X048659Y029380D01*
X048265Y029380D01*
X048265Y029129D02*
X048265Y028735D01*
X048560Y028735D01*
X048462Y028932D01*
X048462Y029030D01*
X048560Y029129D01*
X048757Y029129D01*
X048855Y029030D01*
X048855Y028833D01*
X048757Y028735D01*
D18*
X046853Y028610D02*
X046777Y028685D01*
X046627Y028685D01*
X046552Y028610D01*
X046392Y028610D02*
X046092Y028310D01*
X046167Y028235D01*
X046317Y028235D01*
X046392Y028310D01*
X046392Y028610D01*
X046317Y028685D01*
X046167Y028685D01*
X046092Y028610D01*
X046092Y028310D01*
X045932Y028310D02*
X045857Y028235D01*
X045707Y028235D01*
X045632Y028310D01*
X045632Y028460D02*
X045782Y028535D01*
X045857Y028535D01*
X045932Y028460D01*
X045932Y028310D01*
X045632Y028460D02*
X045632Y028685D01*
X045932Y028685D01*
X045471Y028685D02*
X045321Y028685D01*
X045396Y028685D02*
X045396Y028310D01*
X045321Y028235D01*
X045246Y028235D01*
X045171Y028310D01*
X046552Y028235D02*
X046853Y028535D01*
X046853Y028610D01*
X046853Y028235D02*
X046552Y028235D01*
X046401Y030455D02*
X046101Y030455D01*
X046401Y030755D01*
X046401Y030830D01*
X046326Y030905D01*
X046176Y030905D01*
X046101Y030830D01*
X044451Y030455D02*
X044151Y030455D01*
X044301Y030455D02*
X044301Y030905D01*
X044151Y030755D01*
X042510Y030555D02*
X042510Y031005D01*
X042210Y031005D01*
X042050Y030930D02*
X041975Y031005D01*
X041825Y031005D01*
X041750Y030930D01*
X041750Y030855D01*
X041825Y030780D01*
X041975Y030780D01*
X042050Y030705D01*
X042050Y030630D01*
X041975Y030555D01*
X041825Y030555D01*
X041750Y030630D01*
X039202Y028685D02*
X039202Y028235D01*
X039052Y028235D02*
X039353Y028235D01*
X039052Y028535D02*
X039202Y028685D01*
X038892Y028610D02*
X038592Y028310D01*
X038667Y028235D01*
X038817Y028235D01*
X038892Y028310D01*
X038892Y028610D01*
X038817Y028685D01*
X038667Y028685D01*
X038592Y028610D01*
X038592Y028310D01*
X038432Y028310D02*
X038357Y028235D01*
X038207Y028235D01*
X038132Y028310D01*
X038132Y028460D02*
X038282Y028535D01*
X038357Y028535D01*
X038432Y028460D01*
X038432Y028310D01*
X038132Y028460D02*
X038132Y028685D01*
X038432Y028685D01*
X037971Y028685D02*
X037821Y028685D01*
X037896Y028685D02*
X037896Y028310D01*
X037821Y028235D01*
X037746Y028235D01*
X037671Y028310D01*
X037581Y027680D02*
X037431Y027530D01*
X037271Y027605D02*
X037196Y027680D01*
X037046Y027680D01*
X036971Y027605D01*
X036971Y027530D01*
X037046Y027455D01*
X037196Y027455D01*
X037271Y027380D01*
X037271Y027305D01*
X037196Y027230D01*
X037046Y027230D01*
X036971Y027305D01*
X036811Y027305D02*
X036811Y027605D01*
X036736Y027680D01*
X036510Y027680D01*
X036510Y027230D01*
X036736Y027230D01*
X036811Y027305D01*
X037431Y027230D02*
X037731Y027230D01*
X037581Y027230D02*
X037581Y027680D01*
X038360Y026630D02*
X038586Y026630D01*
X038661Y026555D01*
X038661Y026405D01*
X038586Y026330D01*
X038360Y026330D01*
X038360Y026180D02*
X038360Y026630D01*
X038510Y026330D02*
X038661Y026180D01*
X038821Y026180D02*
X039121Y026180D01*
X039281Y026255D02*
X039356Y026180D01*
X039506Y026180D01*
X039581Y026255D01*
X039581Y026330D01*
X039506Y026405D01*
X039356Y026405D01*
X039281Y026480D01*
X039281Y026555D01*
X039356Y026630D01*
X039506Y026630D01*
X039581Y026555D01*
X038821Y026630D02*
X038821Y026180D01*
X041079Y024105D02*
X041079Y023805D01*
X041154Y023730D01*
X041304Y023730D01*
X041379Y023805D01*
X041540Y023805D02*
X041615Y023730D01*
X041765Y023730D01*
X041840Y023805D01*
X041840Y023880D01*
X041765Y023955D01*
X041615Y023955D01*
X041540Y024030D01*
X041540Y024105D01*
X041615Y024180D01*
X041765Y024180D01*
X041840Y024105D01*
X042000Y024030D02*
X042150Y024180D01*
X042150Y023730D01*
X042000Y023730D02*
X042300Y023730D01*
X041379Y024105D02*
X041304Y024180D01*
X041154Y024180D01*
X041079Y024105D01*
X043954Y024805D02*
X044029Y024730D01*
X044179Y024730D01*
X044254Y024805D01*
X044415Y024805D02*
X044490Y024730D01*
X044640Y024730D01*
X044715Y024805D01*
X044715Y024880D01*
X044640Y024955D01*
X044490Y024955D01*
X044415Y025030D01*
X044415Y025105D01*
X044490Y025180D01*
X044640Y025180D01*
X044715Y025105D01*
X044875Y025105D02*
X044950Y025180D01*
X045100Y025180D01*
X045175Y025105D01*
X045175Y025030D01*
X044875Y024730D01*
X045175Y024730D01*
X045679Y024755D02*
X045754Y024680D01*
X045904Y024680D01*
X045979Y024755D01*
X046140Y024755D02*
X046215Y024680D01*
X046365Y024680D01*
X046440Y024755D01*
X046440Y024830D01*
X046365Y024905D01*
X046215Y024905D01*
X046140Y024980D01*
X046140Y025055D01*
X046215Y025130D01*
X046365Y025130D01*
X046440Y025055D01*
X046600Y025055D02*
X046675Y025130D01*
X046825Y025130D01*
X046900Y025055D01*
X046900Y024980D01*
X046825Y024905D01*
X046900Y024830D01*
X046900Y024755D01*
X046825Y024680D01*
X046675Y024680D01*
X046600Y024755D01*
X046750Y024905D02*
X046825Y024905D01*
X045979Y025055D02*
X045904Y025130D01*
X045754Y025130D01*
X045679Y025055D01*
X045679Y024755D01*
X044254Y025105D02*
X044179Y025180D01*
X044029Y025180D01*
X043954Y025105D01*
X043954Y024805D01*
X038901Y030455D02*
X038601Y030455D01*
X038901Y030755D01*
X038901Y030830D01*
X038826Y030905D01*
X038676Y030905D01*
X038601Y030830D01*
X036951Y030455D02*
X036651Y030455D01*
X036801Y030455D02*
X036801Y030905D01*
X036651Y030755D01*
X033710Y030855D02*
X033485Y030855D01*
X033410Y030930D01*
X033410Y031005D01*
X033485Y031080D01*
X033710Y031080D01*
X033710Y030630D01*
X033485Y030630D01*
X033410Y030705D01*
X033410Y030780D01*
X033485Y030855D01*
X033250Y031080D02*
X033250Y030630D01*
X033100Y030780D01*
X032950Y030630D01*
X032950Y031080D01*
X032790Y031005D02*
X032715Y031080D01*
X032564Y031080D01*
X032489Y031005D01*
X032489Y030705D01*
X032564Y030630D01*
X032715Y030630D01*
X032790Y030705D01*
X032790Y031005D01*
X032329Y031080D02*
X032329Y030630D01*
X032104Y030630D01*
X032029Y030705D01*
X032029Y031005D01*
X032104Y031080D01*
X032329Y031080D01*
X031869Y031080D02*
X031869Y030630D01*
X031569Y030630D01*
X031719Y030855D02*
X031869Y030855D01*
X031869Y031080D02*
X031569Y031080D01*
X031805Y027625D02*
X031956Y027625D01*
X031881Y027625D02*
X031881Y027250D01*
X031805Y027175D01*
X031730Y027175D01*
X031655Y027250D01*
X032116Y027250D02*
X032191Y027175D01*
X032341Y027175D01*
X032416Y027250D01*
X032416Y027325D01*
X032341Y027400D01*
X032266Y027400D01*
X032341Y027400D02*
X032416Y027475D01*
X032416Y027550D01*
X032341Y027625D01*
X032191Y027625D01*
X032116Y027550D01*
X032576Y027550D02*
X032576Y027250D01*
X032876Y027550D01*
X032876Y027250D01*
X032801Y027175D01*
X032651Y027175D01*
X032576Y027250D01*
X032576Y027550D02*
X032651Y027625D01*
X032801Y027625D01*
X032876Y027550D01*
X033037Y027625D02*
X033037Y027400D01*
X033187Y027475D01*
X033262Y027475D01*
X033337Y027400D01*
X033337Y027250D01*
X033262Y027175D01*
X033112Y027175D01*
X033037Y027250D01*
X033037Y027625D02*
X033337Y027625D01*
X035210Y027601D02*
X035285Y027451D01*
X035435Y027301D01*
X035435Y027526D01*
X035510Y027601D01*
X035585Y027601D01*
X035660Y027526D01*
X035660Y027376D01*
X035585Y027301D01*
X035435Y027301D01*
X035360Y027141D02*
X035435Y027066D01*
X035435Y026840D01*
X035435Y026680D02*
X035510Y026605D01*
X035510Y026380D01*
X035510Y026530D02*
X035660Y026680D01*
X035660Y026840D02*
X035660Y027066D01*
X035585Y027141D01*
X035510Y027141D01*
X035435Y027066D01*
X035360Y027141D02*
X035285Y027141D01*
X035210Y027066D01*
X035210Y026840D01*
X035660Y026840D01*
X035435Y026680D02*
X035285Y026680D01*
X035210Y026605D01*
X035210Y026380D01*
X035660Y026380D01*
X032831Y025380D02*
X032531Y025380D01*
X032531Y025155D01*
X032681Y025230D01*
X032756Y025230D01*
X032831Y025155D01*
X032831Y025005D01*
X032756Y024930D01*
X032606Y024930D01*
X032531Y025005D01*
X032371Y025005D02*
X032296Y024930D01*
X032071Y024930D01*
X032071Y025380D01*
X032296Y025380D01*
X032371Y025305D01*
X032371Y025230D01*
X032296Y025155D01*
X032071Y025155D01*
X031911Y025155D02*
X031836Y025080D01*
X031610Y025080D01*
X031610Y024930D02*
X031610Y025380D01*
X031836Y025380D01*
X031911Y025305D01*
X031911Y025155D01*
X031760Y025080D02*
X031911Y024930D01*
X032296Y025155D02*
X032371Y025080D01*
X032371Y025005D01*
X034285Y023430D02*
X034285Y023130D01*
X034360Y023055D01*
X034511Y023055D01*
X034586Y023130D01*
X034746Y023055D02*
X034971Y023055D01*
X035046Y023130D01*
X035046Y023205D01*
X034971Y023280D01*
X034746Y023280D01*
X034586Y023430D02*
X034511Y023505D01*
X034360Y023505D01*
X034285Y023430D01*
X034746Y023505D02*
X034746Y023055D01*
X034971Y023280D02*
X035046Y023355D01*
X035046Y023430D01*
X034971Y023505D01*
X034746Y023505D01*
X035206Y023430D02*
X035281Y023505D01*
X035431Y023505D01*
X035506Y023430D01*
X035506Y023355D01*
X035431Y023280D01*
X035506Y023205D01*
X035506Y023130D01*
X035431Y023055D01*
X035281Y023055D01*
X035206Y023130D01*
X035356Y023280D02*
X035431Y023280D01*
X036035Y018276D02*
X035960Y018201D01*
X035960Y018051D01*
X036035Y017976D01*
X035960Y017816D02*
X036410Y017816D01*
X036410Y017976D02*
X036110Y018276D01*
X036035Y018276D01*
X036410Y018276D02*
X036410Y017976D01*
X036110Y017666D02*
X035960Y017816D01*
X036110Y017666D02*
X035960Y017515D01*
X036410Y017515D01*
X036335Y017355D02*
X036410Y017280D01*
X036410Y017130D01*
X036335Y017055D01*
X036035Y017055D01*
X035960Y017130D01*
X035960Y017280D01*
X036035Y017355D01*
X034235Y014570D02*
X034235Y014270D01*
X034235Y014420D02*
X033785Y014420D01*
X033935Y014270D01*
X033860Y014109D02*
X034160Y014109D01*
X034235Y014034D01*
X034235Y013884D01*
X034160Y013809D01*
X033860Y013809D01*
X033785Y013884D01*
X033785Y014034D01*
X033860Y014109D01*
X034085Y013959D02*
X034235Y014109D01*
X034160Y013649D02*
X034235Y013574D01*
X034235Y013424D01*
X034160Y013349D01*
X033860Y013349D01*
X033785Y013424D01*
X033785Y013574D01*
X033860Y013649D01*
X033485Y013574D02*
X033485Y013424D01*
X033410Y013349D01*
X033110Y013349D01*
X033035Y013424D01*
X033035Y013574D01*
X033110Y013649D01*
X033110Y013809D02*
X033035Y013884D01*
X033035Y014034D01*
X033110Y014109D01*
X033410Y014109D01*
X033485Y014034D01*
X033485Y013884D01*
X033410Y013809D01*
X033110Y013809D01*
X033335Y013959D02*
X033485Y014109D01*
X033485Y014270D02*
X033185Y014570D01*
X033110Y014570D01*
X033035Y014495D01*
X033035Y014345D01*
X033110Y014270D01*
X033485Y014270D02*
X033485Y014570D01*
X033410Y013649D02*
X033485Y013574D01*
X031410Y016380D02*
X030960Y016380D01*
X030960Y016605D01*
X031035Y016680D01*
X031185Y016680D01*
X031260Y016605D01*
X031260Y016380D01*
X031260Y016530D02*
X031410Y016680D01*
X031410Y016840D02*
X031410Y017141D01*
X031410Y017301D02*
X031410Y017526D01*
X031335Y017601D01*
X031035Y017601D01*
X030960Y017526D01*
X030960Y017301D01*
X031410Y017301D01*
X031410Y017761D02*
X031110Y018061D01*
X031035Y018061D01*
X030960Y017986D01*
X030960Y017836D01*
X031035Y017761D01*
X031410Y017761D02*
X031410Y018061D01*
X031410Y016840D02*
X030960Y016840D01*
X029910Y016840D02*
X029910Y017141D01*
X029910Y017301D02*
X029910Y017526D01*
X029835Y017601D01*
X029535Y017601D01*
X029460Y017526D01*
X029460Y017301D01*
X029910Y017301D01*
X029910Y016840D02*
X029460Y016840D01*
X029535Y016680D02*
X029685Y016680D01*
X029760Y016605D01*
X029760Y016380D01*
X029760Y016530D02*
X029910Y016680D01*
X029910Y016380D02*
X029460Y016380D01*
X029460Y016605D01*
X029535Y016680D01*
X029685Y017761D02*
X029685Y018061D01*
X029910Y017986D02*
X029460Y017986D01*
X029685Y017761D01*
X027100Y018605D02*
X027100Y019055D01*
X026875Y018830D01*
X027175Y018830D01*
X026715Y018755D02*
X026715Y018680D01*
X026640Y018605D01*
X026490Y018605D01*
X026415Y018680D01*
X026254Y018680D02*
X026179Y018605D01*
X026029Y018605D01*
X025954Y018680D01*
X025954Y018980D01*
X026029Y019055D01*
X026179Y019055D01*
X026254Y018980D01*
X026415Y018980D02*
X026415Y018905D01*
X026490Y018830D01*
X026640Y018830D01*
X026715Y018755D01*
X026715Y018980D02*
X026640Y019055D01*
X026490Y019055D01*
X026415Y018980D01*
X023660Y018561D02*
X023660Y018261D01*
X023660Y018411D02*
X023210Y018411D01*
X023360Y018261D01*
X023285Y018101D02*
X023210Y018026D01*
X023210Y017801D01*
X023660Y017801D01*
X023660Y018026D01*
X023585Y018101D01*
X023285Y018101D01*
X023660Y017641D02*
X023660Y017340D01*
X023210Y017340D01*
X023285Y017180D02*
X023210Y017105D01*
X023210Y016880D01*
X023660Y016880D01*
X023510Y016880D02*
X023510Y017105D01*
X023435Y017180D01*
X023285Y017180D01*
X023510Y017030D02*
X023660Y017180D01*
X021581Y017980D02*
X021581Y018430D01*
X021356Y018205D01*
X021656Y018205D01*
X021196Y018055D02*
X021196Y018355D01*
X021121Y018430D01*
X020896Y018430D01*
X020896Y017980D01*
X021121Y017980D01*
X021196Y018055D01*
X020736Y017980D02*
X020435Y017980D01*
X020435Y018430D01*
X020435Y020480D02*
X020736Y020480D01*
X020896Y020480D02*
X021121Y020480D01*
X021196Y020555D01*
X021196Y020855D01*
X021121Y020930D01*
X020896Y020930D01*
X020896Y020480D01*
X021356Y020480D02*
X021656Y020480D01*
X021506Y020480D02*
X021506Y020930D01*
X021356Y020780D01*
X020435Y020930D02*
X020435Y020480D01*
X020435Y022980D02*
X020736Y022980D01*
X020896Y022980D02*
X021121Y022980D01*
X021196Y023055D01*
X021196Y023355D01*
X021121Y023430D01*
X020896Y023430D01*
X020896Y022980D01*
X021356Y022980D02*
X021656Y023280D01*
X021656Y023355D01*
X021581Y023430D01*
X021431Y023430D01*
X021356Y023355D01*
X021356Y022980D02*
X021656Y022980D01*
X020435Y022980D02*
X020435Y023430D01*
X020456Y024930D02*
X020156Y024930D01*
X020306Y024930D02*
X020306Y025380D01*
X020156Y025230D01*
X019996Y025230D02*
X019921Y025155D01*
X019696Y025155D01*
X019536Y025155D02*
X019461Y025080D01*
X019235Y025080D01*
X019235Y024930D02*
X019235Y025380D01*
X019461Y025380D01*
X019536Y025305D01*
X019536Y025155D01*
X019385Y025080D02*
X019536Y024930D01*
X019696Y024930D02*
X019696Y025380D01*
X019921Y025380D01*
X019996Y025305D01*
X019996Y025230D01*
X019921Y025155D02*
X019996Y025080D01*
X019996Y025005D01*
X019921Y024930D01*
X019696Y024930D01*
X019691Y027175D02*
X019616Y027250D01*
X019691Y027175D02*
X019841Y027175D01*
X019916Y027250D01*
X019916Y027325D01*
X019841Y027400D01*
X019766Y027400D01*
X019841Y027400D02*
X019916Y027475D01*
X019916Y027550D01*
X019841Y027625D01*
X019691Y027625D01*
X019616Y027550D01*
X019456Y027625D02*
X019305Y027625D01*
X019381Y027625D02*
X019381Y027250D01*
X019305Y027175D01*
X019230Y027175D01*
X019155Y027250D01*
X020076Y027250D02*
X020076Y027550D01*
X020151Y027625D01*
X020301Y027625D01*
X020376Y027550D01*
X020076Y027250D01*
X020151Y027175D01*
X020301Y027175D01*
X020376Y027250D01*
X020376Y027550D01*
X020537Y027550D02*
X020612Y027625D01*
X020762Y027625D01*
X020837Y027550D01*
X020837Y027475D01*
X020537Y027175D01*
X020837Y027175D01*
X022710Y027066D02*
X022710Y026840D01*
X023160Y026840D01*
X023160Y027066D01*
X023085Y027141D01*
X023010Y027141D01*
X022935Y027066D01*
X022935Y026840D01*
X022935Y026680D02*
X023010Y026605D01*
X023010Y026380D01*
X023010Y026530D02*
X023160Y026680D01*
X022935Y026680D02*
X022785Y026680D01*
X022710Y026605D01*
X022710Y026380D01*
X023160Y026380D01*
X022935Y027066D02*
X022860Y027141D01*
X022785Y027141D01*
X022710Y027066D01*
X022785Y027301D02*
X022710Y027376D01*
X022710Y027526D01*
X022785Y027601D01*
X022860Y027601D01*
X023160Y027301D01*
X023160Y027601D01*
X025405Y027250D02*
X025480Y027175D01*
X025555Y027175D01*
X025631Y027250D01*
X025631Y027625D01*
X025706Y027625D02*
X025555Y027625D01*
X025866Y027550D02*
X025941Y027625D01*
X026091Y027625D01*
X026166Y027550D01*
X026166Y027475D01*
X026091Y027400D01*
X026166Y027325D01*
X026166Y027250D01*
X026091Y027175D01*
X025941Y027175D01*
X025866Y027250D01*
X026016Y027400D02*
X026091Y027400D01*
X026326Y027250D02*
X026326Y027550D01*
X026401Y027625D01*
X026551Y027625D01*
X026626Y027550D01*
X026326Y027250D01*
X026401Y027175D01*
X026551Y027175D01*
X026626Y027250D01*
X026626Y027550D01*
X026787Y027400D02*
X027087Y027400D01*
X027012Y027175D02*
X027012Y027625D01*
X026787Y027400D01*
X028960Y027526D02*
X029185Y027301D01*
X029185Y027601D01*
X029410Y027526D02*
X028960Y027526D01*
X029035Y027141D02*
X029110Y027141D01*
X029185Y027066D01*
X029185Y026840D01*
X029185Y026680D02*
X029260Y026605D01*
X029260Y026380D01*
X029260Y026530D02*
X029410Y026680D01*
X029410Y026840D02*
X029410Y027066D01*
X029335Y027141D01*
X029260Y027141D01*
X029185Y027066D01*
X029035Y027141D02*
X028960Y027066D01*
X028960Y026840D01*
X029410Y026840D01*
X029185Y026680D02*
X029035Y026680D01*
X028960Y026605D01*
X028960Y026380D01*
X029410Y026380D01*
X026581Y025305D02*
X026581Y025230D01*
X026506Y025155D01*
X026581Y025080D01*
X026581Y025005D01*
X026506Y024930D01*
X026356Y024930D01*
X026281Y025005D01*
X026121Y025005D02*
X026046Y024930D01*
X025821Y024930D01*
X025821Y025380D01*
X026046Y025380D01*
X026121Y025305D01*
X026121Y025230D01*
X026046Y025155D01*
X025821Y025155D01*
X025661Y025155D02*
X025586Y025080D01*
X025360Y025080D01*
X025360Y024930D02*
X025360Y025380D01*
X025586Y025380D01*
X025661Y025305D01*
X025661Y025155D01*
X025510Y025080D02*
X025661Y024930D01*
X026046Y025155D02*
X026121Y025080D01*
X026121Y025005D01*
X026281Y025305D02*
X026356Y025380D01*
X026506Y025380D01*
X026581Y025305D01*
X026506Y025155D02*
X026431Y025155D01*
X028110Y023505D02*
X028035Y023430D01*
X028035Y023130D01*
X028110Y023055D01*
X028261Y023055D01*
X028336Y023130D01*
X028496Y023055D02*
X028721Y023055D01*
X028796Y023130D01*
X028796Y023205D01*
X028721Y023280D01*
X028496Y023280D01*
X028336Y023430D02*
X028261Y023505D01*
X028110Y023505D01*
X028496Y023505D02*
X028721Y023505D01*
X028796Y023430D01*
X028796Y023355D01*
X028721Y023280D01*
X028956Y023430D02*
X029031Y023505D01*
X029181Y023505D01*
X029256Y023430D01*
X029256Y023355D01*
X028956Y023055D01*
X029256Y023055D01*
X028496Y023055D02*
X028496Y023505D01*
X024006Y023055D02*
X023706Y023055D01*
X023856Y023055D02*
X023856Y023505D01*
X023706Y023355D01*
X023546Y023355D02*
X023471Y023280D01*
X023246Y023280D01*
X023086Y023130D02*
X023011Y023055D01*
X022860Y023055D01*
X022785Y023130D01*
X022785Y023430D01*
X022860Y023505D01*
X023011Y023505D01*
X023086Y023430D01*
X023246Y023505D02*
X023471Y023505D01*
X023546Y023430D01*
X023546Y023355D01*
X023471Y023280D02*
X023546Y023205D01*
X023546Y023130D01*
X023471Y023055D01*
X023246Y023055D01*
X023246Y023505D01*
X025900Y030630D02*
X025825Y030705D01*
X025825Y030780D01*
X026125Y031080D01*
X025825Y031080D01*
X025900Y030630D02*
X026050Y030630D01*
X026125Y030705D01*
X026285Y030705D02*
X026285Y030780D01*
X026360Y030855D01*
X026585Y030855D01*
X026360Y030855D02*
X026285Y030930D01*
X026285Y031005D01*
X026360Y031080D01*
X026585Y031080D01*
X026585Y030630D01*
X026360Y030630D01*
X026285Y030705D01*
X020210Y030630D02*
X019985Y030630D01*
X019910Y030705D01*
X019910Y030780D01*
X019985Y030855D01*
X020210Y030855D01*
X019985Y030855D02*
X019910Y030930D01*
X019910Y031005D01*
X019985Y031080D01*
X020210Y031080D01*
X020210Y030630D01*
X019750Y030780D02*
X019600Y030630D01*
X019600Y031080D01*
X019750Y031080D02*
X019450Y031080D01*
X020435Y015930D02*
X020435Y015480D01*
X020736Y015480D01*
X020896Y015480D02*
X021121Y015480D01*
X021196Y015555D01*
X021196Y015855D01*
X021121Y015930D01*
X020896Y015930D01*
X020896Y015480D01*
X021356Y015555D02*
X021431Y015480D01*
X021581Y015480D01*
X021656Y015555D01*
X021656Y015630D01*
X021581Y015705D01*
X021506Y015705D01*
X021581Y015705D02*
X021656Y015780D01*
X021656Y015855D01*
X021581Y015930D01*
X021431Y015930D01*
X021356Y015855D01*
X021196Y013130D02*
X021196Y012680D01*
X021496Y012680D01*
X021656Y012680D02*
X021881Y012680D01*
X021956Y012755D01*
X021956Y013055D01*
X021881Y013130D01*
X021656Y013130D01*
X021656Y012680D01*
X022117Y012755D02*
X022192Y012680D01*
X022342Y012680D01*
X022417Y012755D01*
X022417Y012830D01*
X022342Y012905D01*
X022267Y012905D01*
X022342Y012905D02*
X022417Y012980D01*
X022417Y013055D01*
X022342Y013130D01*
X022192Y013130D01*
X022117Y013055D01*
X021036Y013055D02*
X021036Y012905D01*
X020961Y012830D01*
X020735Y012830D01*
X020735Y012680D02*
X020735Y013130D01*
X020961Y013130D01*
X021036Y013055D01*
X020885Y012830D02*
X021036Y012680D01*
X025985Y012055D02*
X026135Y012055D01*
X026060Y012055D02*
X026060Y011605D01*
X025985Y011605D02*
X026135Y011605D01*
X026292Y011680D02*
X026367Y011605D01*
X026517Y011605D01*
X026593Y011680D01*
X026753Y011605D02*
X027053Y011605D01*
X026903Y011605D02*
X026903Y012055D01*
X026753Y011905D01*
X026593Y011980D02*
X026517Y012055D01*
X026367Y012055D01*
X026292Y011980D01*
X026292Y011680D01*
X034140Y010330D02*
X034140Y010030D01*
X034215Y009955D01*
X034365Y009955D01*
X034440Y010030D01*
X034440Y010330D01*
X034365Y010405D01*
X034215Y010405D01*
X034140Y010330D01*
X034290Y010105D02*
X034440Y009955D01*
X034600Y009955D02*
X034900Y009955D01*
X034750Y009955D02*
X034750Y010405D01*
X034600Y010255D01*
X030350Y004755D02*
X030425Y004680D01*
X030125Y004380D01*
X030200Y004305D01*
X030350Y004305D01*
X030425Y004380D01*
X030425Y004680D01*
X030350Y004755D02*
X030200Y004755D01*
X030125Y004680D01*
X030125Y004380D01*
X029965Y004305D02*
X029665Y004305D01*
X029815Y004305D02*
X029815Y004755D01*
X029665Y004605D01*
X032725Y003755D02*
X032875Y003905D01*
X032875Y003455D01*
X032725Y003455D02*
X033025Y003455D01*
X032950Y002905D02*
X032800Y002905D01*
X032725Y002830D01*
X032950Y002905D02*
X033025Y002830D01*
X033025Y002755D01*
X032725Y002455D01*
X033025Y002455D01*
X024525Y002455D02*
X024225Y002455D01*
X024525Y002755D01*
X024525Y002830D01*
X024450Y002905D01*
X024300Y002905D01*
X024225Y002830D01*
X024225Y003455D02*
X024525Y003455D01*
X024375Y003455D02*
X024375Y003905D01*
X024225Y003755D01*
X021925Y004380D02*
X021850Y004305D01*
X021700Y004305D01*
X021625Y004380D01*
X021925Y004680D01*
X021925Y004380D01*
X021625Y004380D02*
X021625Y004680D01*
X021700Y004755D01*
X021850Y004755D01*
X021925Y004680D01*
X021465Y004305D02*
X021165Y004305D01*
X021315Y004305D02*
X021315Y004755D01*
X021165Y004605D01*
X041660Y013174D02*
X041735Y013099D01*
X042035Y013099D01*
X042110Y013174D01*
X042110Y013324D01*
X042035Y013399D01*
X042110Y013559D02*
X041660Y013559D01*
X041810Y013709D01*
X041660Y013859D01*
X042110Y013859D01*
X042035Y014020D02*
X042110Y014095D01*
X042110Y014245D01*
X042035Y014320D01*
X041960Y014320D01*
X041885Y014245D01*
X041885Y014170D01*
X041885Y014245D02*
X041810Y014320D01*
X041735Y014320D01*
X041660Y014245D01*
X041660Y014095D01*
X041735Y014020D01*
X041735Y013399D02*
X041660Y013324D01*
X041660Y013174D01*
X043610Y011630D02*
X043836Y011630D01*
X043911Y011555D01*
X043911Y011405D01*
X043836Y011330D01*
X043610Y011330D01*
X043610Y011180D02*
X043610Y011630D01*
X043760Y011330D02*
X043911Y011180D01*
X044071Y011180D02*
X044071Y011630D01*
X044296Y011630D01*
X044371Y011555D01*
X044371Y011405D01*
X044296Y011330D01*
X044071Y011330D01*
X044531Y011180D02*
X044831Y011480D01*
X044831Y011555D01*
X044756Y011630D01*
X044606Y011630D01*
X044531Y011555D01*
X044531Y011180D02*
X044831Y011180D01*
X044821Y013180D02*
X044821Y013630D01*
X045046Y013630D01*
X045121Y013555D01*
X045121Y013405D01*
X045046Y013330D01*
X044821Y013330D01*
X044661Y013405D02*
X044586Y013330D01*
X044360Y013330D01*
X044360Y013180D02*
X044360Y013630D01*
X044586Y013630D01*
X044661Y013555D01*
X044661Y013405D01*
X044510Y013330D02*
X044661Y013180D01*
X045281Y013180D02*
X045581Y013180D01*
X045431Y013180D02*
X045431Y013630D01*
X045281Y013480D01*
X044460Y014930D02*
X044160Y014930D01*
X044085Y015005D01*
X044085Y015155D01*
X044160Y015230D01*
X044085Y015390D02*
X044235Y015541D01*
X044085Y015691D01*
X044535Y015691D01*
X044535Y015851D02*
X044535Y016151D01*
X044535Y016001D02*
X044085Y016001D01*
X044235Y015851D01*
X044085Y015390D02*
X044535Y015390D01*
X044460Y015230D02*
X044535Y015155D01*
X044535Y015005D01*
X044460Y014930D01*
X050285Y009855D02*
X050360Y009705D01*
X050510Y009555D01*
X050510Y009780D01*
X050585Y009855D01*
X050660Y009855D01*
X050735Y009780D01*
X050735Y009630D01*
X050660Y009555D01*
X050510Y009555D01*
X049885Y008005D02*
X049885Y007705D01*
X049885Y007855D02*
X049435Y007855D01*
X049585Y007705D01*
X048885Y007705D02*
X048585Y008005D01*
X048510Y008005D01*
X048435Y007930D01*
X048435Y007780D01*
X048510Y007705D01*
X048885Y007705D02*
X048885Y008005D01*
D19*
X051320Y011886D02*
X051320Y012096D01*
X051320Y011991D02*
X051845Y011991D01*
X051950Y011886D01*
X051950Y011781D01*
X051845Y011676D01*
X051740Y012320D02*
X051740Y012636D01*
X051635Y012741D01*
X051425Y012741D01*
X051320Y012636D01*
X051320Y012320D01*
X051950Y012320D01*
X052013Y018246D02*
X052013Y018456D01*
X052013Y018351D02*
X051382Y018351D01*
X051382Y018246D02*
X051382Y018456D01*
X051487Y018676D02*
X051908Y018676D01*
X052013Y018781D01*
X052013Y018991D01*
X051908Y019096D01*
X051908Y019320D02*
X052013Y019426D01*
X052013Y019636D01*
X051908Y019741D01*
X051803Y019741D01*
X051698Y019636D01*
X051698Y019426D01*
X051593Y019320D01*
X051487Y019320D01*
X051382Y019426D01*
X051382Y019636D01*
X051487Y019741D01*
X051487Y019096D02*
X051382Y018991D01*
X051382Y018781D01*
X051487Y018676D01*
X039815Y023400D02*
X039815Y024031D01*
X039605Y023820D01*
X039395Y024031D01*
X039395Y023400D01*
X039170Y023505D02*
X039065Y023400D01*
X038855Y023400D01*
X038750Y023505D01*
X038750Y023925D01*
X038855Y024031D01*
X039065Y024031D01*
X039170Y023925D01*
X038531Y024031D02*
X038320Y024031D01*
X038425Y024031D02*
X038425Y023400D01*
X038320Y023400D02*
X038531Y023400D01*
X033866Y001146D02*
X033656Y001146D01*
X033551Y001040D01*
X033327Y001146D02*
X033327Y000725D01*
X033116Y000515D01*
X032906Y000725D01*
X032906Y001146D01*
X032682Y001040D02*
X032577Y001146D01*
X032367Y001146D01*
X032262Y001040D01*
X032262Y000935D01*
X032367Y000830D01*
X032577Y000830D01*
X032682Y000725D01*
X032682Y000620D01*
X032577Y000515D01*
X032367Y000515D01*
X032262Y000620D01*
X033551Y000515D02*
X033971Y000935D01*
X033971Y001040D01*
X033866Y001146D01*
X033971Y000515D02*
X033551Y000515D01*
X025471Y000515D02*
X025051Y000515D01*
X025261Y000515D02*
X025261Y001146D01*
X025051Y000935D01*
X024827Y000725D02*
X024827Y001146D01*
X024406Y001146D02*
X024406Y000725D01*
X024616Y000515D01*
X024827Y000725D01*
X024182Y000725D02*
X024182Y000620D01*
X024077Y000515D01*
X023867Y000515D01*
X023762Y000620D01*
X023867Y000830D02*
X023762Y000935D01*
X023762Y001040D01*
X023867Y001146D01*
X024077Y001146D01*
X024182Y001040D01*
X024077Y000830D02*
X024182Y000725D01*
X024077Y000830D02*
X023867Y000830D01*
X044781Y000640D02*
X045202Y001271D01*
X045426Y001060D02*
X045636Y001271D01*
X045636Y000640D01*
X045426Y000640D02*
X045846Y000640D01*
X045202Y000640D02*
X044781Y001271D01*
D20*
X047810Y007080D02*
X050510Y007080D01*
X050510Y008880D01*
X050510Y010480D02*
X050510Y012280D01*
X047810Y012280D01*
X047810Y007080D01*
X033760Y004530D02*
X033760Y001830D01*
X026560Y001830D01*
X026560Y004530D01*
X028360Y004530D01*
X028960Y004530D02*
X029360Y004530D01*
X030960Y004530D02*
X033760Y004530D01*
X025260Y004530D02*
X025260Y001830D01*
X018060Y001830D01*
X018060Y004530D01*
X019860Y004530D01*
X020460Y004530D02*
X020860Y004530D01*
X022460Y004530D02*
X025260Y004530D01*
X045848Y020630D02*
X049098Y020630D01*
X049098Y024230D01*
X045848Y024230D01*
X045848Y020630D01*
X032910Y027980D02*
X032910Y028080D01*
X031910Y028080D01*
X031910Y027980D01*
X031960Y030280D02*
X031960Y030380D01*
X031960Y030280D02*
X032910Y030280D01*
X032910Y030380D01*
X026660Y030280D02*
X026660Y030380D01*
X026660Y030280D02*
X025710Y030280D01*
X025710Y030380D01*
X025660Y028080D02*
X025660Y027980D01*
X025660Y028080D02*
X026660Y028080D01*
X026660Y027980D01*
X020410Y027980D02*
X020410Y028080D01*
X019410Y028080D01*
X019410Y027980D01*
X019460Y030280D02*
X019460Y030380D01*
X019460Y030280D02*
X020410Y030280D01*
X020410Y030380D01*
D21*
X049334Y024016D02*
X049393Y024074D01*
X049568Y024074D01*
X049568Y023958D02*
X049393Y023958D01*
X049334Y024016D01*
X049393Y023958D02*
X049334Y023899D01*
X049334Y023841D01*
X049568Y023841D01*
X049568Y023715D02*
X049393Y023715D01*
X049334Y023657D01*
X049393Y023599D01*
X049568Y023599D01*
X049568Y023482D02*
X049334Y023482D01*
X049334Y023540D01*
X049393Y023599D01*
X049334Y023356D02*
X049276Y023356D01*
X049218Y023298D01*
X049218Y023181D01*
X049276Y023123D01*
X049334Y023356D02*
X049568Y023123D01*
X049568Y023356D01*
X049568Y023000D02*
X049568Y022942D01*
X049509Y022942D01*
X049509Y023000D01*
X049568Y023000D01*
X049685Y022883D01*
X049509Y022758D02*
X049568Y022699D01*
X049568Y022583D01*
X049509Y022524D01*
X049393Y022524D02*
X049334Y022641D01*
X049334Y022699D01*
X049393Y022758D01*
X049509Y022758D01*
X049393Y022524D02*
X049218Y022524D01*
X049218Y022758D01*
X049218Y022282D02*
X049568Y022282D01*
X049568Y022165D02*
X049568Y022399D01*
X049334Y022165D02*
X049218Y022282D01*
X049334Y022039D02*
X049568Y022039D01*
X049393Y022039D02*
X049393Y021806D01*
X049334Y021806D02*
X049218Y021923D01*
X049334Y022039D01*
X049334Y021806D02*
X049568Y021806D01*
D22*
X045423Y021430D03*
X045423Y022430D03*
X045423Y023430D03*
D23*
X049848Y022430D02*
X049850Y022480D01*
X049856Y022530D01*
X049866Y022580D01*
X049879Y022628D01*
X049896Y022676D01*
X049917Y022722D01*
X049941Y022766D01*
X049969Y022808D01*
X050000Y022848D01*
X050034Y022885D01*
X050071Y022920D01*
X050110Y022951D01*
X050151Y022980D01*
X050195Y023005D01*
X050241Y023027D01*
X050288Y023045D01*
X050336Y023059D01*
X050385Y023070D01*
X050435Y023077D01*
X050485Y023080D01*
X050536Y023079D01*
X050586Y023074D01*
X050636Y023065D01*
X050684Y023053D01*
X050732Y023036D01*
X050778Y023016D01*
X050823Y022993D01*
X050866Y022966D01*
X050906Y022936D01*
X050944Y022903D01*
X050979Y022867D01*
X051012Y022828D01*
X051041Y022787D01*
X051067Y022744D01*
X051090Y022699D01*
X051109Y022652D01*
X051124Y022604D01*
X051136Y022555D01*
X051144Y022505D01*
X051148Y022455D01*
X051148Y022405D01*
X051144Y022355D01*
X051136Y022305D01*
X051124Y022256D01*
X051109Y022208D01*
X051090Y022161D01*
X051067Y022116D01*
X051041Y022073D01*
X051012Y022032D01*
X050979Y021993D01*
X050944Y021957D01*
X050906Y021924D01*
X050866Y021894D01*
X050823Y021867D01*
X050778Y021844D01*
X050732Y021824D01*
X050684Y021807D01*
X050636Y021795D01*
X050586Y021786D01*
X050536Y021781D01*
X050485Y021780D01*
X050435Y021783D01*
X050385Y021790D01*
X050336Y021801D01*
X050288Y021815D01*
X050241Y021833D01*
X050195Y021855D01*
X050151Y021880D01*
X050110Y021909D01*
X050071Y021940D01*
X050034Y021975D01*
X050000Y022012D01*
X049969Y022052D01*
X049941Y022094D01*
X049917Y022138D01*
X049896Y022184D01*
X049879Y022232D01*
X049866Y022280D01*
X049856Y022330D01*
X049850Y022380D01*
X049848Y022430D01*
D24*
X044960Y026330D02*
X044660Y026330D01*
X044360Y026330D01*
X044360Y026530D02*
X044660Y026530D01*
X044960Y026530D01*
X041760Y025230D02*
X041760Y024930D01*
X041760Y024630D01*
X041560Y024630D02*
X041560Y024930D01*
X041560Y025230D01*
X042557Y028735D02*
X042605Y028765D01*
X042650Y028798D01*
X042693Y028834D01*
X042734Y028872D01*
X042771Y028914D01*
X042806Y028958D01*
X042837Y029004D01*
X042866Y029053D01*
X042890Y029103D01*
X042911Y029155D01*
X042929Y029209D01*
X042942Y029263D01*
X042952Y029318D01*
X042958Y029374D01*
X042960Y029430D01*
X041784Y028724D02*
X041737Y028751D01*
X041692Y028781D01*
X041649Y028814D01*
X041609Y028850D01*
X041571Y028889D01*
X041536Y028930D01*
X041503Y028973D01*
X041474Y029018D01*
X041448Y029066D01*
X041425Y029115D01*
X041405Y029165D01*
X041389Y029216D01*
X041376Y029269D01*
X041367Y029322D01*
X041362Y029376D01*
X041360Y029430D01*
X042677Y030041D02*
X042716Y030005D01*
X042754Y029966D01*
X042788Y029926D01*
X042820Y029883D01*
X042848Y029838D01*
X042874Y029791D01*
X042897Y029742D01*
X042916Y029692D01*
X042932Y029641D01*
X042944Y029589D01*
X042953Y029537D01*
X042958Y029483D01*
X042960Y029430D01*
X041648Y030045D02*
X041608Y030009D01*
X041570Y029970D01*
X041535Y029929D01*
X041503Y029886D01*
X041473Y029841D01*
X041447Y029794D01*
X041425Y029745D01*
X041405Y029694D01*
X041389Y029643D01*
X041376Y029591D01*
X041367Y029537D01*
X041362Y029484D01*
X041360Y029430D01*
X035010Y024480D02*
X035010Y024180D01*
X035010Y023880D01*
X034810Y023880D02*
X034810Y024180D01*
X034810Y024480D01*
X028760Y024480D02*
X028760Y024180D01*
X028760Y023880D01*
X028560Y023880D02*
X028560Y024180D01*
X028560Y024480D01*
X026510Y019980D02*
X026510Y019680D01*
X026510Y019380D01*
X026310Y019380D02*
X026310Y019680D01*
X026310Y019980D01*
X023510Y023880D02*
X023510Y024180D01*
X023510Y024480D01*
X023310Y024480D02*
X023310Y024180D01*
X023310Y023880D01*
X019160Y023980D02*
X019106Y023978D01*
X019052Y023973D01*
X018999Y023964D01*
X018946Y023951D01*
X018895Y023935D01*
X018845Y023915D01*
X018796Y023892D01*
X018748Y023866D01*
X018703Y023837D01*
X018660Y023804D01*
X018619Y023769D01*
X018580Y023731D01*
X018544Y023691D01*
X018511Y023648D01*
X018481Y023603D01*
X018454Y023556D01*
X018465Y022783D02*
X018495Y022735D01*
X018528Y022690D01*
X018564Y022647D01*
X018602Y022606D01*
X018644Y022569D01*
X018688Y022534D01*
X018734Y022503D01*
X018783Y022474D01*
X018833Y022450D01*
X018885Y022429D01*
X018939Y022411D01*
X018993Y022398D01*
X019048Y022388D01*
X019104Y022382D01*
X019160Y022380D01*
X019213Y022382D01*
X019267Y022387D01*
X019319Y022396D01*
X019371Y022408D01*
X019422Y022424D01*
X019472Y022443D01*
X019521Y022466D01*
X019568Y022492D01*
X019613Y022520D01*
X019656Y022552D01*
X019696Y022586D01*
X019735Y022624D01*
X019771Y022663D01*
X019775Y023692D02*
X019739Y023732D01*
X019700Y023770D01*
X019659Y023805D01*
X019616Y023837D01*
X019571Y023867D01*
X019524Y023893D01*
X019475Y023915D01*
X019424Y023935D01*
X019373Y023951D01*
X019321Y023964D01*
X019267Y023973D01*
X019214Y023978D01*
X019160Y023980D01*
X018465Y020283D02*
X018495Y020235D01*
X018528Y020190D01*
X018564Y020147D01*
X018602Y020106D01*
X018644Y020069D01*
X018688Y020034D01*
X018734Y020003D01*
X018783Y019974D01*
X018833Y019950D01*
X018885Y019929D01*
X018939Y019911D01*
X018993Y019898D01*
X019048Y019888D01*
X019104Y019882D01*
X019160Y019880D01*
X018454Y021056D02*
X018481Y021103D01*
X018511Y021148D01*
X018544Y021191D01*
X018580Y021231D01*
X018619Y021269D01*
X018660Y021304D01*
X018703Y021337D01*
X018748Y021366D01*
X018796Y021392D01*
X018845Y021415D01*
X018895Y021435D01*
X018946Y021451D01*
X018999Y021464D01*
X019052Y021473D01*
X019106Y021478D01*
X019160Y021480D01*
X019771Y020163D02*
X019735Y020124D01*
X019696Y020086D01*
X019656Y020052D01*
X019613Y020020D01*
X019568Y019992D01*
X019521Y019966D01*
X019472Y019943D01*
X019422Y019924D01*
X019371Y019908D01*
X019319Y019896D01*
X019267Y019887D01*
X019213Y019882D01*
X019160Y019880D01*
X019775Y021192D02*
X019739Y021232D01*
X019700Y021270D01*
X019659Y021305D01*
X019616Y021337D01*
X019571Y021367D01*
X019524Y021393D01*
X019475Y021415D01*
X019424Y021435D01*
X019373Y021451D01*
X019321Y021464D01*
X019267Y021473D01*
X019214Y021478D01*
X019160Y021480D01*
X018465Y017783D02*
X018495Y017735D01*
X018528Y017690D01*
X018564Y017647D01*
X018602Y017606D01*
X018644Y017569D01*
X018688Y017534D01*
X018734Y017503D01*
X018783Y017474D01*
X018833Y017450D01*
X018885Y017429D01*
X018939Y017411D01*
X018993Y017398D01*
X019048Y017388D01*
X019104Y017382D01*
X019160Y017380D01*
X018454Y018556D02*
X018481Y018603D01*
X018511Y018648D01*
X018544Y018691D01*
X018580Y018731D01*
X018619Y018769D01*
X018660Y018804D01*
X018703Y018837D01*
X018748Y018866D01*
X018796Y018892D01*
X018845Y018915D01*
X018895Y018935D01*
X018946Y018951D01*
X018999Y018964D01*
X019052Y018973D01*
X019106Y018978D01*
X019160Y018980D01*
X019771Y017663D02*
X019735Y017624D01*
X019696Y017586D01*
X019656Y017552D01*
X019613Y017520D01*
X019568Y017492D01*
X019521Y017466D01*
X019472Y017443D01*
X019422Y017424D01*
X019371Y017408D01*
X019319Y017396D01*
X019267Y017387D01*
X019213Y017382D01*
X019160Y017380D01*
X019775Y018692D02*
X019739Y018732D01*
X019700Y018770D01*
X019659Y018805D01*
X019616Y018837D01*
X019571Y018867D01*
X019524Y018893D01*
X019475Y018915D01*
X019424Y018935D01*
X019373Y018951D01*
X019321Y018964D01*
X019267Y018973D01*
X019214Y018978D01*
X019160Y018980D01*
X018465Y015283D02*
X018495Y015235D01*
X018528Y015190D01*
X018564Y015147D01*
X018602Y015106D01*
X018644Y015069D01*
X018688Y015034D01*
X018734Y015003D01*
X018783Y014974D01*
X018833Y014950D01*
X018885Y014929D01*
X018939Y014911D01*
X018993Y014898D01*
X019048Y014888D01*
X019104Y014882D01*
X019160Y014880D01*
X018454Y016056D02*
X018481Y016103D01*
X018511Y016148D01*
X018544Y016191D01*
X018580Y016231D01*
X018619Y016269D01*
X018660Y016304D01*
X018703Y016337D01*
X018748Y016366D01*
X018796Y016392D01*
X018845Y016415D01*
X018895Y016435D01*
X018946Y016451D01*
X018999Y016464D01*
X019052Y016473D01*
X019106Y016478D01*
X019160Y016480D01*
X019771Y015163D02*
X019735Y015124D01*
X019696Y015086D01*
X019656Y015052D01*
X019613Y015020D01*
X019568Y014992D01*
X019521Y014966D01*
X019472Y014943D01*
X019422Y014924D01*
X019371Y014908D01*
X019319Y014896D01*
X019267Y014887D01*
X019213Y014882D01*
X019160Y014880D01*
X019775Y016192D02*
X019739Y016232D01*
X019700Y016270D01*
X019659Y016305D01*
X019616Y016337D01*
X019571Y016367D01*
X019524Y016393D01*
X019475Y016415D01*
X019424Y016435D01*
X019373Y016451D01*
X019321Y016464D01*
X019267Y016473D01*
X019214Y016478D01*
X019160Y016480D01*
X034610Y014030D02*
X034910Y014030D01*
X035210Y014030D01*
X035210Y013830D02*
X034910Y013830D01*
X034610Y013830D01*
X035860Y013830D02*
X036160Y013830D01*
X036460Y013830D01*
X036460Y014030D02*
X036160Y014030D01*
X035860Y014030D01*
X035860Y015830D02*
X036160Y015830D01*
X036460Y015830D01*
X036460Y016030D02*
X036160Y016030D01*
X035860Y016030D01*
X041610Y015780D02*
X041910Y015780D01*
X042210Y015780D01*
X042210Y015580D02*
X041910Y015580D01*
X041610Y015580D01*
X043110Y015580D02*
X043410Y015580D01*
X043710Y015580D01*
X043710Y015780D02*
X043410Y015780D01*
X043110Y015780D01*
X045910Y004305D02*
X037910Y004305D01*
X037910Y003555D01*
X045910Y003555D01*
X045910Y001805D01*
X037910Y001805D01*
X037910Y003555D01*
X045910Y003555D02*
X045910Y004305D01*
D25*
X040210Y027436D03*
D26*
X040605Y027430D03*
X038716Y027430D03*
D27*
X035410Y028600D03*
X035410Y025760D03*
X029160Y025760D03*
X029160Y028600D03*
X022910Y028600D03*
X022910Y025760D03*
X023410Y019100D03*
X023410Y016260D03*
X029660Y015760D03*
X031160Y015760D03*
X031160Y018600D03*
X029660Y018600D03*
D28*
X023080Y012930D03*
X020240Y012930D03*
X021330Y025180D03*
X018490Y025180D03*
X024740Y025180D03*
X027580Y025180D03*
X030990Y025180D03*
X033830Y025180D03*
X037740Y026430D03*
X040580Y026430D03*
X043740Y013430D03*
X042990Y011430D03*
X045830Y011430D03*
X046580Y013430D03*
D29*
X048660Y010680D03*
X049660Y010680D03*
X049660Y009680D03*
X048660Y009680D03*
X048660Y008680D03*
X049660Y008680D03*
M02*
