G75*
%MOIN*%
%OFA0B0*%
%FSLAX24Y24*%
%IPPOS*%
%LPD*%
%AMOC8*
5,1,8,0,0,1.08239X$1,22.5*
%
%ADD10C,0.0120*%
%ADD11C,0.0160*%
%ADD12C,0.0110*%
%ADD13C,0.0300*%
%ADD14C,0.0200*%
%ADD15C,0.0320*%
%ADD16C,0.0140*%
%ADD17C,0.0240*%
%ADD18C,0.0705*%
%ADD19C,0.0480*%
%ADD20C,0.0600*%
%ADD21C,0.0000*%
%ADD22OC8,0.0480*%
%ADD23OC8,0.0500*%
%ADD24C,0.0500*%
%ADD25C,0.0480*%
%ADD26C,0.0669*%
%ADD27R,0.0689X0.0689*%
%ADD28R,0.0591X0.0591*%
%ADD29C,0.0591*%
%ADD30OC8,0.0540*%
%ADD31C,0.0560*%
%ADD32C,0.0591*%
%ADD33R,0.0356X0.0356*%
%ADD34C,0.0500*%
%ADD35C,0.2756*%
D10*
X013160Y000180D02*
X052530Y000180D01*
X052530Y031676D01*
X013160Y031676D01*
D11*
X013160Y000180D01*
X013720Y000720D02*
X013930Y000720D01*
X013720Y000929D01*
X013720Y000720D01*
X013720Y000814D02*
X013836Y000814D01*
X016328Y000720D02*
X016616Y001008D01*
X016860Y001431D01*
X016987Y001904D01*
X016987Y002393D01*
X016860Y002866D01*
X016616Y003289D01*
X016270Y003635D01*
X016192Y003680D01*
X018910Y003680D01*
X018910Y004950D01*
X024756Y004950D01*
X024932Y005023D01*
X025067Y005158D01*
X025140Y005335D01*
X025140Y006525D01*
X025067Y006702D01*
X024932Y006837D01*
X025635Y006837D01*
X025635Y006776D02*
X025753Y006491D01*
X025971Y006273D01*
X026256Y006155D01*
X026565Y006155D01*
X026680Y006203D01*
X026680Y005335D01*
X026753Y005158D01*
X026888Y005023D01*
X027065Y004950D01*
X034006Y004950D01*
X034182Y005023D01*
X034317Y005158D01*
X034390Y005335D01*
X034390Y006525D01*
X034317Y006702D01*
X034182Y006837D01*
X038680Y006837D01*
X038680Y006694D02*
X038635Y006584D01*
X038635Y006276D01*
X038702Y006113D01*
X038638Y006087D01*
X038503Y005952D01*
X038430Y005775D01*
X038430Y004335D01*
X038503Y004158D01*
X038536Y004126D01*
X038256Y004126D01*
X037971Y004008D01*
X037753Y003789D01*
X037639Y003515D01*
X037633Y003523D01*
X037329Y003669D01*
X036992Y003669D01*
X036688Y003523D01*
X036477Y003259D01*
X036402Y002930D01*
X036477Y002601D01*
X036688Y002337D01*
X036992Y002191D01*
X037329Y002191D01*
X037633Y002337D01*
X037708Y002431D01*
X037753Y002321D01*
X037971Y002102D01*
X038256Y001984D01*
X038565Y001984D01*
X038850Y002102D01*
X038910Y002163D01*
X038971Y002102D01*
X039256Y001984D01*
X039565Y001984D01*
X039850Y002102D01*
X039910Y002163D01*
X039971Y002102D01*
X040256Y001984D01*
X040565Y001984D01*
X040850Y002102D01*
X040910Y002163D01*
X040971Y002102D01*
X041256Y001984D01*
X041565Y001984D01*
X041850Y002102D01*
X041910Y002163D01*
X041971Y002102D01*
X042256Y001984D01*
X042565Y001984D01*
X042850Y002102D01*
X042910Y002163D01*
X042971Y002102D01*
X043256Y001984D01*
X043565Y001984D01*
X043850Y002102D01*
X043910Y002163D01*
X043971Y002102D01*
X044256Y001984D01*
X044565Y001984D01*
X044850Y002102D01*
X044910Y002163D01*
X044971Y002102D01*
X045256Y001984D01*
X045565Y001984D01*
X045850Y002102D01*
X046068Y002321D01*
X046186Y002606D01*
X046186Y003504D01*
X046068Y003789D01*
X045850Y004008D01*
X045565Y004126D01*
X045256Y004126D01*
X044971Y004008D01*
X044910Y003947D01*
X044863Y003994D01*
X044932Y004023D01*
X045067Y004158D01*
X045140Y004335D01*
X045140Y005775D01*
X045067Y005952D01*
X044932Y006087D01*
X044756Y006160D01*
X044077Y006160D01*
X044350Y006273D01*
X044568Y006491D01*
X044686Y006776D01*
X044686Y007084D01*
X044568Y007369D01*
X044507Y007430D01*
X044568Y007491D01*
X044686Y007776D01*
X044686Y007863D01*
X047343Y005205D01*
X047549Y005120D01*
X048124Y005120D01*
X048221Y005023D01*
X048506Y004905D01*
X048815Y004905D01*
X049100Y005023D01*
X049318Y005241D01*
X049436Y005526D01*
X049436Y005834D01*
X049318Y006119D01*
X049100Y006337D01*
X048815Y006455D01*
X048506Y006455D01*
X048221Y006337D01*
X048124Y006240D01*
X047892Y006240D01*
X044728Y009405D01*
X044522Y009490D01*
X043447Y009490D01*
X043350Y009587D01*
X043463Y009700D01*
X044858Y009700D01*
X046208Y008350D01*
X046253Y008241D01*
X046471Y008023D01*
X046756Y007905D01*
X047065Y007905D01*
X047350Y008023D01*
X047568Y008241D01*
X047686Y008526D01*
X047686Y008834D01*
X047568Y009119D01*
X047350Y009337D01*
X047240Y009383D01*
X045890Y010732D01*
X045890Y010932D01*
X046112Y010710D01*
X046709Y010710D01*
X047130Y011132D01*
X047130Y011728D01*
X046709Y012150D01*
X046112Y012150D01*
X045890Y011928D01*
X045890Y017325D01*
X045779Y017594D01*
X044693Y018680D01*
X051990Y018680D01*
X051990Y003348D01*
X051703Y003635D01*
X051279Y003880D01*
X050807Y004006D01*
X050317Y004006D01*
X049845Y003880D01*
X049421Y003635D01*
X049075Y003289D01*
X048831Y002866D01*
X048704Y002393D01*
X048704Y001904D01*
X048831Y001431D01*
X049075Y001008D01*
X049363Y000720D01*
X016328Y000720D01*
X016422Y000814D02*
X049269Y000814D01*
X049110Y000973D02*
X016580Y000973D01*
X016687Y001131D02*
X049004Y001131D01*
X048913Y001290D02*
X016778Y001290D01*
X016865Y001448D02*
X048826Y001448D01*
X048784Y001607D02*
X016907Y001607D01*
X016950Y001765D02*
X048741Y001765D01*
X048704Y001924D02*
X016987Y001924D01*
X016987Y002082D02*
X019198Y002082D01*
X019350Y001930D02*
X019971Y001930D01*
X020160Y002119D01*
X020350Y001930D01*
X020971Y001930D01*
X021160Y002119D01*
X021350Y001930D01*
X021971Y001930D01*
X022160Y002119D01*
X022350Y001930D01*
X022971Y001930D01*
X023160Y002119D01*
X023350Y001930D01*
X023971Y001930D01*
X024410Y002369D01*
X024410Y002991D01*
X024221Y003180D01*
X024300Y003259D01*
X024438Y003087D01*
X024742Y002941D01*
X025079Y002941D01*
X025383Y003087D01*
X025593Y003351D01*
X025668Y003680D01*
X025593Y004009D01*
X025383Y004273D01*
X025079Y004419D01*
X024742Y004419D01*
X024438Y004273D01*
X024300Y004101D01*
X023971Y004430D01*
X023350Y004430D01*
X023160Y004241D01*
X022971Y004430D01*
X022350Y004430D01*
X022160Y004241D01*
X021971Y004430D01*
X021350Y004430D01*
X021160Y004241D01*
X020971Y004430D01*
X020350Y004430D01*
X020160Y004241D01*
X019971Y004430D01*
X019350Y004430D01*
X018910Y003991D01*
X018910Y003369D01*
X019100Y003180D01*
X018910Y002991D01*
X018910Y002369D01*
X019350Y001930D01*
X019039Y002241D02*
X016987Y002241D01*
X016985Y002399D02*
X018910Y002399D01*
X018910Y002558D02*
X016943Y002558D01*
X016900Y002716D02*
X018910Y002716D01*
X018910Y002875D02*
X016855Y002875D01*
X016764Y003033D02*
X018953Y003033D01*
X019088Y003192D02*
X016672Y003192D01*
X016555Y003350D02*
X018930Y003350D01*
X018910Y003509D02*
X016396Y003509D01*
X016215Y003667D02*
X018910Y003667D01*
X018910Y004143D02*
X019062Y004143D01*
X018910Y004301D02*
X019221Y004301D01*
X018910Y004460D02*
X038430Y004460D01*
X038430Y004618D02*
X018910Y004618D01*
X018910Y004777D02*
X038430Y004777D01*
X038430Y004935D02*
X018910Y004935D01*
X020100Y004301D02*
X020221Y004301D01*
X021100Y004301D02*
X021221Y004301D01*
X022100Y004301D02*
X022221Y004301D01*
X023100Y004301D02*
X023221Y004301D01*
X024100Y004301D02*
X024496Y004301D01*
X024334Y004143D02*
X024259Y004143D01*
X024233Y003192D02*
X024355Y003192D01*
X024368Y003033D02*
X024550Y003033D01*
X024410Y002875D02*
X027410Y002875D01*
X027410Y002991D02*
X027410Y002369D01*
X027850Y001930D01*
X028471Y001930D01*
X028660Y002119D01*
X028850Y001930D01*
X029471Y001930D01*
X029660Y002119D01*
X029850Y001930D01*
X030471Y001930D01*
X030660Y002119D01*
X030850Y001930D01*
X031471Y001930D01*
X031660Y002119D01*
X031850Y001930D01*
X032471Y001930D01*
X032910Y002369D01*
X032910Y002991D01*
X032721Y003180D01*
X032800Y003259D01*
X032938Y003087D01*
X033242Y002941D01*
X033579Y002941D01*
X033883Y003087D01*
X034093Y003351D01*
X034168Y003680D01*
X034093Y004009D01*
X033883Y004273D01*
X033579Y004419D01*
X033242Y004419D01*
X032938Y004273D01*
X032800Y004101D01*
X032471Y004430D01*
X031850Y004430D01*
X031660Y004241D01*
X031471Y004430D01*
X030850Y004430D01*
X030660Y004241D01*
X030471Y004430D01*
X029850Y004430D01*
X029660Y004241D01*
X029471Y004430D01*
X028850Y004430D01*
X028660Y004241D01*
X028471Y004430D01*
X027850Y004430D01*
X027410Y003991D01*
X027410Y003369D01*
X027600Y003180D01*
X027410Y002991D01*
X027453Y003033D02*
X025270Y003033D01*
X025466Y003192D02*
X027588Y003192D01*
X027430Y003350D02*
X025593Y003350D01*
X025629Y003509D02*
X027410Y003509D01*
X027410Y003667D02*
X025666Y003667D01*
X025635Y003826D02*
X027410Y003826D01*
X027410Y003984D02*
X025599Y003984D01*
X025487Y004143D02*
X027562Y004143D01*
X027721Y004301D02*
X025324Y004301D01*
X025003Y005094D02*
X026818Y005094D01*
X026715Y005252D02*
X025106Y005252D01*
X025140Y005411D02*
X026680Y005411D01*
X026680Y005569D02*
X025140Y005569D01*
X025140Y005728D02*
X026680Y005728D01*
X026680Y005886D02*
X025140Y005886D01*
X025140Y006045D02*
X026680Y006045D01*
X026140Y006203D02*
X025140Y006203D01*
X025140Y006362D02*
X025882Y006362D01*
X025741Y006520D02*
X025140Y006520D01*
X025077Y006679D02*
X025675Y006679D01*
X025635Y006776D02*
X025635Y007084D01*
X025650Y007120D01*
X025197Y007120D01*
X025100Y007023D01*
X024815Y006905D01*
X024769Y006905D01*
X024932Y006837D01*
X025034Y006996D02*
X025635Y006996D01*
X026410Y006930D02*
X030910Y006930D01*
X031660Y007680D01*
X031660Y013180D01*
X033160Y014680D01*
X033160Y016180D01*
X035410Y018430D01*
X036128Y018725D02*
X036763Y018725D01*
X036810Y018838D02*
X036700Y018573D01*
X036700Y018287D01*
X036810Y018022D01*
X036902Y017930D01*
X036810Y017838D01*
X036700Y017573D01*
X036700Y017287D01*
X036810Y017022D01*
X036902Y016930D01*
X036810Y016838D01*
X036798Y016810D01*
X036459Y017150D01*
X035862Y017150D01*
X035440Y016728D01*
X035440Y016132D01*
X035642Y015930D01*
X035440Y015728D01*
X035440Y015132D01*
X035642Y014930D01*
X035535Y014823D01*
X035209Y015150D01*
X034612Y015150D01*
X034190Y014728D01*
X034190Y014132D01*
X034392Y013930D01*
X034190Y013728D01*
X034190Y013132D01*
X034612Y012710D01*
X035209Y012710D01*
X035535Y013037D01*
X035862Y012710D01*
X036459Y012710D01*
X036798Y013050D01*
X036810Y013022D01*
X036902Y012930D01*
X036810Y012838D01*
X036700Y012573D01*
X036700Y012287D01*
X036810Y012022D01*
X036902Y011930D01*
X036810Y011838D01*
X036700Y011573D01*
X036700Y011287D01*
X036810Y011022D01*
X036902Y010930D01*
X036810Y010838D01*
X036700Y010573D01*
X036700Y010287D01*
X036810Y010022D01*
X036902Y009930D01*
X036810Y009838D01*
X036700Y009573D01*
X036700Y009287D01*
X036810Y009022D01*
X037013Y008820D01*
X037277Y008710D01*
X037898Y008710D01*
X037894Y008705D01*
X037756Y008705D01*
X037471Y008587D01*
X037253Y008369D01*
X037135Y008084D01*
X037135Y007776D01*
X037253Y007491D01*
X037471Y007273D01*
X037756Y007155D01*
X038065Y007155D01*
X038350Y007273D01*
X038568Y007491D01*
X038680Y007763D01*
X038680Y006694D01*
X038674Y006679D02*
X034327Y006679D01*
X034390Y006520D02*
X038635Y006520D01*
X038635Y006362D02*
X034390Y006362D01*
X034390Y006203D02*
X038665Y006203D01*
X038596Y006045D02*
X034390Y006045D01*
X034390Y005886D02*
X038476Y005886D01*
X038430Y005728D02*
X034390Y005728D01*
X034390Y005569D02*
X038430Y005569D01*
X038430Y005411D02*
X034390Y005411D01*
X034356Y005252D02*
X038430Y005252D01*
X038430Y005094D02*
X034253Y005094D01*
X033824Y004301D02*
X038444Y004301D01*
X038519Y004143D02*
X033987Y004143D01*
X034099Y003984D02*
X037948Y003984D01*
X037789Y003826D02*
X034135Y003826D01*
X034166Y003667D02*
X036987Y003667D01*
X037333Y003667D02*
X037702Y003667D01*
X036676Y003509D02*
X034129Y003509D01*
X034093Y003350D02*
X036550Y003350D01*
X036462Y003192D02*
X033966Y003192D01*
X033770Y003033D02*
X036426Y003033D01*
X036415Y002875D02*
X032910Y002875D01*
X032910Y002716D02*
X036451Y002716D01*
X036512Y002558D02*
X032910Y002558D01*
X032910Y002399D02*
X036638Y002399D01*
X036889Y002241D02*
X032782Y002241D01*
X032623Y002082D02*
X038021Y002082D01*
X037833Y002241D02*
X037432Y002241D01*
X037682Y002399D02*
X037721Y002399D01*
X038800Y002082D02*
X039021Y002082D01*
X039800Y002082D02*
X040021Y002082D01*
X040800Y002082D02*
X041021Y002082D01*
X041800Y002082D02*
X042021Y002082D01*
X042800Y002082D02*
X043021Y002082D01*
X043800Y002082D02*
X044021Y002082D01*
X044800Y002082D02*
X045021Y002082D01*
X045800Y002082D02*
X048704Y002082D01*
X048704Y002241D02*
X045988Y002241D01*
X046100Y002399D02*
X048706Y002399D01*
X048748Y002558D02*
X046166Y002558D01*
X046186Y002716D02*
X048791Y002716D01*
X048836Y002875D02*
X046186Y002875D01*
X046186Y003033D02*
X048927Y003033D01*
X049019Y003192D02*
X046186Y003192D01*
X046186Y003350D02*
X049136Y003350D01*
X049294Y003509D02*
X046184Y003509D01*
X046118Y003667D02*
X049476Y003667D01*
X049751Y003826D02*
X046032Y003826D01*
X045873Y003984D02*
X050234Y003984D01*
X050890Y003984D02*
X051990Y003984D01*
X051990Y003826D02*
X051373Y003826D01*
X051648Y003667D02*
X051990Y003667D01*
X051990Y003509D02*
X051829Y003509D01*
X051988Y003350D02*
X051990Y003350D01*
X051990Y004143D02*
X045052Y004143D01*
X045126Y004301D02*
X051990Y004301D01*
X051990Y004460D02*
X045140Y004460D01*
X045140Y004618D02*
X051990Y004618D01*
X051990Y004777D02*
X045140Y004777D01*
X045140Y004935D02*
X048433Y004935D01*
X048150Y005094D02*
X045140Y005094D01*
X045140Y005252D02*
X047296Y005252D01*
X047138Y005411D02*
X045140Y005411D01*
X045140Y005569D02*
X046979Y005569D01*
X046821Y005728D02*
X045140Y005728D01*
X045095Y005886D02*
X046662Y005886D01*
X046504Y006045D02*
X044975Y006045D01*
X044580Y006520D02*
X046028Y006520D01*
X045870Y006679D02*
X044645Y006679D01*
X044686Y006837D02*
X045711Y006837D01*
X045553Y006996D02*
X044686Y006996D01*
X044657Y007154D02*
X045394Y007154D01*
X045236Y007313D02*
X044591Y007313D01*
X044548Y007471D02*
X045077Y007471D01*
X044919Y007630D02*
X044625Y007630D01*
X044686Y007788D02*
X044760Y007788D01*
X043910Y007930D02*
X043660Y007680D01*
X041910Y007680D01*
X041160Y006930D01*
X040410Y006930D01*
X040947Y006370D02*
X041272Y006370D01*
X041478Y006455D01*
X041683Y006661D01*
X041753Y006491D01*
X041971Y006273D01*
X042243Y006160D01*
X040577Y006160D01*
X040850Y006273D01*
X040947Y006370D01*
X040938Y006362D02*
X041882Y006362D01*
X041741Y006520D02*
X041542Y006520D01*
X042140Y006203D02*
X040681Y006203D01*
X038680Y006996D02*
X031768Y006996D01*
X031682Y006910D02*
X031978Y007205D01*
X032135Y007363D01*
X032220Y007569D01*
X032220Y012948D01*
X033635Y014363D01*
X033720Y014569D01*
X033720Y015948D01*
X035427Y017655D01*
X035565Y017655D01*
X035850Y017773D01*
X036068Y017991D01*
X036186Y018276D01*
X036186Y018584D01*
X036068Y018869D01*
X035850Y019087D01*
X035565Y019205D01*
X035256Y019205D01*
X034971Y019087D01*
X034753Y018869D01*
X034635Y018584D01*
X034635Y018447D01*
X032970Y016782D01*
X032970Y018198D01*
X035427Y020655D01*
X035565Y020655D01*
X035850Y020773D01*
X036068Y020991D01*
X036186Y021276D01*
X036186Y021584D01*
X036068Y021869D01*
X035850Y022087D01*
X035565Y022205D01*
X035256Y022205D01*
X034971Y022087D01*
X034753Y021869D01*
X034635Y021584D01*
X034635Y021447D01*
X031936Y018747D01*
X031850Y018541D01*
X031850Y015508D01*
X031459Y015900D01*
X030862Y015900D01*
X030440Y015478D01*
X030440Y014882D01*
X030862Y014460D01*
X031148Y014460D01*
X029394Y012705D01*
X029256Y012705D01*
X028971Y012587D01*
X028753Y012369D01*
X028746Y012352D01*
X028669Y012430D01*
X028761Y012522D01*
X028870Y012787D01*
X028870Y013073D01*
X028761Y013338D01*
X028669Y013430D01*
X028761Y013522D01*
X028870Y013787D01*
X028870Y014073D01*
X028761Y014338D01*
X028669Y014430D01*
X028761Y014522D01*
X028870Y014787D01*
X028870Y015073D01*
X028761Y015338D01*
X028669Y015430D01*
X028761Y015522D01*
X028870Y015787D01*
X028870Y016073D01*
X028761Y016338D01*
X028669Y016430D01*
X028761Y016522D01*
X028870Y016787D01*
X028870Y017073D01*
X028761Y017338D01*
X028669Y017430D01*
X028761Y017522D01*
X028870Y017787D01*
X028870Y018073D01*
X028761Y018338D01*
X028558Y018540D01*
X028294Y018650D01*
X027527Y018650D01*
X027263Y018540D01*
X027113Y018391D01*
X027029Y018594D01*
X026663Y018960D01*
X026741Y018960D01*
X026765Y018950D01*
X027056Y018950D01*
X027080Y018960D01*
X027209Y018960D01*
X027300Y019051D01*
X027324Y019061D01*
X027529Y019266D01*
X027539Y019291D01*
X027630Y019382D01*
X027630Y019511D01*
X027640Y019535D01*
X027640Y023682D01*
X027862Y023460D01*
X028459Y023460D01*
X028660Y023662D01*
X028862Y023460D01*
X029459Y023460D01*
X029880Y023882D01*
X029880Y024478D01*
X029679Y024680D01*
X029785Y024787D01*
X030112Y024460D01*
X030709Y024460D01*
X031130Y024882D01*
X031130Y025478D01*
X030709Y025900D01*
X030112Y025900D01*
X029785Y025573D01*
X029459Y025900D01*
X028862Y025900D01*
X028660Y025698D01*
X028548Y025811D01*
X028640Y026035D01*
X028640Y026700D01*
X031130Y026700D01*
X031130Y025975D01*
X031249Y025688D01*
X031469Y025469D01*
X031755Y025350D01*
X032066Y025350D01*
X032352Y025469D01*
X032410Y025527D01*
X032469Y025469D01*
X032755Y025350D01*
X033066Y025350D01*
X033352Y025469D01*
X033572Y025688D01*
X033690Y025975D01*
X033690Y026700D01*
X034608Y026700D01*
X035408Y025900D01*
X035112Y025900D01*
X034910Y025698D01*
X034709Y025900D01*
X034112Y025900D01*
X033690Y025478D01*
X033690Y024882D01*
X033892Y024680D01*
X033690Y024478D01*
X033690Y023882D01*
X034112Y023460D01*
X034709Y023460D01*
X034910Y023662D01*
X035112Y023460D01*
X035709Y023460D01*
X035869Y023620D01*
X037678Y023620D01*
X038223Y023076D01*
X038044Y023150D01*
X037277Y023150D01*
X037013Y023040D01*
X036810Y022838D01*
X036700Y022573D01*
X036700Y022287D01*
X036810Y022022D01*
X036902Y021930D01*
X036810Y021838D01*
X036700Y021573D01*
X036700Y021287D01*
X036810Y021022D01*
X036902Y020930D01*
X036810Y020838D01*
X036700Y020573D01*
X036700Y020287D01*
X036810Y020022D01*
X036902Y019930D01*
X036810Y019838D01*
X036700Y019573D01*
X036700Y019287D01*
X036810Y019022D01*
X036902Y018930D01*
X036810Y018838D01*
X036855Y018883D02*
X036054Y018883D01*
X035895Y019042D02*
X036802Y019042D01*
X036736Y019200D02*
X035577Y019200D01*
X035243Y019200D02*
X033972Y019200D01*
X033814Y019042D02*
X034925Y019042D01*
X034767Y018883D02*
X033655Y018883D01*
X033497Y018725D02*
X034693Y018725D01*
X034635Y018566D02*
X033338Y018566D01*
X033180Y018408D02*
X034596Y018408D01*
X034437Y018249D02*
X033021Y018249D01*
X032970Y018091D02*
X034279Y018091D01*
X034120Y017932D02*
X032970Y017932D01*
X032970Y017774D02*
X033962Y017774D01*
X033803Y017615D02*
X032970Y017615D01*
X032970Y017457D02*
X033645Y017457D01*
X033486Y017298D02*
X032970Y017298D01*
X032970Y017140D02*
X033328Y017140D01*
X033169Y016981D02*
X032970Y016981D01*
X032970Y016823D02*
X033011Y016823D01*
X033802Y016030D02*
X035542Y016030D01*
X035584Y015872D02*
X033720Y015872D01*
X033720Y015713D02*
X035440Y015713D01*
X035440Y015555D02*
X033720Y015555D01*
X033720Y015396D02*
X035440Y015396D01*
X035440Y015238D02*
X033720Y015238D01*
X033720Y015079D02*
X034541Y015079D01*
X034383Y014921D02*
X033720Y014921D01*
X033720Y014762D02*
X034224Y014762D01*
X034190Y014604D02*
X033720Y014604D01*
X033669Y014445D02*
X034190Y014445D01*
X034190Y014287D02*
X033559Y014287D01*
X033400Y014128D02*
X034194Y014128D01*
X034353Y013970D02*
X033242Y013970D01*
X033083Y013811D02*
X034273Y013811D01*
X034190Y013653D02*
X032925Y013653D01*
X032766Y013494D02*
X034190Y013494D01*
X034190Y013336D02*
X032608Y013336D01*
X032449Y013177D02*
X034190Y013177D01*
X034304Y013019D02*
X032291Y013019D01*
X032220Y012860D02*
X034462Y012860D01*
X034118Y012290D02*
X033854Y012400D01*
X033567Y012400D01*
X033303Y012290D01*
X033100Y012088D01*
X032990Y011823D01*
X032990Y011537D01*
X033100Y011272D01*
X033303Y011070D01*
X033567Y010960D01*
X033854Y010960D01*
X034118Y011070D01*
X034321Y011272D01*
X034430Y011537D01*
X034430Y011823D01*
X034321Y012088D01*
X034118Y012290D01*
X034183Y012226D02*
X035138Y012226D01*
X035203Y012290D02*
X035000Y012088D01*
X034890Y011823D01*
X034890Y011537D01*
X035000Y011272D01*
X035203Y011070D01*
X035467Y010960D01*
X035754Y010960D01*
X036018Y011070D01*
X036221Y011272D01*
X036330Y011537D01*
X036330Y011823D01*
X036221Y012088D01*
X036018Y012290D01*
X035754Y012400D01*
X035467Y012400D01*
X035203Y012290D01*
X035430Y012385D02*
X033891Y012385D01*
X033530Y012385D02*
X032220Y012385D01*
X032220Y012543D02*
X036700Y012543D01*
X036700Y012385D02*
X035791Y012385D01*
X036083Y012226D02*
X036726Y012226D01*
X036791Y012068D02*
X036229Y012068D01*
X036295Y011909D02*
X036881Y011909D01*
X036774Y011751D02*
X036330Y011751D01*
X036330Y011592D02*
X036708Y011592D01*
X036700Y011434D02*
X036288Y011434D01*
X036222Y011275D02*
X036705Y011275D01*
X036771Y011117D02*
X036065Y011117D01*
X036794Y010800D02*
X032220Y010800D01*
X032220Y010958D02*
X036874Y010958D01*
X036728Y010641D02*
X032220Y010641D01*
X032220Y010483D02*
X036700Y010483D01*
X036700Y010324D02*
X032220Y010324D01*
X032220Y010166D02*
X036751Y010166D01*
X036825Y010007D02*
X032220Y010007D01*
X032220Y009849D02*
X036821Y009849D01*
X036749Y009690D02*
X032220Y009690D01*
X032220Y009532D02*
X036700Y009532D01*
X036700Y009373D02*
X032220Y009373D01*
X032220Y009215D02*
X036730Y009215D01*
X036796Y009056D02*
X032220Y009056D01*
X032220Y008898D02*
X036935Y008898D01*
X037207Y008739D02*
X032220Y008739D01*
X032220Y008581D02*
X037464Y008581D01*
X037306Y008422D02*
X032220Y008422D01*
X032220Y008264D02*
X037209Y008264D01*
X037144Y008105D02*
X032220Y008105D01*
X032220Y007947D02*
X037135Y007947D01*
X037135Y007788D02*
X032220Y007788D01*
X032220Y007630D02*
X037196Y007630D01*
X037273Y007471D02*
X032180Y007471D01*
X032085Y007313D02*
X037431Y007313D01*
X037910Y007930D02*
X039410Y009430D01*
X039410Y022680D01*
X037910Y024180D01*
X035410Y024180D01*
X034934Y023638D02*
X034887Y023638D01*
X034728Y023480D02*
X035093Y023480D01*
X035728Y023480D02*
X037819Y023480D01*
X037977Y023321D02*
X027640Y023321D01*
X027640Y023163D02*
X030135Y023163D01*
X030170Y023186D02*
X029861Y022979D01*
X029654Y022670D01*
X029582Y022305D01*
X029589Y022269D01*
X029448Y021813D01*
X029448Y021297D01*
X029600Y020804D01*
X029891Y020377D01*
X029891Y020377D01*
X029891Y020377D01*
X030295Y020056D01*
X030775Y019867D01*
X030775Y019867D01*
X030825Y019863D01*
X030440Y019478D01*
X030440Y018882D01*
X030862Y018460D01*
X031459Y018460D01*
X031880Y018882D01*
X031880Y019478D01*
X031485Y019873D01*
X031793Y019943D01*
X032240Y020201D01*
X032591Y020580D01*
X032815Y021045D01*
X032892Y021555D01*
X032815Y022065D01*
X032815Y022065D01*
X032727Y022247D01*
X032739Y022305D01*
X032666Y022670D01*
X032460Y022979D01*
X032150Y023186D01*
X031785Y023259D01*
X031574Y023217D01*
X031290Y023282D01*
X030775Y023243D01*
X030721Y023222D01*
X030535Y023259D01*
X030170Y023186D01*
X029898Y023004D02*
X027640Y023004D01*
X027640Y022846D02*
X029772Y022846D01*
X029666Y022687D02*
X027640Y022687D01*
X027640Y022529D02*
X029626Y022529D01*
X029595Y022370D02*
X027640Y022370D01*
X027640Y022212D02*
X029571Y022212D01*
X029522Y022053D02*
X027640Y022053D01*
X027640Y021895D02*
X029473Y021895D01*
X029448Y021813D02*
X029448Y021813D01*
X029448Y021736D02*
X027640Y021736D01*
X027640Y021578D02*
X029448Y021578D01*
X029448Y021419D02*
X027640Y021419D01*
X027640Y021261D02*
X029460Y021261D01*
X029508Y021102D02*
X027640Y021102D01*
X027640Y020944D02*
X029557Y020944D01*
X029600Y020804D02*
X029600Y020804D01*
X029613Y020785D02*
X027640Y020785D01*
X027640Y020627D02*
X029721Y020627D01*
X029829Y020468D02*
X027640Y020468D01*
X027640Y020310D02*
X029976Y020310D01*
X030175Y020151D02*
X027640Y020151D01*
X027640Y019993D02*
X030455Y019993D01*
X030295Y020056D02*
X030295Y020056D01*
X030025Y019834D02*
X030796Y019834D01*
X030638Y019676D02*
X030183Y019676D01*
X030342Y019517D02*
X030479Y019517D01*
X030380Y019478D02*
X029959Y019900D01*
X029362Y019900D01*
X028940Y019478D01*
X028940Y018882D01*
X029362Y018460D01*
X029959Y018460D01*
X030380Y018882D01*
X030380Y019478D01*
X030380Y019359D02*
X030440Y019359D01*
X030440Y019200D02*
X030380Y019200D01*
X030380Y019042D02*
X030440Y019042D01*
X030440Y018883D02*
X030380Y018883D01*
X030223Y018725D02*
X030598Y018725D01*
X030756Y018566D02*
X030065Y018566D01*
X029256Y018566D02*
X028496Y018566D01*
X028691Y018408D02*
X031850Y018408D01*
X031861Y018566D02*
X031565Y018566D01*
X031723Y018725D02*
X031926Y018725D01*
X031880Y018883D02*
X032071Y018883D01*
X032230Y019042D02*
X031880Y019042D01*
X031880Y019200D02*
X032388Y019200D01*
X032547Y019359D02*
X031880Y019359D01*
X031842Y019517D02*
X032705Y019517D01*
X032864Y019676D02*
X031683Y019676D01*
X031525Y019834D02*
X033022Y019834D01*
X033181Y019993D02*
X031878Y019993D01*
X031793Y019943D02*
X031793Y019943D01*
X032153Y020151D02*
X033339Y020151D01*
X033498Y020310D02*
X032340Y020310D01*
X032240Y020201D02*
X032240Y020201D01*
X032487Y020468D02*
X033656Y020468D01*
X033815Y020627D02*
X032613Y020627D01*
X032591Y020580D02*
X032591Y020580D01*
X032690Y020785D02*
X033973Y020785D01*
X034132Y020944D02*
X032766Y020944D01*
X032815Y021045D02*
X032815Y021045D01*
X032823Y021102D02*
X034290Y021102D01*
X034449Y021261D02*
X032847Y021261D01*
X032871Y021419D02*
X034607Y021419D01*
X034635Y021578D02*
X032888Y021578D01*
X032864Y021736D02*
X034698Y021736D01*
X034778Y021895D02*
X032841Y021895D01*
X032817Y022053D02*
X034937Y022053D01*
X035884Y022053D02*
X036797Y022053D01*
X036732Y022212D02*
X032744Y022212D01*
X032726Y022370D02*
X036700Y022370D01*
X036700Y022529D02*
X032694Y022529D01*
X032655Y022687D02*
X036748Y022687D01*
X036818Y022846D02*
X032549Y022846D01*
X032423Y023004D02*
X036976Y023004D01*
X036867Y021895D02*
X036042Y021895D01*
X036123Y021736D02*
X036768Y021736D01*
X036702Y021578D02*
X036186Y021578D01*
X036186Y021419D02*
X036700Y021419D01*
X036711Y021261D02*
X036179Y021261D01*
X036114Y021102D02*
X036777Y021102D01*
X036889Y020944D02*
X036020Y020944D01*
X035862Y020785D02*
X036788Y020785D01*
X036722Y020627D02*
X035399Y020627D01*
X035240Y020468D02*
X036700Y020468D01*
X036700Y020310D02*
X035082Y020310D01*
X034923Y020151D02*
X036757Y020151D01*
X036840Y019993D02*
X034765Y019993D01*
X034606Y019834D02*
X036808Y019834D01*
X036743Y019676D02*
X034448Y019676D01*
X034289Y019517D02*
X036700Y019517D01*
X036700Y019359D02*
X034131Y019359D01*
X032410Y018430D02*
X035410Y021430D01*
X034093Y023480D02*
X029478Y023480D01*
X029637Y023638D02*
X033934Y023638D01*
X033776Y023797D02*
X029795Y023797D01*
X029880Y023955D02*
X033690Y023955D01*
X033690Y024114D02*
X029880Y024114D01*
X029880Y024272D02*
X033690Y024272D01*
X033690Y024431D02*
X029880Y024431D01*
X029983Y024589D02*
X029770Y024589D01*
X029746Y024748D02*
X029825Y024748D01*
X029911Y025699D02*
X029660Y025699D01*
X029502Y025857D02*
X030069Y025857D01*
X030752Y025857D02*
X031179Y025857D01*
X031130Y026016D02*
X028632Y026016D01*
X028640Y026174D02*
X031130Y026174D01*
X031130Y026333D02*
X028640Y026333D01*
X028640Y026491D02*
X031130Y026491D01*
X031130Y026650D02*
X028640Y026650D01*
X028567Y025857D02*
X028819Y025857D01*
X028661Y025699D02*
X028660Y025699D01*
X027640Y024682D02*
X027642Y024680D01*
X027640Y024678D01*
X027640Y024682D01*
X027640Y023638D02*
X027684Y023638D01*
X027640Y023480D02*
X027843Y023480D01*
X028478Y023480D02*
X028843Y023480D01*
X028684Y023638D02*
X028637Y023638D01*
X030775Y023243D02*
X030775Y023243D01*
X031290Y023282D02*
X031290Y023282D01*
X032185Y023163D02*
X038136Y023163D01*
X038546Y022752D02*
X038850Y022448D01*
X038850Y009662D01*
X038620Y009432D01*
X038620Y009573D01*
X038511Y009838D01*
X038419Y009930D01*
X038511Y010022D01*
X038620Y010287D01*
X038620Y010573D01*
X038511Y010838D01*
X038419Y010930D01*
X038511Y011022D01*
X038620Y011287D01*
X038620Y011573D01*
X038511Y011838D01*
X038419Y011930D01*
X038511Y012022D01*
X038620Y012287D01*
X038620Y012573D01*
X038511Y012838D01*
X038419Y012930D01*
X038511Y013022D01*
X038620Y013287D01*
X038620Y013573D01*
X038511Y013838D01*
X038419Y013930D01*
X038511Y014022D01*
X038620Y014287D01*
X038620Y014573D01*
X038511Y014838D01*
X038419Y014930D01*
X038511Y015022D01*
X038620Y015287D01*
X038620Y015573D01*
X038511Y015838D01*
X038419Y015930D01*
X038511Y016022D01*
X038620Y016287D01*
X038620Y016573D01*
X038511Y016838D01*
X038419Y016930D01*
X038511Y017022D01*
X038620Y017287D01*
X038620Y017573D01*
X038511Y017838D01*
X038419Y017930D01*
X038511Y018022D01*
X038620Y018287D01*
X038620Y018573D01*
X038511Y018838D01*
X038419Y018930D01*
X038511Y019022D01*
X038620Y019287D01*
X038620Y019573D01*
X038511Y019838D01*
X038419Y019930D01*
X038511Y020022D01*
X038620Y020287D01*
X038620Y020573D01*
X038511Y020838D01*
X038419Y020930D01*
X038511Y021022D01*
X038620Y021287D01*
X038620Y021573D01*
X038511Y021838D01*
X038419Y021930D01*
X038511Y022022D01*
X038620Y022287D01*
X038620Y022573D01*
X038546Y022752D01*
X038573Y022687D02*
X038611Y022687D01*
X038620Y022529D02*
X038770Y022529D01*
X038850Y022370D02*
X038620Y022370D01*
X038589Y022212D02*
X038850Y022212D01*
X038850Y022053D02*
X038524Y022053D01*
X038454Y021895D02*
X038850Y021895D01*
X038850Y021736D02*
X038553Y021736D01*
X038619Y021578D02*
X038850Y021578D01*
X038850Y021419D02*
X038620Y021419D01*
X038609Y021261D02*
X038850Y021261D01*
X038850Y021102D02*
X038544Y021102D01*
X038432Y020944D02*
X038850Y020944D01*
X038850Y020785D02*
X038533Y020785D01*
X038598Y020627D02*
X038850Y020627D01*
X038850Y020468D02*
X038620Y020468D01*
X038620Y020310D02*
X038850Y020310D01*
X038850Y020151D02*
X038564Y020151D01*
X038481Y019993D02*
X038850Y019993D01*
X038850Y019834D02*
X038512Y019834D01*
X038578Y019676D02*
X038850Y019676D01*
X038850Y019517D02*
X038620Y019517D01*
X038620Y019359D02*
X038850Y019359D01*
X038850Y019200D02*
X038584Y019200D01*
X038519Y019042D02*
X038850Y019042D01*
X038850Y018883D02*
X038466Y018883D01*
X038558Y018725D02*
X038850Y018725D01*
X038850Y018566D02*
X038620Y018566D01*
X038620Y018408D02*
X038850Y018408D01*
X038850Y018249D02*
X038605Y018249D01*
X038539Y018091D02*
X038850Y018091D01*
X038850Y017932D02*
X038421Y017932D01*
X038537Y017774D02*
X038850Y017774D01*
X038850Y017615D02*
X038603Y017615D01*
X038620Y017457D02*
X038850Y017457D01*
X038850Y017298D02*
X038620Y017298D01*
X038559Y017140D02*
X038850Y017140D01*
X038850Y016981D02*
X038470Y016981D01*
X038517Y016823D02*
X038850Y016823D01*
X038850Y016664D02*
X038583Y016664D01*
X038620Y016506D02*
X038850Y016506D01*
X038850Y016347D02*
X038620Y016347D01*
X038580Y016189D02*
X038850Y016189D01*
X038850Y016030D02*
X038514Y016030D01*
X038477Y015872D02*
X038850Y015872D01*
X038850Y015713D02*
X038562Y015713D01*
X038620Y015555D02*
X038850Y015555D01*
X038850Y015396D02*
X038620Y015396D01*
X038600Y015238D02*
X038850Y015238D01*
X038850Y015079D02*
X038534Y015079D01*
X038428Y014921D02*
X038850Y014921D01*
X038850Y014762D02*
X038542Y014762D01*
X038608Y014604D02*
X038850Y014604D01*
X038850Y014445D02*
X038620Y014445D01*
X038620Y014287D02*
X038850Y014287D01*
X038850Y014128D02*
X038555Y014128D01*
X038458Y013970D02*
X038850Y013970D01*
X038850Y013811D02*
X038522Y013811D01*
X038588Y013653D02*
X038850Y013653D01*
X038850Y013494D02*
X038620Y013494D01*
X038620Y013336D02*
X038850Y013336D01*
X038850Y013177D02*
X038575Y013177D01*
X038507Y013019D02*
X038850Y013019D01*
X038850Y012860D02*
X038489Y012860D01*
X038567Y012702D02*
X038850Y012702D01*
X038850Y012543D02*
X038620Y012543D01*
X038620Y012385D02*
X038850Y012385D01*
X038850Y012226D02*
X038595Y012226D01*
X038530Y012068D02*
X038850Y012068D01*
X038850Y011909D02*
X038440Y011909D01*
X038547Y011751D02*
X038850Y011751D01*
X038850Y011592D02*
X038613Y011592D01*
X038620Y011434D02*
X038850Y011434D01*
X038850Y011275D02*
X038615Y011275D01*
X038550Y011117D02*
X038850Y011117D01*
X038850Y010958D02*
X038447Y010958D01*
X038527Y010800D02*
X038850Y010800D01*
X038850Y010641D02*
X038592Y010641D01*
X038620Y010483D02*
X038850Y010483D01*
X038850Y010324D02*
X038620Y010324D01*
X038570Y010166D02*
X038850Y010166D01*
X038850Y010007D02*
X038496Y010007D01*
X038500Y009849D02*
X038850Y009849D01*
X038850Y009690D02*
X038572Y009690D01*
X038620Y009532D02*
X038720Y009532D01*
X039511Y008739D02*
X040207Y008739D01*
X040277Y008710D02*
X040408Y008710D01*
X040358Y008660D01*
X039432Y008660D01*
X039805Y009033D01*
X039810Y009022D01*
X040013Y008820D01*
X040277Y008710D01*
X039935Y008898D02*
X039670Y008898D01*
X038680Y007630D02*
X038625Y007630D01*
X038680Y007471D02*
X038548Y007471D01*
X038680Y007313D02*
X038389Y007313D01*
X038680Y007154D02*
X031926Y007154D01*
X031682Y006910D02*
X034006Y006910D01*
X034182Y006837D01*
X032996Y004301D02*
X032600Y004301D01*
X032759Y004143D02*
X032834Y004143D01*
X032855Y003192D02*
X032733Y003192D01*
X032868Y003033D02*
X033050Y003033D01*
X031698Y002082D02*
X031623Y002082D01*
X030698Y002082D02*
X030623Y002082D01*
X029698Y002082D02*
X029623Y002082D01*
X028698Y002082D02*
X028623Y002082D01*
X027698Y002082D02*
X024123Y002082D01*
X024282Y002241D02*
X027539Y002241D01*
X027410Y002399D02*
X024410Y002399D01*
X024410Y002558D02*
X027410Y002558D01*
X027410Y002716D02*
X024410Y002716D01*
X023198Y002082D02*
X023123Y002082D01*
X022198Y002082D02*
X022123Y002082D01*
X021198Y002082D02*
X021123Y002082D01*
X020198Y002082D02*
X020123Y002082D01*
X019278Y006910D02*
X019276Y006911D01*
X018910Y006911D01*
X018910Y008465D01*
X019003Y008241D01*
X019221Y008023D01*
X019506Y007905D01*
X019815Y007905D01*
X020100Y008023D01*
X020197Y008120D01*
X024004Y008120D01*
X024003Y008119D01*
X023885Y007834D01*
X023885Y007526D01*
X024003Y007241D01*
X024221Y007023D01*
X024493Y006910D01*
X022961Y006910D01*
X022959Y006911D01*
X022462Y006911D01*
X022460Y006910D01*
X019278Y006910D01*
X018910Y006996D02*
X024287Y006996D01*
X024090Y007154D02*
X018910Y007154D01*
X018910Y007313D02*
X023973Y007313D01*
X023908Y007471D02*
X018910Y007471D01*
X018910Y007630D02*
X023885Y007630D01*
X023885Y007788D02*
X018910Y007788D01*
X018910Y007947D02*
X019405Y007947D01*
X019139Y008105D02*
X018910Y008105D01*
X018910Y008264D02*
X018994Y008264D01*
X018928Y008422D02*
X018910Y008422D01*
X018910Y008895D02*
X018910Y014905D01*
X019051Y014905D01*
X019160Y014950D01*
X019270Y014905D01*
X020051Y014905D01*
X020228Y014978D01*
X020363Y015113D01*
X020436Y015289D01*
X020436Y016071D01*
X020363Y016247D01*
X020228Y016382D01*
X020051Y016455D01*
X019270Y016455D01*
X019160Y016410D01*
X019051Y016455D01*
X018910Y016455D01*
X018910Y017405D01*
X019051Y017405D01*
X019160Y017450D01*
X019270Y017405D01*
X020051Y017405D01*
X020228Y017478D01*
X020363Y017613D01*
X020436Y017789D01*
X020436Y018571D01*
X020363Y018747D01*
X020228Y018882D01*
X020051Y018955D01*
X019270Y018955D01*
X019160Y018910D01*
X019051Y018955D01*
X018910Y018955D01*
X018910Y019905D01*
X019051Y019905D01*
X019160Y019950D01*
X019270Y019905D01*
X020051Y019905D01*
X020228Y019978D01*
X020363Y020113D01*
X020436Y020289D01*
X020436Y021071D01*
X020363Y021247D01*
X020228Y021382D01*
X020051Y021455D01*
X019270Y021455D01*
X019160Y021410D01*
X019051Y021455D01*
X018910Y021455D01*
X018910Y022405D01*
X019051Y022405D01*
X019160Y022450D01*
X019270Y022405D01*
X020051Y022405D01*
X020228Y022478D01*
X020363Y022613D01*
X020436Y022789D01*
X020436Y023571D01*
X020363Y023747D01*
X020228Y023882D01*
X020051Y023955D01*
X019270Y023955D01*
X019160Y023910D01*
X019051Y023955D01*
X018910Y023955D01*
X018910Y025180D01*
X018630Y025180D01*
X018630Y025478D01*
X018209Y025900D01*
X017612Y025900D01*
X017190Y025478D01*
X017190Y025180D01*
X013720Y025180D01*
X013720Y028489D01*
X013988Y028221D01*
X014412Y027976D01*
X014884Y027850D01*
X015373Y027850D01*
X015846Y027976D01*
X016270Y028221D01*
X016616Y028567D01*
X016860Y028990D01*
X016987Y029463D01*
X016987Y029952D01*
X016860Y030425D01*
X016616Y030848D01*
X016328Y031136D01*
X035018Y031136D01*
X034902Y031020D01*
X034810Y030799D01*
X034810Y030561D01*
X034902Y030340D01*
X035070Y030171D01*
X035216Y030111D01*
X035277Y029965D01*
X035342Y029900D01*
X035112Y029900D01*
X034690Y029478D01*
X034690Y028882D01*
X034850Y028722D01*
X034850Y028162D01*
X034848Y028160D01*
X034770Y028160D01*
X034770Y028445D01*
X034652Y028732D01*
X034432Y028951D01*
X034146Y029070D01*
X033235Y029070D01*
X032949Y028951D01*
X032729Y028732D01*
X032610Y028445D01*
X032610Y028160D01*
X032210Y028160D01*
X032210Y028445D01*
X032092Y028732D01*
X031872Y028951D01*
X031586Y029070D01*
X030675Y029070D01*
X030389Y028951D01*
X030169Y028732D01*
X030050Y028445D01*
X030050Y028160D01*
X029720Y028160D01*
X029720Y028722D01*
X029880Y028882D01*
X029880Y029478D01*
X029459Y029900D01*
X028862Y029900D01*
X028440Y029478D01*
X028440Y028882D01*
X028600Y028722D01*
X028600Y028160D01*
X028520Y028160D01*
X028520Y028445D01*
X028402Y028732D01*
X028182Y028951D01*
X027896Y029070D01*
X026985Y029070D01*
X026699Y028951D01*
X026479Y028732D01*
X026360Y028445D01*
X026360Y028160D01*
X025960Y028160D01*
X025960Y028445D01*
X025842Y028732D01*
X025622Y028951D01*
X025336Y029070D01*
X024425Y029070D01*
X024139Y028951D01*
X023919Y028732D01*
X023800Y028445D01*
X023800Y028160D01*
X023470Y028160D01*
X023470Y028722D01*
X023630Y028882D01*
X023630Y029478D01*
X023209Y029900D01*
X022612Y029900D01*
X022190Y029478D01*
X022190Y028882D01*
X022350Y028722D01*
X022350Y028160D01*
X022270Y028160D01*
X022270Y028445D01*
X022152Y028732D01*
X021932Y028951D01*
X021646Y029070D01*
X020735Y029070D01*
X020449Y028951D01*
X020229Y028732D01*
X020110Y028445D01*
X020110Y028160D01*
X019710Y028160D01*
X019710Y028445D01*
X019592Y028732D01*
X019372Y028951D01*
X019086Y029070D01*
X018175Y029070D01*
X017889Y028951D01*
X017669Y028732D01*
X017550Y028445D01*
X017550Y028205D01*
X017506Y028205D01*
X017221Y028087D01*
X017003Y027869D01*
X016885Y027584D01*
X016885Y027276D01*
X017003Y026991D01*
X017221Y026773D01*
X017506Y026655D01*
X017815Y026655D01*
X017924Y026700D01*
X018630Y026700D01*
X018630Y025975D01*
X018749Y025688D01*
X018969Y025469D01*
X019255Y025350D01*
X019566Y025350D01*
X019852Y025469D01*
X019910Y025527D01*
X019969Y025469D01*
X020255Y025350D01*
X020566Y025350D01*
X020852Y025469D01*
X021072Y025688D01*
X021190Y025975D01*
X021190Y026700D01*
X024880Y026700D01*
X024880Y025975D01*
X024999Y025688D01*
X025219Y025469D01*
X025505Y025350D01*
X025816Y025350D01*
X026102Y025469D01*
X026160Y025527D01*
X026219Y025469D01*
X026237Y025461D01*
X026180Y025325D01*
X026180Y022942D01*
X024561Y024562D01*
X024880Y024882D01*
X024880Y025478D01*
X024459Y025900D01*
X023862Y025900D01*
X023535Y025573D01*
X023209Y025900D01*
X022612Y025900D01*
X022410Y025698D01*
X022209Y025900D01*
X021612Y025900D01*
X021190Y025478D01*
X021190Y024882D01*
X021612Y024460D01*
X022190Y024460D01*
X022190Y023882D01*
X022612Y023460D01*
X023209Y023460D01*
X023403Y023655D01*
X025180Y021878D01*
X025180Y020240D01*
X024799Y020240D01*
X024593Y020155D01*
X024130Y019692D01*
X024130Y019978D01*
X023709Y020400D01*
X023112Y020400D01*
X022690Y019978D01*
X022690Y019942D01*
X022635Y019997D01*
X022478Y020155D01*
X022272Y020240D01*
X021697Y020240D01*
X021600Y020337D01*
X021315Y020455D01*
X021006Y020455D01*
X020721Y020337D01*
X020503Y020119D01*
X020385Y019834D01*
X018910Y019834D01*
X018910Y019676D02*
X020385Y019676D01*
X020385Y019526D02*
X020503Y019241D01*
X020721Y019023D01*
X021006Y018905D01*
X021315Y018905D01*
X021600Y019023D01*
X021697Y019120D01*
X021928Y019120D01*
X022593Y018455D01*
X022799Y018370D01*
X024092Y018370D01*
X024060Y018338D01*
X023950Y018073D01*
X023950Y017787D01*
X024060Y017522D01*
X024152Y017430D01*
X024060Y017338D01*
X023950Y017073D01*
X023950Y016787D01*
X024060Y016522D01*
X024152Y016430D01*
X024060Y016338D01*
X023975Y016133D01*
X023709Y016400D01*
X023112Y016400D01*
X022690Y015978D01*
X022690Y015382D01*
X023112Y014960D01*
X023709Y014960D01*
X024041Y015293D01*
X023950Y015073D01*
X023950Y014787D01*
X024060Y014522D01*
X024152Y014430D01*
X024060Y014338D01*
X023950Y014073D01*
X023950Y013787D01*
X024041Y013567D01*
X023959Y013650D01*
X023362Y013650D01*
X022940Y013228D01*
X022940Y012632D01*
X023362Y012210D01*
X023959Y012210D01*
X024041Y012293D01*
X023950Y012073D01*
X023950Y011787D01*
X024060Y011522D01*
X024263Y011320D01*
X024527Y011210D01*
X025294Y011210D01*
X025558Y011320D01*
X025680Y011442D01*
X025680Y010944D01*
X025635Y010834D01*
X025635Y010526D01*
X025753Y010241D01*
X025754Y010240D01*
X022197Y010240D01*
X022100Y010337D01*
X021815Y010455D01*
X021506Y010455D01*
X021221Y010337D01*
X021003Y010119D01*
X020885Y009834D01*
X020885Y009526D01*
X021003Y009241D01*
X021004Y009240D01*
X020197Y009240D01*
X020100Y009337D01*
X019815Y009455D01*
X019506Y009455D01*
X019221Y009337D01*
X019003Y009119D01*
X018910Y008895D01*
X018910Y008898D02*
X018911Y008898D01*
X018910Y009056D02*
X018977Y009056D01*
X018910Y009215D02*
X019098Y009215D01*
X018910Y009373D02*
X019308Y009373D01*
X018910Y009532D02*
X020885Y009532D01*
X020885Y009690D02*
X018910Y009690D01*
X018910Y009849D02*
X020891Y009849D01*
X020957Y010007D02*
X018910Y010007D01*
X018910Y010166D02*
X021049Y010166D01*
X021208Y010324D02*
X018910Y010324D01*
X018910Y010483D02*
X025653Y010483D01*
X025635Y010641D02*
X018910Y010641D01*
X018910Y010800D02*
X025635Y010800D01*
X025680Y010958D02*
X018910Y010958D01*
X018910Y011117D02*
X025680Y011117D01*
X025680Y011275D02*
X025451Y011275D01*
X025672Y011434D02*
X025680Y011434D01*
X025680Y012418D02*
X025669Y012430D01*
X025680Y012442D01*
X025680Y012418D01*
X025680Y013418D02*
X025669Y013430D01*
X025680Y013442D01*
X025680Y013418D01*
X025680Y014418D02*
X025669Y014430D01*
X025680Y014442D01*
X025680Y014418D01*
X025680Y015418D02*
X025669Y015430D01*
X025680Y015442D01*
X025680Y015418D01*
X025680Y016418D02*
X025669Y016430D01*
X025680Y016442D01*
X025680Y016418D01*
X025680Y017418D02*
X025669Y017430D01*
X025680Y017442D01*
X025680Y017418D01*
X025180Y018650D02*
X024672Y018650D01*
X025142Y019120D01*
X025180Y019120D01*
X025180Y018650D01*
X025180Y018725D02*
X024747Y018725D01*
X024905Y018883D02*
X025180Y018883D01*
X025180Y019042D02*
X025064Y019042D01*
X024910Y019680D02*
X024160Y018930D01*
X022910Y018930D01*
X022160Y019680D01*
X021160Y019680D01*
X020702Y019042D02*
X018910Y019042D01*
X018910Y019200D02*
X020544Y019200D01*
X020454Y019359D02*
X018910Y019359D01*
X018910Y019517D02*
X020389Y019517D01*
X020385Y019526D02*
X020385Y019834D01*
X020451Y019993D02*
X020242Y019993D01*
X020378Y020151D02*
X020535Y020151D01*
X020436Y020310D02*
X020693Y020310D01*
X020436Y020468D02*
X025180Y020468D01*
X025180Y020310D02*
X023799Y020310D01*
X023958Y020151D02*
X024589Y020151D01*
X024431Y019993D02*
X024116Y019993D01*
X024130Y019834D02*
X024272Y019834D01*
X024910Y019680D02*
X025910Y019680D01*
X026740Y018883D02*
X028940Y018883D01*
X028940Y019042D02*
X027290Y019042D01*
X027463Y019200D02*
X028940Y019200D01*
X028940Y019359D02*
X027607Y019359D01*
X027633Y019517D02*
X028979Y019517D01*
X029138Y019676D02*
X027640Y019676D01*
X027640Y019834D02*
X029296Y019834D01*
X029098Y018725D02*
X026898Y018725D01*
X027041Y018566D02*
X027324Y018566D01*
X027130Y018408D02*
X027106Y018408D01*
X027140Y017442D02*
X027152Y017430D01*
X027140Y017418D01*
X027140Y017442D01*
X027140Y016442D02*
X027152Y016430D01*
X027140Y016418D01*
X027140Y016442D01*
X027140Y015442D02*
X027152Y015430D01*
X027140Y015418D01*
X027140Y015442D01*
X027140Y014442D02*
X027152Y014430D01*
X027140Y014418D01*
X027140Y014442D01*
X027140Y013442D02*
X027152Y013430D01*
X027140Y013418D01*
X027140Y013442D01*
X027140Y012442D02*
X027152Y012430D01*
X027140Y012418D01*
X027140Y012442D01*
X027140Y011442D02*
X027263Y011320D01*
X027527Y011210D01*
X028294Y011210D01*
X028558Y011320D01*
X028746Y011508D01*
X028753Y011491D01*
X028971Y011273D01*
X029256Y011155D01*
X029565Y011155D01*
X029850Y011273D01*
X030068Y011491D01*
X030186Y011776D01*
X030186Y011913D01*
X031100Y012828D01*
X031100Y007912D01*
X030936Y007747D01*
X030936Y007834D01*
X030818Y008119D01*
X030757Y008180D01*
X030818Y008241D01*
X030936Y008526D01*
X030936Y008834D01*
X030818Y009119D01*
X030757Y009180D01*
X030818Y009241D01*
X030936Y009526D01*
X030936Y009834D01*
X030818Y010119D01*
X030600Y010337D01*
X030315Y010455D01*
X030006Y010455D01*
X029721Y010337D01*
X029624Y010240D01*
X027067Y010240D01*
X027068Y010241D01*
X027186Y010526D01*
X027186Y010834D01*
X027140Y010944D01*
X027140Y011442D01*
X027140Y011434D02*
X027149Y011434D01*
X027140Y011275D02*
X027370Y011275D01*
X027140Y011117D02*
X031100Y011117D01*
X031100Y011275D02*
X029852Y011275D01*
X030010Y011434D02*
X031100Y011434D01*
X031100Y011592D02*
X030110Y011592D01*
X030175Y011751D02*
X031100Y011751D01*
X031100Y011909D02*
X030186Y011909D01*
X030340Y012068D02*
X031100Y012068D01*
X031100Y012226D02*
X030498Y012226D01*
X030657Y012385D02*
X031100Y012385D01*
X031100Y012543D02*
X030815Y012543D01*
X030974Y012702D02*
X031100Y012702D01*
X032220Y012702D02*
X036754Y012702D01*
X036832Y012860D02*
X036609Y012860D01*
X036767Y013019D02*
X036814Y013019D01*
X036798Y013810D02*
X036679Y013930D01*
X036798Y014050D01*
X036810Y014022D01*
X036902Y013930D01*
X036810Y013838D01*
X036798Y013810D01*
X036798Y013811D02*
X036799Y013811D01*
X036863Y013970D02*
X036718Y013970D01*
X036798Y014810D02*
X036679Y014930D01*
X036798Y015050D01*
X036810Y015022D01*
X036902Y014930D01*
X036810Y014838D01*
X036798Y014810D01*
X036893Y014921D02*
X036688Y014921D01*
X036798Y015810D02*
X036679Y015930D01*
X036798Y016050D01*
X036810Y016022D01*
X036902Y015930D01*
X036810Y015838D01*
X036798Y015810D01*
X036844Y015872D02*
X036737Y015872D01*
X036779Y016030D02*
X036807Y016030D01*
X036786Y016823D02*
X036804Y016823D01*
X036851Y016981D02*
X036628Y016981D01*
X036761Y017140D02*
X036469Y017140D01*
X036700Y017298D02*
X035070Y017298D01*
X034912Y017140D02*
X035852Y017140D01*
X035693Y016981D02*
X034753Y016981D01*
X034595Y016823D02*
X035535Y016823D01*
X035440Y016664D02*
X034436Y016664D01*
X034278Y016506D02*
X035440Y016506D01*
X035440Y016347D02*
X034119Y016347D01*
X033961Y016189D02*
X035440Y016189D01*
X035229Y017457D02*
X036700Y017457D01*
X036718Y017615D02*
X035387Y017615D01*
X035850Y017774D02*
X036783Y017774D01*
X036900Y017932D02*
X036009Y017932D01*
X036109Y018091D02*
X036782Y018091D01*
X036716Y018249D02*
X036175Y018249D01*
X036186Y018408D02*
X036700Y018408D01*
X036700Y018566D02*
X036186Y018566D01*
X032410Y018430D02*
X032410Y014930D01*
X029410Y011930D01*
X028810Y011434D02*
X028672Y011434D01*
X028451Y011275D02*
X028969Y011275D01*
X028768Y012385D02*
X028714Y012385D01*
X028769Y012543D02*
X028927Y012543D01*
X028835Y012702D02*
X029247Y012702D01*
X029548Y012860D02*
X028870Y012860D01*
X028870Y013019D02*
X029707Y013019D01*
X029865Y013177D02*
X028827Y013177D01*
X028762Y013336D02*
X030024Y013336D01*
X030182Y013494D02*
X028733Y013494D01*
X028815Y013653D02*
X030341Y013653D01*
X030499Y013811D02*
X028870Y013811D01*
X028870Y013970D02*
X030658Y013970D01*
X030816Y014128D02*
X028848Y014128D01*
X028782Y014287D02*
X030975Y014287D01*
X031133Y014445D02*
X028684Y014445D01*
X028794Y014604D02*
X029219Y014604D01*
X029362Y014460D02*
X029959Y014460D01*
X030380Y014882D01*
X030380Y015478D01*
X029959Y015900D01*
X029362Y015900D01*
X028940Y015478D01*
X028940Y014882D01*
X029362Y014460D01*
X029060Y014762D02*
X028860Y014762D01*
X028870Y014921D02*
X028940Y014921D01*
X028940Y015079D02*
X028868Y015079D01*
X028802Y015238D02*
X028940Y015238D01*
X028940Y015396D02*
X028703Y015396D01*
X028774Y015555D02*
X029017Y015555D01*
X029175Y015713D02*
X028840Y015713D01*
X028870Y015872D02*
X029334Y015872D01*
X028870Y016030D02*
X031850Y016030D01*
X031850Y015872D02*
X031487Y015872D01*
X031646Y015713D02*
X031850Y015713D01*
X031850Y015555D02*
X031804Y015555D01*
X031850Y016189D02*
X028823Y016189D01*
X028752Y016347D02*
X031850Y016347D01*
X031850Y016506D02*
X028744Y016506D01*
X028820Y016664D02*
X031850Y016664D01*
X031850Y016823D02*
X028870Y016823D01*
X028870Y016981D02*
X031850Y016981D01*
X031850Y017140D02*
X028843Y017140D01*
X028777Y017298D02*
X031850Y017298D01*
X031850Y017457D02*
X028695Y017457D01*
X028799Y017615D02*
X031850Y017615D01*
X031850Y017774D02*
X028865Y017774D01*
X028870Y017932D02*
X031850Y017932D01*
X031850Y018091D02*
X028863Y018091D01*
X028798Y018249D02*
X031850Y018249D01*
X030834Y015872D02*
X029987Y015872D01*
X030146Y015713D02*
X030675Y015713D01*
X030517Y015555D02*
X030304Y015555D01*
X030380Y015396D02*
X030440Y015396D01*
X030440Y015238D02*
X030380Y015238D01*
X030380Y015079D02*
X030440Y015079D01*
X030440Y014921D02*
X030380Y014921D01*
X030261Y014762D02*
X030560Y014762D01*
X030719Y014604D02*
X030102Y014604D01*
X032220Y012226D02*
X033238Y012226D01*
X033092Y012068D02*
X032220Y012068D01*
X032220Y011909D02*
X033026Y011909D01*
X032990Y011751D02*
X032220Y011751D01*
X032220Y011592D02*
X032990Y011592D01*
X033033Y011434D02*
X032220Y011434D01*
X032220Y011275D02*
X033099Y011275D01*
X033256Y011117D02*
X032220Y011117D01*
X031100Y010958D02*
X027140Y010958D01*
X027186Y010800D02*
X031100Y010800D01*
X031100Y010641D02*
X027186Y010641D01*
X027168Y010483D02*
X031100Y010483D01*
X031100Y010324D02*
X030613Y010324D01*
X030771Y010166D02*
X031100Y010166D01*
X031100Y010007D02*
X030864Y010007D01*
X030930Y009849D02*
X031100Y009849D01*
X031100Y009690D02*
X030936Y009690D01*
X030936Y009532D02*
X031100Y009532D01*
X031100Y009373D02*
X030872Y009373D01*
X030791Y009215D02*
X031100Y009215D01*
X031100Y009056D02*
X030844Y009056D01*
X030909Y008898D02*
X031100Y008898D01*
X031100Y008739D02*
X030936Y008739D01*
X030936Y008581D02*
X031100Y008581D01*
X031100Y008422D02*
X030893Y008422D01*
X030827Y008264D02*
X031100Y008264D01*
X031100Y008105D02*
X030823Y008105D01*
X030889Y007947D02*
X031100Y007947D01*
X030976Y007788D02*
X030936Y007788D01*
X030160Y007680D02*
X024660Y007680D01*
X023932Y007947D02*
X019915Y007947D01*
X020182Y008105D02*
X023997Y008105D01*
X025719Y010324D02*
X022113Y010324D01*
X021660Y009680D02*
X030160Y009680D01*
X029708Y010324D02*
X027102Y010324D01*
X024370Y011275D02*
X018910Y011275D01*
X018910Y011434D02*
X024149Y011434D01*
X024031Y011592D02*
X018910Y011592D01*
X018910Y011751D02*
X023965Y011751D01*
X023950Y011909D02*
X018910Y011909D01*
X018910Y012068D02*
X023950Y012068D01*
X023975Y012226D02*
X024014Y012226D01*
X023346Y012226D02*
X019975Y012226D01*
X019959Y012210D02*
X020380Y012632D01*
X020380Y013228D01*
X019959Y013650D01*
X019362Y013650D01*
X018940Y013228D01*
X018940Y012632D01*
X019362Y012210D01*
X019959Y012210D01*
X020133Y012385D02*
X023188Y012385D01*
X023029Y012543D02*
X020292Y012543D01*
X020380Y012702D02*
X022940Y012702D01*
X022940Y012860D02*
X020380Y012860D01*
X020380Y013019D02*
X022940Y013019D01*
X022940Y013177D02*
X020380Y013177D01*
X020273Y013336D02*
X023048Y013336D01*
X023206Y013494D02*
X020115Y013494D01*
X019206Y013494D02*
X018910Y013494D01*
X018910Y013336D02*
X019048Y013336D01*
X018940Y013177D02*
X018910Y013177D01*
X018910Y013019D02*
X018940Y013019D01*
X018940Y012860D02*
X018910Y012860D01*
X018910Y012702D02*
X018940Y012702D01*
X018910Y012543D02*
X019029Y012543D01*
X018910Y012385D02*
X019188Y012385D01*
X019346Y012226D02*
X018910Y012226D01*
X018910Y013653D02*
X024006Y013653D01*
X023950Y013811D02*
X018910Y013811D01*
X018910Y013970D02*
X023950Y013970D01*
X023973Y014128D02*
X018910Y014128D01*
X018910Y014287D02*
X024039Y014287D01*
X024137Y014445D02*
X018910Y014445D01*
X018910Y014604D02*
X024026Y014604D01*
X023961Y014762D02*
X018910Y014762D01*
X019089Y014921D02*
X019231Y014921D01*
X020089Y014921D02*
X023950Y014921D01*
X023953Y015079D02*
X023828Y015079D01*
X023986Y015238D02*
X024018Y015238D01*
X024130Y015408D02*
X024130Y015452D01*
X024152Y015430D01*
X024130Y015408D01*
X023998Y016189D02*
X023920Y016189D01*
X024069Y016347D02*
X023762Y016347D01*
X024077Y016506D02*
X018910Y016506D01*
X018910Y016664D02*
X024001Y016664D01*
X023950Y016823D02*
X018910Y016823D01*
X018910Y016981D02*
X023950Y016981D01*
X023978Y017140D02*
X018910Y017140D01*
X018910Y017298D02*
X024043Y017298D01*
X024126Y017457D02*
X020176Y017457D01*
X020363Y017615D02*
X024022Y017615D01*
X023956Y017774D02*
X020429Y017774D01*
X020436Y017932D02*
X023950Y017932D01*
X023958Y018091D02*
X020436Y018091D01*
X020436Y018249D02*
X024023Y018249D01*
X022708Y018408D02*
X020436Y018408D01*
X020436Y018566D02*
X022482Y018566D01*
X022324Y018725D02*
X020372Y018725D01*
X020226Y018883D02*
X022165Y018883D01*
X022007Y019042D02*
X021618Y019042D01*
X022640Y019993D02*
X022705Y019993D01*
X022863Y020151D02*
X022481Y020151D01*
X023022Y020310D02*
X021627Y020310D01*
X020436Y020627D02*
X025180Y020627D01*
X025180Y020785D02*
X020436Y020785D01*
X020436Y020944D02*
X025180Y020944D01*
X025180Y021102D02*
X020423Y021102D01*
X020349Y021261D02*
X025180Y021261D01*
X025180Y021419D02*
X020139Y021419D01*
X019182Y021419D02*
X019139Y021419D01*
X018910Y021578D02*
X025180Y021578D01*
X025180Y021736D02*
X018910Y021736D01*
X018910Y021895D02*
X025163Y021895D01*
X025005Y022053D02*
X018910Y022053D01*
X018910Y022212D02*
X024846Y022212D01*
X024688Y022370D02*
X018910Y022370D01*
X020278Y022529D02*
X024529Y022529D01*
X024371Y022687D02*
X020393Y022687D01*
X020436Y022846D02*
X024212Y022846D01*
X024054Y023004D02*
X020436Y023004D01*
X020436Y023163D02*
X023895Y023163D01*
X023737Y023321D02*
X020436Y023321D01*
X020436Y023480D02*
X022593Y023480D01*
X022434Y023638D02*
X020408Y023638D01*
X020313Y023797D02*
X022276Y023797D01*
X022190Y023955D02*
X020052Y023955D01*
X019269Y023955D02*
X019052Y023955D01*
X018910Y024114D02*
X022190Y024114D01*
X022190Y024272D02*
X018910Y024272D01*
X018910Y024431D02*
X022190Y024431D01*
X021483Y024589D02*
X018910Y024589D01*
X018910Y024748D02*
X021325Y024748D01*
X021190Y024906D02*
X018910Y024906D01*
X018910Y025065D02*
X021190Y025065D01*
X021190Y025223D02*
X018630Y025223D01*
X018630Y025382D02*
X019179Y025382D01*
X018897Y025540D02*
X018569Y025540D01*
X018410Y025699D02*
X018745Y025699D01*
X018679Y025857D02*
X018252Y025857D01*
X018630Y026016D02*
X013720Y026016D01*
X013720Y026174D02*
X018630Y026174D01*
X018630Y026333D02*
X013720Y026333D01*
X013720Y026491D02*
X018630Y026491D01*
X018630Y026650D02*
X013720Y026650D01*
X013720Y026808D02*
X017186Y026808D01*
X017027Y026967D02*
X013720Y026967D01*
X013720Y027125D02*
X016948Y027125D01*
X016885Y027284D02*
X013720Y027284D01*
X013720Y027442D02*
X016885Y027442D01*
X016892Y027601D02*
X013720Y027601D01*
X013720Y027759D02*
X016958Y027759D01*
X017052Y027918D02*
X015627Y027918D01*
X016019Y028076D02*
X017210Y028076D01*
X017550Y028235D02*
X016283Y028235D01*
X016442Y028393D02*
X017550Y028393D01*
X017594Y028552D02*
X016600Y028552D01*
X016698Y028710D02*
X017660Y028710D01*
X017806Y028869D02*
X016790Y028869D01*
X016870Y029027D02*
X018072Y029027D01*
X018175Y029290D02*
X017889Y029409D01*
X017669Y029628D01*
X017550Y029915D01*
X017550Y030225D01*
X017669Y030512D01*
X017889Y030731D01*
X018175Y030850D01*
X019086Y030850D01*
X019372Y030731D01*
X019592Y030512D01*
X019710Y030225D01*
X019710Y029915D01*
X019592Y029628D01*
X019372Y029409D01*
X019086Y029290D01*
X018175Y029290D01*
X018045Y029344D02*
X016955Y029344D01*
X016987Y029503D02*
X017795Y029503D01*
X017655Y029661D02*
X016987Y029661D01*
X016987Y029820D02*
X017590Y029820D01*
X017550Y029978D02*
X016980Y029978D01*
X016937Y030137D02*
X017550Y030137D01*
X017579Y030295D02*
X016895Y030295D01*
X016844Y030454D02*
X017645Y030454D01*
X017769Y030612D02*
X016752Y030612D01*
X016661Y030771D02*
X017983Y030771D01*
X019277Y030771D02*
X020543Y030771D01*
X020449Y030731D02*
X020229Y030512D01*
X020110Y030225D01*
X020110Y029915D01*
X020229Y029628D01*
X020449Y029409D01*
X020735Y029290D01*
X021646Y029290D01*
X021932Y029409D01*
X022152Y029628D01*
X022270Y029915D01*
X022270Y030225D01*
X022152Y030512D01*
X021932Y030731D01*
X021646Y030850D01*
X020735Y030850D01*
X020449Y030731D01*
X020329Y030612D02*
X019491Y030612D01*
X019616Y030454D02*
X020205Y030454D01*
X020139Y030295D02*
X019681Y030295D01*
X019710Y030137D02*
X020110Y030137D01*
X020110Y029978D02*
X019710Y029978D01*
X019671Y029820D02*
X020150Y029820D01*
X020215Y029661D02*
X019605Y029661D01*
X019466Y029503D02*
X020355Y029503D01*
X020605Y029344D02*
X019216Y029344D01*
X019189Y029027D02*
X020632Y029027D01*
X020366Y028869D02*
X019455Y028869D01*
X019601Y028710D02*
X020220Y028710D01*
X020154Y028552D02*
X019666Y028552D01*
X019710Y028393D02*
X020110Y028393D01*
X020110Y028235D02*
X019710Y028235D01*
X021190Y026650D02*
X024880Y026650D01*
X024880Y026491D02*
X021190Y026491D01*
X021190Y026333D02*
X024880Y026333D01*
X024880Y026174D02*
X021190Y026174D01*
X021190Y026016D02*
X024880Y026016D01*
X024929Y025857D02*
X024502Y025857D01*
X024660Y025699D02*
X024995Y025699D01*
X025147Y025540D02*
X024819Y025540D01*
X024880Y025382D02*
X025429Y025382D01*
X025892Y025382D02*
X026204Y025382D01*
X026180Y025223D02*
X024880Y025223D01*
X024880Y025065D02*
X026180Y025065D01*
X026180Y024906D02*
X024880Y024906D01*
X024746Y024748D02*
X026180Y024748D01*
X026180Y024589D02*
X024588Y024589D01*
X024692Y024431D02*
X026180Y024431D01*
X026180Y024272D02*
X024851Y024272D01*
X025009Y024114D02*
X026180Y024114D01*
X026180Y023955D02*
X025168Y023955D01*
X025326Y023797D02*
X026180Y023797D01*
X026180Y023638D02*
X025485Y023638D01*
X025643Y023480D02*
X026180Y023480D01*
X026180Y023321D02*
X025802Y023321D01*
X025960Y023163D02*
X026180Y023163D01*
X026180Y023004D02*
X026119Y023004D01*
X023578Y023480D02*
X023228Y023480D01*
X023387Y023638D02*
X023420Y023638D01*
X021190Y025382D02*
X020642Y025382D01*
X020923Y025540D02*
X021252Y025540D01*
X021411Y025699D02*
X021076Y025699D01*
X021142Y025857D02*
X021569Y025857D01*
X022252Y025857D02*
X022569Y025857D01*
X022411Y025699D02*
X022410Y025699D01*
X023252Y025857D02*
X023819Y025857D01*
X023661Y025699D02*
X023410Y025699D01*
X022910Y027430D02*
X022910Y029180D01*
X023630Y029186D02*
X028440Y029186D01*
X028440Y029344D02*
X028026Y029344D01*
X027896Y029290D02*
X028182Y029409D01*
X028402Y029628D01*
X028520Y029915D01*
X028520Y030225D01*
X028402Y030512D01*
X028182Y030731D01*
X027896Y030850D01*
X026985Y030850D01*
X026699Y030731D01*
X026479Y030512D01*
X026360Y030225D01*
X026360Y029915D01*
X026479Y029628D01*
X026699Y029409D01*
X026985Y029290D01*
X027896Y029290D01*
X027999Y029027D02*
X028440Y029027D01*
X028454Y028869D02*
X028265Y028869D01*
X028411Y028710D02*
X028600Y028710D01*
X028600Y028552D02*
X028476Y028552D01*
X028520Y028393D02*
X028600Y028393D01*
X028600Y028235D02*
X028520Y028235D01*
X029160Y027430D02*
X029160Y029180D01*
X029880Y029186D02*
X034690Y029186D01*
X034690Y029344D02*
X034276Y029344D01*
X034146Y029290D02*
X034432Y029409D01*
X034652Y029628D01*
X034770Y029915D01*
X034770Y030225D01*
X034652Y030512D01*
X034432Y030731D01*
X034146Y030850D01*
X033235Y030850D01*
X032949Y030731D01*
X032729Y030512D01*
X032610Y030225D01*
X032610Y029915D01*
X032729Y029628D01*
X032949Y029409D01*
X033235Y029290D01*
X034146Y029290D01*
X034249Y029027D02*
X034690Y029027D01*
X034704Y028869D02*
X034515Y028869D01*
X034661Y028710D02*
X034850Y028710D01*
X034850Y028552D02*
X034726Y028552D01*
X034770Y028393D02*
X034850Y028393D01*
X034850Y028235D02*
X034770Y028235D01*
X035410Y027930D02*
X034910Y027430D01*
X035410Y027930D02*
X035410Y029180D01*
X036130Y029186D02*
X036594Y029186D01*
X036594Y029162D02*
X036720Y028856D01*
X036955Y028622D01*
X037261Y028495D01*
X037592Y028495D01*
X037898Y028622D01*
X038132Y028856D01*
X038259Y029162D01*
X038259Y030198D01*
X038132Y030504D01*
X037898Y030738D01*
X037592Y030865D01*
X037261Y030865D01*
X036955Y030738D01*
X036749Y030532D01*
X036760Y030561D01*
X036760Y030799D01*
X036669Y031020D01*
X036553Y031136D01*
X040143Y031136D01*
X040027Y031020D01*
X039935Y030799D01*
X039935Y030669D01*
X039866Y030738D01*
X039560Y030865D01*
X039229Y030865D01*
X038923Y030738D01*
X038689Y030504D01*
X038562Y030198D01*
X038562Y029162D01*
X038689Y028856D01*
X038923Y028622D01*
X039229Y028495D01*
X039560Y028495D01*
X039866Y028622D01*
X040100Y028856D01*
X040105Y028867D01*
X040105Y028700D01*
X040118Y028670D01*
X039747Y028299D01*
X039542Y028094D01*
X039430Y027825D01*
X039430Y026732D01*
X039108Y026410D01*
X037880Y026410D01*
X037880Y026664D01*
X037998Y026615D01*
X038322Y026615D01*
X038622Y026739D01*
X038851Y026969D01*
X038975Y027268D01*
X038975Y027592D01*
X038851Y027891D01*
X038622Y028121D01*
X038322Y028245D01*
X037998Y028245D01*
X037699Y028121D01*
X037470Y027891D01*
X037346Y027592D01*
X037346Y027268D01*
X037395Y027150D01*
X036862Y027150D01*
X036542Y026830D01*
X035823Y027550D01*
X035885Y027613D01*
X035970Y027819D01*
X035970Y028722D01*
X036130Y028882D01*
X036130Y029478D01*
X035904Y029705D01*
X035905Y029705D01*
X036125Y029796D01*
X036294Y029965D01*
X036354Y030111D01*
X036500Y030171D01*
X036641Y030312D01*
X036594Y030198D01*
X036594Y029162D01*
X036649Y029027D02*
X036130Y029027D01*
X036117Y028869D02*
X036715Y028869D01*
X036866Y028710D02*
X035970Y028710D01*
X035970Y028552D02*
X037124Y028552D01*
X037728Y028552D02*
X039093Y028552D01*
X038835Y028710D02*
X037986Y028710D01*
X038137Y028869D02*
X038684Y028869D01*
X038618Y029027D02*
X038203Y029027D01*
X038259Y029186D02*
X038562Y029186D01*
X038562Y029344D02*
X038259Y029344D01*
X038259Y029503D02*
X038562Y029503D01*
X038562Y029661D02*
X038259Y029661D01*
X038259Y029820D02*
X038562Y029820D01*
X038562Y029978D02*
X038259Y029978D01*
X038259Y030137D02*
X038562Y030137D01*
X038602Y030295D02*
X038218Y030295D01*
X038153Y030454D02*
X038668Y030454D01*
X038797Y030612D02*
X038024Y030612D01*
X037820Y030771D02*
X039001Y030771D01*
X039788Y030771D02*
X039935Y030771D01*
X039989Y030929D02*
X036707Y030929D01*
X036760Y030771D02*
X037032Y030771D01*
X036828Y030612D02*
X036760Y030612D01*
X036634Y030295D02*
X036624Y030295D01*
X036594Y030137D02*
X036416Y030137D01*
X036299Y029978D02*
X036594Y029978D01*
X036594Y029820D02*
X036148Y029820D01*
X035948Y029661D02*
X036594Y029661D01*
X036594Y029503D02*
X036106Y029503D01*
X036130Y029344D02*
X036594Y029344D01*
X035970Y028393D02*
X039841Y028393D01*
X039697Y028552D02*
X040000Y028552D01*
X039954Y028710D02*
X040105Y028710D01*
X039683Y028235D02*
X038347Y028235D01*
X038666Y028076D02*
X039534Y028076D01*
X039469Y027918D02*
X038825Y027918D01*
X038906Y027759D02*
X039430Y027759D01*
X039430Y027601D02*
X038971Y027601D01*
X038975Y027442D02*
X039430Y027442D01*
X039430Y027284D02*
X038975Y027284D01*
X038916Y027125D02*
X039430Y027125D01*
X039430Y026967D02*
X038849Y026967D01*
X038690Y026808D02*
X039430Y026808D01*
X039348Y026650D02*
X038405Y026650D01*
X037916Y026650D02*
X037880Y026650D01*
X037880Y026491D02*
X039189Y026491D01*
X040029Y025266D02*
X040430Y025668D01*
X040430Y024285D01*
X040542Y024016D01*
X041196Y023362D01*
X041180Y023325D01*
X041180Y023093D01*
X041044Y023150D01*
X040277Y023150D01*
X040013Y023040D01*
X039910Y022938D01*
X039885Y022997D01*
X039728Y023155D01*
X039728Y023155D01*
X038228Y024655D01*
X038022Y024740D01*
X037799Y024740D01*
X035989Y024740D01*
X036130Y024882D01*
X036130Y025178D01*
X036247Y025061D01*
X036515Y024950D01*
X039556Y024950D01*
X039824Y025061D01*
X040029Y025266D01*
X039986Y025223D02*
X040430Y025223D01*
X040430Y025065D02*
X039827Y025065D01*
X040144Y025382D02*
X040430Y025382D01*
X040430Y025540D02*
X040303Y025540D01*
X040430Y024906D02*
X036130Y024906D01*
X036130Y025065D02*
X036243Y025065D01*
X035996Y024748D02*
X040430Y024748D01*
X040430Y024589D02*
X038293Y024589D01*
X038452Y024431D02*
X040430Y024431D01*
X040436Y024272D02*
X038610Y024272D01*
X038769Y024114D02*
X040501Y024114D01*
X040603Y023955D02*
X038927Y023955D01*
X039086Y023797D02*
X040761Y023797D01*
X040920Y023638D02*
X039244Y023638D01*
X039403Y023480D02*
X041078Y023480D01*
X041180Y023321D02*
X039561Y023321D01*
X039720Y023163D02*
X041180Y023163D01*
X039976Y023004D02*
X039878Y023004D01*
X042640Y022700D02*
X042640Y021942D01*
X043398Y022700D01*
X042640Y022700D01*
X042640Y022687D02*
X043385Y022687D01*
X043227Y022529D02*
X042640Y022529D01*
X042640Y022370D02*
X043068Y022370D01*
X042910Y022212D02*
X042640Y022212D01*
X042640Y022053D02*
X042751Y022053D01*
X043694Y020931D02*
X043856Y020769D01*
X044143Y020650D01*
X044160Y020650D01*
X044160Y019212D01*
X043640Y019732D01*
X043640Y020878D01*
X043694Y020931D01*
X043640Y020785D02*
X043840Y020785D01*
X043640Y020627D02*
X044160Y020627D01*
X044160Y020468D02*
X043640Y020468D01*
X043640Y020310D02*
X044160Y020310D01*
X044160Y020151D02*
X043640Y020151D01*
X043640Y019993D02*
X044160Y019993D01*
X044160Y019834D02*
X043640Y019834D01*
X043697Y019676D02*
X044160Y019676D01*
X044160Y019517D02*
X043856Y019517D01*
X044014Y019359D02*
X044160Y019359D01*
X045160Y019555D02*
X052140Y019555D01*
X052140Y025180D01*
X045160Y025180D01*
X045160Y024003D01*
X045255Y023964D01*
X045432Y023787D01*
X045528Y023555D01*
X045528Y023305D01*
X045432Y023073D01*
X045289Y022930D01*
X045432Y022787D01*
X045528Y022555D01*
X045528Y022305D01*
X045432Y022073D01*
X045289Y021930D01*
X045432Y021787D01*
X045528Y021555D01*
X045528Y021305D01*
X045432Y021073D01*
X045255Y020896D01*
X045160Y020857D01*
X045160Y019555D01*
X045160Y019676D02*
X052140Y019676D01*
X052140Y019834D02*
X045160Y019834D01*
X045160Y019993D02*
X052140Y019993D01*
X052140Y020151D02*
X045160Y020151D01*
X045160Y020310D02*
X052140Y020310D01*
X052140Y020468D02*
X045160Y020468D01*
X045160Y020627D02*
X052140Y020627D01*
X052140Y020785D02*
X045160Y020785D01*
X045302Y020944D02*
X052140Y020944D01*
X052140Y021102D02*
X045444Y021102D01*
X045510Y021261D02*
X052140Y021261D01*
X052140Y021419D02*
X045528Y021419D01*
X045519Y021578D02*
X049995Y021578D01*
X049943Y021599D02*
X050303Y021450D01*
X050693Y021450D01*
X051053Y021599D01*
X051329Y021875D01*
X051478Y022235D01*
X051478Y022625D01*
X051329Y022985D01*
X051053Y023261D01*
X050693Y023410D01*
X050303Y023410D01*
X049943Y023261D01*
X049667Y022985D01*
X049518Y022625D01*
X049518Y022235D01*
X049667Y021875D01*
X049943Y021599D01*
X049806Y021736D02*
X045453Y021736D01*
X045324Y021895D02*
X049659Y021895D01*
X049593Y022053D02*
X045412Y022053D01*
X045489Y022212D02*
X049528Y022212D01*
X049518Y022370D02*
X045528Y022370D01*
X045528Y022529D02*
X049518Y022529D01*
X049544Y022687D02*
X045473Y022687D01*
X045373Y022846D02*
X049609Y022846D01*
X049686Y023004D02*
X045363Y023004D01*
X045469Y023163D02*
X049844Y023163D01*
X050088Y023321D02*
X045528Y023321D01*
X045528Y023480D02*
X052140Y023480D01*
X052140Y023638D02*
X045494Y023638D01*
X045422Y023797D02*
X052140Y023797D01*
X052140Y023955D02*
X045264Y023955D01*
X045160Y024114D02*
X052140Y024114D01*
X052140Y024272D02*
X045160Y024272D01*
X045160Y024431D02*
X052140Y024431D01*
X052140Y024589D02*
X045160Y024589D01*
X045160Y024748D02*
X052140Y024748D01*
X052140Y024906D02*
X045160Y024906D01*
X045160Y025065D02*
X052140Y025065D01*
X051990Y026180D02*
X047140Y026180D01*
X047140Y026332D01*
X047037Y026436D01*
X047140Y026685D01*
X047140Y026975D01*
X047029Y027244D01*
X046824Y027449D01*
X046556Y027560D01*
X046265Y027560D01*
X045997Y027449D01*
X045792Y027244D01*
X045680Y026975D01*
X045680Y026685D01*
X045784Y026436D01*
X045680Y026332D01*
X045680Y026180D01*
X045380Y026180D01*
X045380Y026228D01*
X045179Y026430D01*
X045380Y026632D01*
X045380Y027228D01*
X044959Y027650D01*
X044362Y027650D01*
X043940Y027228D01*
X043940Y026632D01*
X044142Y026430D01*
X043940Y026228D01*
X043940Y025632D01*
X044160Y025412D01*
X044160Y024210D01*
X044143Y024210D01*
X044022Y024160D01*
X042463Y024160D01*
X042413Y024210D01*
X042459Y024210D01*
X042880Y024632D01*
X042880Y025228D01*
X042459Y025650D01*
X041890Y025650D01*
X041890Y026575D01*
X041880Y026599D01*
X041880Y026728D01*
X041789Y026819D01*
X041779Y026844D01*
X041753Y026870D01*
X041851Y026969D01*
X041975Y027268D01*
X041975Y027418D01*
X042006Y027405D01*
X042315Y027405D01*
X042600Y027523D01*
X042818Y027741D01*
X042936Y028026D01*
X042936Y028334D01*
X042893Y028437D01*
X042936Y028539D01*
X042936Y028557D01*
X042959Y028534D01*
X043109Y028383D01*
X043306Y028302D01*
X043912Y028302D01*
X044109Y028383D01*
X044259Y028534D01*
X044341Y028730D01*
X044341Y028735D01*
X044455Y028622D01*
X044761Y028495D01*
X045092Y028495D01*
X045398Y028622D01*
X045632Y028856D01*
X045759Y029162D01*
X045759Y030198D01*
X045632Y030504D01*
X045398Y030738D01*
X045092Y030865D01*
X044761Y030865D01*
X044455Y030738D01*
X044385Y030669D01*
X044385Y030799D01*
X044294Y031020D01*
X044178Y031136D01*
X047768Y031136D01*
X047652Y031020D01*
X047560Y030799D01*
X047560Y030561D01*
X047572Y030532D01*
X047366Y030738D01*
X047060Y030865D01*
X046729Y030865D01*
X046423Y030738D01*
X046189Y030504D01*
X046062Y030198D01*
X046062Y029162D01*
X046189Y028856D01*
X046423Y028622D01*
X046729Y028495D01*
X047060Y028495D01*
X047366Y028622D01*
X047600Y028856D01*
X047727Y029162D01*
X047727Y030198D01*
X047680Y030312D01*
X047820Y030171D01*
X047881Y030146D01*
X047811Y030076D01*
X047730Y029880D01*
X047730Y029667D01*
X047767Y029576D01*
X047730Y029486D01*
X047730Y029273D01*
X047738Y029254D01*
X047730Y029235D01*
X047730Y028629D01*
X047811Y028432D01*
X047962Y028281D01*
X048158Y028200D01*
X048473Y028200D01*
X048492Y028194D01*
X048579Y028200D01*
X048863Y028200D01*
X049060Y028281D01*
X049210Y028432D01*
X049421Y028221D01*
X049845Y027976D01*
X050317Y027850D01*
X050807Y027850D01*
X051279Y027976D01*
X051703Y028221D01*
X051990Y028509D01*
X051990Y026180D01*
X051990Y026333D02*
X047140Y026333D01*
X047060Y026491D02*
X051990Y026491D01*
X051990Y026650D02*
X047126Y026650D01*
X047140Y026808D02*
X051990Y026808D01*
X051990Y026967D02*
X047140Y026967D01*
X047078Y027125D02*
X051990Y027125D01*
X051990Y027284D02*
X046989Y027284D01*
X046831Y027442D02*
X051990Y027442D01*
X051990Y027601D02*
X045008Y027601D01*
X045167Y027442D02*
X045990Y027442D01*
X045832Y027284D02*
X045325Y027284D01*
X045380Y027125D02*
X045742Y027125D01*
X045680Y026967D02*
X045380Y026967D01*
X045380Y026808D02*
X045680Y026808D01*
X045695Y026650D02*
X045380Y026650D01*
X045240Y026491D02*
X045761Y026491D01*
X045681Y026333D02*
X045276Y026333D01*
X044081Y026491D02*
X041890Y026491D01*
X041890Y026333D02*
X044045Y026333D01*
X043940Y026174D02*
X041890Y026174D01*
X041890Y026016D02*
X043940Y026016D01*
X043940Y025857D02*
X041890Y025857D01*
X041890Y025699D02*
X043940Y025699D01*
X044032Y025540D02*
X042569Y025540D01*
X042727Y025382D02*
X044160Y025382D01*
X044160Y025223D02*
X042880Y025223D01*
X042880Y025065D02*
X044160Y025065D01*
X044160Y024906D02*
X042880Y024906D01*
X042880Y024748D02*
X044160Y024748D01*
X044160Y024589D02*
X042838Y024589D01*
X042679Y024431D02*
X044160Y024431D01*
X044160Y024272D02*
X042521Y024272D01*
X041880Y026650D02*
X043940Y026650D01*
X043940Y026808D02*
X041801Y026808D01*
X041849Y026967D02*
X043940Y026967D01*
X043940Y027125D02*
X041916Y027125D01*
X041975Y027284D02*
X043996Y027284D01*
X044154Y027442D02*
X042405Y027442D01*
X042677Y027601D02*
X044313Y027601D01*
X044119Y028393D02*
X047850Y028393D01*
X047762Y028552D02*
X047197Y028552D01*
X047454Y028710D02*
X047730Y028710D01*
X047730Y028869D02*
X047606Y028869D01*
X047671Y029027D02*
X047730Y029027D01*
X047727Y029186D02*
X047730Y029186D01*
X047727Y029344D02*
X047730Y029344D01*
X047727Y029503D02*
X047737Y029503D01*
X047727Y029661D02*
X047732Y029661D01*
X047727Y029820D02*
X047730Y029820D01*
X047727Y029978D02*
X047771Y029978D01*
X047727Y030137D02*
X047872Y030137D01*
X047697Y030295D02*
X047687Y030295D01*
X047560Y030612D02*
X047492Y030612D01*
X047560Y030771D02*
X047288Y030771D01*
X047614Y030929D02*
X044332Y030929D01*
X044385Y030771D02*
X044532Y030771D01*
X044226Y031088D02*
X047719Y031088D01*
X046501Y030771D02*
X045320Y030771D01*
X045524Y030612D02*
X046297Y030612D01*
X046168Y030454D02*
X045653Y030454D01*
X045718Y030295D02*
X046102Y030295D01*
X046062Y030137D02*
X045759Y030137D01*
X045759Y029978D02*
X046062Y029978D01*
X046062Y029820D02*
X045759Y029820D01*
X045759Y029661D02*
X046062Y029661D01*
X046062Y029503D02*
X045759Y029503D01*
X045759Y029344D02*
X046062Y029344D01*
X046062Y029186D02*
X045759Y029186D01*
X045703Y029027D02*
X046118Y029027D01*
X046184Y028869D02*
X045637Y028869D01*
X045486Y028710D02*
X046335Y028710D01*
X046593Y028552D02*
X045228Y028552D01*
X044624Y028552D02*
X044267Y028552D01*
X044332Y028710D02*
X044366Y028710D01*
X043099Y028393D02*
X042911Y028393D01*
X042936Y028235D02*
X048075Y028235D01*
X048947Y028235D02*
X049407Y028235D01*
X049249Y028393D02*
X049172Y028393D01*
X049672Y028076D02*
X042936Y028076D01*
X042891Y027918D02*
X050064Y027918D01*
X051060Y027918D02*
X051990Y027918D01*
X051990Y028076D02*
X051452Y028076D01*
X051716Y028235D02*
X051990Y028235D01*
X051990Y028393D02*
X051875Y028393D01*
X051990Y027759D02*
X042825Y027759D01*
X042936Y028552D02*
X042941Y028552D01*
X042435Y030705D02*
X041885Y030705D01*
X041885Y030799D01*
X041794Y031020D01*
X041678Y031136D01*
X042643Y031136D01*
X042527Y031020D01*
X042435Y030799D01*
X042435Y030705D01*
X042435Y030771D02*
X041885Y030771D01*
X041832Y030929D02*
X042489Y030929D01*
X042594Y031088D02*
X041726Y031088D01*
X040094Y031088D02*
X036601Y031088D01*
X034969Y031088D02*
X016376Y031088D01*
X016535Y030929D02*
X034864Y030929D01*
X034810Y030771D02*
X034337Y030771D01*
X034551Y030612D02*
X034810Y030612D01*
X034855Y030454D02*
X034676Y030454D01*
X034741Y030295D02*
X034947Y030295D01*
X034770Y030137D02*
X035155Y030137D01*
X035271Y029978D02*
X034770Y029978D01*
X034731Y029820D02*
X035032Y029820D01*
X034873Y029661D02*
X034665Y029661D01*
X034715Y029503D02*
X034526Y029503D01*
X033105Y029344D02*
X031716Y029344D01*
X031586Y029290D02*
X031872Y029409D01*
X032092Y029628D01*
X032210Y029915D01*
X032210Y030225D01*
X032092Y030512D01*
X031872Y030731D01*
X031586Y030850D01*
X030675Y030850D01*
X030389Y030731D01*
X030169Y030512D01*
X030050Y030225D01*
X030050Y029915D01*
X030169Y029628D01*
X030389Y029409D01*
X030675Y029290D01*
X031586Y029290D01*
X031689Y029027D02*
X033132Y029027D01*
X032866Y028869D02*
X031955Y028869D01*
X032101Y028710D02*
X032720Y028710D01*
X032654Y028552D02*
X032166Y028552D01*
X032210Y028393D02*
X032610Y028393D01*
X032610Y028235D02*
X032210Y028235D01*
X031966Y029503D02*
X032855Y029503D01*
X032715Y029661D02*
X032105Y029661D01*
X032171Y029820D02*
X032650Y029820D01*
X032610Y029978D02*
X032210Y029978D01*
X032210Y030137D02*
X032610Y030137D01*
X032639Y030295D02*
X032181Y030295D01*
X032116Y030454D02*
X032705Y030454D01*
X032829Y030612D02*
X031991Y030612D01*
X031777Y030771D02*
X033043Y030771D01*
X030483Y030771D02*
X028087Y030771D01*
X028301Y030612D02*
X030269Y030612D01*
X030145Y030454D02*
X028426Y030454D01*
X028491Y030295D02*
X030079Y030295D01*
X030050Y030137D02*
X028520Y030137D01*
X028520Y029978D02*
X030050Y029978D01*
X030090Y029820D02*
X029539Y029820D01*
X029698Y029661D02*
X030155Y029661D01*
X030295Y029503D02*
X029856Y029503D01*
X029880Y029344D02*
X030545Y029344D01*
X030572Y029027D02*
X029880Y029027D01*
X029867Y028869D02*
X030306Y028869D01*
X030160Y028710D02*
X029720Y028710D01*
X029720Y028552D02*
X030094Y028552D01*
X030050Y028393D02*
X029720Y028393D01*
X029720Y028235D02*
X030050Y028235D01*
X028465Y029503D02*
X028276Y029503D01*
X028415Y029661D02*
X028623Y029661D01*
X028481Y029820D02*
X028782Y029820D01*
X026855Y029344D02*
X025466Y029344D01*
X025336Y029290D02*
X025622Y029409D01*
X025842Y029628D01*
X025960Y029915D01*
X025960Y030225D01*
X025842Y030512D01*
X025622Y030731D01*
X025336Y030850D01*
X024425Y030850D01*
X024139Y030731D01*
X023919Y030512D01*
X023800Y030225D01*
X023800Y029915D01*
X023919Y029628D01*
X024139Y029409D01*
X024425Y029290D01*
X025336Y029290D01*
X025439Y029027D02*
X026882Y029027D01*
X026616Y028869D02*
X025705Y028869D01*
X025851Y028710D02*
X026470Y028710D01*
X026404Y028552D02*
X025916Y028552D01*
X025960Y028393D02*
X026360Y028393D01*
X026360Y028235D02*
X025960Y028235D01*
X025716Y029503D02*
X026605Y029503D01*
X026465Y029661D02*
X025855Y029661D01*
X025921Y029820D02*
X026400Y029820D01*
X026360Y029978D02*
X025960Y029978D01*
X025960Y030137D02*
X026360Y030137D01*
X026389Y030295D02*
X025931Y030295D01*
X025866Y030454D02*
X026455Y030454D01*
X026579Y030612D02*
X025741Y030612D01*
X025527Y030771D02*
X026793Y030771D01*
X024322Y029027D02*
X023630Y029027D01*
X023617Y028869D02*
X024056Y028869D01*
X023910Y028710D02*
X023470Y028710D01*
X023470Y028552D02*
X023844Y028552D01*
X023800Y028393D02*
X023470Y028393D01*
X023470Y028235D02*
X023800Y028235D01*
X023630Y029344D02*
X024295Y029344D01*
X024045Y029503D02*
X023606Y029503D01*
X023448Y029661D02*
X023905Y029661D01*
X023840Y029820D02*
X023289Y029820D01*
X023800Y029978D02*
X022270Y029978D01*
X022270Y030137D02*
X023800Y030137D01*
X023829Y030295D02*
X022241Y030295D01*
X022176Y030454D02*
X023895Y030454D01*
X024019Y030612D02*
X022051Y030612D01*
X021837Y030771D02*
X024233Y030771D01*
X022532Y029820D02*
X022231Y029820D01*
X022165Y029661D02*
X022373Y029661D01*
X022215Y029503D02*
X022026Y029503D01*
X022190Y029344D02*
X021776Y029344D01*
X021749Y029027D02*
X022190Y029027D01*
X022190Y029186D02*
X016912Y029186D01*
X014631Y027918D02*
X013720Y027918D01*
X013720Y028076D02*
X014239Y028076D01*
X013974Y028235D02*
X013720Y028235D01*
X013720Y028393D02*
X013816Y028393D01*
X013720Y030927D02*
X013720Y031136D01*
X013930Y031136D01*
X013720Y030927D01*
X013720Y030929D02*
X013723Y030929D01*
X013720Y031088D02*
X013881Y031088D01*
X013720Y025857D02*
X017569Y025857D01*
X017411Y025699D02*
X013720Y025699D01*
X013720Y025540D02*
X017252Y025540D01*
X017190Y025382D02*
X013720Y025382D01*
X013720Y025223D02*
X017190Y025223D01*
X019642Y025382D02*
X020179Y025382D01*
X022270Y028235D02*
X022350Y028235D01*
X022350Y028393D02*
X022270Y028393D01*
X022226Y028552D02*
X022350Y028552D01*
X022350Y028710D02*
X022161Y028710D01*
X022204Y028869D02*
X022015Y028869D01*
X030910Y025699D02*
X031245Y025699D01*
X031397Y025540D02*
X031069Y025540D01*
X031130Y025382D02*
X031679Y025382D01*
X032142Y025382D02*
X032679Y025382D01*
X033142Y025382D02*
X033690Y025382D01*
X033690Y025223D02*
X031130Y025223D01*
X031130Y025065D02*
X033690Y025065D01*
X033690Y024906D02*
X031130Y024906D01*
X030996Y024748D02*
X033825Y024748D01*
X033801Y024589D02*
X030838Y024589D01*
X033423Y025540D02*
X033752Y025540D01*
X033911Y025699D02*
X033576Y025699D01*
X033642Y025857D02*
X034069Y025857D01*
X033690Y026016D02*
X035292Y026016D01*
X035134Y026174D02*
X033690Y026174D01*
X033690Y026333D02*
X034975Y026333D01*
X034817Y026491D02*
X033690Y026491D01*
X033690Y026650D02*
X034658Y026650D01*
X034752Y025857D02*
X035069Y025857D01*
X034911Y025699D02*
X034910Y025699D01*
X036248Y027125D02*
X036837Y027125D01*
X036679Y026967D02*
X036406Y026967D01*
X036089Y027284D02*
X037346Y027284D01*
X037346Y027442D02*
X035931Y027442D01*
X035873Y027601D02*
X037349Y027601D01*
X037415Y027759D02*
X035946Y027759D01*
X035970Y027918D02*
X037496Y027918D01*
X037654Y028076D02*
X035970Y028076D01*
X035970Y028235D02*
X037974Y028235D01*
X031231Y021551D02*
X031160Y021598D01*
X031090Y021551D01*
X031090Y021544D01*
X031096Y021524D01*
X031108Y021506D01*
X031125Y021493D01*
X031144Y021485D01*
X031166Y021484D01*
X031186Y021489D01*
X031205Y021499D01*
X031219Y021515D01*
X031229Y021534D01*
X031231Y021551D01*
X031191Y021578D02*
X031130Y021578D01*
X035280Y015079D02*
X035493Y015079D01*
X035438Y014921D02*
X035633Y014921D01*
X035535Y014037D02*
X035429Y013930D01*
X035535Y013823D01*
X035642Y013930D01*
X035535Y014037D01*
X035468Y013970D02*
X035603Y013970D01*
X035554Y013019D02*
X035517Y013019D01*
X035359Y012860D02*
X035712Y012860D01*
X034992Y012068D02*
X034329Y012068D01*
X034395Y011909D02*
X034926Y011909D01*
X034890Y011751D02*
X034430Y011751D01*
X034430Y011592D02*
X034890Y011592D01*
X034933Y011434D02*
X034388Y011434D01*
X034322Y011275D02*
X034999Y011275D01*
X035156Y011117D02*
X034165Y011117D01*
X030160Y008680D02*
X019660Y008680D01*
X020013Y009373D02*
X020948Y009373D01*
X020329Y015079D02*
X022993Y015079D01*
X022835Y015238D02*
X020414Y015238D01*
X020436Y015396D02*
X022690Y015396D01*
X022690Y015555D02*
X020436Y015555D01*
X020436Y015713D02*
X022690Y015713D01*
X022690Y015872D02*
X020436Y015872D01*
X020436Y016030D02*
X022742Y016030D01*
X022901Y016189D02*
X020387Y016189D01*
X020263Y016347D02*
X023059Y016347D01*
X028600Y004301D02*
X028721Y004301D01*
X029600Y004301D02*
X029721Y004301D01*
X030600Y004301D02*
X030721Y004301D01*
X031600Y004301D02*
X031721Y004301D01*
X038907Y003950D02*
X038910Y003947D01*
X038914Y003950D01*
X038907Y003950D01*
X039907Y003950D02*
X039910Y003947D01*
X039914Y003950D01*
X039907Y003950D01*
X040907Y003950D02*
X040910Y003947D01*
X040914Y003950D01*
X040907Y003950D01*
X041907Y003950D02*
X041910Y003947D01*
X041914Y003950D01*
X041907Y003950D01*
X042907Y003950D02*
X042910Y003947D01*
X042914Y003950D01*
X042907Y003950D01*
X043907Y003950D02*
X043910Y003947D01*
X043914Y003950D01*
X043907Y003950D01*
X044873Y003984D02*
X044948Y003984D01*
X044181Y006203D02*
X046345Y006203D01*
X046187Y006362D02*
X044438Y006362D01*
X043910Y006930D02*
X042410Y006930D01*
X042947Y006370D02*
X043374Y006370D01*
X043471Y006273D01*
X043743Y006160D01*
X042637Y006160D01*
X042635Y006161D01*
X042579Y006161D01*
X042850Y006273D01*
X042947Y006370D01*
X042938Y006362D02*
X043382Y006362D01*
X043640Y006203D02*
X042681Y006203D01*
X042550Y008240D02*
X042003Y008240D01*
X042253Y008491D01*
X042471Y008273D01*
X042550Y008240D01*
X042494Y008264D02*
X042026Y008264D01*
X042185Y008422D02*
X042322Y008422D01*
X042910Y008930D02*
X044410Y008930D01*
X047660Y005680D01*
X048660Y005680D01*
X049388Y005411D02*
X051990Y005411D01*
X051990Y005569D02*
X049436Y005569D01*
X049436Y005728D02*
X051990Y005728D01*
X051990Y005886D02*
X049414Y005886D01*
X049349Y006045D02*
X051990Y006045D01*
X051990Y006203D02*
X049234Y006203D01*
X049041Y006362D02*
X051990Y006362D01*
X051990Y006520D02*
X047612Y006520D01*
X047454Y006679D02*
X051990Y006679D01*
X051990Y006837D02*
X050132Y006837D01*
X050133Y006837D02*
X050343Y007101D01*
X050418Y007430D01*
X050343Y007759D01*
X050225Y007907D01*
X050277Y007929D01*
X050412Y008064D01*
X050485Y008240D01*
X050485Y009120D01*
X050460Y009180D01*
X050485Y009240D01*
X050485Y010120D01*
X050460Y010180D01*
X050485Y010240D01*
X050485Y011120D01*
X050412Y011296D01*
X050277Y011431D01*
X050100Y011504D01*
X049220Y011504D01*
X049160Y011480D01*
X049100Y011504D01*
X048220Y011504D01*
X048044Y011431D01*
X047909Y011296D01*
X047836Y011120D01*
X047836Y010240D01*
X047861Y010180D01*
X047836Y010120D01*
X047836Y009240D01*
X047861Y009180D01*
X047836Y009120D01*
X047836Y008240D01*
X047909Y008064D01*
X048044Y007929D01*
X048220Y007856D01*
X049054Y007856D01*
X048977Y007759D01*
X048902Y007430D01*
X048977Y007101D01*
X049188Y006837D01*
X047295Y006837D01*
X047137Y006996D02*
X049062Y006996D01*
X048965Y007154D02*
X046978Y007154D01*
X046820Y007313D02*
X048929Y007313D01*
X048912Y007471D02*
X046661Y007471D01*
X046503Y007630D02*
X048948Y007630D01*
X049001Y007788D02*
X046344Y007788D01*
X046186Y007947D02*
X046655Y007947D01*
X046389Y008105D02*
X046027Y008105D01*
X045869Y008264D02*
X046244Y008264D01*
X046136Y008422D02*
X045710Y008422D01*
X045552Y008581D02*
X045977Y008581D01*
X045819Y008739D02*
X045393Y008739D01*
X045235Y008898D02*
X045660Y008898D01*
X045502Y009056D02*
X045076Y009056D01*
X044918Y009215D02*
X045343Y009215D01*
X045185Y009373D02*
X044759Y009373D01*
X045026Y009532D02*
X043405Y009532D01*
X043453Y009690D02*
X044868Y009690D01*
X045982Y010641D02*
X047836Y010641D01*
X047836Y010483D02*
X046140Y010483D01*
X046299Y010324D02*
X047836Y010324D01*
X047855Y010166D02*
X046457Y010166D01*
X046616Y010007D02*
X047836Y010007D01*
X047836Y009849D02*
X046774Y009849D01*
X046933Y009690D02*
X047836Y009690D01*
X047836Y009532D02*
X047091Y009532D01*
X047263Y009373D02*
X047836Y009373D01*
X047846Y009215D02*
X047472Y009215D01*
X047594Y009056D02*
X047836Y009056D01*
X047836Y008898D02*
X047659Y008898D01*
X047686Y008739D02*
X047836Y008739D01*
X047836Y008581D02*
X047686Y008581D01*
X047643Y008422D02*
X047836Y008422D01*
X047836Y008264D02*
X047577Y008264D01*
X047432Y008105D02*
X047892Y008105D01*
X048026Y007947D02*
X047165Y007947D01*
X047771Y006362D02*
X048280Y006362D01*
X049188Y006837D02*
X049492Y006691D01*
X049829Y006691D01*
X050133Y006837D01*
X050259Y006996D02*
X051990Y006996D01*
X051990Y007154D02*
X050355Y007154D01*
X050392Y007313D02*
X051990Y007313D01*
X051990Y007471D02*
X050409Y007471D01*
X050373Y007630D02*
X051990Y007630D01*
X051990Y007788D02*
X050320Y007788D01*
X050295Y007947D02*
X051990Y007947D01*
X051990Y008105D02*
X050429Y008105D01*
X050485Y008264D02*
X051990Y008264D01*
X051990Y008422D02*
X050485Y008422D01*
X050485Y008581D02*
X051990Y008581D01*
X051990Y008739D02*
X050485Y008739D01*
X050485Y008898D02*
X051990Y008898D01*
X051990Y009056D02*
X050485Y009056D01*
X050474Y009215D02*
X051990Y009215D01*
X051990Y009373D02*
X050485Y009373D01*
X050485Y009532D02*
X051990Y009532D01*
X051990Y009690D02*
X050485Y009690D01*
X050485Y009849D02*
X051990Y009849D01*
X051990Y010007D02*
X050485Y010007D01*
X050466Y010166D02*
X051990Y010166D01*
X051990Y010324D02*
X050485Y010324D01*
X050485Y010483D02*
X051990Y010483D01*
X051990Y010641D02*
X050485Y010641D01*
X050485Y010800D02*
X051990Y010800D01*
X051990Y010958D02*
X050485Y010958D01*
X050485Y011117D02*
X051990Y011117D01*
X051990Y011275D02*
X050421Y011275D01*
X050272Y011434D02*
X051990Y011434D01*
X051990Y011592D02*
X047130Y011592D01*
X047130Y011434D02*
X048049Y011434D01*
X047900Y011275D02*
X047130Y011275D01*
X047115Y011117D02*
X047836Y011117D01*
X047836Y010958D02*
X046957Y010958D01*
X046798Y010800D02*
X047836Y010800D01*
X047108Y011751D02*
X051990Y011751D01*
X051990Y011909D02*
X046950Y011909D01*
X046791Y012068D02*
X051990Y012068D01*
X051990Y012226D02*
X045890Y012226D01*
X045890Y012068D02*
X046030Y012068D01*
X045890Y012385D02*
X051990Y012385D01*
X051990Y012543D02*
X045890Y012543D01*
X045890Y012702D02*
X048393Y012702D01*
X048506Y012655D02*
X048815Y012655D01*
X049100Y012773D01*
X049318Y012991D01*
X049436Y013276D01*
X049436Y013584D01*
X049390Y013694D01*
X049390Y016666D01*
X049436Y016776D01*
X049436Y017084D01*
X049318Y017369D01*
X049100Y017587D01*
X048815Y017705D01*
X048506Y017705D01*
X048221Y017587D01*
X048003Y017369D01*
X047885Y017084D01*
X047885Y016776D01*
X047930Y016666D01*
X047930Y013694D01*
X047885Y013584D01*
X047885Y013276D01*
X048003Y012991D01*
X048221Y012773D01*
X048506Y012655D01*
X048928Y012702D02*
X051990Y012702D01*
X051990Y012860D02*
X049187Y012860D01*
X049329Y013019D02*
X051990Y013019D01*
X051990Y013177D02*
X049395Y013177D01*
X049436Y013336D02*
X051990Y013336D01*
X051990Y013494D02*
X049436Y013494D01*
X049407Y013653D02*
X051990Y013653D01*
X051990Y013811D02*
X049390Y013811D01*
X049390Y013970D02*
X051990Y013970D01*
X051990Y014128D02*
X049390Y014128D01*
X049390Y014287D02*
X051990Y014287D01*
X051990Y014445D02*
X049390Y014445D01*
X049390Y014604D02*
X051990Y014604D01*
X051990Y014762D02*
X049390Y014762D01*
X049390Y014921D02*
X051990Y014921D01*
X051990Y015079D02*
X049390Y015079D01*
X049390Y015238D02*
X051990Y015238D01*
X051990Y015396D02*
X049390Y015396D01*
X049390Y015555D02*
X051990Y015555D01*
X051990Y015713D02*
X049390Y015713D01*
X049390Y015872D02*
X051990Y015872D01*
X051990Y016030D02*
X049390Y016030D01*
X049390Y016189D02*
X051990Y016189D01*
X051990Y016347D02*
X049390Y016347D01*
X049390Y016506D02*
X051990Y016506D01*
X051990Y016664D02*
X049390Y016664D01*
X049436Y016823D02*
X051990Y016823D01*
X051990Y016981D02*
X049436Y016981D01*
X049413Y017140D02*
X051990Y017140D01*
X051990Y017298D02*
X049347Y017298D01*
X049230Y017457D02*
X051990Y017457D01*
X051990Y017615D02*
X049032Y017615D01*
X048288Y017615D02*
X045758Y017615D01*
X045836Y017457D02*
X048090Y017457D01*
X047974Y017298D02*
X045890Y017298D01*
X045890Y017140D02*
X047908Y017140D01*
X047885Y016981D02*
X045890Y016981D01*
X045890Y016823D02*
X047885Y016823D01*
X047930Y016664D02*
X045890Y016664D01*
X045890Y016506D02*
X047930Y016506D01*
X047930Y016347D02*
X045890Y016347D01*
X045890Y016189D02*
X047930Y016189D01*
X047930Y016030D02*
X045890Y016030D01*
X045890Y015872D02*
X047930Y015872D01*
X047930Y015713D02*
X045890Y015713D01*
X045890Y015555D02*
X047930Y015555D01*
X047930Y015396D02*
X045890Y015396D01*
X045890Y015238D02*
X047930Y015238D01*
X047930Y015079D02*
X045890Y015079D01*
X045890Y014921D02*
X047930Y014921D01*
X047930Y014762D02*
X045890Y014762D01*
X045890Y014604D02*
X047930Y014604D01*
X047930Y014445D02*
X045890Y014445D01*
X045890Y014287D02*
X047930Y014287D01*
X047930Y014128D02*
X047481Y014128D01*
X047459Y014150D02*
X046862Y014150D01*
X046440Y013728D01*
X046440Y013132D01*
X046862Y012710D01*
X047459Y012710D01*
X047880Y013132D01*
X047880Y013728D01*
X047459Y014150D01*
X047639Y013970D02*
X047930Y013970D01*
X047930Y013811D02*
X047798Y013811D01*
X047880Y013653D02*
X047913Y013653D01*
X047885Y013494D02*
X047880Y013494D01*
X047880Y013336D02*
X047885Y013336D01*
X047880Y013177D02*
X047926Y013177D01*
X047992Y013019D02*
X047767Y013019D01*
X047609Y012860D02*
X048134Y012860D01*
X046712Y012860D02*
X045890Y012860D01*
X045890Y013019D02*
X046554Y013019D01*
X046440Y013177D02*
X045890Y013177D01*
X045890Y013336D02*
X046440Y013336D01*
X046440Y013494D02*
X045890Y013494D01*
X045890Y013653D02*
X046440Y013653D01*
X046523Y013811D02*
X045890Y013811D01*
X045890Y013970D02*
X046682Y013970D01*
X046840Y014128D02*
X045890Y014128D01*
X044430Y014128D02*
X043481Y014128D01*
X043459Y014150D02*
X042862Y014150D01*
X042440Y013728D01*
X042440Y013132D01*
X042862Y012710D01*
X043459Y012710D01*
X043880Y013132D01*
X043880Y013728D01*
X043459Y014150D01*
X043639Y013970D02*
X044430Y013970D01*
X044430Y013811D02*
X043798Y013811D01*
X043880Y013653D02*
X044430Y013653D01*
X044430Y013494D02*
X043880Y013494D01*
X043880Y013336D02*
X044430Y013336D01*
X044430Y013177D02*
X043880Y013177D01*
X043767Y013019D02*
X044430Y013019D01*
X044430Y012860D02*
X043609Y012860D01*
X044430Y012702D02*
X041567Y012702D01*
X041620Y012573D02*
X041511Y012838D01*
X041419Y012930D01*
X041511Y013022D01*
X041620Y013287D01*
X041620Y013573D01*
X041511Y013838D01*
X041419Y013930D01*
X041511Y014022D01*
X041620Y014287D01*
X041620Y014460D01*
X042209Y014460D01*
X042630Y014882D01*
X042630Y015168D01*
X042690Y015108D01*
X042690Y014882D01*
X043112Y014460D01*
X043709Y014460D01*
X044130Y014882D01*
X044130Y015478D01*
X043929Y015680D01*
X044130Y015882D01*
X044130Y016478D01*
X043709Y016900D01*
X043585Y016900D01*
X043640Y017035D01*
X043640Y017668D01*
X044430Y016878D01*
X044430Y011160D01*
X043130Y011160D01*
X043130Y011728D01*
X042709Y012150D01*
X042112Y012150D01*
X041690Y011728D01*
X041690Y011132D01*
X042112Y010710D01*
X042408Y010710D01*
X041518Y009820D01*
X041511Y009838D01*
X041419Y009930D01*
X041511Y010022D01*
X041620Y010287D01*
X041620Y010573D01*
X041511Y010838D01*
X041419Y010930D01*
X041511Y011022D01*
X041620Y011287D01*
X041620Y011573D01*
X041511Y011838D01*
X041419Y011930D01*
X041511Y012022D01*
X041620Y012287D01*
X041620Y012573D01*
X041620Y012543D02*
X044430Y012543D01*
X044430Y012385D02*
X041620Y012385D01*
X041595Y012226D02*
X044430Y012226D01*
X044430Y012068D02*
X042791Y012068D01*
X042950Y011909D02*
X044430Y011909D01*
X044430Y011751D02*
X043108Y011751D01*
X043130Y011592D02*
X044430Y011592D01*
X044430Y011434D02*
X043130Y011434D01*
X043130Y011275D02*
X044430Y011275D01*
X045890Y010800D02*
X046023Y010800D01*
X042339Y010641D02*
X041592Y010641D01*
X041620Y010483D02*
X042181Y010483D01*
X042022Y010324D02*
X041620Y010324D01*
X041570Y010166D02*
X041864Y010166D01*
X041705Y010007D02*
X041496Y010007D01*
X041500Y009849D02*
X041547Y009849D01*
X041527Y010800D02*
X042023Y010800D01*
X041864Y010958D02*
X041447Y010958D01*
X041550Y011117D02*
X041706Y011117D01*
X041690Y011275D02*
X041615Y011275D01*
X041620Y011434D02*
X041690Y011434D01*
X041690Y011592D02*
X041613Y011592D01*
X041547Y011751D02*
X041713Y011751D01*
X041871Y011909D02*
X041440Y011909D01*
X041530Y012068D02*
X042030Y012068D01*
X041489Y012860D02*
X042712Y012860D01*
X042554Y013019D02*
X041507Y013019D01*
X041575Y013177D02*
X042440Y013177D01*
X042440Y013336D02*
X041620Y013336D01*
X041620Y013494D02*
X042440Y013494D01*
X042440Y013653D02*
X041588Y013653D01*
X041522Y013811D02*
X042523Y013811D01*
X042682Y013970D02*
X041458Y013970D01*
X041555Y014128D02*
X042840Y014128D01*
X042969Y014604D02*
X042352Y014604D01*
X042511Y014762D02*
X042810Y014762D01*
X042690Y014921D02*
X042630Y014921D01*
X042630Y015079D02*
X042690Y015079D01*
X043410Y015180D02*
X042660Y015930D01*
X042660Y016930D01*
X043618Y016981D02*
X044327Y016981D01*
X044430Y016823D02*
X043786Y016823D01*
X043945Y016664D02*
X044430Y016664D01*
X044430Y016506D02*
X044103Y016506D01*
X044130Y016347D02*
X044430Y016347D01*
X044430Y016189D02*
X044130Y016189D01*
X044130Y016030D02*
X044430Y016030D01*
X044430Y015872D02*
X044120Y015872D01*
X043962Y015713D02*
X044430Y015713D01*
X044430Y015555D02*
X044054Y015555D01*
X044130Y015396D02*
X044430Y015396D01*
X044430Y015238D02*
X044130Y015238D01*
X044130Y015079D02*
X044430Y015079D01*
X044430Y014921D02*
X044130Y014921D01*
X044011Y014762D02*
X044430Y014762D01*
X044430Y014604D02*
X043852Y014604D01*
X044430Y014445D02*
X041620Y014445D01*
X041620Y014287D02*
X044430Y014287D01*
X044168Y017140D02*
X043640Y017140D01*
X043640Y017298D02*
X044010Y017298D01*
X043851Y017457D02*
X043640Y017457D01*
X043640Y017615D02*
X043693Y017615D01*
X044807Y018566D02*
X051990Y018566D01*
X051990Y018408D02*
X044965Y018408D01*
X045124Y018249D02*
X051990Y018249D01*
X051990Y018091D02*
X045282Y018091D01*
X045441Y017932D02*
X051990Y017932D01*
X051990Y017774D02*
X045599Y017774D01*
X051001Y021578D02*
X052140Y021578D01*
X052140Y021736D02*
X051190Y021736D01*
X051337Y021895D02*
X052140Y021895D01*
X052140Y022053D02*
X051402Y022053D01*
X051468Y022212D02*
X052140Y022212D01*
X052140Y022370D02*
X051478Y022370D01*
X051478Y022529D02*
X052140Y022529D01*
X052140Y022687D02*
X051452Y022687D01*
X051386Y022846D02*
X052140Y022846D01*
X052140Y023004D02*
X051310Y023004D01*
X051151Y023163D02*
X052140Y023163D01*
X052140Y023321D02*
X050908Y023321D01*
X051990Y030907D02*
X051761Y031136D01*
X051990Y031136D01*
X051990Y030907D01*
X051990Y030929D02*
X051968Y030929D01*
X051990Y031088D02*
X051809Y031088D01*
X049363Y031136D02*
X049303Y031136D01*
X049333Y031106D01*
X049363Y031136D01*
X049322Y005252D02*
X051990Y005252D01*
X051990Y005094D02*
X049170Y005094D01*
X048888Y004935D02*
X051990Y004935D01*
X051990Y000949D02*
X051990Y000720D01*
X051761Y000720D01*
X051990Y000949D01*
X051990Y000814D02*
X051855Y000814D01*
X014066Y003680D02*
X013988Y003635D01*
X013720Y003368D01*
X013720Y003680D01*
X014066Y003680D01*
X014043Y003667D02*
X013720Y003667D01*
X013720Y003509D02*
X013861Y003509D01*
D12*
X040640Y028807D02*
X040837Y028610D01*
X040640Y028807D02*
X041230Y028807D01*
X041230Y028610D02*
X041230Y029004D01*
X041230Y029255D02*
X040837Y029648D01*
X040738Y029648D01*
X040640Y029550D01*
X040640Y029353D01*
X040738Y029255D01*
X041230Y029255D02*
X041230Y029648D01*
X041034Y029899D02*
X041230Y030096D01*
X041034Y030293D01*
X040640Y030293D01*
X040640Y029899D02*
X041034Y029899D01*
X043215Y029777D02*
X043215Y029580D01*
X043314Y029481D01*
X043511Y029481D01*
X043609Y029580D01*
X043609Y029678D01*
X043511Y029875D01*
X043806Y029875D01*
X043806Y029481D01*
X043806Y029230D02*
X043412Y029230D01*
X043215Y029034D01*
X043412Y028837D01*
X043806Y028837D01*
X043215Y029777D02*
X043314Y029875D01*
X048265Y029773D02*
X048659Y029773D01*
X048855Y029576D01*
X048659Y029380D01*
X048265Y029380D01*
X048265Y029129D02*
X048265Y028735D01*
X048560Y028735D01*
X048462Y028932D01*
X048462Y029030D01*
X048560Y029129D01*
X048757Y029129D01*
X048855Y029030D01*
X048855Y028833D01*
X048757Y028735D01*
D13*
X018260Y012336D02*
X018260Y011936D01*
X018060Y011736D01*
X017660Y011936D02*
X017660Y012537D01*
X018060Y012537D02*
X017260Y012537D01*
X017059Y012336D01*
X017059Y011936D01*
X017260Y011736D01*
X017460Y011736D01*
X017660Y011936D01*
X018260Y012336D02*
X018060Y012537D01*
X018260Y011155D02*
X018260Y010355D01*
X018260Y010755D02*
X017059Y010755D01*
X017460Y010355D01*
X017260Y009774D02*
X018060Y008974D01*
X018260Y009174D01*
X018260Y009574D01*
X018060Y009774D01*
X017260Y009774D01*
X017059Y009574D01*
X017059Y009174D01*
X017260Y008974D01*
X018060Y008974D01*
X018260Y008393D02*
X018260Y007592D01*
X017460Y008393D01*
X017260Y008393D01*
X017059Y008193D01*
X017059Y007793D01*
X017260Y007592D01*
X016010Y007592D02*
X016010Y008193D01*
X015810Y008393D01*
X015410Y008393D01*
X015210Y008193D01*
X015210Y007592D01*
X014809Y007592D02*
X016010Y007592D01*
X015810Y007012D02*
X015410Y007012D01*
X015210Y006812D01*
X015210Y006411D01*
X015410Y006211D01*
X015810Y006211D01*
X016010Y006411D01*
X016010Y006812D01*
X015810Y007012D01*
X016010Y005631D02*
X015610Y005230D01*
X015610Y005431D02*
X015610Y004830D01*
X016010Y004830D02*
X014809Y004830D01*
X014809Y005431D01*
X015010Y005631D01*
X015410Y005631D01*
X015610Y005431D01*
X015410Y008974D02*
X015210Y009174D01*
X015210Y009574D01*
X015410Y009774D01*
X015810Y009774D01*
X016010Y009574D01*
X016010Y009174D01*
X015810Y008974D01*
X015410Y008974D01*
X015210Y010355D02*
X015410Y010555D01*
X015410Y010955D01*
X015610Y011155D01*
X015810Y011155D01*
X016010Y010955D01*
X016010Y010555D01*
X015810Y010355D01*
X015210Y010355D02*
X015010Y010355D01*
X014809Y010555D01*
X014809Y010955D01*
X015010Y011155D01*
X015210Y011736D02*
X014809Y012136D01*
X015210Y012537D01*
X016010Y012537D01*
X015410Y012537D02*
X015410Y011736D01*
X015210Y011736D02*
X016010Y011736D01*
X016010Y013117D02*
X014809Y013918D01*
X014809Y013117D02*
X016010Y013918D01*
D14*
X015953Y015280D02*
X015419Y015280D01*
X015419Y016081D01*
X015953Y016081D01*
X016340Y016081D02*
X016740Y016081D01*
X016873Y015947D01*
X016873Y015413D01*
X016740Y015280D01*
X016340Y015280D01*
X016340Y016081D01*
X015686Y015680D02*
X015419Y015680D01*
X015032Y015280D02*
X014498Y015280D01*
X014498Y016081D01*
X014555Y017780D02*
X014955Y017780D01*
X015089Y017913D01*
X015089Y018047D01*
X014955Y018180D01*
X014555Y018180D01*
X014555Y017780D02*
X014555Y018581D01*
X014955Y018581D01*
X015089Y018447D01*
X015089Y018314D01*
X014955Y018180D01*
X015476Y018314D02*
X015743Y018314D01*
X015609Y018447D02*
X015609Y017913D01*
X015743Y017780D01*
X016090Y017780D02*
X016090Y018314D01*
X016490Y018314D01*
X016623Y018180D01*
X016623Y017780D01*
X016740Y020280D02*
X016340Y020280D01*
X016340Y021081D01*
X016740Y021081D01*
X016873Y020947D01*
X016873Y020814D01*
X016740Y020680D01*
X016340Y020680D01*
X015953Y020680D02*
X015686Y020680D01*
X015953Y020680D02*
X015953Y020413D01*
X015819Y020280D01*
X015552Y020280D01*
X015419Y020413D01*
X015419Y020947D01*
X015552Y021081D01*
X015819Y021081D01*
X015953Y020947D01*
X016740Y020680D02*
X016873Y020547D01*
X016873Y020413D01*
X016740Y020280D01*
X015032Y020280D02*
X014765Y020547D01*
X014898Y020547D02*
X014498Y020547D01*
X014498Y020280D02*
X014498Y021081D01*
X014898Y021081D01*
X015032Y020947D01*
X015032Y020680D01*
X014898Y020547D01*
X018760Y006331D02*
X019161Y006331D01*
X019294Y006197D01*
X019294Y006064D01*
X019161Y005930D01*
X018760Y005930D01*
X018760Y005530D02*
X019161Y005530D01*
X019294Y005663D01*
X019294Y005797D01*
X019161Y005930D01*
X019681Y006064D02*
X019681Y005663D01*
X019815Y005530D01*
X020215Y005530D01*
X020215Y006064D01*
X020602Y005930D02*
X020735Y006064D01*
X021136Y006064D01*
X021002Y005797D02*
X020735Y005797D01*
X020602Y005930D01*
X020602Y005530D02*
X021002Y005530D01*
X021136Y005663D01*
X021002Y005797D01*
X022444Y005663D02*
X022577Y005530D01*
X022844Y005530D01*
X022977Y005663D01*
X022977Y006197D01*
X022844Y006331D01*
X022577Y006331D01*
X022444Y006197D01*
X022444Y005663D01*
X023364Y005663D02*
X023498Y005530D01*
X023898Y005530D01*
X023898Y006064D01*
X024285Y006064D02*
X024552Y006064D01*
X024419Y006197D02*
X024419Y005663D01*
X024552Y005530D01*
X023364Y005663D02*
X023364Y006064D01*
X027260Y005930D02*
X027661Y005930D01*
X027794Y005797D01*
X027794Y005663D01*
X027661Y005530D01*
X027260Y005530D01*
X027260Y006331D01*
X027661Y006331D01*
X027794Y006197D01*
X027794Y006064D01*
X027661Y005930D01*
X028181Y006064D02*
X028181Y005663D01*
X028315Y005530D01*
X028715Y005530D01*
X028715Y006064D01*
X029102Y005930D02*
X029235Y005797D01*
X029502Y005797D01*
X029636Y005663D01*
X029502Y005530D01*
X029102Y005530D01*
X029102Y005930D02*
X029235Y006064D01*
X029636Y006064D01*
X030944Y006331D02*
X030944Y005530D01*
X030944Y005797D02*
X031344Y005797D01*
X031477Y005930D01*
X031477Y006197D01*
X031344Y006331D01*
X030944Y006331D01*
X031210Y005797D02*
X031477Y005530D01*
X031998Y005663D02*
X031998Y006197D01*
X031864Y006064D02*
X032131Y006064D01*
X032478Y006064D02*
X032478Y005530D01*
X032478Y005797D02*
X032745Y006064D01*
X032878Y006064D01*
X033245Y006064D02*
X033646Y006064D01*
X033779Y005930D01*
X033779Y005530D01*
X033245Y005530D02*
X033245Y006064D01*
X032131Y005530D02*
X031998Y005663D01*
X039010Y005581D02*
X039010Y004780D01*
X039411Y004780D01*
X039544Y004913D01*
X039544Y005447D01*
X039411Y005581D01*
X039010Y005581D01*
X039931Y005314D02*
X040065Y005314D01*
X040065Y004780D01*
X040198Y004780D02*
X039931Y004780D01*
X040545Y004780D02*
X040945Y004780D01*
X041079Y004913D01*
X040945Y005047D01*
X040678Y005047D01*
X040545Y005180D01*
X040678Y005314D01*
X041079Y005314D01*
X041466Y005314D02*
X041466Y004513D01*
X041466Y004780D02*
X041866Y004780D01*
X042000Y004913D01*
X042000Y005180D01*
X041866Y005314D01*
X041466Y005314D01*
X042387Y005581D02*
X042520Y005581D01*
X042520Y004780D01*
X042387Y004780D02*
X042653Y004780D01*
X043000Y004913D02*
X043134Y005047D01*
X043534Y005047D01*
X043534Y005180D02*
X043534Y004780D01*
X043134Y004780D01*
X043000Y004913D01*
X043134Y005314D02*
X043401Y005314D01*
X043534Y005180D01*
X043921Y005314D02*
X043921Y004913D01*
X044055Y004780D01*
X044455Y004780D01*
X044455Y004647D02*
X044322Y004513D01*
X044188Y004513D01*
X044455Y004647D02*
X044455Y005314D01*
X040065Y005581D02*
X040065Y005714D01*
X018760Y005530D02*
X018760Y006331D01*
D15*
X024792Y003680D02*
X024794Y003701D01*
X024800Y003721D01*
X024809Y003741D01*
X024821Y003758D01*
X024836Y003772D01*
X024854Y003784D01*
X024874Y003792D01*
X024894Y003797D01*
X024915Y003798D01*
X024936Y003795D01*
X024956Y003789D01*
X024975Y003778D01*
X024992Y003765D01*
X025005Y003749D01*
X025016Y003731D01*
X025024Y003711D01*
X025028Y003691D01*
X025028Y003669D01*
X025024Y003649D01*
X025016Y003629D01*
X025005Y003611D01*
X024992Y003595D01*
X024975Y003582D01*
X024956Y003571D01*
X024936Y003565D01*
X024915Y003562D01*
X024894Y003563D01*
X024874Y003568D01*
X024854Y003576D01*
X024836Y003588D01*
X024821Y003602D01*
X024809Y003619D01*
X024800Y003639D01*
X024794Y003659D01*
X024792Y003680D01*
X033292Y003680D02*
X033294Y003701D01*
X033300Y003721D01*
X033309Y003741D01*
X033321Y003758D01*
X033336Y003772D01*
X033354Y003784D01*
X033374Y003792D01*
X033394Y003797D01*
X033415Y003798D01*
X033436Y003795D01*
X033456Y003789D01*
X033475Y003778D01*
X033492Y003765D01*
X033505Y003749D01*
X033516Y003731D01*
X033524Y003711D01*
X033528Y003691D01*
X033528Y003669D01*
X033524Y003649D01*
X033516Y003629D01*
X033505Y003611D01*
X033492Y003595D01*
X033475Y003582D01*
X033456Y003571D01*
X033436Y003565D01*
X033415Y003562D01*
X033394Y003563D01*
X033374Y003568D01*
X033354Y003576D01*
X033336Y003588D01*
X033321Y003602D01*
X033309Y003619D01*
X033300Y003639D01*
X033294Y003659D01*
X033292Y003680D01*
X037042Y002930D02*
X037044Y002951D01*
X037050Y002971D01*
X037059Y002991D01*
X037071Y003008D01*
X037086Y003022D01*
X037104Y003034D01*
X037124Y003042D01*
X037144Y003047D01*
X037165Y003048D01*
X037186Y003045D01*
X037206Y003039D01*
X037225Y003028D01*
X037242Y003015D01*
X037255Y002999D01*
X037266Y002981D01*
X037274Y002961D01*
X037278Y002941D01*
X037278Y002919D01*
X037274Y002899D01*
X037266Y002879D01*
X037255Y002861D01*
X037242Y002845D01*
X037225Y002832D01*
X037206Y002821D01*
X037186Y002815D01*
X037165Y002812D01*
X037144Y002813D01*
X037124Y002818D01*
X037104Y002826D01*
X037086Y002838D01*
X037071Y002852D01*
X037059Y002869D01*
X037050Y002889D01*
X037044Y002909D01*
X037042Y002930D01*
X049542Y007430D02*
X049544Y007451D01*
X049550Y007471D01*
X049559Y007491D01*
X049571Y007508D01*
X049586Y007522D01*
X049604Y007534D01*
X049624Y007542D01*
X049644Y007547D01*
X049665Y007548D01*
X049686Y007545D01*
X049706Y007539D01*
X049725Y007528D01*
X049742Y007515D01*
X049755Y007499D01*
X049766Y007481D01*
X049774Y007461D01*
X049778Y007441D01*
X049778Y007419D01*
X049774Y007399D01*
X049766Y007379D01*
X049755Y007361D01*
X049742Y007345D01*
X049725Y007332D01*
X049706Y007321D01*
X049686Y007315D01*
X049665Y007312D01*
X049644Y007313D01*
X049624Y007318D01*
X049604Y007326D01*
X049586Y007338D01*
X049571Y007352D01*
X049559Y007369D01*
X049550Y007389D01*
X049544Y007409D01*
X049542Y007430D01*
D16*
X017709Y022250D02*
X017709Y022530D01*
X017616Y022624D01*
X017336Y022624D01*
X017336Y022250D01*
X017079Y022624D02*
X016986Y022624D01*
X016799Y022437D01*
X016799Y022250D02*
X016799Y022624D01*
X016528Y022624D02*
X016528Y022250D01*
X016248Y022250D01*
X016154Y022343D01*
X016154Y022624D01*
X015911Y022624D02*
X015724Y022624D01*
X015818Y022717D02*
X015818Y022343D01*
X015911Y022250D01*
X015454Y022437D02*
X015080Y022437D01*
X015080Y022530D02*
X015173Y022624D01*
X015360Y022624D01*
X015454Y022530D01*
X015454Y022437D01*
X015360Y022250D02*
X015173Y022250D01*
X015080Y022343D01*
X015080Y022530D01*
X014809Y022530D02*
X014716Y022437D01*
X014435Y022437D01*
X014435Y022250D02*
X014435Y022810D01*
X014716Y022810D01*
X014809Y022717D01*
X014809Y022530D01*
X014622Y022437D02*
X014809Y022250D01*
X014809Y023300D02*
X014622Y023487D01*
X014716Y023487D02*
X014435Y023487D01*
X014435Y023300D02*
X014435Y023860D01*
X014716Y023860D01*
X014809Y023767D01*
X014809Y023580D01*
X014716Y023487D01*
X015080Y023393D02*
X015173Y023300D01*
X015360Y023300D01*
X015454Y023393D01*
X015454Y023580D01*
X015267Y023580D01*
X015454Y023767D02*
X015360Y023860D01*
X015173Y023860D01*
X015080Y023767D01*
X015080Y023393D01*
X015724Y023300D02*
X016005Y023300D01*
X016098Y023393D01*
X016098Y023487D01*
X016005Y023580D01*
X015724Y023580D01*
X015724Y023300D02*
X015724Y023860D01*
X016005Y023860D01*
X016098Y023767D01*
X016098Y023674D01*
X016005Y023580D01*
D17*
X030181Y022305D02*
X030183Y022342D01*
X030189Y022379D01*
X030198Y022414D01*
X030212Y022449D01*
X030228Y022482D01*
X030249Y022513D01*
X030272Y022542D01*
X030298Y022568D01*
X030327Y022591D01*
X030358Y022612D01*
X030391Y022628D01*
X030426Y022642D01*
X030461Y022651D01*
X030498Y022657D01*
X030535Y022659D01*
X030572Y022657D01*
X030609Y022651D01*
X030644Y022642D01*
X030679Y022628D01*
X030712Y022612D01*
X030743Y022591D01*
X030772Y022568D01*
X030798Y022542D01*
X030821Y022513D01*
X030842Y022482D01*
X030858Y022449D01*
X030872Y022414D01*
X030881Y022379D01*
X030887Y022342D01*
X030889Y022305D01*
X030887Y022268D01*
X030881Y022231D01*
X030872Y022196D01*
X030858Y022161D01*
X030842Y022128D01*
X030821Y022097D01*
X030798Y022068D01*
X030772Y022042D01*
X030743Y022019D01*
X030712Y021998D01*
X030679Y021982D01*
X030644Y021968D01*
X030609Y021959D01*
X030572Y021953D01*
X030535Y021951D01*
X030498Y021953D01*
X030461Y021959D01*
X030426Y021968D01*
X030391Y021982D01*
X030358Y021998D01*
X030327Y022019D01*
X030298Y022042D01*
X030272Y022068D01*
X030249Y022097D01*
X030228Y022128D01*
X030212Y022161D01*
X030198Y022196D01*
X030189Y022231D01*
X030183Y022268D01*
X030181Y022305D01*
X030160Y021305D02*
X030187Y021245D01*
X030218Y021187D01*
X030251Y021132D01*
X030289Y021078D01*
X030329Y021026D01*
X030372Y020977D01*
X030418Y020931D01*
X030467Y020888D01*
X030519Y020848D01*
X030573Y020810D01*
X030628Y020777D01*
X030686Y020746D01*
X030746Y020719D01*
X030807Y020696D01*
X030869Y020677D01*
X030933Y020661D01*
X030997Y020649D01*
X031062Y020641D01*
X031127Y020637D01*
X031193Y020637D01*
X031258Y020641D01*
X031323Y020649D01*
X031387Y020661D01*
X031451Y020677D01*
X031513Y020696D01*
X031574Y020719D01*
X031634Y020746D01*
X031692Y020777D01*
X031747Y020810D01*
X031801Y020848D01*
X031853Y020888D01*
X031902Y020931D01*
X031948Y020977D01*
X031991Y021026D01*
X032031Y021078D01*
X032069Y021132D01*
X032102Y021187D01*
X032133Y021245D01*
X032160Y021305D01*
X031431Y022305D02*
X031433Y022342D01*
X031439Y022379D01*
X031448Y022414D01*
X031462Y022449D01*
X031478Y022482D01*
X031499Y022513D01*
X031522Y022542D01*
X031548Y022568D01*
X031577Y022591D01*
X031608Y022612D01*
X031641Y022628D01*
X031676Y022642D01*
X031711Y022651D01*
X031748Y022657D01*
X031785Y022659D01*
X031822Y022657D01*
X031859Y022651D01*
X031894Y022642D01*
X031929Y022628D01*
X031962Y022612D01*
X031993Y022591D01*
X032022Y022568D01*
X032048Y022542D01*
X032071Y022513D01*
X032092Y022482D01*
X032108Y022449D01*
X032122Y022414D01*
X032131Y022379D01*
X032137Y022342D01*
X032139Y022305D01*
X032137Y022268D01*
X032131Y022231D01*
X032122Y022196D01*
X032108Y022161D01*
X032092Y022128D01*
X032071Y022097D01*
X032048Y022068D01*
X032022Y022042D01*
X031993Y022019D01*
X031962Y021998D01*
X031929Y021982D01*
X031894Y021968D01*
X031859Y021959D01*
X031822Y021953D01*
X031785Y021951D01*
X031748Y021953D01*
X031711Y021959D01*
X031676Y021968D01*
X031641Y021982D01*
X031608Y021998D01*
X031577Y022019D01*
X031548Y022042D01*
X031522Y022068D01*
X031499Y022097D01*
X031478Y022128D01*
X031462Y022161D01*
X031448Y022196D01*
X031439Y022231D01*
X031433Y022268D01*
X031431Y022305D01*
X035785Y030305D02*
X035785Y030680D01*
X035785Y031055D01*
X035785Y030680D02*
X036160Y030680D01*
X035785Y030680D02*
X035410Y030680D01*
X040535Y030680D02*
X041285Y030680D01*
X043035Y030680D02*
X043410Y030680D01*
X043410Y030305D01*
X043410Y030680D02*
X043410Y031055D01*
X043410Y030680D02*
X043785Y030680D01*
X048160Y030680D02*
X048910Y030680D01*
D18*
X046895Y030033D02*
X046895Y029328D01*
X044926Y029328D02*
X044926Y030033D01*
X039395Y030033D02*
X039395Y029328D01*
X037426Y029328D02*
X037426Y030033D01*
D19*
X037420Y022430D02*
X037900Y022430D01*
X037900Y021430D02*
X037420Y021430D01*
X037420Y020430D02*
X037900Y020430D01*
X037900Y019430D02*
X037420Y019430D01*
X037420Y018430D02*
X037900Y018430D01*
X037900Y017430D02*
X037420Y017430D01*
X037420Y016430D02*
X037900Y016430D01*
X037900Y015430D02*
X037420Y015430D01*
X037420Y014430D02*
X037900Y014430D01*
X037900Y013430D02*
X037420Y013430D01*
X037420Y012430D02*
X037900Y012430D01*
X037900Y011430D02*
X037420Y011430D01*
X037420Y010430D02*
X037900Y010430D01*
X037900Y009430D02*
X037420Y009430D01*
X040420Y009430D02*
X040900Y009430D01*
X040900Y010430D02*
X040420Y010430D01*
X040420Y011430D02*
X040900Y011430D01*
X040900Y012430D02*
X040420Y012430D01*
X040420Y013430D02*
X040900Y013430D01*
X040900Y014430D02*
X040420Y014430D01*
X040420Y015430D02*
X040900Y015430D01*
X040900Y016430D02*
X040420Y016430D01*
X040420Y017430D02*
X040900Y017430D01*
X040900Y018430D02*
X040420Y018430D01*
X040420Y019430D02*
X040900Y019430D01*
X040900Y020430D02*
X040420Y020430D01*
X040420Y021430D02*
X040900Y021430D01*
X040900Y022430D02*
X040420Y022430D01*
X028150Y017930D02*
X027670Y017930D01*
X027670Y016930D02*
X028150Y016930D01*
X028150Y015930D02*
X027670Y015930D01*
X027670Y014930D02*
X028150Y014930D01*
X028150Y013930D02*
X027670Y013930D01*
X027670Y012930D02*
X028150Y012930D01*
X028150Y011930D02*
X027670Y011930D01*
X025150Y011930D02*
X024670Y011930D01*
X024670Y012930D02*
X025150Y012930D01*
X025150Y013930D02*
X024670Y013930D01*
X024670Y014930D02*
X025150Y014930D01*
X025150Y015930D02*
X024670Y015930D01*
X024670Y016930D02*
X025150Y016930D01*
X025150Y017930D02*
X024670Y017930D01*
D20*
X025660Y026130D02*
X025660Y026730D01*
X026660Y026730D02*
X026660Y026130D01*
X027140Y028290D02*
X027740Y028290D01*
X027740Y030070D02*
X027140Y030070D01*
X025180Y030070D02*
X024580Y030070D01*
X024580Y028290D02*
X025180Y028290D01*
X021490Y028290D02*
X020890Y028290D01*
X020410Y026730D02*
X020410Y026130D01*
X019410Y026130D02*
X019410Y026730D01*
X018930Y028290D02*
X018330Y028290D01*
X018330Y030070D02*
X018930Y030070D01*
X020890Y030070D02*
X021490Y030070D01*
X030830Y030070D02*
X031430Y030070D01*
X031430Y028290D02*
X030830Y028290D01*
X031910Y026730D02*
X031910Y026130D01*
X032910Y026130D02*
X032910Y026730D01*
X033390Y028290D02*
X033990Y028290D01*
X033990Y030070D02*
X033390Y030070D01*
X044298Y023430D02*
X044898Y023430D01*
X044898Y022430D02*
X044298Y022430D01*
X044298Y021430D02*
X044898Y021430D01*
D21*
X049848Y022430D02*
X049850Y022480D01*
X049856Y022530D01*
X049866Y022580D01*
X049879Y022628D01*
X049896Y022676D01*
X049917Y022722D01*
X049941Y022766D01*
X049969Y022808D01*
X050000Y022848D01*
X050034Y022885D01*
X050071Y022920D01*
X050110Y022951D01*
X050151Y022980D01*
X050195Y023005D01*
X050241Y023027D01*
X050288Y023045D01*
X050336Y023059D01*
X050385Y023070D01*
X050435Y023077D01*
X050485Y023080D01*
X050536Y023079D01*
X050586Y023074D01*
X050636Y023065D01*
X050684Y023053D01*
X050732Y023036D01*
X050778Y023016D01*
X050823Y022993D01*
X050866Y022966D01*
X050906Y022936D01*
X050944Y022903D01*
X050979Y022867D01*
X051012Y022828D01*
X051041Y022787D01*
X051067Y022744D01*
X051090Y022699D01*
X051109Y022652D01*
X051124Y022604D01*
X051136Y022555D01*
X051144Y022505D01*
X051148Y022455D01*
X051148Y022405D01*
X051144Y022355D01*
X051136Y022305D01*
X051124Y022256D01*
X051109Y022208D01*
X051090Y022161D01*
X051067Y022116D01*
X051041Y022073D01*
X051012Y022032D01*
X050979Y021993D01*
X050944Y021957D01*
X050906Y021924D01*
X050866Y021894D01*
X050823Y021867D01*
X050778Y021844D01*
X050732Y021824D01*
X050684Y021807D01*
X050636Y021795D01*
X050586Y021786D01*
X050536Y021781D01*
X050485Y021780D01*
X050435Y021783D01*
X050385Y021790D01*
X050336Y021801D01*
X050288Y021815D01*
X050241Y021833D01*
X050195Y021855D01*
X050151Y021880D01*
X050110Y021909D01*
X050071Y021940D01*
X050034Y021975D01*
X050000Y022012D01*
X049969Y022052D01*
X049941Y022094D01*
X049917Y022138D01*
X049896Y022184D01*
X049879Y022232D01*
X049866Y022280D01*
X049856Y022330D01*
X049850Y022380D01*
X049848Y022430D01*
D22*
X044660Y025930D03*
X044660Y026930D03*
X042160Y024930D03*
X041160Y024930D03*
X041160Y026430D03*
X037160Y026430D03*
X035410Y025180D03*
X034410Y025180D03*
X034410Y024180D03*
X035410Y024180D03*
X030410Y025180D03*
X029160Y025180D03*
X028160Y025180D03*
X028160Y024180D03*
X029160Y024180D03*
X026910Y019680D03*
X025910Y019680D03*
X023410Y019680D03*
X023410Y015680D03*
X023660Y012930D03*
X019660Y012930D03*
X029660Y015180D03*
X031160Y015180D03*
X034910Y014430D03*
X036160Y014430D03*
X036160Y015430D03*
X036160Y016430D03*
X036160Y013430D03*
X034910Y013430D03*
X031160Y019180D03*
X029660Y019180D03*
X023910Y024180D03*
X022910Y024180D03*
X022910Y025180D03*
X021910Y025180D03*
X024160Y025180D03*
X022910Y029180D03*
X017910Y025180D03*
X029160Y029180D03*
X035410Y029180D03*
X041910Y016180D03*
X041910Y015180D03*
X043410Y015180D03*
X043410Y016180D03*
X043160Y013430D03*
X042410Y011430D03*
X046410Y011430D03*
X047160Y013430D03*
D23*
X046410Y026030D03*
D24*
X046410Y026830D03*
D25*
X035610Y011680D03*
X033710Y011680D03*
D26*
X038160Y027430D03*
X041160Y027430D03*
D27*
X048660Y010680D03*
X049660Y010680D03*
X049660Y009680D03*
X048660Y009680D03*
X048660Y008680D03*
X049660Y008680D03*
D28*
X042160Y028930D03*
X042160Y029930D03*
X019660Y023180D03*
X018660Y023180D03*
X018660Y020680D03*
X019660Y020680D03*
X019660Y018180D03*
X018660Y018180D03*
X018660Y015680D03*
X019660Y015680D03*
D29*
X038410Y003350D02*
X038410Y002760D01*
X039410Y002760D02*
X039410Y003350D01*
X040410Y003350D02*
X040410Y002760D01*
X041410Y002760D02*
X041410Y003350D01*
X042410Y003350D02*
X042410Y002760D01*
X043410Y002760D02*
X043410Y003350D01*
X044410Y003350D02*
X044410Y002760D01*
X045410Y002760D02*
X045410Y003350D01*
D30*
X032160Y003680D03*
X031160Y003680D03*
X030160Y003680D03*
X029160Y003680D03*
X028160Y003680D03*
X028160Y002680D03*
X029160Y002680D03*
X030160Y002680D03*
X031160Y002680D03*
X032160Y002680D03*
X023660Y002680D03*
X022660Y002680D03*
X021660Y002680D03*
X020660Y002680D03*
X019660Y002680D03*
X019660Y003680D03*
X020660Y003680D03*
X021660Y003680D03*
X022660Y003680D03*
X023660Y003680D03*
D31*
X042660Y016930D03*
D32*
X048660Y016930D03*
X048660Y013430D03*
X046910Y008680D03*
X043910Y007930D03*
X043910Y006930D03*
X042410Y006930D03*
X040410Y006930D03*
X039410Y006430D03*
X037910Y007930D03*
X042910Y008930D03*
X048660Y005680D03*
X035410Y018430D03*
X035410Y021430D03*
X042160Y028180D03*
X029410Y011930D03*
X030160Y009680D03*
X030160Y008680D03*
X030160Y007680D03*
X026410Y006930D03*
X024660Y007680D03*
X026410Y010680D03*
X021660Y009680D03*
X019660Y008680D03*
X021160Y019680D03*
X017660Y027430D03*
D33*
X044160Y022430D03*
D34*
X042910Y021180D01*
X042910Y019430D01*
X045160Y017180D01*
X045160Y010430D01*
X043160Y010430D01*
X040660Y007930D01*
X039410Y007930D01*
X039410Y006430D01*
X045160Y010430D02*
X046910Y008680D01*
X048660Y013430D02*
X048660Y016930D01*
X042910Y017180D02*
X042660Y016930D01*
X042910Y017180D02*
X042910Y019430D01*
X041910Y016180D02*
X041910Y023180D01*
X042160Y023430D01*
X041160Y024430D01*
X041160Y024930D01*
X041160Y026430D01*
X040160Y026430D02*
X039410Y025680D01*
X036660Y025680D01*
X034910Y027430D01*
X029160Y027430D01*
X027910Y027430D01*
X027910Y026180D01*
X026910Y025180D01*
X026910Y019680D01*
X025910Y019680D02*
X025910Y022180D01*
X023910Y024180D01*
X022910Y027430D02*
X017660Y027430D01*
X022910Y027430D02*
X027910Y027430D01*
X025910Y019680D02*
X025910Y018680D01*
X026410Y018180D01*
X026410Y010680D01*
X042160Y023430D02*
X044598Y023430D01*
X040160Y026430D02*
X040160Y027680D01*
X040660Y028180D01*
X042160Y028180D01*
D35*
X050562Y029708D03*
X050562Y002149D03*
X015129Y002149D03*
X015129Y029708D03*
M02*
