%
M48
M72
T01C0.0236
T02C0.0315
T03C0.0320
T04C0.0360
T05C0.0394
T06C0.0400
T07C0.0433
T08C0.0470
T09C0.1260
T10C0.1300
%
T01
X45910Y20430
X45910Y21430
X46910Y21430
X46910Y20430
X47910Y20430
X47910Y21430
X46910Y22430
X45910Y22430
X47910Y23430
X47910Y24430
X48910Y24430
X48910Y23430
X49660Y23680
X49910Y24430
X50910Y24430
X51160Y23680
X51910Y23430
X51910Y22430
X51910Y21430
X51160Y21180
X50910Y20430
X49910Y20430
X49660Y21180
X48910Y22430
X51910Y20430
X51910Y24430
T02
X42660Y16930
X42160Y28930
X42160Y29930
X19660Y23180
X18660Y23180
X18660Y20680
X19660Y20680
X19660Y18180
X18660Y18180
X18660Y15680
X19660Y15680
T03
X19660Y12930
X23660Y12930
X24910Y12930
X24910Y11930
X24910Y13930
X24910Y14930
X24910Y15930
X24910Y16930
X24910Y17930
X25910Y19680
X26910Y19680
X27910Y17930
X27910Y16930
X27910Y15930
X27910Y14930
X27910Y13930
X27910Y12930
X27910Y11930
X29660Y15180
X31160Y15180
X33710Y11680
X34910Y13430
X36160Y13430
X36160Y14430
X36160Y15430
X36160Y16430
X37660Y16430
X37660Y15430
X37660Y14430
X37660Y13430
X37660Y12430
X37660Y11430
X37660Y10430
X37660Y9430
X40660Y9430
X40660Y10430
X40660Y11430
X40660Y12430
X40660Y13430
X40660Y14430
X40660Y15430
X40660Y16430
X40660Y17430
X40660Y18430
X40660Y19430
X40660Y20430
X40660Y21430
X40660Y22430
X40910Y24930
X41910Y24930
X41160Y26430
X44660Y25930
X44660Y26930
X46410Y26830
X46410Y26030
X37660Y22430
X37660Y21430
X37660Y20430
X37660Y19430
X37660Y18430
X37660Y17430
X34910Y14430
X35610Y11680
X41910Y15180
X41910Y16180
X43410Y16180
X43410Y15180
X43160Y13430
X42410Y11430
X46410Y11430
X47160Y13430
X35410Y23680
X34410Y23680
X34410Y24680
X35410Y24680
X37160Y26430
X35410Y28680
X30410Y24680
X29160Y24680
X28160Y24680
X28160Y23680
X29160Y23680
X29660Y19180
X31160Y19180
X23910Y23680
X22910Y23680
X22910Y24680
X21910Y24680
X24160Y24680
X22910Y28680
X17910Y24680
X23410Y19680
X23410Y15680
X29160Y28680
T04
X29160Y3680
X28160Y3680
X28160Y2680
X29160Y2680
X30160Y2680
X31160Y2680
X32160Y2680
X32160Y3680
X31160Y3680
X30160Y3680
X23660Y3680
X22660Y3680
X21660Y3680
X20660Y3680
X19660Y3680
X19660Y2680
X20660Y2680
X21660Y2680
X22660Y2680
X23660Y2680
T05
X26410Y6930
X24660Y7680
X26410Y10680
X29410Y11930
X30160Y9680
X30160Y8680
X30160Y7680
X38410Y3055
X39410Y3055
X40410Y3055
X41410Y3055
X42410Y3055
X43410Y3055
X44410Y3055
X45410Y3055
X48660Y5680
X48660Y8680
X49660Y8680
X49660Y9680
X48660Y9680
X48660Y10680
X49660Y10680
X46910Y8680
X43910Y7930
X43910Y6930
X42410Y6930
X40410Y6930
X39410Y6430
X42910Y8930
X39410Y10805
X35410Y18430
X35410Y21430
X42160Y28180
X48660Y16930
X48660Y13430
X21660Y9680
X19660Y8680
X21160Y19680
X17660Y27430
T06
X18630Y28290
X18630Y30070
X21190Y30070
X21190Y28290
X20410Y26430
X19410Y26430
X24880Y28290
X24880Y30070
X27440Y30070
X27440Y28290
X26660Y26430
X25660Y26430
X31130Y28290
X31130Y30070
X33690Y30070
X33690Y28290
X32910Y26430
X31910Y26430
X44598Y23430
X44598Y22430
X44598Y21430
T07
X41160Y27430
X38160Y27430
T08
X37426Y29680
X39395Y29680
X44926Y29680
X46895Y29680
T09
X15129Y2149
X15129Y29708
X50562Y29708
X50562Y2149
T10
X50498Y22430
M30
