G75*
%MOIN*%
%OFA0B0*%
%FSLAX24Y24*%
%IPPOS*%
%LPD*%
%AMOC8*
5,1,8,0,0,1.08239X$1,22.5*
%
%ADD10C,0.0120*%
%ADD11C,0.0160*%
%ADD12C,0.0080*%
%ADD13C,0.0070*%
%ADD14C,0.0000*%
%ADD15C,0.0040*%
D10*
X013160Y000180D02*
X052530Y000180D01*
X052530Y031676D01*
X013160Y031676D01*
D11*
X013160Y000180D01*
D12*
X015950Y004220D02*
X015950Y004680D01*
X016103Y004834D01*
X016410Y004834D01*
X016563Y004680D01*
X016563Y004220D01*
X016870Y004220D02*
X015950Y004220D01*
X016410Y005141D02*
X016257Y005294D01*
X016257Y005601D01*
X016410Y005755D01*
X016563Y005755D01*
X016563Y005141D01*
X016410Y005141D02*
X016717Y005141D01*
X016870Y005294D01*
X016870Y005601D01*
X016717Y006215D02*
X016103Y006215D01*
X016257Y006062D02*
X016257Y006369D01*
X016410Y006675D02*
X016257Y006829D01*
X016257Y007136D01*
X016410Y007289D01*
X016563Y007289D01*
X016563Y006675D01*
X016410Y006675D02*
X016717Y006675D01*
X016870Y006829D01*
X016870Y007136D01*
X016870Y007596D02*
X016257Y007596D01*
X016563Y007596D02*
X016257Y007903D01*
X016257Y008057D01*
X017450Y007903D02*
X017910Y007443D01*
X017910Y008057D01*
X018217Y008364D02*
X018217Y008517D01*
X018370Y008517D01*
X018370Y008364D01*
X018217Y008364D01*
X018370Y008824D02*
X017757Y009438D01*
X017603Y009438D01*
X017450Y009284D01*
X017450Y008977D01*
X017603Y008824D01*
X018370Y008824D02*
X018370Y009438D01*
X018217Y009745D02*
X017603Y010359D01*
X018217Y010359D01*
X018370Y010205D01*
X018370Y009898D01*
X018217Y009745D01*
X017603Y009745D01*
X017450Y009898D01*
X017450Y010205D01*
X017603Y010359D01*
X017757Y010666D02*
X017450Y010972D01*
X018370Y010972D01*
X018370Y010666D02*
X018370Y011279D01*
X018217Y011586D02*
X018370Y011740D01*
X018370Y012047D01*
X018217Y012200D01*
X017603Y012200D01*
X017450Y012047D01*
X017450Y011740D01*
X017603Y011586D01*
X017757Y011586D01*
X017910Y011740D01*
X017910Y012200D01*
X016870Y012200D02*
X016870Y011740D01*
X016870Y011433D02*
X016870Y011126D01*
X016870Y011279D02*
X016257Y011279D01*
X016257Y011126D01*
X016410Y010819D02*
X016257Y010666D01*
X016257Y010359D01*
X016410Y010205D01*
X016717Y010205D01*
X016870Y010359D01*
X016870Y010666D01*
X016563Y010819D02*
X016563Y010205D01*
X016870Y009898D02*
X015950Y009898D01*
X016563Y009591D02*
X016870Y009898D01*
X016563Y009591D02*
X016870Y009284D01*
X015950Y009284D01*
X017450Y007903D02*
X018370Y007903D01*
X018217Y007136D02*
X017603Y007136D01*
X018217Y006522D01*
X018370Y006675D01*
X018370Y006982D01*
X018217Y007136D01*
X017603Y007136D02*
X017450Y006982D01*
X017450Y006675D01*
X017603Y006522D01*
X018217Y006522D01*
X018217Y006215D02*
X018370Y006215D01*
X018370Y006062D01*
X018217Y006062D01*
X018217Y006215D01*
X018217Y005755D02*
X017603Y005755D01*
X017450Y005601D01*
X017450Y005294D01*
X017603Y005141D01*
X017757Y005141D01*
X017910Y005294D01*
X017910Y005755D01*
X018217Y005755D02*
X018370Y005601D01*
X018370Y005294D01*
X018217Y005141D01*
X018370Y004834D02*
X018370Y004220D01*
X017757Y004834D01*
X017603Y004834D01*
X017450Y004680D01*
X017450Y004373D01*
X017603Y004220D01*
X016717Y006215D02*
X016870Y006369D01*
X016563Y010819D02*
X016410Y010819D01*
X015950Y011279D02*
X015796Y011279D01*
X016410Y011740D02*
X016257Y011893D01*
X016257Y012354D01*
X016410Y012661D02*
X016257Y012814D01*
X016257Y013274D01*
X016257Y013581D02*
X016257Y013735D01*
X016870Y013735D01*
X016870Y013888D02*
X016870Y013581D01*
X016717Y013274D02*
X016563Y013121D01*
X016563Y012814D01*
X016410Y012661D01*
X016717Y012354D02*
X016563Y012200D01*
X016563Y011893D01*
X016410Y011740D01*
X016870Y012200D02*
X016717Y012354D01*
X016870Y012661D02*
X016870Y013121D01*
X016717Y013274D01*
X015950Y013735D02*
X015796Y013735D01*
X016257Y014349D02*
X016410Y014195D01*
X016717Y014195D01*
X016870Y014349D01*
X016870Y014809D01*
X017024Y014809D02*
X017177Y014656D01*
X017177Y014502D01*
X017024Y014809D02*
X016257Y014809D01*
X016257Y014349D01*
D13*
X015375Y014377D02*
X015375Y014773D01*
X015244Y015037D02*
X015375Y015169D01*
X015375Y015433D01*
X015244Y015564D01*
X014980Y015564D01*
X014848Y015433D01*
X014848Y015169D01*
X014980Y015037D01*
X015244Y015037D01*
X014848Y014773D02*
X014848Y014377D01*
X014980Y014245D01*
X015244Y014245D01*
X015375Y014377D01*
X015375Y013981D02*
X015244Y013981D01*
X015244Y013849D01*
X015375Y013849D01*
X015375Y013981D01*
X015244Y013585D02*
X014980Y013585D01*
X014848Y013453D01*
X014848Y013058D01*
X014585Y013058D02*
X015375Y013058D01*
X015375Y013453D01*
X015244Y013585D01*
X015375Y012793D02*
X014848Y012793D01*
X014848Y012266D02*
X015244Y012266D01*
X015375Y012398D01*
X015375Y012793D01*
X015375Y012001D02*
X014980Y012001D01*
X014848Y011869D01*
X014848Y011606D01*
X014980Y011474D01*
X014848Y011210D02*
X014848Y010946D01*
X014716Y011078D02*
X015244Y011078D01*
X015375Y011210D01*
X015375Y011474D02*
X014585Y011474D01*
X014585Y010550D02*
X014453Y010550D01*
X014848Y010550D02*
X015375Y010550D01*
X015375Y010418D02*
X015375Y010682D01*
X015375Y010153D02*
X015375Y009758D01*
X015244Y009626D01*
X014980Y009626D01*
X014848Y009758D01*
X014848Y010153D01*
X015507Y010153D01*
X015639Y010021D01*
X015639Y009890D01*
X014848Y010418D02*
X014848Y010550D01*
X014585Y009361D02*
X015375Y008834D01*
X015375Y008042D02*
X014585Y008570D01*
X014848Y007778D02*
X014980Y007778D01*
X014980Y007646D01*
X014848Y007646D01*
X014848Y007778D01*
X015244Y007778D02*
X015375Y007778D01*
X015375Y007646D01*
X015244Y007646D01*
X015244Y007778D01*
X015244Y007382D02*
X015112Y007250D01*
X015112Y006986D01*
X014980Y006855D01*
X014848Y006986D01*
X014848Y007382D01*
X015244Y007382D02*
X015375Y007250D01*
X015375Y006855D01*
X015244Y006590D02*
X015375Y006458D01*
X015375Y006063D01*
X015639Y006063D02*
X014848Y006063D01*
X014848Y006458D01*
X014980Y006590D01*
X015244Y006590D01*
X015375Y005798D02*
X015244Y005667D01*
X014716Y005667D01*
X014848Y005798D02*
X014848Y005535D01*
X014848Y005270D02*
X014848Y005007D01*
X014716Y005139D02*
X015244Y005139D01*
X015375Y005270D01*
X015375Y004742D02*
X014980Y004742D01*
X014848Y004610D01*
X014848Y004347D01*
X014980Y004215D01*
X014585Y004215D02*
X015375Y004215D01*
X015375Y015829D02*
X014848Y015829D01*
X014848Y015961D01*
X014980Y016093D01*
X014848Y016225D01*
X014980Y016356D01*
X015375Y016356D01*
X015375Y016093D02*
X014980Y016093D01*
X015375Y016621D02*
X014585Y017148D01*
X014585Y017413D02*
X014585Y017808D01*
X014716Y017940D01*
X014980Y017940D01*
X015112Y017808D01*
X015112Y017413D01*
X015375Y017413D02*
X014585Y017413D01*
X015112Y017676D02*
X015375Y017940D01*
X015244Y018205D02*
X015375Y018337D01*
X015375Y018600D01*
X015244Y018732D01*
X014980Y018732D01*
X014848Y018600D01*
X014848Y018337D01*
X014980Y018205D01*
X015244Y018205D01*
X015375Y018997D02*
X014585Y018997D01*
X014848Y018997D02*
X014848Y019392D01*
X014980Y019524D01*
X015244Y019524D01*
X015375Y019392D01*
X015375Y018997D01*
X015244Y019789D02*
X015375Y019920D01*
X015375Y020184D01*
X015244Y020316D01*
X014980Y020316D01*
X014848Y020184D01*
X014848Y019920D01*
X014980Y019789D01*
X015244Y019789D01*
X015244Y020580D02*
X015375Y020712D01*
X015375Y020976D01*
X015244Y021108D01*
X015112Y021108D01*
X014980Y020976D01*
X014980Y020712D01*
X014848Y020580D01*
X014716Y020580D01*
X014585Y020712D01*
X014585Y020976D01*
X014716Y021108D01*
X014848Y021372D02*
X014585Y021636D01*
X014848Y021899D01*
X015375Y021899D01*
X015375Y022164D02*
X014585Y022691D01*
X014585Y022164D02*
X015375Y022691D01*
X015375Y022956D02*
X014585Y023483D01*
X014980Y023748D02*
X014848Y023880D01*
X014848Y024143D01*
X014980Y024275D01*
X015112Y024275D01*
X015112Y023748D01*
X015244Y023748D02*
X014980Y023748D01*
X015244Y023748D02*
X015375Y023880D01*
X015375Y024143D01*
X015244Y024540D02*
X015112Y024672D01*
X015112Y025067D01*
X014980Y025067D02*
X015375Y025067D01*
X015375Y024672D01*
X015244Y024540D01*
X014848Y024672D02*
X014848Y024935D01*
X014980Y025067D01*
X014980Y025332D02*
X015244Y025332D01*
X015375Y025463D01*
X015375Y025859D01*
X015507Y025859D02*
X014848Y025859D01*
X014848Y025463D01*
X014980Y025332D01*
X015639Y025595D02*
X015639Y025727D01*
X015507Y025859D01*
X015375Y026124D02*
X015375Y026387D01*
X015375Y026255D02*
X014585Y026255D01*
X014585Y026124D01*
X014980Y026651D02*
X014848Y026783D01*
X014848Y027047D01*
X014980Y027179D01*
X015112Y027179D01*
X015112Y026651D01*
X015244Y026651D02*
X014980Y026651D01*
X015244Y026651D02*
X015375Y026783D01*
X015375Y027047D01*
X015507Y027443D02*
X015507Y027970D01*
X015375Y028235D02*
X015375Y028631D01*
X015244Y028762D01*
X015112Y028631D01*
X015112Y028367D01*
X014980Y028235D01*
X014848Y028367D01*
X014848Y028762D01*
X014848Y029027D02*
X014848Y029422D01*
X014980Y029554D01*
X015244Y029554D01*
X015375Y029422D01*
X015375Y029027D01*
X015639Y029027D02*
X014848Y029027D01*
X014848Y029819D02*
X014848Y029951D01*
X015375Y029951D01*
X015375Y029819D02*
X015375Y030083D01*
X015244Y030347D02*
X015375Y030479D01*
X015375Y030742D01*
X015112Y030874D02*
X015112Y030347D01*
X015244Y030347D02*
X014980Y030347D01*
X014848Y030479D01*
X014848Y030742D01*
X014980Y030874D01*
X015112Y030874D01*
X015375Y031139D02*
X015375Y031402D01*
X015375Y031271D02*
X014585Y031271D01*
X014585Y031139D01*
X014980Y031667D02*
X014980Y031930D01*
X014980Y032195D02*
X014848Y032326D01*
X014848Y032590D01*
X014980Y032722D01*
X015112Y032722D01*
X015112Y032195D01*
X015244Y032195D02*
X014980Y032195D01*
X015244Y032195D02*
X015375Y032326D01*
X015375Y032590D01*
X015375Y032986D02*
X015375Y033250D01*
X015375Y033118D02*
X014585Y033118D01*
X014585Y032986D01*
X014980Y033514D02*
X014848Y033646D01*
X014848Y034042D01*
X014585Y034042D02*
X015375Y034042D01*
X015375Y033646D01*
X015244Y033514D01*
X014980Y033514D01*
X014585Y031930D02*
X014716Y031798D01*
X015375Y031798D01*
X014585Y029951D02*
X014453Y029951D01*
X014980Y021899D02*
X014980Y021372D01*
X014848Y021372D02*
X015375Y021372D01*
D14*
X049848Y022430D02*
X049850Y022480D01*
X049856Y022530D01*
X049866Y022580D01*
X049879Y022628D01*
X049896Y022676D01*
X049917Y022722D01*
X049941Y022766D01*
X049969Y022808D01*
X050000Y022848D01*
X050034Y022885D01*
X050071Y022920D01*
X050110Y022951D01*
X050151Y022980D01*
X050195Y023005D01*
X050241Y023027D01*
X050288Y023045D01*
X050336Y023059D01*
X050385Y023070D01*
X050435Y023077D01*
X050485Y023080D01*
X050536Y023079D01*
X050586Y023074D01*
X050636Y023065D01*
X050684Y023053D01*
X050732Y023036D01*
X050778Y023016D01*
X050823Y022993D01*
X050866Y022966D01*
X050906Y022936D01*
X050944Y022903D01*
X050979Y022867D01*
X051012Y022828D01*
X051041Y022787D01*
X051067Y022744D01*
X051090Y022699D01*
X051109Y022652D01*
X051124Y022604D01*
X051136Y022555D01*
X051144Y022505D01*
X051148Y022455D01*
X051148Y022405D01*
X051144Y022355D01*
X051136Y022305D01*
X051124Y022256D01*
X051109Y022208D01*
X051090Y022161D01*
X051067Y022116D01*
X051041Y022073D01*
X051012Y022032D01*
X050979Y021993D01*
X050944Y021957D01*
X050906Y021924D01*
X050866Y021894D01*
X050823Y021867D01*
X050778Y021844D01*
X050732Y021824D01*
X050684Y021807D01*
X050636Y021795D01*
X050586Y021786D01*
X050536Y021781D01*
X050485Y021780D01*
X050435Y021783D01*
X050385Y021790D01*
X050336Y021801D01*
X050288Y021815D01*
X050241Y021833D01*
X050195Y021855D01*
X050151Y021880D01*
X050110Y021909D01*
X050071Y021940D01*
X050034Y021975D01*
X050000Y022012D01*
X049969Y022052D01*
X049941Y022094D01*
X049917Y022138D01*
X049896Y022184D01*
X049879Y022232D01*
X049866Y022280D01*
X049856Y022330D01*
X049850Y022380D01*
X049848Y022430D01*
D15*
X045811Y006410D02*
X045581Y006410D01*
X045504Y006334D01*
X045504Y006180D01*
X045581Y006103D01*
X045811Y006103D01*
X045811Y005950D02*
X045811Y006410D01*
X045658Y006103D02*
X045504Y005950D01*
X045351Y006027D02*
X045274Y005950D01*
X045121Y005950D01*
X045044Y006027D01*
X045044Y006103D01*
X045121Y006180D01*
X045351Y006180D01*
X045351Y006027D01*
X045351Y006180D02*
X045197Y006334D01*
X045044Y006410D01*
X043936Y006410D02*
X043936Y005950D01*
X043936Y006103D02*
X043706Y006103D01*
X043629Y006180D01*
X043629Y006334D01*
X043706Y006410D01*
X043936Y006410D01*
X043783Y006103D02*
X043629Y005950D01*
X043476Y006180D02*
X043169Y006180D01*
X043246Y005950D02*
X043246Y006410D01*
X043476Y006180D01*
X041936Y006103D02*
X041706Y006103D01*
X041629Y006180D01*
X041629Y006334D01*
X041706Y006410D01*
X041936Y006410D01*
X041936Y005950D01*
X041783Y006103D02*
X041629Y005950D01*
X041476Y005950D02*
X041169Y006257D01*
X041169Y006334D01*
X041246Y006410D01*
X041399Y006410D01*
X041476Y006334D01*
X041476Y005950D02*
X041169Y005950D01*
X040811Y004285D02*
X040581Y004285D01*
X040504Y004209D01*
X040504Y004055D01*
X040581Y003978D01*
X040811Y003978D01*
X040811Y003825D02*
X040811Y004285D01*
X040658Y003978D02*
X040504Y003825D01*
X040351Y003825D02*
X040044Y003825D01*
X040197Y003825D02*
X040197Y004285D01*
X040351Y004132D01*
X042169Y004132D02*
X042246Y004055D01*
X042169Y003978D01*
X042169Y003902D01*
X042246Y003825D01*
X042399Y003825D01*
X042476Y003902D01*
X042629Y003825D02*
X042783Y003978D01*
X042706Y003978D02*
X042936Y003978D01*
X042936Y003825D02*
X042936Y004285D01*
X042706Y004285D01*
X042629Y004209D01*
X042629Y004055D01*
X042706Y003978D01*
X042476Y004209D02*
X042399Y004285D01*
X042246Y004285D01*
X042169Y004209D01*
X042169Y004132D01*
X042246Y004055D02*
X042322Y004055D01*
X044169Y004055D02*
X044169Y003902D01*
X044246Y003825D01*
X044399Y003825D01*
X044476Y003902D01*
X044476Y004055D02*
X044322Y004132D01*
X044246Y004132D01*
X044169Y004055D01*
X044169Y004285D02*
X044476Y004285D01*
X044476Y004055D01*
X044629Y004055D02*
X044706Y003978D01*
X044936Y003978D01*
X044936Y003825D02*
X044936Y004285D01*
X044706Y004285D01*
X044629Y004209D01*
X044629Y004055D01*
X044783Y003978D02*
X044629Y003825D01*
X030641Y005029D02*
X030641Y005259D01*
X030564Y005336D01*
X030411Y005336D01*
X030334Y005259D01*
X030334Y005029D01*
X030180Y005029D02*
X030641Y005029D01*
X030334Y005183D02*
X030180Y005336D01*
X030257Y005490D02*
X030334Y005490D01*
X030411Y005566D01*
X030411Y005720D01*
X030334Y005797D01*
X030257Y005797D01*
X030180Y005720D01*
X030180Y005566D01*
X030257Y005490D01*
X030411Y005566D02*
X030487Y005490D01*
X030564Y005490D01*
X030641Y005566D01*
X030641Y005720D01*
X030564Y005797D01*
X030487Y005797D01*
X030411Y005720D01*
X025891Y004595D02*
X025891Y004441D01*
X025814Y004365D01*
X025661Y004518D02*
X025661Y004595D01*
X025584Y004672D01*
X025507Y004672D01*
X025430Y004595D01*
X025430Y004441D01*
X025507Y004365D01*
X025430Y004211D02*
X025430Y003904D01*
X025430Y003751D02*
X025584Y003597D01*
X025584Y003674D02*
X025584Y003444D01*
X025430Y003444D02*
X025891Y003444D01*
X025891Y003674D01*
X025814Y003751D01*
X025661Y003751D01*
X025584Y003674D01*
X025737Y003904D02*
X025891Y004058D01*
X025430Y004058D01*
X024891Y004058D02*
X024430Y004058D01*
X024430Y004211D02*
X024430Y003904D01*
X024430Y003751D02*
X024584Y003597D01*
X024584Y003674D02*
X024584Y003444D01*
X024430Y003444D02*
X024891Y003444D01*
X024891Y003674D01*
X024814Y003751D01*
X024661Y003751D01*
X024584Y003674D01*
X024737Y003904D02*
X024891Y004058D01*
X024814Y004365D02*
X024891Y004441D01*
X024891Y004595D01*
X024814Y004672D01*
X024737Y004672D01*
X024430Y004365D01*
X024430Y004672D01*
X025661Y004595D02*
X025737Y004672D01*
X025814Y004672D01*
X025891Y004595D01*
X023891Y006700D02*
X023430Y006700D01*
X023584Y006700D02*
X023584Y006930D01*
X023661Y007007D01*
X023814Y007007D01*
X023891Y006930D01*
X023891Y006700D01*
X023584Y006853D02*
X023430Y007007D01*
X023430Y007160D02*
X023507Y007160D01*
X023814Y007467D01*
X023891Y007467D01*
X023891Y007160D01*
X021891Y007237D02*
X021814Y007160D01*
X021737Y007160D01*
X021661Y007237D01*
X021661Y007467D01*
X021814Y007467D02*
X021507Y007467D01*
X021430Y007391D01*
X021430Y007237D01*
X021507Y007160D01*
X021430Y007007D02*
X021584Y006853D01*
X021584Y006930D02*
X021584Y006700D01*
X021430Y006700D02*
X021891Y006700D01*
X021891Y006930D01*
X021814Y007007D01*
X021661Y007007D01*
X021584Y006930D01*
X021891Y007237D02*
X021891Y007391D01*
X021814Y007467D01*
X020891Y007314D02*
X020737Y007160D01*
X020661Y007007D02*
X020584Y006930D01*
X020584Y006700D01*
X020584Y006853D02*
X020430Y007007D01*
X020430Y007160D02*
X020430Y007467D01*
X020430Y007314D02*
X020891Y007314D01*
X020814Y007621D02*
X020891Y007698D01*
X020891Y007851D01*
X020814Y007928D01*
X020507Y007621D01*
X020430Y007698D01*
X020430Y007851D01*
X020507Y007928D01*
X020814Y007928D01*
X020814Y007621D02*
X020507Y007621D01*
X020661Y007007D02*
X020814Y007007D01*
X020891Y006930D01*
X020891Y006700D01*
X020430Y006700D01*
X019891Y006700D02*
X019891Y006930D01*
X019814Y007007D01*
X019661Y007007D01*
X019584Y006930D01*
X019584Y006700D01*
X019584Y006853D02*
X019430Y007007D01*
X019430Y007160D02*
X019430Y007467D01*
X019430Y007314D02*
X019891Y007314D01*
X019737Y007160D01*
X019737Y007621D02*
X019891Y007774D01*
X019430Y007774D01*
X019430Y007621D02*
X019430Y007928D01*
X019430Y006700D02*
X019891Y006700D01*
M02*
