G75*
%MOIN*%
%OFA0B0*%
%FSLAX24Y24*%
%IPPOS*%
%LPD*%
%AMOC8*
5,1,8,0,0,1.08239X$1,22.5*
%
%ADD10C,0.0120*%
%ADD11C,0.0240*%
%ADD12C,0.0705*%
%ADD13C,0.0480*%
%ADD14C,0.0600*%
%ADD15C,0.0000*%
%ADD16OC8,0.0480*%
%ADD17OC8,0.0500*%
%ADD18C,0.0500*%
%ADD19C,0.0480*%
%ADD20C,0.0669*%
%ADD21R,0.0689X0.0689*%
%ADD22R,0.0591X0.0591*%
%ADD23C,0.0591*%
%ADD24OC8,0.0540*%
%ADD25R,0.0472X0.0709*%
%ADD26C,0.0160*%
%ADD27C,0.0560*%
%ADD28C,0.0591*%
%ADD29C,0.0500*%
%ADD30C,0.2756*%
%ADD31C,0.0400*%
D10*
X013160Y000180D02*
X013160Y031676D01*
X052530Y031676D01*
X052530Y000180D01*
X013160Y000180D01*
D11*
X030160Y021305D02*
X030187Y021245D01*
X030218Y021187D01*
X030251Y021132D01*
X030289Y021078D01*
X030329Y021026D01*
X030372Y020977D01*
X030418Y020931D01*
X030467Y020888D01*
X030519Y020848D01*
X030573Y020810D01*
X030628Y020777D01*
X030686Y020746D01*
X030746Y020719D01*
X030807Y020696D01*
X030869Y020677D01*
X030933Y020661D01*
X030997Y020649D01*
X031062Y020641D01*
X031127Y020637D01*
X031193Y020637D01*
X031258Y020641D01*
X031323Y020649D01*
X031387Y020661D01*
X031451Y020677D01*
X031513Y020696D01*
X031574Y020719D01*
X031634Y020746D01*
X031692Y020777D01*
X031747Y020810D01*
X031801Y020848D01*
X031853Y020888D01*
X031902Y020931D01*
X031948Y020977D01*
X031991Y021026D01*
X032031Y021078D01*
X032069Y021132D01*
X032102Y021187D01*
X032133Y021245D01*
X032160Y021305D01*
X031431Y022305D02*
X031433Y022342D01*
X031439Y022379D01*
X031448Y022414D01*
X031462Y022449D01*
X031478Y022482D01*
X031499Y022513D01*
X031522Y022542D01*
X031548Y022568D01*
X031577Y022591D01*
X031608Y022612D01*
X031641Y022628D01*
X031676Y022642D01*
X031711Y022651D01*
X031748Y022657D01*
X031785Y022659D01*
X031822Y022657D01*
X031859Y022651D01*
X031894Y022642D01*
X031929Y022628D01*
X031962Y022612D01*
X031993Y022591D01*
X032022Y022568D01*
X032048Y022542D01*
X032071Y022513D01*
X032092Y022482D01*
X032108Y022449D01*
X032122Y022414D01*
X032131Y022379D01*
X032137Y022342D01*
X032139Y022305D01*
X032137Y022268D01*
X032131Y022231D01*
X032122Y022196D01*
X032108Y022161D01*
X032092Y022128D01*
X032071Y022097D01*
X032048Y022068D01*
X032022Y022042D01*
X031993Y022019D01*
X031962Y021998D01*
X031929Y021982D01*
X031894Y021968D01*
X031859Y021959D01*
X031822Y021953D01*
X031785Y021951D01*
X031748Y021953D01*
X031711Y021959D01*
X031676Y021968D01*
X031641Y021982D01*
X031608Y021998D01*
X031577Y022019D01*
X031548Y022042D01*
X031522Y022068D01*
X031499Y022097D01*
X031478Y022128D01*
X031462Y022161D01*
X031448Y022196D01*
X031439Y022231D01*
X031433Y022268D01*
X031431Y022305D01*
X030181Y022305D02*
X030183Y022342D01*
X030189Y022379D01*
X030198Y022414D01*
X030212Y022449D01*
X030228Y022482D01*
X030249Y022513D01*
X030272Y022542D01*
X030298Y022568D01*
X030327Y022591D01*
X030358Y022612D01*
X030391Y022628D01*
X030426Y022642D01*
X030461Y022651D01*
X030498Y022657D01*
X030535Y022659D01*
X030572Y022657D01*
X030609Y022651D01*
X030644Y022642D01*
X030679Y022628D01*
X030712Y022612D01*
X030743Y022591D01*
X030772Y022568D01*
X030798Y022542D01*
X030821Y022513D01*
X030842Y022482D01*
X030858Y022449D01*
X030872Y022414D01*
X030881Y022379D01*
X030887Y022342D01*
X030889Y022305D01*
X030887Y022268D01*
X030881Y022231D01*
X030872Y022196D01*
X030858Y022161D01*
X030842Y022128D01*
X030821Y022097D01*
X030798Y022068D01*
X030772Y022042D01*
X030743Y022019D01*
X030712Y021998D01*
X030679Y021982D01*
X030644Y021968D01*
X030609Y021959D01*
X030572Y021953D01*
X030535Y021951D01*
X030498Y021953D01*
X030461Y021959D01*
X030426Y021968D01*
X030391Y021982D01*
X030358Y021998D01*
X030327Y022019D01*
X030298Y022042D01*
X030272Y022068D01*
X030249Y022097D01*
X030228Y022128D01*
X030212Y022161D01*
X030198Y022196D01*
X030189Y022231D01*
X030183Y022268D01*
X030181Y022305D01*
D12*
X037426Y029328D02*
X037426Y030033D01*
X039395Y030033D02*
X039395Y029328D01*
X044926Y029328D02*
X044926Y030033D01*
X046895Y030033D02*
X046895Y029328D01*
D13*
X040900Y022430D02*
X040420Y022430D01*
X040420Y021430D02*
X040900Y021430D01*
X040900Y020430D02*
X040420Y020430D01*
X040420Y019430D02*
X040900Y019430D01*
X040900Y018430D02*
X040420Y018430D01*
X040420Y017430D02*
X040900Y017430D01*
X040900Y016430D02*
X040420Y016430D01*
X040420Y015430D02*
X040900Y015430D01*
X040900Y014430D02*
X040420Y014430D01*
X040420Y013430D02*
X040900Y013430D01*
X040900Y012430D02*
X040420Y012430D01*
X040420Y011430D02*
X040900Y011430D01*
X040900Y010430D02*
X040420Y010430D01*
X040420Y009430D02*
X040900Y009430D01*
X037900Y009430D02*
X037420Y009430D01*
X037420Y010430D02*
X037900Y010430D01*
X037900Y011430D02*
X037420Y011430D01*
X037420Y012430D02*
X037900Y012430D01*
X037900Y013430D02*
X037420Y013430D01*
X037420Y014430D02*
X037900Y014430D01*
X037900Y015430D02*
X037420Y015430D01*
X037420Y016430D02*
X037900Y016430D01*
X037900Y017430D02*
X037420Y017430D01*
X037420Y018430D02*
X037900Y018430D01*
X037900Y019430D02*
X037420Y019430D01*
X037420Y020430D02*
X037900Y020430D01*
X037900Y021430D02*
X037420Y021430D01*
X037420Y022430D02*
X037900Y022430D01*
X028150Y017930D02*
X027670Y017930D01*
X027670Y016930D02*
X028150Y016930D01*
X028150Y015930D02*
X027670Y015930D01*
X027670Y014930D02*
X028150Y014930D01*
X028150Y013930D02*
X027670Y013930D01*
X027670Y012930D02*
X028150Y012930D01*
X028150Y011930D02*
X027670Y011930D01*
X025150Y011930D02*
X024670Y011930D01*
X024670Y012930D02*
X025150Y012930D01*
X025150Y013930D02*
X024670Y013930D01*
X024670Y014930D02*
X025150Y014930D01*
X025150Y015930D02*
X024670Y015930D01*
X024670Y016930D02*
X025150Y016930D01*
X025150Y017930D02*
X024670Y017930D01*
D14*
X025660Y026130D02*
X025660Y026730D01*
X026660Y026730D02*
X026660Y026130D01*
X027140Y028290D02*
X027740Y028290D01*
X027740Y030070D02*
X027140Y030070D01*
X025180Y030070D02*
X024580Y030070D01*
X024580Y028290D02*
X025180Y028290D01*
X021490Y028290D02*
X020890Y028290D01*
X020410Y026730D02*
X020410Y026130D01*
X019410Y026130D02*
X019410Y026730D01*
X018930Y028290D02*
X018330Y028290D01*
X018330Y030070D02*
X018930Y030070D01*
X020890Y030070D02*
X021490Y030070D01*
X030830Y030070D02*
X031430Y030070D01*
X031430Y028290D02*
X030830Y028290D01*
X031910Y026730D02*
X031910Y026130D01*
X032910Y026130D02*
X032910Y026730D01*
X033390Y028290D02*
X033990Y028290D01*
X033990Y030070D02*
X033390Y030070D01*
X044298Y023430D02*
X044898Y023430D01*
X044898Y022430D02*
X044298Y022430D01*
X044298Y021430D02*
X044898Y021430D01*
D15*
X049848Y022430D02*
X049850Y022480D01*
X049856Y022530D01*
X049866Y022580D01*
X049879Y022628D01*
X049896Y022676D01*
X049917Y022722D01*
X049941Y022766D01*
X049969Y022808D01*
X050000Y022848D01*
X050034Y022885D01*
X050071Y022920D01*
X050110Y022951D01*
X050151Y022980D01*
X050195Y023005D01*
X050241Y023027D01*
X050288Y023045D01*
X050336Y023059D01*
X050385Y023070D01*
X050435Y023077D01*
X050485Y023080D01*
X050536Y023079D01*
X050586Y023074D01*
X050636Y023065D01*
X050684Y023053D01*
X050732Y023036D01*
X050778Y023016D01*
X050823Y022993D01*
X050866Y022966D01*
X050906Y022936D01*
X050944Y022903D01*
X050979Y022867D01*
X051012Y022828D01*
X051041Y022787D01*
X051067Y022744D01*
X051090Y022699D01*
X051109Y022652D01*
X051124Y022604D01*
X051136Y022555D01*
X051144Y022505D01*
X051148Y022455D01*
X051148Y022405D01*
X051144Y022355D01*
X051136Y022305D01*
X051124Y022256D01*
X051109Y022208D01*
X051090Y022161D01*
X051067Y022116D01*
X051041Y022073D01*
X051012Y022032D01*
X050979Y021993D01*
X050944Y021957D01*
X050906Y021924D01*
X050866Y021894D01*
X050823Y021867D01*
X050778Y021844D01*
X050732Y021824D01*
X050684Y021807D01*
X050636Y021795D01*
X050586Y021786D01*
X050536Y021781D01*
X050485Y021780D01*
X050435Y021783D01*
X050385Y021790D01*
X050336Y021801D01*
X050288Y021815D01*
X050241Y021833D01*
X050195Y021855D01*
X050151Y021880D01*
X050110Y021909D01*
X050071Y021940D01*
X050034Y021975D01*
X050000Y022012D01*
X049969Y022052D01*
X049941Y022094D01*
X049917Y022138D01*
X049896Y022184D01*
X049879Y022232D01*
X049866Y022280D01*
X049856Y022330D01*
X049850Y022380D01*
X049848Y022430D01*
D16*
X044660Y025930D03*
X044660Y026930D03*
X041910Y024930D03*
X040910Y024930D03*
X041160Y026430D03*
X037160Y026430D03*
X035410Y024680D03*
X034410Y024680D03*
X034410Y023680D03*
X035410Y023680D03*
X030410Y024680D03*
X029160Y024680D03*
X028160Y024680D03*
X028160Y023680D03*
X029160Y023680D03*
X026910Y019680D03*
X025910Y019680D03*
X023410Y019680D03*
X023410Y015680D03*
X023660Y012930D03*
X019660Y012930D03*
X029660Y015180D03*
X031160Y015180D03*
X034910Y014430D03*
X036160Y014430D03*
X036160Y015430D03*
X036160Y016430D03*
X036160Y013430D03*
X034910Y013430D03*
X031160Y019180D03*
X029660Y019180D03*
X023910Y023680D03*
X022910Y023680D03*
X022910Y024680D03*
X021910Y024680D03*
X024160Y024680D03*
X022910Y028680D03*
X017910Y024680D03*
X029160Y028680D03*
X035410Y028680D03*
X041910Y016180D03*
X041910Y015180D03*
X043410Y015180D03*
X043410Y016180D03*
X043160Y013430D03*
X042410Y011430D03*
X046410Y011430D03*
X047160Y013430D03*
D17*
X046410Y026030D03*
D18*
X046410Y026830D03*
D19*
X035610Y011680D03*
X033710Y011680D03*
D20*
X038160Y027430D03*
X041160Y027430D03*
D21*
X048660Y010680D03*
X049660Y010680D03*
X049660Y009680D03*
X048660Y009680D03*
X048660Y008680D03*
X049660Y008680D03*
D22*
X042160Y028930D03*
X042160Y029930D03*
X019660Y023180D03*
X018660Y023180D03*
X018660Y020680D03*
X019660Y020680D03*
X019660Y018180D03*
X018660Y018180D03*
X018660Y015680D03*
X019660Y015680D03*
D23*
X038410Y003350D02*
X038410Y002760D01*
X039410Y002760D02*
X039410Y003350D01*
X040410Y003350D02*
X040410Y002760D01*
X041410Y002760D02*
X041410Y003350D01*
X042410Y003350D02*
X042410Y002760D01*
X043410Y002760D02*
X043410Y003350D01*
X044410Y003350D02*
X044410Y002760D01*
X045410Y002760D02*
X045410Y003350D01*
D24*
X032160Y003680D03*
X031160Y003680D03*
X030160Y003680D03*
X029160Y003680D03*
X028160Y003680D03*
X028160Y002680D03*
X029160Y002680D03*
X030160Y002680D03*
X031160Y002680D03*
X032160Y002680D03*
X023660Y002680D03*
X022660Y002680D03*
X021660Y002680D03*
X020660Y002680D03*
X019660Y002680D03*
X019660Y003680D03*
X020660Y003680D03*
X021660Y003680D03*
X022660Y003680D03*
X023660Y003680D03*
D25*
X023660Y005090D03*
X024660Y005090D03*
X025660Y005090D03*
X025660Y006270D03*
X024660Y006270D03*
X023660Y006270D03*
X021660Y006270D03*
X020660Y006270D03*
X019660Y006270D03*
X019660Y005090D03*
X020660Y005090D03*
X021660Y005090D03*
X031160Y005090D03*
X031160Y006270D03*
X040410Y005770D03*
X041410Y005770D03*
X042410Y005770D03*
X043410Y005770D03*
X044410Y005770D03*
X045410Y005770D03*
X045410Y004590D03*
X044410Y004590D03*
X043410Y004590D03*
X042410Y004590D03*
X041410Y004590D03*
X040410Y004590D03*
D26*
X040410Y004806D02*
X040410Y003055D01*
X041410Y003055D02*
X041410Y004806D01*
X041410Y005554D02*
X041410Y007680D01*
X041910Y008180D01*
X041910Y011430D01*
X040660Y011430D01*
X039902Y011930D02*
X039810Y011838D01*
X039700Y011573D01*
X039700Y011524D01*
X039565Y011580D01*
X039256Y011580D01*
X038971Y011462D01*
X038753Y011244D01*
X038635Y010959D01*
X038635Y010651D01*
X038753Y010366D01*
X038971Y010148D01*
X039256Y010030D01*
X039511Y010030D01*
X039543Y010006D01*
X039593Y009955D01*
X039631Y009940D01*
X039663Y009915D01*
X039733Y009897D01*
X039799Y009870D01*
X039840Y009870D01*
X039842Y009870D01*
X039810Y009838D01*
X039700Y009573D01*
X039700Y009287D01*
X039810Y009022D01*
X040013Y008820D01*
X040277Y008710D01*
X041044Y008710D01*
X041308Y008820D01*
X041350Y008862D01*
X041350Y008412D01*
X040936Y007997D01*
X040850Y007791D01*
X040850Y007586D01*
X040850Y007587D01*
X040565Y007705D01*
X040256Y007705D01*
X039971Y007587D01*
X039753Y007369D01*
X039668Y007163D01*
X039565Y007205D01*
X039256Y007205D01*
X038971Y007087D01*
X038753Y006869D01*
X038635Y006584D01*
X038635Y006276D01*
X038680Y006166D01*
X038680Y004078D01*
X038565Y004126D01*
X038256Y004126D01*
X037971Y004008D01*
X037753Y003789D01*
X037635Y003504D01*
X037635Y002606D01*
X037680Y002496D01*
X037680Y001910D01*
X030890Y001910D01*
X030890Y001930D01*
X031471Y001930D01*
X031660Y002119D01*
X031850Y001930D01*
X032471Y001930D01*
X032910Y002369D01*
X032910Y002991D01*
X032721Y003180D01*
X032910Y003369D01*
X032910Y003991D01*
X032471Y004430D01*
X031850Y004430D01*
X031720Y004301D01*
X031721Y004301D01*
X031720Y004301D02*
X031720Y004380D01*
X031804Y004464D01*
X031877Y004640D01*
X031877Y005540D01*
X031818Y005680D01*
X031877Y005820D01*
X031877Y005991D01*
X034649Y008870D01*
X036962Y008870D01*
X037013Y008820D01*
X037277Y008710D01*
X038044Y008710D01*
X038308Y008820D01*
X038511Y009022D01*
X038620Y009287D01*
X038620Y009573D01*
X038511Y009838D01*
X038419Y009930D01*
X038511Y010022D01*
X038620Y010287D01*
X038620Y010573D01*
X038511Y010838D01*
X038419Y010930D01*
X038511Y011022D01*
X038620Y011287D01*
X038620Y011573D01*
X038511Y011838D01*
X038419Y011930D01*
X038511Y012022D01*
X038620Y012287D01*
X038620Y012573D01*
X038511Y012838D01*
X038419Y012930D01*
X038511Y013022D01*
X038620Y013287D01*
X038620Y013573D01*
X038511Y013838D01*
X038419Y013930D01*
X038511Y014022D01*
X038620Y014287D01*
X038620Y014573D01*
X038511Y014838D01*
X038479Y014870D01*
X038522Y014870D01*
X038728Y014955D01*
X039642Y015870D01*
X039842Y015870D01*
X039810Y015838D01*
X039700Y015573D01*
X039700Y015287D01*
X039810Y015022D01*
X039902Y014930D01*
X039810Y014838D01*
X039700Y014573D01*
X039700Y014287D01*
X039810Y014022D01*
X039902Y013930D01*
X039810Y013838D01*
X039700Y013573D01*
X039700Y013287D01*
X039810Y013022D01*
X039902Y012930D01*
X039810Y012838D01*
X039700Y012573D01*
X039700Y012287D01*
X039810Y012022D01*
X039902Y011930D01*
X039881Y011909D02*
X038440Y011909D01*
X038530Y012068D02*
X039791Y012068D01*
X039726Y012226D02*
X038595Y012226D01*
X038620Y012385D02*
X039700Y012385D01*
X039700Y012543D02*
X038620Y012543D01*
X038567Y012702D02*
X039754Y012702D01*
X039832Y012860D02*
X038489Y012860D01*
X038507Y013019D02*
X039814Y013019D01*
X039746Y013177D02*
X038575Y013177D01*
X038620Y013336D02*
X039700Y013336D01*
X039700Y013494D02*
X038620Y013494D01*
X038588Y013653D02*
X039733Y013653D01*
X039799Y013811D02*
X038522Y013811D01*
X038458Y013970D02*
X039863Y013970D01*
X039766Y014128D02*
X038555Y014128D01*
X038620Y014287D02*
X039700Y014287D01*
X039700Y014445D02*
X038620Y014445D01*
X038608Y014604D02*
X039713Y014604D01*
X039779Y014762D02*
X038542Y014762D01*
X038644Y014921D02*
X039893Y014921D01*
X039786Y015079D02*
X038851Y015079D01*
X039010Y015238D02*
X039721Y015238D01*
X039700Y015396D02*
X039168Y015396D01*
X039327Y015555D02*
X039700Y015555D01*
X039758Y015713D02*
X039485Y015713D01*
X039410Y016430D02*
X040660Y016430D01*
X041160Y016430D01*
X041410Y016180D01*
X041910Y016180D01*
X043410Y016180D01*
X044160Y016680D02*
X044160Y008180D01*
X043910Y007930D01*
X044660Y007680D02*
X043910Y006930D01*
X044410Y006430D02*
X044410Y005554D01*
X045410Y005554D02*
X045410Y006430D01*
X045660Y006680D01*
X045660Y017430D01*
X042660Y020430D01*
X040660Y020430D01*
X039902Y019930D02*
X039810Y019838D01*
X039700Y019573D01*
X039700Y019287D01*
X039810Y019022D01*
X039902Y018930D01*
X039810Y018838D01*
X039700Y018573D01*
X039700Y018287D01*
X039810Y018022D01*
X039902Y017930D01*
X039810Y017838D01*
X039700Y017573D01*
X039700Y017490D01*
X038799Y017490D01*
X038620Y017416D01*
X038620Y017573D01*
X038511Y017838D01*
X038419Y017930D01*
X038511Y018022D01*
X038620Y018287D01*
X038620Y018573D01*
X038511Y018838D01*
X038419Y018930D01*
X038511Y019022D01*
X038620Y019287D01*
X038620Y019573D01*
X038511Y019838D01*
X038419Y019930D01*
X038511Y020022D01*
X038620Y020287D01*
X038620Y020573D01*
X038511Y020838D01*
X038419Y020930D01*
X038511Y021022D01*
X038589Y021210D01*
X039343Y020455D01*
X039549Y020370D01*
X039700Y020370D01*
X039700Y020287D01*
X039810Y020022D01*
X039902Y019930D01*
X039840Y019993D02*
X038481Y019993D01*
X038512Y019834D02*
X039808Y019834D01*
X039743Y019676D02*
X038578Y019676D01*
X038620Y019517D02*
X039700Y019517D01*
X039700Y019359D02*
X038620Y019359D01*
X038584Y019200D02*
X039736Y019200D01*
X039802Y019042D02*
X038519Y019042D01*
X038466Y018883D02*
X039855Y018883D01*
X039763Y018725D02*
X038558Y018725D01*
X038620Y018566D02*
X039700Y018566D01*
X039700Y018408D02*
X038620Y018408D01*
X038605Y018249D02*
X039716Y018249D01*
X039782Y018091D02*
X038539Y018091D01*
X038421Y017932D02*
X039900Y017932D01*
X039783Y017774D02*
X038537Y017774D01*
X038603Y017615D02*
X039718Y017615D01*
X040660Y017430D02*
X042160Y017430D01*
X042410Y017680D01*
X043160Y017680D01*
X044160Y016680D01*
X044660Y016930D02*
X044660Y007680D01*
X045160Y007180D02*
X044410Y006430D01*
X043410Y006180D02*
X043410Y005554D01*
X043410Y006180D02*
X043160Y006430D01*
X043160Y008180D01*
X043660Y008680D01*
X043660Y012930D01*
X043160Y013430D01*
X040660Y013430D01*
X040660Y012430D02*
X042410Y012430D01*
X043160Y011680D01*
X043160Y009180D01*
X042910Y008930D01*
X042600Y008219D02*
X042600Y007690D01*
X042565Y007705D01*
X042256Y007705D01*
X042207Y007685D01*
X042228Y007705D01*
X042385Y007863D01*
X042470Y008069D01*
X042470Y008274D01*
X042471Y008273D01*
X042600Y008219D01*
X042600Y008105D02*
X042470Y008105D01*
X042470Y008264D02*
X042494Y008264D01*
X042420Y007947D02*
X042600Y007947D01*
X042600Y007788D02*
X042310Y007788D01*
X042410Y006930D02*
X042410Y005554D01*
X042410Y004806D02*
X042410Y003055D01*
X043410Y003055D02*
X043410Y004806D01*
X044410Y004806D02*
X044410Y003055D01*
X045410Y003055D02*
X045410Y004806D01*
X046127Y004777D02*
X048724Y004777D01*
X048815Y004905D02*
X048880Y004932D01*
X045858Y001910D01*
X039140Y001910D01*
X039140Y002032D01*
X039256Y001984D01*
X039565Y001984D01*
X039850Y002102D01*
X039910Y002163D01*
X039971Y002102D01*
X040256Y001984D01*
X040565Y001984D01*
X040850Y002102D01*
X040910Y002163D01*
X040971Y002102D01*
X041256Y001984D01*
X041565Y001984D01*
X041850Y002102D01*
X041910Y002163D01*
X041971Y002102D01*
X042256Y001984D01*
X042565Y001984D01*
X042850Y002102D01*
X042910Y002163D01*
X042971Y002102D01*
X043256Y001984D01*
X043565Y001984D01*
X043850Y002102D01*
X043910Y002163D01*
X043971Y002102D01*
X044256Y001984D01*
X044565Y001984D01*
X044850Y002102D01*
X044910Y002163D01*
X044971Y002102D01*
X045256Y001984D01*
X045565Y001984D01*
X045850Y002102D01*
X046068Y002321D01*
X046186Y002606D01*
X046186Y003504D01*
X046068Y003789D01*
X045973Y003884D01*
X046054Y003964D01*
X046127Y004140D01*
X046127Y005040D01*
X046068Y005180D01*
X046127Y005320D01*
X046127Y006220D01*
X046087Y006315D01*
X046135Y006363D01*
X046220Y006569D01*
X046220Y008320D01*
X046253Y008241D01*
X046471Y008023D01*
X046756Y007905D01*
X047065Y007905D01*
X047174Y007950D01*
X048023Y007950D01*
X048044Y007929D01*
X048220Y007856D01*
X049100Y007856D01*
X049100Y007856D01*
X049100Y006912D01*
X048644Y006455D01*
X048506Y006455D01*
X048221Y006337D01*
X048003Y006119D01*
X047885Y005834D01*
X047885Y005526D01*
X048003Y005241D01*
X048221Y005023D01*
X048506Y004905D01*
X048815Y004905D01*
X048566Y004618D02*
X046127Y004618D01*
X046127Y004460D02*
X048407Y004460D01*
X048249Y004301D02*
X046127Y004301D01*
X046127Y004143D02*
X048090Y004143D01*
X047932Y003984D02*
X046062Y003984D01*
X046032Y003826D02*
X047773Y003826D01*
X047615Y003667D02*
X046118Y003667D01*
X046184Y003509D02*
X047456Y003509D01*
X047298Y003350D02*
X046186Y003350D01*
X046186Y003192D02*
X047139Y003192D01*
X046981Y003033D02*
X046186Y003033D01*
X046186Y002875D02*
X046822Y002875D01*
X046664Y002716D02*
X046186Y002716D01*
X046166Y002558D02*
X046505Y002558D01*
X046347Y002399D02*
X046100Y002399D01*
X046188Y002241D02*
X045988Y002241D01*
X046030Y002082D02*
X045800Y002082D01*
X045871Y001924D02*
X039140Y001924D01*
X039800Y002082D02*
X040021Y002082D01*
X040800Y002082D02*
X041021Y002082D01*
X041800Y002082D02*
X042021Y002082D01*
X042800Y002082D02*
X043021Y002082D01*
X043800Y002082D02*
X044021Y002082D01*
X044800Y002082D02*
X045021Y002082D01*
X046733Y000720D02*
X049363Y000720D01*
X049075Y001008D01*
X048831Y001431D01*
X048704Y001904D01*
X048704Y002393D01*
X048813Y002800D01*
X046733Y000720D01*
X046827Y000814D02*
X049269Y000814D01*
X049110Y000973D02*
X046985Y000973D01*
X047144Y001131D02*
X049004Y001131D01*
X048913Y001290D02*
X047302Y001290D01*
X047461Y001448D02*
X048826Y001448D01*
X048784Y001607D02*
X047619Y001607D01*
X047778Y001765D02*
X048741Y001765D01*
X048704Y001924D02*
X047936Y001924D01*
X048095Y002082D02*
X048704Y002082D01*
X048704Y002241D02*
X048253Y002241D01*
X048412Y002399D02*
X048706Y002399D01*
X048748Y002558D02*
X048570Y002558D01*
X048729Y002716D02*
X048791Y002716D01*
X049910Y003897D02*
X051824Y005811D01*
X051990Y005978D01*
X051990Y003348D01*
X051703Y003635D01*
X051279Y003880D01*
X050807Y004006D01*
X050317Y004006D01*
X049910Y003897D01*
X049997Y003984D02*
X050234Y003984D01*
X050155Y004143D02*
X051990Y004143D01*
X051990Y004301D02*
X050314Y004301D01*
X050472Y004460D02*
X051990Y004460D01*
X051990Y004618D02*
X050631Y004618D01*
X050789Y004777D02*
X051990Y004777D01*
X051990Y004935D02*
X050948Y004935D01*
X051106Y005094D02*
X051990Y005094D01*
X051990Y005252D02*
X051265Y005252D01*
X051423Y005411D02*
X051990Y005411D01*
X051990Y005569D02*
X051582Y005569D01*
X051740Y005728D02*
X051990Y005728D01*
X051990Y005886D02*
X051899Y005886D01*
X050680Y006732D02*
X049409Y005461D01*
X049436Y005526D01*
X049436Y005663D01*
X049978Y006205D01*
X050135Y006363D01*
X050220Y006569D01*
X050220Y007905D01*
X050277Y007929D01*
X050412Y008064D01*
X050485Y008240D01*
X050485Y009120D01*
X050485Y009120D01*
X050522Y009120D01*
X050680Y009186D01*
X050680Y006732D01*
X050627Y006679D02*
X050220Y006679D01*
X050220Y006837D02*
X050680Y006837D01*
X050680Y006996D02*
X050220Y006996D01*
X050220Y007154D02*
X050680Y007154D01*
X050680Y007313D02*
X050220Y007313D01*
X050220Y007471D02*
X050680Y007471D01*
X050680Y007630D02*
X050220Y007630D01*
X050220Y007788D02*
X050680Y007788D01*
X050680Y007947D02*
X050295Y007947D01*
X050429Y008105D02*
X050680Y008105D01*
X050680Y008264D02*
X050485Y008264D01*
X050485Y008422D02*
X050680Y008422D01*
X050680Y008581D02*
X050485Y008581D01*
X050485Y008739D02*
X050680Y008739D01*
X050680Y008898D02*
X050485Y008898D01*
X050485Y009056D02*
X050680Y009056D01*
X050410Y009680D02*
X049660Y009680D01*
X048660Y009680D02*
X047160Y009680D01*
X046410Y010430D01*
X046410Y011430D01*
X046970Y010972D02*
X046970Y010662D01*
X047392Y010240D01*
X047836Y010240D01*
X047836Y010240D01*
X047836Y011120D01*
X047909Y011296D01*
X047930Y011318D01*
X047930Y012158D01*
X047728Y011955D01*
X047522Y011870D01*
X046989Y011870D01*
X047130Y011728D01*
X047130Y011132D01*
X046970Y010972D01*
X046970Y010958D02*
X047836Y010958D01*
X047836Y010800D02*
X046970Y010800D01*
X046991Y010641D02*
X047836Y010641D01*
X047836Y010483D02*
X047150Y010483D01*
X047308Y010324D02*
X047836Y010324D01*
X047836Y011117D02*
X047115Y011117D01*
X047130Y011275D02*
X047900Y011275D01*
X047930Y011434D02*
X047130Y011434D01*
X047130Y011592D02*
X047930Y011592D01*
X047930Y011751D02*
X047108Y011751D01*
X047616Y011909D02*
X047930Y011909D01*
X047930Y012068D02*
X047840Y012068D01*
X047410Y012430D02*
X047910Y012930D01*
X047910Y013930D01*
X048160Y014180D01*
X049160Y014180D01*
X049660Y013680D01*
X049660Y010680D01*
X050410Y009680D02*
X050410Y013680D01*
X049410Y014680D01*
X047910Y014680D01*
X047160Y013930D01*
X047160Y013430D01*
X046720Y014282D02*
X046720Y017569D01*
X046720Y017791D01*
X046635Y017997D01*
X045952Y018680D01*
X047930Y018680D01*
X047930Y017194D01*
X047885Y017084D01*
X047885Y016776D01*
X048003Y016491D01*
X048221Y016273D01*
X048331Y016227D01*
X049318Y015240D01*
X047799Y015240D01*
X047593Y015155D01*
X046843Y014405D01*
X046720Y014282D01*
X046720Y014287D02*
X046725Y014287D01*
X046720Y014445D02*
X046883Y014445D01*
X047042Y014604D02*
X046720Y014604D01*
X046720Y014762D02*
X047200Y014762D01*
X047359Y014921D02*
X046720Y014921D01*
X046720Y015079D02*
X047517Y015079D01*
X047793Y015238D02*
X046720Y015238D01*
X046720Y015396D02*
X049162Y015396D01*
X049003Y015555D02*
X046720Y015555D01*
X046720Y015713D02*
X048845Y015713D01*
X048686Y015872D02*
X046720Y015872D01*
X046720Y016030D02*
X048528Y016030D01*
X048369Y016189D02*
X046720Y016189D01*
X046720Y016347D02*
X048147Y016347D01*
X047997Y016506D02*
X046720Y016506D01*
X046720Y016664D02*
X047931Y016664D01*
X047885Y016823D02*
X046720Y016823D01*
X046720Y016981D02*
X047885Y016981D01*
X047908Y017140D02*
X046720Y017140D01*
X046720Y017298D02*
X047930Y017298D01*
X047930Y017457D02*
X046720Y017457D01*
X046720Y017615D02*
X047930Y017615D01*
X047930Y017774D02*
X046720Y017774D01*
X046662Y017932D02*
X047930Y017932D01*
X047930Y018091D02*
X046542Y018091D01*
X046383Y018249D02*
X047930Y018249D01*
X047930Y018408D02*
X046225Y018408D01*
X046066Y018566D02*
X047930Y018566D01*
X048080Y019555D02*
X045160Y019555D01*
X045160Y020857D01*
X045255Y020896D01*
X045432Y021073D01*
X045528Y021305D01*
X045528Y021555D01*
X045432Y021787D01*
X045289Y021930D01*
X045432Y022073D01*
X045528Y022305D01*
X045528Y022555D01*
X045432Y022787D01*
X045369Y022850D01*
X046670Y022850D01*
X048080Y021440D01*
X048080Y019555D01*
X048080Y019676D02*
X045160Y019676D01*
X045160Y019834D02*
X048080Y019834D01*
X048080Y019993D02*
X045160Y019993D01*
X045160Y020151D02*
X048080Y020151D01*
X048080Y020310D02*
X045160Y020310D01*
X045160Y020468D02*
X048080Y020468D01*
X048080Y020627D02*
X045160Y020627D01*
X045160Y020785D02*
X048080Y020785D01*
X048080Y020944D02*
X045302Y020944D01*
X045444Y021102D02*
X048080Y021102D01*
X048080Y021261D02*
X045510Y021261D01*
X045528Y021419D02*
X048080Y021419D01*
X047943Y021578D02*
X045519Y021578D01*
X045453Y021736D02*
X047784Y021736D01*
X047626Y021895D02*
X045324Y021895D01*
X045412Y022053D02*
X047467Y022053D01*
X047309Y022212D02*
X045489Y022212D01*
X045528Y022370D02*
X047150Y022370D01*
X046992Y022529D02*
X045528Y022529D01*
X045473Y022687D02*
X046833Y022687D01*
X046675Y022846D02*
X045373Y022846D01*
X044160Y024210D02*
X044143Y024210D01*
X043890Y024105D01*
X043890Y027450D01*
X043930Y027450D01*
X043930Y026785D01*
X043940Y026761D01*
X043940Y026632D01*
X044032Y026541D01*
X044042Y026516D01*
X044128Y026430D01*
X044042Y026344D01*
X044032Y026319D01*
X043940Y026228D01*
X043940Y026099D01*
X043930Y026075D01*
X043930Y025785D01*
X043940Y025761D01*
X043940Y025632D01*
X044032Y025541D01*
X044042Y025516D01*
X044160Y025398D01*
X044160Y024210D01*
X044160Y024272D02*
X043890Y024272D01*
X043890Y024114D02*
X043910Y024114D01*
X043890Y024431D02*
X044160Y024431D01*
X044160Y024589D02*
X043890Y024589D01*
X043890Y024748D02*
X044160Y024748D01*
X044160Y024906D02*
X043890Y024906D01*
X043890Y025065D02*
X044160Y025065D01*
X044160Y025223D02*
X043890Y025223D01*
X043890Y025382D02*
X044160Y025382D01*
X044032Y025540D02*
X043890Y025540D01*
X043890Y025699D02*
X043940Y025699D01*
X043930Y025857D02*
X043890Y025857D01*
X043890Y026016D02*
X043930Y026016D01*
X043940Y026174D02*
X043890Y026174D01*
X043890Y026333D02*
X044037Y026333D01*
X044067Y026491D02*
X043890Y026491D01*
X043890Y026650D02*
X043940Y026650D01*
X043930Y026808D02*
X043890Y026808D01*
X043890Y026967D02*
X043930Y026967D01*
X043930Y027125D02*
X043890Y027125D01*
X043890Y027284D02*
X043930Y027284D01*
X043930Y027442D02*
X043890Y027442D01*
X044196Y028910D02*
X042936Y028910D01*
X042936Y029321D01*
X042890Y029430D01*
X042936Y029539D01*
X042936Y030200D01*
X044094Y030200D01*
X044094Y030198D01*
X044094Y029162D01*
X044196Y028914D01*
X044196Y028910D01*
X044149Y029027D02*
X042936Y029027D01*
X042936Y029186D02*
X044094Y029186D01*
X044094Y029344D02*
X042926Y029344D01*
X042920Y029503D02*
X044094Y029503D01*
X044094Y029661D02*
X042936Y029661D01*
X042936Y029820D02*
X044094Y029820D01*
X044094Y029978D02*
X042936Y029978D01*
X042936Y030137D02*
X044094Y030137D01*
X045759Y030137D02*
X046062Y030137D01*
X046062Y030198D02*
X046063Y030200D01*
X045758Y030200D01*
X045759Y030198D01*
X045759Y029162D01*
X045656Y028914D01*
X045656Y028051D01*
X045558Y027814D01*
X045713Y027660D01*
X046398Y027660D01*
X046276Y027782D01*
X046165Y028051D01*
X046165Y028914D01*
X046062Y029162D01*
X046062Y030198D01*
X046062Y029978D02*
X045759Y029978D01*
X045759Y029820D02*
X046062Y029820D01*
X046062Y029661D02*
X045759Y029661D01*
X045759Y029503D02*
X046062Y029503D01*
X046062Y029344D02*
X045759Y029344D01*
X045759Y029186D02*
X046062Y029186D01*
X046118Y029027D02*
X045703Y029027D01*
X045656Y028869D02*
X046165Y028869D01*
X046165Y028710D02*
X045656Y028710D01*
X045656Y028552D02*
X046165Y028552D01*
X046165Y028393D02*
X045656Y028393D01*
X045656Y028235D02*
X046165Y028235D01*
X046165Y028076D02*
X045656Y028076D01*
X045601Y027918D02*
X046220Y027918D01*
X046299Y027759D02*
X045614Y027759D01*
X047625Y028498D02*
X047625Y028914D01*
X047727Y029162D01*
X047727Y030198D01*
X047625Y030446D01*
X047625Y030591D01*
X047513Y030859D01*
X047308Y031065D01*
X047237Y031136D01*
X049363Y031136D01*
X049075Y030848D01*
X048831Y030425D01*
X048704Y029952D01*
X048704Y029463D01*
X048831Y028990D01*
X049075Y028567D01*
X049421Y028221D01*
X049845Y027976D01*
X050317Y027850D01*
X050807Y027850D01*
X051279Y027976D01*
X051703Y028221D01*
X051990Y028509D01*
X051990Y026180D01*
X048140Y026180D01*
X048140Y027825D01*
X048029Y028094D01*
X047824Y028299D01*
X047625Y028498D01*
X047625Y028552D02*
X049090Y028552D01*
X048992Y028710D02*
X047625Y028710D01*
X047625Y028869D02*
X048901Y028869D01*
X048821Y029027D02*
X047671Y029027D01*
X047727Y029186D02*
X048778Y029186D01*
X048736Y029344D02*
X047727Y029344D01*
X047727Y029503D02*
X048704Y029503D01*
X048704Y029661D02*
X047727Y029661D01*
X047727Y029820D02*
X048704Y029820D01*
X048711Y029978D02*
X047727Y029978D01*
X047727Y030137D02*
X048753Y030137D01*
X048796Y030295D02*
X047687Y030295D01*
X047625Y030454D02*
X048847Y030454D01*
X048939Y030612D02*
X047616Y030612D01*
X047550Y030771D02*
X049030Y030771D01*
X049156Y030929D02*
X047444Y030929D01*
X047285Y031088D02*
X049314Y031088D01*
X051761Y031136D02*
X051990Y031136D01*
X051990Y030907D01*
X051761Y031136D01*
X051809Y031088D02*
X051990Y031088D01*
X051990Y030929D02*
X051968Y030929D01*
X051990Y028393D02*
X051875Y028393D01*
X051990Y028235D02*
X051716Y028235D01*
X051452Y028076D02*
X051990Y028076D01*
X051990Y027918D02*
X051060Y027918D01*
X051990Y027759D02*
X048140Y027759D01*
X048140Y027601D02*
X051990Y027601D01*
X051990Y027442D02*
X048140Y027442D01*
X048140Y027284D02*
X051990Y027284D01*
X051990Y027125D02*
X048140Y027125D01*
X048140Y026967D02*
X051990Y026967D01*
X051990Y026808D02*
X048140Y026808D01*
X048140Y026650D02*
X051990Y026650D01*
X051990Y026491D02*
X048140Y026491D01*
X048140Y026333D02*
X051990Y026333D01*
X052140Y025180D02*
X047231Y025180D01*
X046990Y024940D01*
X046990Y024010D01*
X047026Y024010D01*
X047239Y023922D01*
X049152Y022009D01*
X049240Y021795D01*
X049240Y019555D01*
X052140Y019555D01*
X052140Y025180D01*
X052140Y025065D02*
X047115Y025065D01*
X046990Y024906D02*
X052140Y024906D01*
X052140Y024748D02*
X046990Y024748D01*
X046990Y024589D02*
X052140Y024589D01*
X052140Y024431D02*
X046990Y024431D01*
X046990Y024272D02*
X052140Y024272D01*
X052140Y024114D02*
X046990Y024114D01*
X047158Y023955D02*
X052140Y023955D01*
X052140Y023797D02*
X047364Y023797D01*
X047523Y023638D02*
X052140Y023638D01*
X052140Y023480D02*
X050898Y023480D01*
X050929Y023471D02*
X050645Y023547D01*
X050351Y023547D01*
X050067Y023471D01*
X049812Y023324D01*
X049604Y023116D01*
X049457Y022861D01*
X049380Y022577D01*
X049380Y022283D01*
X049457Y021999D01*
X049604Y021744D01*
X049812Y021536D01*
X050067Y021389D01*
X050351Y021313D01*
X050645Y021313D01*
X050929Y021389D01*
X051184Y021536D01*
X051392Y021744D01*
X051539Y021999D01*
X051615Y022283D01*
X051615Y022577D01*
X051539Y022861D01*
X051392Y023116D01*
X051184Y023324D01*
X050929Y023471D01*
X051187Y023321D02*
X052140Y023321D01*
X052140Y023163D02*
X051346Y023163D01*
X051457Y023004D02*
X052140Y023004D01*
X052140Y022846D02*
X051543Y022846D01*
X051586Y022687D02*
X052140Y022687D01*
X052140Y022529D02*
X051615Y022529D01*
X051615Y022370D02*
X052140Y022370D01*
X052140Y022212D02*
X051596Y022212D01*
X051554Y022053D02*
X052140Y022053D01*
X052140Y021895D02*
X051479Y021895D01*
X051384Y021736D02*
X052140Y021736D01*
X052140Y021578D02*
X051226Y021578D01*
X050982Y021419D02*
X052140Y021419D01*
X052140Y021261D02*
X049240Y021261D01*
X049240Y021419D02*
X050014Y021419D01*
X049770Y021578D02*
X049240Y021578D01*
X049240Y021736D02*
X049612Y021736D01*
X049517Y021895D02*
X049199Y021895D01*
X049108Y022053D02*
X049442Y022053D01*
X049400Y022212D02*
X048949Y022212D01*
X048791Y022370D02*
X049380Y022370D01*
X049380Y022529D02*
X048632Y022529D01*
X048474Y022687D02*
X049410Y022687D01*
X049452Y022846D02*
X048315Y022846D01*
X048157Y023004D02*
X049539Y023004D01*
X049650Y023163D02*
X047998Y023163D01*
X047840Y023321D02*
X049809Y023321D01*
X050097Y023480D02*
X047681Y023480D01*
X049240Y021102D02*
X052140Y021102D01*
X052140Y020944D02*
X049240Y020944D01*
X049240Y020785D02*
X052140Y020785D01*
X052140Y020627D02*
X049240Y020627D01*
X049240Y020468D02*
X052140Y020468D01*
X052140Y020310D02*
X049240Y020310D01*
X049240Y020151D02*
X052140Y020151D01*
X052140Y019993D02*
X049240Y019993D01*
X049240Y019834D02*
X052140Y019834D01*
X052140Y019676D02*
X049240Y019676D01*
X049390Y018680D02*
X051990Y018680D01*
X051990Y014632D01*
X049390Y017232D01*
X049390Y018680D01*
X049390Y018566D02*
X051990Y018566D01*
X051990Y018408D02*
X049390Y018408D01*
X049390Y018249D02*
X051990Y018249D01*
X051990Y018091D02*
X049390Y018091D01*
X049390Y017932D02*
X051990Y017932D01*
X051990Y017774D02*
X049390Y017774D01*
X049390Y017615D02*
X051990Y017615D01*
X051990Y017457D02*
X049390Y017457D01*
X049390Y017298D02*
X051990Y017298D01*
X051990Y017140D02*
X049483Y017140D01*
X049642Y016981D02*
X051990Y016981D01*
X051990Y016823D02*
X049800Y016823D01*
X049959Y016664D02*
X051990Y016664D01*
X051990Y016506D02*
X050117Y016506D01*
X050276Y016347D02*
X051990Y016347D01*
X051990Y016189D02*
X050434Y016189D01*
X050593Y016030D02*
X051990Y016030D01*
X051990Y015872D02*
X050751Y015872D01*
X050910Y015713D02*
X051990Y015713D01*
X051990Y015555D02*
X051068Y015555D01*
X051227Y015396D02*
X051990Y015396D01*
X051990Y015238D02*
X051385Y015238D01*
X051544Y015079D02*
X051990Y015079D01*
X051990Y014921D02*
X051702Y014921D01*
X051861Y014762D02*
X051990Y014762D01*
X047410Y012430D02*
X046660Y012430D01*
X046160Y012930D01*
X046160Y017680D01*
X042910Y020930D01*
X039660Y020930D01*
X038160Y022430D01*
X037660Y022430D01*
X037160Y023180D02*
X036160Y022180D01*
X033410Y022180D01*
X032160Y023430D01*
X030160Y023430D01*
X029660Y022930D01*
X023660Y022930D01*
X022910Y023680D01*
X022910Y024680D01*
X021910Y024680D01*
X021435Y025223D02*
X019970Y025223D01*
X019970Y025065D02*
X021277Y025065D01*
X021190Y024978D02*
X021190Y024382D01*
X021612Y023960D01*
X022190Y023960D01*
X022190Y023382D01*
X022612Y022960D01*
X022838Y022960D01*
X023343Y022455D01*
X023549Y022370D01*
X029595Y022370D01*
X029582Y022305D01*
X029589Y022269D01*
X029448Y021813D01*
X029448Y021684D01*
X029385Y021747D01*
X029228Y021905D01*
X029022Y021990D01*
X021642Y021990D01*
X020436Y023197D01*
X020436Y023571D01*
X020363Y023747D01*
X020228Y023882D01*
X020051Y023955D01*
X019270Y023955D01*
X019160Y023910D01*
X019051Y023955D01*
X018270Y023955D01*
X018093Y023882D01*
X017958Y023747D01*
X017955Y023740D01*
X017720Y023740D01*
X017720Y023960D01*
X018209Y023960D01*
X018369Y024120D01*
X019522Y024120D01*
X019728Y024205D01*
X019885Y024363D01*
X019970Y024569D01*
X019970Y025468D01*
X020255Y025350D01*
X020566Y025350D01*
X020852Y025469D01*
X021072Y025688D01*
X021147Y025870D01*
X022272Y025870D01*
X022478Y025955D01*
X022635Y026113D01*
X022720Y026319D01*
X022720Y027960D01*
X023100Y027960D01*
X023100Y025400D01*
X022612Y025400D01*
X022452Y025240D01*
X022369Y025240D01*
X022209Y025400D01*
X021612Y025400D01*
X021190Y024978D01*
X021190Y024906D02*
X019970Y024906D01*
X019970Y024748D02*
X021190Y024748D01*
X021190Y024589D02*
X019970Y024589D01*
X019913Y024431D02*
X021190Y024431D01*
X021300Y024272D02*
X019794Y024272D01*
X020052Y023955D02*
X022190Y023955D01*
X022190Y023797D02*
X020313Y023797D01*
X020408Y023638D02*
X022190Y023638D01*
X022190Y023480D02*
X020436Y023480D01*
X020436Y023321D02*
X022251Y023321D01*
X022410Y023163D02*
X020470Y023163D01*
X020628Y023004D02*
X022568Y023004D01*
X022953Y022846D02*
X020787Y022846D01*
X020945Y022687D02*
X023111Y022687D01*
X023270Y022529D02*
X021104Y022529D01*
X021262Y022370D02*
X023549Y022370D01*
X023660Y023680D02*
X023660Y030930D01*
X023100Y030200D02*
X023100Y029400D01*
X022720Y029400D01*
X022720Y030200D01*
X023100Y030200D01*
X023100Y030137D02*
X022720Y030137D01*
X022720Y029978D02*
X023100Y029978D01*
X023100Y029820D02*
X022720Y029820D01*
X022720Y029661D02*
X023100Y029661D01*
X023100Y029503D02*
X022720Y029503D01*
X021600Y029290D02*
X021600Y029070D01*
X020735Y029070D01*
X020449Y028951D01*
X020347Y028850D01*
X019473Y028850D01*
X019372Y028951D01*
X019086Y029070D01*
X018175Y029070D01*
X017889Y028951D01*
X017669Y028732D01*
X017550Y028445D01*
X017550Y028205D01*
X017506Y028205D01*
X017221Y028087D01*
X017003Y027869D01*
X016885Y027584D01*
X016885Y027447D01*
X016843Y027405D01*
X016686Y027247D01*
X016600Y027041D01*
X016600Y017069D01*
X016686Y016863D01*
X016843Y016705D01*
X017885Y015663D01*
X017885Y015289D01*
X017958Y015113D01*
X018093Y014978D01*
X018270Y014905D01*
X019051Y014905D01*
X019100Y014925D01*
X019100Y013388D01*
X018940Y013228D01*
X018940Y012632D01*
X019362Y012210D01*
X019959Y012210D01*
X020100Y012352D01*
X020100Y009336D01*
X020100Y009337D01*
X019815Y009455D01*
X019506Y009455D01*
X019221Y009337D01*
X019003Y009119D01*
X018885Y008834D01*
X018885Y008526D01*
X019003Y008241D01*
X019100Y008144D01*
X019100Y006980D01*
X019017Y006896D01*
X018944Y006720D01*
X018944Y005820D01*
X019002Y005680D01*
X018944Y005540D01*
X018944Y004640D01*
X019017Y004464D01*
X019100Y004380D01*
X019100Y004181D01*
X018910Y003991D01*
X018910Y003369D01*
X019100Y003180D01*
X018910Y002991D01*
X018910Y002369D01*
X018930Y002349D01*
X018930Y001035D01*
X019042Y000766D01*
X019088Y000720D01*
X016328Y000720D01*
X016616Y001008D01*
X016860Y001431D01*
X016987Y001904D01*
X016987Y002393D01*
X016860Y002866D01*
X016616Y003289D01*
X016270Y003635D01*
X015846Y003880D01*
X015373Y004006D01*
X014884Y004006D01*
X014412Y003880D01*
X013988Y003635D01*
X013700Y003348D01*
X013700Y028509D01*
X013988Y028221D01*
X014412Y027976D01*
X014884Y027850D01*
X015373Y027850D01*
X015846Y027976D01*
X016270Y028221D01*
X016616Y028567D01*
X016860Y028990D01*
X016987Y029463D01*
X016987Y029952D01*
X016860Y030425D01*
X016616Y030848D01*
X016328Y031136D01*
X017926Y031136D01*
X017900Y031075D01*
X017900Y030785D01*
X017918Y030743D01*
X017889Y030731D01*
X017669Y030512D01*
X017550Y030225D01*
X017550Y029915D01*
X017669Y029628D01*
X017889Y029409D01*
X018175Y029290D01*
X019086Y029290D01*
X019372Y029409D01*
X019592Y029628D01*
X019710Y029915D01*
X019710Y030200D01*
X020110Y030200D01*
X020110Y029915D01*
X020229Y029628D01*
X020449Y029409D01*
X020735Y029290D01*
X021600Y029290D01*
X021600Y029186D02*
X016912Y029186D01*
X016955Y029344D02*
X018045Y029344D01*
X017795Y029503D02*
X016987Y029503D01*
X016987Y029661D02*
X017655Y029661D01*
X017590Y029820D02*
X016987Y029820D01*
X016980Y029978D02*
X017550Y029978D01*
X017550Y030137D02*
X016937Y030137D01*
X016895Y030295D02*
X017579Y030295D01*
X017645Y030454D02*
X016844Y030454D01*
X016752Y030612D02*
X017769Y030612D01*
X017906Y030771D02*
X016661Y030771D01*
X016535Y030929D02*
X017900Y030929D01*
X017905Y031088D02*
X016376Y031088D01*
X013930Y031136D02*
X013700Y030907D01*
X013700Y031136D01*
X013930Y031136D01*
X013881Y031088D02*
X013700Y031088D01*
X013700Y030929D02*
X013723Y030929D01*
X013700Y028393D02*
X013816Y028393D01*
X013700Y028235D02*
X013974Y028235D01*
X014239Y028076D02*
X013700Y028076D01*
X013700Y027918D02*
X014631Y027918D01*
X013700Y027759D02*
X016958Y027759D01*
X016892Y027601D02*
X013700Y027601D01*
X013700Y027442D02*
X016880Y027442D01*
X016722Y027284D02*
X013700Y027284D01*
X013700Y027125D02*
X016635Y027125D01*
X016600Y026967D02*
X013700Y026967D01*
X013700Y026808D02*
X016600Y026808D01*
X016600Y026650D02*
X013700Y026650D01*
X013700Y026491D02*
X016600Y026491D01*
X016600Y026333D02*
X013700Y026333D01*
X013700Y026174D02*
X016600Y026174D01*
X016600Y026016D02*
X013700Y026016D01*
X013700Y025857D02*
X016600Y025857D01*
X016600Y025699D02*
X013700Y025699D01*
X013700Y025540D02*
X016600Y025540D01*
X016600Y025382D02*
X013700Y025382D01*
X013700Y025223D02*
X016600Y025223D01*
X016600Y025065D02*
X013700Y025065D01*
X013700Y024906D02*
X016600Y024906D01*
X016600Y024748D02*
X013700Y024748D01*
X013700Y024589D02*
X016600Y024589D01*
X016600Y024431D02*
X013700Y024431D01*
X013700Y024272D02*
X016600Y024272D01*
X016600Y024114D02*
X013700Y024114D01*
X013700Y023955D02*
X016600Y023955D01*
X016600Y023797D02*
X013700Y023797D01*
X013700Y023638D02*
X016600Y023638D01*
X016600Y023480D02*
X013700Y023480D01*
X013700Y023321D02*
X016600Y023321D01*
X016600Y023163D02*
X013700Y023163D01*
X013700Y023004D02*
X016600Y023004D01*
X016600Y022846D02*
X013700Y022846D01*
X013700Y022687D02*
X016600Y022687D01*
X016600Y022529D02*
X013700Y022529D01*
X013700Y022370D02*
X016600Y022370D01*
X016600Y022212D02*
X013700Y022212D01*
X013700Y022053D02*
X016600Y022053D01*
X016600Y021895D02*
X013700Y021895D01*
X013700Y021736D02*
X016600Y021736D01*
X016600Y021578D02*
X013700Y021578D01*
X013700Y021419D02*
X016600Y021419D01*
X016600Y021261D02*
X013700Y021261D01*
X013700Y021102D02*
X016600Y021102D01*
X016600Y020944D02*
X013700Y020944D01*
X013700Y020785D02*
X016600Y020785D01*
X016600Y020627D02*
X013700Y020627D01*
X013700Y020468D02*
X016600Y020468D01*
X016600Y020310D02*
X013700Y020310D01*
X013700Y020151D02*
X016600Y020151D01*
X016600Y019993D02*
X013700Y019993D01*
X013700Y019834D02*
X016600Y019834D01*
X016600Y019676D02*
X013700Y019676D01*
X013700Y019517D02*
X016600Y019517D01*
X016600Y019359D02*
X013700Y019359D01*
X013700Y019200D02*
X016600Y019200D01*
X016600Y019042D02*
X013700Y019042D01*
X013700Y018883D02*
X016600Y018883D01*
X016600Y018725D02*
X013700Y018725D01*
X013700Y018566D02*
X016600Y018566D01*
X016600Y018408D02*
X013700Y018408D01*
X013700Y018249D02*
X016600Y018249D01*
X016600Y018091D02*
X013700Y018091D01*
X013700Y017932D02*
X016600Y017932D01*
X016600Y017774D02*
X013700Y017774D01*
X013700Y017615D02*
X016600Y017615D01*
X016600Y017457D02*
X013700Y017457D01*
X013700Y017298D02*
X016600Y017298D01*
X016600Y017140D02*
X013700Y017140D01*
X013700Y016981D02*
X016637Y016981D01*
X016726Y016823D02*
X013700Y016823D01*
X013700Y016664D02*
X016884Y016664D01*
X017043Y016506D02*
X013700Y016506D01*
X013700Y016347D02*
X017201Y016347D01*
X017360Y016189D02*
X013700Y016189D01*
X013700Y016030D02*
X017518Y016030D01*
X017677Y015872D02*
X013700Y015872D01*
X013700Y015713D02*
X017835Y015713D01*
X017885Y015555D02*
X013700Y015555D01*
X013700Y015396D02*
X017885Y015396D01*
X017907Y015238D02*
X013700Y015238D01*
X013700Y015079D02*
X017992Y015079D01*
X018231Y014921D02*
X013700Y014921D01*
X013700Y014762D02*
X019100Y014762D01*
X019100Y014604D02*
X013700Y014604D01*
X013700Y014445D02*
X019100Y014445D01*
X019100Y014287D02*
X013700Y014287D01*
X013700Y014128D02*
X019100Y014128D01*
X019100Y013970D02*
X013700Y013970D01*
X013700Y013811D02*
X019100Y013811D01*
X019100Y013653D02*
X013700Y013653D01*
X013700Y013494D02*
X019100Y013494D01*
X019048Y013336D02*
X013700Y013336D01*
X013700Y013177D02*
X018940Y013177D01*
X018940Y013019D02*
X013700Y013019D01*
X013700Y012860D02*
X018940Y012860D01*
X018940Y012702D02*
X013700Y012702D01*
X013700Y012543D02*
X019029Y012543D01*
X019188Y012385D02*
X013700Y012385D01*
X013700Y012226D02*
X019346Y012226D01*
X019975Y012226D02*
X020100Y012226D01*
X020100Y012068D02*
X013700Y012068D01*
X013700Y011909D02*
X020100Y011909D01*
X020100Y011751D02*
X013700Y011751D01*
X013700Y011592D02*
X020100Y011592D01*
X020100Y011434D02*
X013700Y011434D01*
X013700Y011275D02*
X020100Y011275D01*
X020100Y011117D02*
X013700Y011117D01*
X013700Y010958D02*
X020100Y010958D01*
X020100Y010800D02*
X013700Y010800D01*
X013700Y010641D02*
X020100Y010641D01*
X020100Y010483D02*
X013700Y010483D01*
X013700Y010324D02*
X020100Y010324D01*
X020100Y010166D02*
X013700Y010166D01*
X013700Y010007D02*
X020100Y010007D01*
X020100Y009849D02*
X013700Y009849D01*
X013700Y009690D02*
X020100Y009690D01*
X020100Y009532D02*
X013700Y009532D01*
X013700Y009373D02*
X019308Y009373D01*
X019098Y009215D02*
X013700Y009215D01*
X013700Y009056D02*
X018977Y009056D01*
X018911Y008898D02*
X013700Y008898D01*
X013700Y008739D02*
X018885Y008739D01*
X018885Y008581D02*
X013700Y008581D01*
X013700Y008422D02*
X018928Y008422D01*
X018994Y008264D02*
X013700Y008264D01*
X013700Y008105D02*
X019100Y008105D01*
X019100Y007947D02*
X013700Y007947D01*
X013700Y007788D02*
X019100Y007788D01*
X019100Y007630D02*
X013700Y007630D01*
X013700Y007471D02*
X019100Y007471D01*
X019100Y007313D02*
X013700Y007313D01*
X013700Y007154D02*
X019100Y007154D01*
X019100Y006996D02*
X013700Y006996D01*
X013700Y006837D02*
X018993Y006837D01*
X018944Y006679D02*
X013700Y006679D01*
X013700Y006520D02*
X018944Y006520D01*
X018944Y006362D02*
X013700Y006362D01*
X013700Y006203D02*
X018944Y006203D01*
X018944Y006045D02*
X013700Y006045D01*
X013700Y005886D02*
X018944Y005886D01*
X018983Y005728D02*
X013700Y005728D01*
X013700Y005569D02*
X018956Y005569D01*
X018944Y005411D02*
X013700Y005411D01*
X013700Y005252D02*
X018944Y005252D01*
X018944Y005094D02*
X013700Y005094D01*
X013700Y004935D02*
X018944Y004935D01*
X018944Y004777D02*
X013700Y004777D01*
X013700Y004618D02*
X018953Y004618D01*
X019021Y004460D02*
X013700Y004460D01*
X013700Y004301D02*
X019100Y004301D01*
X019062Y004143D02*
X013700Y004143D01*
X013700Y003984D02*
X014800Y003984D01*
X014318Y003826D02*
X013700Y003826D01*
X013700Y003667D02*
X014043Y003667D01*
X013861Y003509D02*
X013700Y003509D01*
X013700Y003350D02*
X013703Y003350D01*
X015457Y003984D02*
X018910Y003984D01*
X018910Y003826D02*
X015940Y003826D01*
X016215Y003667D02*
X018910Y003667D01*
X018910Y003509D02*
X016396Y003509D01*
X016555Y003350D02*
X018930Y003350D01*
X019088Y003192D02*
X016672Y003192D01*
X016764Y003033D02*
X018953Y003033D01*
X018910Y002875D02*
X016855Y002875D01*
X016900Y002716D02*
X018910Y002716D01*
X018910Y002558D02*
X016943Y002558D01*
X016985Y002399D02*
X018910Y002399D01*
X018930Y002241D02*
X016987Y002241D01*
X016987Y002082D02*
X018930Y002082D01*
X018930Y001924D02*
X016987Y001924D01*
X016950Y001765D02*
X018930Y001765D01*
X018930Y001607D02*
X016907Y001607D01*
X016865Y001448D02*
X018930Y001448D01*
X018930Y001290D02*
X016778Y001290D01*
X016687Y001131D02*
X018930Y001131D01*
X018956Y000973D02*
X016580Y000973D01*
X016422Y000814D02*
X019022Y000814D01*
X019660Y003680D02*
X019660Y005306D01*
X019660Y006054D02*
X019660Y008680D01*
X020013Y009373D02*
X020100Y009373D01*
X021660Y009680D02*
X021660Y006054D01*
X020660Y006054D02*
X020660Y014430D01*
X023160Y016930D01*
X024910Y016930D01*
X024092Y017490D02*
X023512Y017490D01*
X023950Y017928D01*
X023950Y017787D01*
X024060Y017522D01*
X024092Y017490D01*
X024022Y017615D02*
X023637Y017615D01*
X023796Y017774D02*
X023956Y017774D01*
X024910Y017930D02*
X025660Y017930D01*
X026160Y017430D01*
X032160Y017430D01*
X035160Y020430D01*
X037660Y020430D01*
X038432Y020944D02*
X038855Y020944D01*
X038696Y021102D02*
X038544Y021102D01*
X038533Y020785D02*
X039013Y020785D01*
X039172Y020627D02*
X038598Y020627D01*
X038620Y020468D02*
X039330Y020468D01*
X039700Y020310D02*
X038620Y020310D01*
X038564Y020151D02*
X039757Y020151D01*
X040660Y019430D02*
X042910Y019430D01*
X045160Y017180D01*
X045160Y007180D01*
X046220Y007154D02*
X049100Y007154D01*
X049100Y006996D02*
X046220Y006996D01*
X046220Y006837D02*
X049025Y006837D01*
X048867Y006679D02*
X046220Y006679D01*
X046200Y006520D02*
X048708Y006520D01*
X048280Y006362D02*
X046134Y006362D01*
X046127Y006203D02*
X048087Y006203D01*
X047972Y006045D02*
X046127Y006045D01*
X046127Y005886D02*
X047907Y005886D01*
X047885Y005728D02*
X046127Y005728D01*
X046127Y005569D02*
X047885Y005569D01*
X047933Y005411D02*
X046127Y005411D01*
X046098Y005252D02*
X047998Y005252D01*
X048150Y005094D02*
X046104Y005094D01*
X046127Y004935D02*
X048433Y004935D01*
X048660Y005680D02*
X049660Y006680D01*
X049660Y008680D01*
X049100Y007788D02*
X046220Y007788D01*
X046220Y007630D02*
X049100Y007630D01*
X049100Y007471D02*
X046220Y007471D01*
X046220Y007313D02*
X049100Y007313D01*
X048026Y007947D02*
X047165Y007947D01*
X046655Y007947D02*
X046220Y007947D01*
X046220Y008105D02*
X046389Y008105D01*
X046244Y008264D02*
X046220Y008264D01*
X046220Y009040D02*
X046220Y009828D01*
X046641Y009408D01*
X046471Y009337D01*
X046253Y009119D01*
X046220Y009040D01*
X046220Y009056D02*
X046227Y009056D01*
X046220Y009215D02*
X046348Y009215D01*
X046220Y009373D02*
X046558Y009373D01*
X046517Y009532D02*
X046220Y009532D01*
X046220Y009690D02*
X046358Y009690D01*
X043100Y012532D02*
X042922Y012710D01*
X043088Y012710D01*
X043100Y012698D01*
X043100Y012532D01*
X043100Y012543D02*
X043089Y012543D01*
X043097Y012702D02*
X042931Y012702D01*
X042410Y011430D02*
X041910Y011430D01*
X042470Y010710D02*
X042600Y010710D01*
X042600Y009641D01*
X042471Y009587D01*
X042470Y009586D01*
X042470Y010710D01*
X042470Y010641D02*
X042600Y010641D01*
X042600Y010483D02*
X042470Y010483D01*
X042470Y010324D02*
X042600Y010324D01*
X042600Y010166D02*
X042470Y010166D01*
X042470Y010007D02*
X042600Y010007D01*
X042600Y009849D02*
X042470Y009849D01*
X042470Y009690D02*
X042600Y009690D01*
X041350Y008739D02*
X041114Y008739D01*
X041350Y008581D02*
X034370Y008581D01*
X034522Y008739D02*
X037207Y008739D01*
X037660Y009430D02*
X034410Y009430D01*
X031160Y006054D01*
X030444Y006045D02*
X029720Y006045D01*
X029720Y006203D02*
X030444Y006203D01*
X030444Y006362D02*
X029720Y006362D01*
X029720Y006520D02*
X030444Y006520D01*
X030444Y006679D02*
X029720Y006679D01*
X029720Y006837D02*
X030493Y006837D01*
X030517Y006896D02*
X030444Y006720D01*
X030444Y005820D01*
X030502Y005680D01*
X030444Y005540D01*
X030444Y004640D01*
X030517Y004464D01*
X030600Y004380D01*
X030600Y004301D01*
X030600Y004301D01*
X030471Y004430D01*
X029850Y004430D01*
X029720Y004301D01*
X029721Y004301D01*
X029720Y004301D02*
X029720Y007024D01*
X029721Y007023D01*
X030006Y006905D01*
X030315Y006905D01*
X030600Y007023D01*
X030697Y007120D01*
X031409Y007120D01*
X031394Y007104D01*
X030829Y007104D01*
X030652Y007031D01*
X030517Y006896D01*
X030534Y006996D02*
X030616Y006996D01*
X029787Y006996D02*
X029720Y006996D01*
X030160Y007680D02*
X031660Y007680D01*
X033910Y009930D01*
X036910Y009930D01*
X037410Y010430D01*
X037660Y010430D01*
X038496Y010007D02*
X039541Y010007D01*
X039821Y009849D02*
X038500Y009849D01*
X038572Y009690D02*
X039749Y009690D01*
X039700Y009532D02*
X038620Y009532D01*
X038620Y009373D02*
X039700Y009373D01*
X039730Y009215D02*
X038590Y009215D01*
X038525Y009056D02*
X039796Y009056D01*
X039935Y008898D02*
X038386Y008898D01*
X038114Y008739D02*
X040207Y008739D01*
X041043Y008105D02*
X033912Y008105D01*
X033760Y007947D02*
X040915Y007947D01*
X040850Y007788D02*
X033607Y007788D01*
X033454Y007630D02*
X040073Y007630D01*
X039855Y007471D02*
X033302Y007471D01*
X033149Y007313D02*
X039730Y007313D01*
X039132Y007154D02*
X032997Y007154D01*
X032844Y006996D02*
X038879Y006996D01*
X038740Y006837D02*
X032691Y006837D01*
X032539Y006679D02*
X038674Y006679D01*
X038635Y006520D02*
X032386Y006520D01*
X032234Y006362D02*
X038635Y006362D01*
X038665Y006203D02*
X032081Y006203D01*
X031929Y006045D02*
X038680Y006045D01*
X038680Y005886D02*
X031877Y005886D01*
X031838Y005728D02*
X038680Y005728D01*
X038680Y005569D02*
X031864Y005569D01*
X031877Y005411D02*
X038680Y005411D01*
X038680Y005252D02*
X031877Y005252D01*
X031877Y005094D02*
X038680Y005094D01*
X038680Y004935D02*
X031877Y004935D01*
X031877Y004777D02*
X038680Y004777D01*
X038680Y004618D02*
X031867Y004618D01*
X031799Y004460D02*
X038680Y004460D01*
X038680Y004301D02*
X032600Y004301D01*
X032759Y004143D02*
X038680Y004143D01*
X037948Y003984D02*
X032910Y003984D01*
X032910Y003826D02*
X037789Y003826D01*
X037702Y003667D02*
X032910Y003667D01*
X032910Y003509D02*
X037637Y003509D01*
X037635Y003350D02*
X032891Y003350D01*
X032733Y003192D02*
X037635Y003192D01*
X037635Y003033D02*
X032868Y003033D01*
X032910Y002875D02*
X037635Y002875D01*
X037635Y002716D02*
X032910Y002716D01*
X032910Y002558D02*
X037655Y002558D01*
X037680Y002399D02*
X032910Y002399D01*
X032782Y002241D02*
X037680Y002241D01*
X037680Y002082D02*
X032623Y002082D01*
X031698Y002082D02*
X031623Y002082D01*
X030890Y001924D02*
X037680Y001924D01*
X040410Y005554D02*
X040410Y006930D01*
X040747Y007630D02*
X040850Y007630D01*
X041202Y008264D02*
X034065Y008264D01*
X034217Y008422D02*
X041350Y008422D01*
X040660Y010430D02*
X039910Y010430D01*
X039410Y010805D01*
X038635Y010800D02*
X038527Y010800D01*
X038592Y010641D02*
X038639Y010641D01*
X038620Y010483D02*
X038705Y010483D01*
X038620Y010324D02*
X038795Y010324D01*
X038953Y010166D02*
X038570Y010166D01*
X038635Y010958D02*
X038447Y010958D01*
X038550Y011117D02*
X038700Y011117D01*
X038784Y011275D02*
X038615Y011275D01*
X038620Y011434D02*
X038942Y011434D01*
X038613Y011592D02*
X039708Y011592D01*
X039774Y011751D02*
X038547Y011751D01*
X037660Y011430D02*
X037410Y011430D01*
X036410Y010430D01*
X033410Y010430D01*
X031660Y008680D01*
X030160Y008680D01*
X030160Y009680D02*
X031660Y009680D01*
X032910Y010930D01*
X035910Y010930D01*
X036410Y011430D01*
X036410Y011930D01*
X036910Y012430D01*
X037660Y012430D01*
X037660Y013430D02*
X036160Y013430D01*
X035610Y012880D01*
X035610Y011680D01*
X034926Y011909D02*
X034395Y011909D01*
X034430Y011823D02*
X034332Y012060D01*
X034982Y012710D01*
X035050Y012710D01*
X035050Y012138D01*
X035000Y012088D01*
X034890Y011823D01*
X034890Y011537D01*
X034910Y011490D01*
X034411Y011490D01*
X034430Y011537D01*
X034430Y011823D01*
X034430Y011751D02*
X034890Y011751D01*
X034890Y011592D02*
X034430Y011592D01*
X034340Y012068D02*
X034992Y012068D01*
X035050Y012226D02*
X034498Y012226D01*
X034657Y012385D02*
X035050Y012385D01*
X035050Y012543D02*
X034815Y012543D01*
X034974Y012702D02*
X035050Y012702D01*
X034910Y013430D02*
X035410Y013930D01*
X037160Y013930D01*
X037660Y014430D01*
X036842Y014870D02*
X036810Y014838D01*
X036798Y014810D01*
X036739Y014870D01*
X036842Y014870D01*
X036160Y014430D02*
X036160Y015430D01*
X037660Y015430D01*
X038410Y015430D01*
X039410Y016430D01*
X038910Y016930D02*
X042660Y016930D01*
X042489Y015620D02*
X042832Y015620D01*
X042690Y015478D01*
X042690Y014990D01*
X042630Y014990D01*
X042630Y015478D01*
X042489Y015620D01*
X042554Y015555D02*
X042767Y015555D01*
X042690Y015396D02*
X042630Y015396D01*
X042630Y015238D02*
X042690Y015238D01*
X042690Y015079D02*
X042630Y015079D01*
X041910Y015180D02*
X041410Y015180D01*
X041160Y015430D01*
X040660Y015430D01*
X040660Y014430D02*
X043410Y014430D01*
X043410Y015180D01*
X044660Y016930D02*
X043160Y018430D01*
X040660Y018430D01*
X038718Y017457D02*
X038620Y017457D01*
X038910Y016930D02*
X038410Y016430D01*
X037660Y016430D01*
X036160Y016430D01*
X035642Y015930D02*
X035440Y015728D01*
X035440Y015132D01*
X035582Y014990D01*
X035369Y014990D01*
X035209Y015150D01*
X034612Y015150D01*
X034190Y014728D01*
X034190Y014132D01*
X034392Y013930D01*
X034190Y013728D01*
X034190Y013502D01*
X033393Y012705D01*
X033236Y012547D01*
X033150Y012341D01*
X033150Y012138D01*
X033100Y012088D01*
X032990Y011823D01*
X032990Y011537D01*
X033010Y011490D01*
X032799Y011490D01*
X032593Y011405D01*
X031428Y010240D01*
X030697Y010240D01*
X030600Y010337D01*
X030315Y010455D01*
X030006Y010455D01*
X029957Y010435D01*
X030885Y011363D01*
X030970Y011569D01*
X030970Y012541D01*
X030885Y012747D01*
X030728Y012905D01*
X030228Y013405D01*
X030167Y013430D01*
X030228Y013455D01*
X031232Y014460D01*
X031459Y014460D01*
X031880Y014882D01*
X031880Y015478D01*
X031489Y015870D01*
X034022Y015870D01*
X034228Y015955D01*
X035142Y016870D01*
X035582Y016870D01*
X035440Y016728D01*
X035440Y016132D01*
X035642Y015930D01*
X035584Y015872D02*
X034025Y015872D01*
X034302Y016030D02*
X035542Y016030D01*
X035440Y016189D02*
X034461Y016189D01*
X034619Y016347D02*
X035440Y016347D01*
X035440Y016506D02*
X034778Y016506D01*
X034936Y016664D02*
X035440Y016664D01*
X035535Y016823D02*
X035095Y016823D01*
X034910Y017430D02*
X033910Y016430D01*
X027410Y016430D01*
X026660Y015680D01*
X026660Y014930D01*
X025660Y013930D01*
X024910Y013930D01*
X023410Y013930D01*
X022660Y013180D01*
X022660Y012430D01*
X023660Y011430D01*
X023660Y006270D01*
X024660Y006270D02*
X024660Y007680D01*
X025220Y007144D02*
X025318Y007241D01*
X025436Y007526D01*
X025436Y007834D01*
X025318Y008119D01*
X025100Y008337D01*
X024815Y008455D01*
X024506Y008455D01*
X024221Y008337D01*
X024220Y008336D01*
X024220Y011362D01*
X024263Y011320D01*
X024527Y011210D01*
X024741Y011210D01*
X024765Y011200D01*
X025358Y011200D01*
X025661Y010897D01*
X025635Y010834D01*
X025635Y010526D01*
X025753Y010241D01*
X025971Y010023D01*
X026256Y009905D01*
X026565Y009905D01*
X026850Y010023D01*
X027068Y010241D01*
X027186Y010526D01*
X027186Y010834D01*
X027140Y010944D01*
X027140Y011325D01*
X027029Y011594D01*
X026824Y011799D01*
X026824Y011799D01*
X026279Y012344D01*
X026074Y012549D01*
X025816Y012656D01*
X025870Y012787D01*
X025870Y013073D01*
X025761Y013338D01*
X025729Y013370D01*
X025772Y013370D01*
X025978Y013455D01*
X026350Y013828D01*
X026350Y013319D01*
X026436Y013113D01*
X026593Y012955D01*
X027093Y012455D01*
X027151Y012431D01*
X027152Y012430D01*
X027060Y012338D01*
X026950Y012073D01*
X026950Y011787D01*
X027060Y011522D01*
X027263Y011320D01*
X027527Y011210D01*
X028294Y011210D01*
X028558Y011320D01*
X028609Y011370D01*
X028874Y011370D01*
X028971Y011273D01*
X029141Y011202D01*
X028843Y010905D01*
X028686Y010747D01*
X028600Y010541D01*
X028600Y004301D01*
X028600Y004301D01*
X028471Y004430D01*
X027850Y004430D01*
X027410Y003991D01*
X027410Y003369D01*
X027600Y003180D01*
X027410Y002991D01*
X027410Y002369D01*
X027430Y002349D01*
X027430Y001910D01*
X025932Y001910D01*
X026135Y002113D01*
X026220Y002319D01*
X026220Y004380D01*
X026304Y004464D01*
X026377Y004640D01*
X026377Y005540D01*
X026318Y005680D01*
X026377Y005820D01*
X026377Y006014D01*
X026494Y006155D01*
X026565Y006155D01*
X026850Y006273D01*
X027068Y006491D01*
X027186Y006776D01*
X027186Y007084D01*
X027068Y007369D01*
X026850Y007587D01*
X026565Y007705D01*
X026256Y007705D01*
X025971Y007587D01*
X025753Y007369D01*
X025643Y007104D01*
X025329Y007104D01*
X025220Y007060D01*
X025220Y007144D01*
X025231Y007154D02*
X025664Y007154D01*
X025730Y007313D02*
X025347Y007313D01*
X025413Y007471D02*
X025855Y007471D01*
X026073Y007630D02*
X025436Y007630D01*
X025436Y007788D02*
X028600Y007788D01*
X028600Y007630D02*
X026747Y007630D01*
X026966Y007471D02*
X028600Y007471D01*
X028600Y007313D02*
X027091Y007313D01*
X027157Y007154D02*
X028600Y007154D01*
X028600Y006996D02*
X027186Y006996D01*
X027186Y006837D02*
X028600Y006837D01*
X028600Y006679D02*
X027145Y006679D01*
X027080Y006520D02*
X028600Y006520D01*
X028600Y006362D02*
X026938Y006362D01*
X026681Y006203D02*
X028600Y006203D01*
X028600Y006045D02*
X026402Y006045D01*
X026377Y005886D02*
X028600Y005886D01*
X028600Y005728D02*
X026338Y005728D01*
X026364Y005569D02*
X028600Y005569D01*
X028600Y005411D02*
X026377Y005411D01*
X026377Y005252D02*
X028600Y005252D01*
X028600Y005094D02*
X026377Y005094D01*
X026377Y004935D02*
X028600Y004935D01*
X028600Y004777D02*
X026377Y004777D01*
X026367Y004618D02*
X028600Y004618D01*
X028600Y004460D02*
X026299Y004460D01*
X026220Y004301D02*
X027721Y004301D01*
X027562Y004143D02*
X026220Y004143D01*
X026220Y003984D02*
X027410Y003984D01*
X027410Y003826D02*
X026220Y003826D01*
X026220Y003667D02*
X027410Y003667D01*
X027410Y003509D02*
X026220Y003509D01*
X026220Y003350D02*
X027430Y003350D01*
X027588Y003192D02*
X026220Y003192D01*
X026220Y003033D02*
X027453Y003033D01*
X027410Y002875D02*
X026220Y002875D01*
X026220Y002716D02*
X027410Y002716D01*
X027410Y002558D02*
X026220Y002558D01*
X026220Y002399D02*
X027410Y002399D01*
X027430Y002241D02*
X026188Y002241D01*
X026104Y002082D02*
X027430Y002082D01*
X027430Y001924D02*
X025946Y001924D01*
X025660Y002430D02*
X025160Y001930D01*
X023410Y001930D01*
X022660Y002680D01*
X022618Y001930D02*
X022638Y001910D01*
X022390Y001910D01*
X022390Y001930D01*
X022618Y001930D01*
X022625Y001924D02*
X022390Y001924D01*
X023660Y002680D02*
X024660Y003680D01*
X024660Y005090D01*
X023660Y005090D02*
X023660Y003680D01*
X022660Y003680D02*
X022660Y011180D01*
X021660Y012180D01*
X021660Y013180D01*
X022910Y014430D01*
X025410Y014430D01*
X025910Y014930D01*
X025910Y015680D01*
X027160Y016930D01*
X027910Y016930D01*
X032410Y016930D01*
X035160Y019680D01*
X037410Y019680D01*
X037660Y019430D01*
X036842Y018990D02*
X035947Y018990D01*
X035850Y019087D01*
X035770Y019120D01*
X036769Y019120D01*
X036810Y019022D01*
X036842Y018990D01*
X036802Y019042D02*
X035895Y019042D01*
X035410Y018430D02*
X037660Y018430D01*
X037660Y017430D02*
X034910Y017430D01*
X034659Y017932D02*
X034204Y017932D01*
X034046Y017774D02*
X034462Y017774D01*
X034593Y017905D02*
X033678Y016990D01*
X033262Y016990D01*
X034635Y018363D01*
X034635Y018276D01*
X034753Y017991D01*
X034767Y017977D01*
X034593Y017905D01*
X034712Y018091D02*
X034363Y018091D01*
X034521Y018249D02*
X034646Y018249D01*
X034303Y017615D02*
X033887Y017615D01*
X033729Y017457D02*
X034145Y017457D01*
X033986Y017298D02*
X033570Y017298D01*
X033412Y017140D02*
X033828Y017140D01*
X032504Y018566D02*
X031565Y018566D01*
X031459Y018460D02*
X031880Y018882D01*
X031880Y019478D01*
X031485Y019873D01*
X031793Y019943D01*
X032240Y020201D01*
X032240Y020201D01*
X032240Y020201D01*
X032591Y020580D01*
X032815Y021045D01*
X032892Y021555D01*
X032829Y021969D01*
X033093Y021705D01*
X033299Y021620D01*
X034650Y021620D01*
X034635Y021584D01*
X034635Y021276D01*
X034753Y020991D01*
X034841Y020903D01*
X034686Y020747D01*
X031928Y017990D01*
X028870Y017990D01*
X028870Y018073D01*
X028761Y018338D01*
X028558Y018540D01*
X028294Y018650D01*
X028223Y018650D01*
X027640Y019232D01*
X027640Y019825D01*
X027630Y019849D01*
X027630Y019978D01*
X027539Y020069D01*
X027529Y020094D01*
X027503Y020120D01*
X027928Y020120D01*
X028940Y019108D01*
X028940Y018882D01*
X029362Y018460D01*
X029959Y018460D01*
X030380Y018882D01*
X030380Y019168D01*
X030440Y019108D01*
X030440Y018882D01*
X030862Y018460D01*
X031459Y018460D01*
X031723Y018725D02*
X032663Y018725D01*
X032821Y018883D02*
X031880Y018883D01*
X031880Y019042D02*
X032980Y019042D01*
X033138Y019200D02*
X031880Y019200D01*
X031880Y019359D02*
X033297Y019359D01*
X033455Y019517D02*
X031842Y019517D01*
X031683Y019676D02*
X033614Y019676D01*
X033772Y019834D02*
X031525Y019834D01*
X031793Y019943D02*
X031793Y019943D01*
X031878Y019993D02*
X033931Y019993D01*
X034089Y020151D02*
X032153Y020151D01*
X032340Y020310D02*
X034248Y020310D01*
X034406Y020468D02*
X032487Y020468D01*
X032591Y020580D02*
X032591Y020580D01*
X032613Y020627D02*
X034565Y020627D01*
X034723Y020785D02*
X032690Y020785D01*
X032766Y020944D02*
X034800Y020944D01*
X034707Y021102D02*
X032823Y021102D01*
X032815Y021045D02*
X032815Y021045D01*
X032847Y021261D02*
X034641Y021261D01*
X034635Y021419D02*
X032871Y021419D01*
X032888Y021578D02*
X034635Y021578D01*
X035410Y021430D02*
X037660Y021430D01*
X036842Y021990D02*
X036762Y021990D01*
X036805Y022033D01*
X036810Y022022D01*
X036842Y021990D01*
X037160Y023180D02*
X038660Y023180D01*
X040410Y021430D01*
X040660Y021430D01*
X041419Y021930D02*
X041511Y022022D01*
X041620Y022287D01*
X041620Y022438D01*
X041747Y022311D01*
X042568Y021490D01*
X041620Y021490D01*
X041620Y021573D01*
X041511Y021838D01*
X041419Y021930D01*
X041454Y021895D02*
X042163Y021895D01*
X042005Y022053D02*
X041524Y022053D01*
X041589Y022212D02*
X041846Y022212D01*
X041688Y022370D02*
X041620Y022370D01*
X041553Y021736D02*
X042322Y021736D01*
X042480Y021578D02*
X041619Y021578D01*
X040660Y022430D02*
X039160Y023930D01*
X036910Y023930D01*
X035910Y022930D01*
X033660Y022930D01*
X032410Y024180D01*
X030035Y024180D01*
X029535Y023680D01*
X029160Y023680D01*
X029160Y024680D01*
X028160Y024680D01*
X028220Y025400D02*
X028220Y025870D01*
X028522Y025870D01*
X028728Y025955D01*
X028885Y026113D01*
X028970Y026319D01*
X028970Y027960D01*
X029459Y027960D01*
X029880Y028382D01*
X029880Y028978D01*
X029459Y029400D01*
X028970Y029400D01*
X028970Y030200D01*
X030050Y030200D01*
X030050Y029915D01*
X030169Y029628D01*
X030389Y029409D01*
X030675Y029290D01*
X031586Y029290D01*
X031872Y029409D01*
X032092Y029628D01*
X032210Y029915D01*
X032210Y030200D01*
X032610Y030200D01*
X032610Y029915D01*
X032729Y029628D01*
X032949Y029409D01*
X033235Y029290D01*
X034100Y029290D01*
X034100Y029070D01*
X033235Y029070D01*
X032949Y028951D01*
X032847Y028850D01*
X031973Y028850D01*
X031872Y028951D01*
X031586Y029070D01*
X030675Y029070D01*
X030389Y028951D01*
X030169Y028732D01*
X030050Y028445D01*
X030050Y028135D01*
X030169Y027848D01*
X030389Y027629D01*
X030675Y027510D01*
X031350Y027510D01*
X031350Y027273D01*
X031249Y027172D01*
X031130Y026885D01*
X031130Y025975D01*
X031249Y025688D01*
X031350Y025587D01*
X031350Y025240D01*
X030869Y025240D01*
X030709Y025400D01*
X030112Y025400D01*
X029785Y025073D01*
X029459Y025400D01*
X028862Y025400D01*
X028702Y025240D01*
X028619Y025240D01*
X028459Y025400D01*
X028220Y025400D01*
X028220Y025540D02*
X031350Y025540D01*
X031350Y025382D02*
X030727Y025382D01*
X031245Y025699D02*
X028220Y025699D01*
X028220Y025857D02*
X031179Y025857D01*
X031130Y026016D02*
X028788Y026016D01*
X028910Y026174D02*
X031130Y026174D01*
X031130Y026333D02*
X028970Y026333D01*
X028970Y026491D02*
X031130Y026491D01*
X031130Y026650D02*
X028970Y026650D01*
X028970Y026808D02*
X031130Y026808D01*
X031164Y026967D02*
X028970Y026967D01*
X028970Y027125D02*
X031230Y027125D01*
X031350Y027284D02*
X028970Y027284D01*
X028970Y027442D02*
X031350Y027442D01*
X031130Y028290D02*
X031910Y028290D01*
X031910Y026430D01*
X031910Y024680D01*
X030410Y024680D01*
X029935Y025223D02*
X029636Y025223D01*
X029477Y025382D02*
X030094Y025382D01*
X028844Y025382D02*
X028477Y025382D01*
X028410Y026430D02*
X027660Y026430D01*
X027660Y024180D01*
X028160Y023680D01*
X027440Y023608D02*
X027440Y023490D01*
X024630Y023490D01*
X024630Y023978D01*
X024554Y024055D01*
X024619Y024120D01*
X025772Y024120D01*
X025978Y024205D01*
X026135Y024363D01*
X026220Y024569D01*
X026220Y025468D01*
X026505Y025350D01*
X026816Y025350D01*
X027100Y025468D01*
X027100Y024069D01*
X027186Y023863D01*
X027343Y023705D01*
X027440Y023608D01*
X027410Y023638D02*
X024630Y023638D01*
X024630Y023797D02*
X027252Y023797D01*
X027147Y023955D02*
X024630Y023955D01*
X024612Y024114D02*
X027100Y024114D01*
X027100Y024272D02*
X026044Y024272D01*
X026163Y024431D02*
X027100Y024431D01*
X027100Y024589D02*
X026220Y024589D01*
X026220Y024748D02*
X027100Y024748D01*
X027100Y024906D02*
X026220Y024906D01*
X026220Y025065D02*
X027100Y025065D01*
X027100Y025223D02*
X026220Y025223D01*
X026220Y025382D02*
X026429Y025382D01*
X026892Y025382D02*
X027100Y025382D01*
X026660Y026430D02*
X027660Y026430D01*
X028410Y026430D02*
X028410Y030930D01*
X028970Y030137D02*
X030050Y030137D01*
X030050Y029978D02*
X028970Y029978D01*
X028970Y029820D02*
X030090Y029820D01*
X030155Y029661D02*
X028970Y029661D01*
X028970Y029503D02*
X030295Y029503D01*
X030545Y029344D02*
X029515Y029344D01*
X029673Y029186D02*
X034100Y029186D01*
X033132Y029027D02*
X031689Y029027D01*
X031955Y028869D02*
X032866Y028869D01*
X033105Y029344D02*
X031716Y029344D01*
X031966Y029503D02*
X032855Y029503D01*
X032715Y029661D02*
X032105Y029661D01*
X032171Y029820D02*
X032650Y029820D01*
X032610Y029978D02*
X032210Y029978D01*
X032210Y030137D02*
X032610Y030137D01*
X033660Y030070D02*
X033660Y030930D01*
X034660Y030930D02*
X034660Y026430D01*
X033910Y026430D01*
X033910Y024180D01*
X034410Y023680D01*
X035410Y023680D02*
X035410Y024680D01*
X034410Y024680D01*
X034470Y025400D02*
X034470Y025870D01*
X034772Y025870D01*
X034978Y025955D01*
X035135Y026113D01*
X035220Y026319D01*
X035220Y027960D01*
X035709Y027960D01*
X036130Y028382D01*
X036130Y028978D01*
X035709Y029400D01*
X035220Y029400D01*
X035220Y030200D01*
X036594Y030200D01*
X036594Y030198D01*
X036594Y029162D01*
X036696Y028914D01*
X036696Y027285D01*
X036784Y027072D01*
X036440Y026728D01*
X036440Y026132D01*
X036862Y025710D01*
X037459Y025710D01*
X037619Y025870D01*
X039522Y025870D01*
X039728Y025955D01*
X039885Y026113D01*
X039970Y026319D01*
X039970Y027948D01*
X041392Y029370D01*
X041405Y029370D01*
X041385Y029321D01*
X041385Y028539D01*
X041428Y028437D01*
X041385Y028334D01*
X041385Y028219D01*
X041322Y028245D01*
X040998Y028245D01*
X040699Y028121D01*
X040470Y027891D01*
X040346Y027592D01*
X040346Y027268D01*
X040470Y026969D01*
X040575Y026863D01*
X040440Y026728D01*
X040440Y026132D01*
X040862Y025710D01*
X041430Y025710D01*
X041430Y025482D01*
X041403Y025455D01*
X041209Y025650D01*
X040612Y025650D01*
X040190Y025228D01*
X040190Y024632D01*
X040612Y024210D01*
X041209Y024210D01*
X041403Y024405D01*
X041430Y024378D01*
X041430Y022918D01*
X041308Y023040D01*
X041044Y023150D01*
X040732Y023150D01*
X039478Y024405D01*
X039272Y024490D01*
X036799Y024490D01*
X036593Y024405D01*
X036130Y023942D01*
X036130Y023978D01*
X035970Y024138D01*
X035970Y024222D01*
X036130Y024382D01*
X036130Y024978D01*
X035709Y025400D01*
X035112Y025400D01*
X034952Y025240D01*
X034869Y025240D01*
X034709Y025400D01*
X034470Y025400D01*
X034470Y025540D02*
X040502Y025540D01*
X040344Y025382D02*
X035727Y025382D01*
X035886Y025223D02*
X040190Y025223D01*
X040190Y025065D02*
X036044Y025065D01*
X036130Y024906D02*
X040190Y024906D01*
X040190Y024748D02*
X036130Y024748D01*
X036130Y024589D02*
X040233Y024589D01*
X040392Y024431D02*
X039415Y024431D01*
X039610Y024272D02*
X040550Y024272D01*
X040086Y023797D02*
X041430Y023797D01*
X041430Y023955D02*
X039927Y023955D01*
X039769Y024114D02*
X041430Y024114D01*
X041430Y024272D02*
X041271Y024272D01*
X041430Y023638D02*
X040244Y023638D01*
X040403Y023480D02*
X041430Y023480D01*
X041430Y023321D02*
X040561Y023321D01*
X040720Y023163D02*
X041430Y023163D01*
X041430Y023004D02*
X041345Y023004D01*
X041319Y025540D02*
X041430Y025540D01*
X041430Y025699D02*
X034470Y025699D01*
X034470Y025857D02*
X036715Y025857D01*
X036557Y026016D02*
X035038Y026016D01*
X035160Y026174D02*
X036440Y026174D01*
X036440Y026333D02*
X035220Y026333D01*
X035220Y026491D02*
X036440Y026491D01*
X036440Y026650D02*
X035220Y026650D01*
X035220Y026808D02*
X036520Y026808D01*
X036679Y026967D02*
X035220Y026967D01*
X035220Y027125D02*
X036762Y027125D01*
X036697Y027284D02*
X035220Y027284D01*
X035220Y027442D02*
X036696Y027442D01*
X036696Y027601D02*
X035220Y027601D01*
X035220Y027759D02*
X036696Y027759D01*
X036696Y027918D02*
X035220Y027918D01*
X035825Y028076D02*
X036696Y028076D01*
X036696Y028235D02*
X035983Y028235D01*
X036130Y028393D02*
X036696Y028393D01*
X036696Y028552D02*
X036130Y028552D01*
X036130Y028710D02*
X036696Y028710D01*
X036696Y028869D02*
X036130Y028869D01*
X036082Y029027D02*
X036649Y029027D01*
X036594Y029186D02*
X035923Y029186D01*
X035765Y029344D02*
X036594Y029344D01*
X036594Y029503D02*
X035220Y029503D01*
X035220Y029661D02*
X036594Y029661D01*
X036594Y029820D02*
X035220Y029820D01*
X035220Y029978D02*
X036594Y029978D01*
X036594Y030137D02*
X035220Y030137D01*
X033690Y028290D02*
X031910Y028290D01*
X032470Y027730D02*
X032847Y027730D01*
X032949Y027629D01*
X033235Y027510D01*
X034100Y027510D01*
X034100Y026990D01*
X033647Y026990D01*
X033572Y027172D01*
X033352Y027391D01*
X033066Y027510D01*
X032755Y027510D01*
X032470Y027392D01*
X032470Y027730D01*
X032470Y027601D02*
X033017Y027601D01*
X033230Y027442D02*
X034100Y027442D01*
X034100Y027284D02*
X033460Y027284D01*
X033591Y027125D02*
X034100Y027125D01*
X033910Y026430D02*
X032910Y026430D01*
X032470Y025468D02*
X032755Y025350D01*
X033066Y025350D01*
X033350Y025468D01*
X033350Y024069D01*
X033376Y024006D01*
X032728Y024655D01*
X032522Y024740D01*
X032470Y024740D01*
X032470Y025468D01*
X032470Y025382D02*
X032679Y025382D01*
X032470Y025223D02*
X033350Y025223D01*
X033350Y025065D02*
X032470Y025065D01*
X032470Y024906D02*
X033350Y024906D01*
X033350Y024748D02*
X032470Y024748D01*
X032793Y024589D02*
X033350Y024589D01*
X033350Y024431D02*
X032952Y024431D01*
X033110Y024272D02*
X033350Y024272D01*
X033350Y024114D02*
X033269Y024114D01*
X033350Y025382D02*
X033142Y025382D01*
X034727Y025382D02*
X035094Y025382D01*
X036130Y024431D02*
X036655Y024431D01*
X036460Y024272D02*
X036021Y024272D01*
X035995Y024114D02*
X036302Y024114D01*
X036143Y023955D02*
X036130Y023955D01*
X037606Y025857D02*
X040715Y025857D01*
X040557Y026016D02*
X039788Y026016D01*
X039910Y026174D02*
X040440Y026174D01*
X040440Y026333D02*
X039970Y026333D01*
X039970Y026491D02*
X040440Y026491D01*
X040440Y026650D02*
X039970Y026650D01*
X039970Y026808D02*
X040520Y026808D01*
X040472Y026967D02*
X039970Y026967D01*
X039970Y027125D02*
X040405Y027125D01*
X040346Y027284D02*
X039970Y027284D01*
X039970Y027442D02*
X040346Y027442D01*
X040349Y027601D02*
X039970Y027601D01*
X039970Y027759D02*
X040415Y027759D01*
X040496Y027918D02*
X039970Y027918D01*
X040098Y028076D02*
X040654Y028076D01*
X040974Y028235D02*
X040257Y028235D01*
X040415Y028393D02*
X041409Y028393D01*
X041385Y028235D02*
X041347Y028235D01*
X041385Y028552D02*
X040574Y028552D01*
X040732Y028710D02*
X041385Y028710D01*
X041385Y028869D02*
X040891Y028869D01*
X041049Y029027D02*
X041385Y029027D01*
X041385Y029186D02*
X041208Y029186D01*
X041366Y029344D02*
X041395Y029344D01*
X041160Y029930D02*
X042160Y029930D01*
X041160Y029930D02*
X039410Y028180D01*
X039410Y026430D01*
X037160Y026430D01*
X038156Y028245D02*
X038156Y028914D01*
X038259Y029162D01*
X038259Y030198D01*
X038258Y030200D01*
X038563Y030200D01*
X038562Y030198D01*
X038562Y029162D01*
X038689Y028856D01*
X038923Y028622D01*
X039020Y028582D01*
X038936Y028497D01*
X038850Y028291D01*
X038850Y027892D01*
X038622Y028121D01*
X038322Y028245D01*
X038156Y028245D01*
X038156Y028393D02*
X038892Y028393D01*
X038850Y028235D02*
X038347Y028235D01*
X038666Y028076D02*
X038850Y028076D01*
X038850Y027918D02*
X038825Y027918D01*
X038990Y028552D02*
X038156Y028552D01*
X038156Y028710D02*
X038835Y028710D01*
X038684Y028869D02*
X038156Y028869D01*
X038203Y029027D02*
X038618Y029027D01*
X038562Y029186D02*
X038259Y029186D01*
X038259Y029344D02*
X038562Y029344D01*
X038562Y029503D02*
X038259Y029503D01*
X038259Y029661D02*
X038562Y029661D01*
X038562Y029820D02*
X038259Y029820D01*
X038259Y029978D02*
X038562Y029978D01*
X038562Y030137D02*
X038259Y030137D01*
X040227Y030137D02*
X040575Y030137D01*
X040638Y030200D02*
X040227Y029789D01*
X040227Y030198D01*
X040226Y030200D01*
X040638Y030200D01*
X040416Y029978D02*
X040227Y029978D01*
X040227Y029820D02*
X040258Y029820D01*
X042160Y028930D02*
X042160Y028180D01*
X047730Y028393D02*
X049249Y028393D01*
X049407Y028235D02*
X047888Y028235D01*
X048036Y028076D02*
X049672Y028076D01*
X050064Y027918D02*
X048102Y027918D01*
X044160Y020650D02*
X044160Y020472D01*
X043932Y020700D01*
X044022Y020700D01*
X044143Y020650D01*
X044160Y020650D01*
X044160Y020627D02*
X044006Y020627D01*
X036160Y014430D02*
X034910Y014430D01*
X034383Y014921D02*
X031880Y014921D01*
X031880Y015079D02*
X034541Y015079D01*
X034224Y014762D02*
X031761Y014762D01*
X031602Y014604D02*
X034190Y014604D01*
X034190Y014445D02*
X031217Y014445D01*
X031059Y014287D02*
X034190Y014287D01*
X034194Y014128D02*
X030900Y014128D01*
X030742Y013970D02*
X034353Y013970D01*
X034273Y013811D02*
X030583Y013811D01*
X030425Y013653D02*
X034190Y013653D01*
X034182Y013494D02*
X030266Y013494D01*
X030297Y013336D02*
X034024Y013336D01*
X033865Y013177D02*
X030455Y013177D01*
X030614Y013019D02*
X033707Y013019D01*
X033548Y012860D02*
X030772Y012860D01*
X030904Y012702D02*
X033390Y012702D01*
X033234Y012543D02*
X030970Y012543D01*
X030970Y012385D02*
X033168Y012385D01*
X033150Y012226D02*
X030970Y012226D01*
X030970Y012068D02*
X033092Y012068D01*
X033026Y011909D02*
X030970Y011909D01*
X030970Y011751D02*
X032990Y011751D01*
X032990Y011592D02*
X030970Y011592D01*
X030914Y011434D02*
X032663Y011434D01*
X032463Y011275D02*
X030797Y011275D01*
X030639Y011117D02*
X032305Y011117D01*
X032146Y010958D02*
X030480Y010958D01*
X030322Y010800D02*
X031988Y010800D01*
X031829Y010641D02*
X030163Y010641D01*
X030005Y010483D02*
X031671Y010483D01*
X031512Y010324D02*
X030613Y010324D01*
X030410Y011680D02*
X029160Y010430D01*
X029160Y003680D01*
X029720Y004460D02*
X030521Y004460D01*
X030453Y004618D02*
X029720Y004618D01*
X029720Y004777D02*
X030444Y004777D01*
X030444Y004935D02*
X029720Y004935D01*
X029720Y005094D02*
X030444Y005094D01*
X030444Y005252D02*
X029720Y005252D01*
X029720Y005411D02*
X030444Y005411D01*
X030456Y005569D02*
X029720Y005569D01*
X029720Y005728D02*
X030483Y005728D01*
X030444Y005886D02*
X029720Y005886D01*
X031160Y005306D02*
X031160Y003680D01*
X028600Y007947D02*
X025389Y007947D01*
X025323Y008105D02*
X028600Y008105D01*
X028600Y008264D02*
X025173Y008264D01*
X024895Y008422D02*
X028600Y008422D01*
X028600Y008581D02*
X024220Y008581D01*
X024220Y008739D02*
X028600Y008739D01*
X028600Y008898D02*
X024220Y008898D01*
X024220Y009056D02*
X028600Y009056D01*
X028600Y009215D02*
X024220Y009215D01*
X024220Y009373D02*
X028600Y009373D01*
X028600Y009532D02*
X024220Y009532D01*
X024220Y009690D02*
X028600Y009690D01*
X028600Y009849D02*
X024220Y009849D01*
X024220Y010007D02*
X026009Y010007D01*
X025828Y010166D02*
X024220Y010166D01*
X024220Y010324D02*
X025719Y010324D01*
X025653Y010483D02*
X024220Y010483D01*
X024220Y010641D02*
X025635Y010641D01*
X025635Y010800D02*
X024220Y010800D01*
X024220Y010958D02*
X025600Y010958D01*
X025441Y011117D02*
X024220Y011117D01*
X024220Y011275D02*
X024370Y011275D01*
X023950Y011932D02*
X023672Y012210D01*
X023959Y012210D01*
X024041Y012293D01*
X023950Y012073D01*
X023950Y011932D01*
X023950Y012068D02*
X023815Y012068D01*
X023975Y012226D02*
X024014Y012226D01*
X023660Y012930D02*
X024910Y012930D01*
X025762Y013336D02*
X026350Y013336D01*
X026350Y013494D02*
X026016Y013494D01*
X026175Y013653D02*
X026350Y013653D01*
X026333Y013811D02*
X026350Y013811D01*
X026409Y013177D02*
X025827Y013177D01*
X025870Y013019D02*
X026530Y013019D01*
X026688Y012860D02*
X025870Y012860D01*
X025835Y012702D02*
X026847Y012702D01*
X027005Y012543D02*
X026080Y012543D01*
X026238Y012385D02*
X027107Y012385D01*
X027014Y012226D02*
X026397Y012226D01*
X026279Y012344D02*
X026279Y012344D01*
X026555Y012068D02*
X026950Y012068D01*
X026950Y011909D02*
X026714Y011909D01*
X026872Y011751D02*
X026965Y011751D01*
X027030Y011592D02*
X027031Y011592D01*
X027096Y011434D02*
X027149Y011434D01*
X027140Y011275D02*
X027370Y011275D01*
X027140Y011117D02*
X029055Y011117D01*
X028969Y011275D02*
X028451Y011275D01*
X028896Y010958D02*
X027140Y010958D01*
X027186Y010800D02*
X028738Y010800D01*
X028642Y010641D02*
X027186Y010641D01*
X027168Y010483D02*
X028600Y010483D01*
X028600Y010324D02*
X027102Y010324D01*
X026992Y010166D02*
X028600Y010166D01*
X028600Y010007D02*
X026812Y010007D01*
X027910Y011930D02*
X029410Y011930D01*
X030410Y011680D02*
X030410Y012430D01*
X029910Y012930D01*
X027910Y012930D01*
X027410Y012930D01*
X026910Y013430D01*
X026910Y014430D01*
X027410Y014930D01*
X027910Y014930D01*
X028729Y014490D02*
X028761Y014522D01*
X028870Y014787D01*
X028870Y015073D01*
X028796Y015252D01*
X028940Y015108D01*
X028940Y014882D01*
X029332Y014490D01*
X028729Y014490D01*
X028794Y014604D02*
X029219Y014604D01*
X029060Y014762D02*
X028860Y014762D01*
X028870Y014921D02*
X028940Y014921D01*
X028940Y015079D02*
X028868Y015079D01*
X028811Y015238D02*
X028802Y015238D01*
X028910Y015930D02*
X027910Y015930D01*
X028910Y015930D02*
X029660Y015180D01*
X030380Y015192D02*
X030380Y015478D01*
X029989Y015870D01*
X030832Y015870D01*
X030440Y015478D01*
X030440Y015252D01*
X030380Y015192D01*
X030380Y015238D02*
X030426Y015238D01*
X030440Y015396D02*
X030380Y015396D01*
X030304Y015555D02*
X030517Y015555D01*
X030675Y015713D02*
X030146Y015713D01*
X031160Y015180D02*
X029910Y013930D01*
X027910Y013930D01*
X025410Y015930D02*
X024910Y015930D01*
X025410Y015930D02*
X026160Y016680D01*
X026160Y017430D01*
X026392Y017990D02*
X025978Y018405D01*
X025772Y018490D01*
X025609Y018490D01*
X025558Y018540D01*
X025294Y018650D01*
X024672Y018650D01*
X025297Y019275D01*
X025612Y018960D01*
X026180Y018960D01*
X026180Y018785D01*
X026292Y018516D01*
X026818Y017990D01*
X026392Y017990D01*
X026292Y018091D02*
X026717Y018091D01*
X026559Y018249D02*
X026133Y018249D01*
X025971Y018408D02*
X026400Y018408D01*
X026271Y018566D02*
X025496Y018566D01*
X025531Y019042D02*
X025064Y019042D01*
X025222Y019200D02*
X025372Y019200D01*
X024905Y018883D02*
X026180Y018883D01*
X026205Y018725D02*
X024747Y018725D01*
X024130Y019692D02*
X024130Y019978D01*
X023709Y020400D01*
X023482Y020400D01*
X023012Y020870D01*
X025308Y020870D01*
X024130Y019692D01*
X024130Y019834D02*
X024272Y019834D01*
X024116Y019993D02*
X024431Y019993D01*
X024589Y020151D02*
X023958Y020151D01*
X023799Y020310D02*
X024748Y020310D01*
X024906Y020468D02*
X023414Y020468D01*
X023256Y020627D02*
X025065Y020627D01*
X025223Y020785D02*
X023097Y020785D01*
X022410Y020680D02*
X021160Y020680D01*
X020160Y021680D01*
X018910Y021680D01*
X018660Y021430D01*
X018660Y020680D01*
X018100Y021385D02*
X018093Y021382D01*
X017958Y021247D01*
X017885Y021071D01*
X017885Y020289D01*
X017958Y020113D01*
X018093Y019978D01*
X018270Y019905D01*
X019051Y019905D01*
X019100Y019925D01*
X019100Y018935D01*
X019051Y018955D01*
X018270Y018955D01*
X018093Y018882D01*
X017958Y018747D01*
X017885Y018571D01*
X017885Y017789D01*
X017958Y017613D01*
X018093Y017478D01*
X018100Y017475D01*
X018100Y017319D01*
X018186Y017113D01*
X018343Y016955D01*
X018843Y016455D01*
X018677Y016455D01*
X017720Y017412D01*
X017720Y022620D01*
X017955Y022620D01*
X017958Y022613D01*
X018093Y022478D01*
X018270Y022405D01*
X019051Y022405D01*
X019160Y022450D01*
X019270Y022405D01*
X019644Y022405D01*
X019808Y022240D01*
X018799Y022240D01*
X018593Y022155D01*
X018343Y021905D01*
X018186Y021747D01*
X018100Y021541D01*
X018100Y021385D01*
X018100Y021419D02*
X017720Y021419D01*
X017720Y021261D02*
X017972Y021261D01*
X017898Y021102D02*
X017720Y021102D01*
X017720Y020944D02*
X017885Y020944D01*
X017885Y020785D02*
X017720Y020785D01*
X017720Y020627D02*
X017885Y020627D01*
X017885Y020468D02*
X017720Y020468D01*
X017720Y020310D02*
X017885Y020310D01*
X017942Y020151D02*
X017720Y020151D01*
X017720Y019993D02*
X018078Y019993D01*
X017720Y019834D02*
X019100Y019834D01*
X019100Y019676D02*
X017720Y019676D01*
X017720Y019517D02*
X019100Y019517D01*
X019100Y019359D02*
X017720Y019359D01*
X017720Y019200D02*
X019100Y019200D01*
X019100Y019042D02*
X017720Y019042D01*
X017720Y018883D02*
X018095Y018883D01*
X017949Y018725D02*
X017720Y018725D01*
X017720Y018566D02*
X017885Y018566D01*
X017885Y018408D02*
X017720Y018408D01*
X017720Y018249D02*
X017885Y018249D01*
X017885Y018091D02*
X017720Y018091D01*
X017720Y017932D02*
X017885Y017932D01*
X017892Y017774D02*
X017720Y017774D01*
X017720Y017615D02*
X017957Y017615D01*
X018100Y017457D02*
X017720Y017457D01*
X017834Y017298D02*
X018109Y017298D01*
X018175Y017140D02*
X017993Y017140D01*
X018151Y016981D02*
X018317Y016981D01*
X018310Y016823D02*
X018476Y016823D01*
X018468Y016664D02*
X018634Y016664D01*
X018627Y016506D02*
X018793Y016506D01*
X019160Y016930D02*
X018660Y017430D01*
X018660Y018180D01*
X019660Y018180D02*
X019660Y019680D01*
X021160Y019680D01*
X020624Y019120D02*
X020721Y019023D01*
X021006Y018905D01*
X021315Y018905D01*
X021600Y019023D01*
X021818Y019241D01*
X021936Y019526D01*
X021936Y019834D01*
X022464Y019834D01*
X022306Y019993D02*
X021870Y019993D01*
X021818Y020119D02*
X021817Y020120D01*
X022178Y020120D01*
X022690Y019608D01*
X022690Y019382D01*
X023112Y018960D01*
X023398Y018960D01*
X021928Y017490D01*
X020240Y017490D01*
X020363Y017613D01*
X020436Y017789D01*
X020436Y018571D01*
X020363Y018747D01*
X020228Y018882D01*
X020220Y018885D01*
X020220Y019120D01*
X020624Y019120D01*
X020702Y019042D02*
X020220Y019042D01*
X020226Y018883D02*
X023321Y018883D01*
X023163Y018725D02*
X020372Y018725D01*
X020436Y018566D02*
X023004Y018566D01*
X022846Y018408D02*
X020436Y018408D01*
X020436Y018249D02*
X022687Y018249D01*
X022529Y018091D02*
X020436Y018091D01*
X020436Y017932D02*
X022370Y017932D01*
X022212Y017774D02*
X020429Y017774D01*
X020363Y017615D02*
X022053Y017615D01*
X022160Y016930D02*
X019160Y016930D01*
X020240Y016370D02*
X021808Y016370D01*
X020220Y014782D01*
X020220Y014975D01*
X020228Y014978D01*
X020363Y015113D01*
X020436Y015289D01*
X020436Y016071D01*
X020363Y016247D01*
X020240Y016370D01*
X020263Y016347D02*
X021785Y016347D01*
X021627Y016189D02*
X020387Y016189D01*
X020436Y016030D02*
X021468Y016030D01*
X021310Y015872D02*
X020436Y015872D01*
X020436Y015713D02*
X021151Y015713D01*
X020993Y015555D02*
X020436Y015555D01*
X020436Y015396D02*
X020834Y015396D01*
X020676Y015238D02*
X020414Y015238D01*
X020329Y015079D02*
X020517Y015079D01*
X020359Y014921D02*
X020220Y014921D01*
X019660Y015680D02*
X019660Y012930D01*
X021220Y013532D02*
X021220Y014198D01*
X022690Y015668D01*
X022690Y015382D01*
X023082Y014990D01*
X022799Y014990D01*
X022593Y014905D01*
X021343Y013655D01*
X021220Y013532D01*
X021220Y013653D02*
X021341Y013653D01*
X021343Y013655D02*
X021343Y013655D01*
X021220Y013811D02*
X021499Y013811D01*
X021658Y013970D02*
X021220Y013970D01*
X021220Y014128D02*
X021816Y014128D01*
X021975Y014287D02*
X021309Y014287D01*
X021467Y014445D02*
X022133Y014445D01*
X022292Y014604D02*
X021626Y014604D01*
X021784Y014762D02*
X022450Y014762D01*
X022631Y014921D02*
X021943Y014921D01*
X022101Y015079D02*
X022993Y015079D01*
X022835Y015238D02*
X022260Y015238D01*
X022418Y015396D02*
X022690Y015396D01*
X022690Y015555D02*
X022577Y015555D01*
X023410Y015680D02*
X024160Y014930D01*
X024910Y014930D01*
X023975Y016133D02*
X023739Y016370D01*
X024092Y016370D01*
X024060Y016338D01*
X023975Y016133D01*
X023998Y016189D02*
X023920Y016189D01*
X024069Y016347D02*
X023762Y016347D01*
X022160Y016930D02*
X025910Y020680D01*
X028160Y020680D01*
X029660Y019180D01*
X029098Y018725D02*
X028148Y018725D01*
X027990Y018883D02*
X028940Y018883D01*
X028940Y019042D02*
X027831Y019042D01*
X027673Y019200D02*
X028848Y019200D01*
X028690Y019359D02*
X027640Y019359D01*
X027640Y019517D02*
X028531Y019517D01*
X028373Y019676D02*
X027640Y019676D01*
X027637Y019834D02*
X028214Y019834D01*
X028056Y019993D02*
X027616Y019993D01*
X028496Y018566D02*
X029256Y018566D01*
X028798Y018249D02*
X032187Y018249D01*
X032029Y018091D02*
X028863Y018091D01*
X028691Y018408D02*
X032346Y018408D01*
X031160Y019180D02*
X028910Y021430D01*
X021410Y021430D01*
X019660Y023180D01*
X019678Y022370D02*
X017720Y022370D01*
X017720Y022212D02*
X018730Y022212D01*
X018491Y022053D02*
X017720Y022053D01*
X017720Y021895D02*
X018333Y021895D01*
X018181Y021736D02*
X017720Y021736D01*
X017720Y021578D02*
X018115Y021578D01*
X018042Y022529D02*
X017720Y022529D01*
X017160Y023180D02*
X017160Y026930D01*
X017660Y027430D01*
X018373Y027125D02*
X018730Y027125D01*
X018749Y027172D02*
X018630Y026885D01*
X018630Y025975D01*
X018749Y025688D01*
X018850Y025587D01*
X018850Y025240D01*
X018369Y025240D01*
X018209Y025400D01*
X017720Y025400D01*
X017720Y026655D01*
X017815Y026655D01*
X018100Y026773D01*
X018318Y026991D01*
X018436Y027276D01*
X018436Y027510D01*
X018850Y027510D01*
X018850Y027273D01*
X018749Y027172D01*
X018850Y027284D02*
X018436Y027284D01*
X018436Y027442D02*
X018850Y027442D01*
X018664Y026967D02*
X018293Y026967D01*
X018135Y026808D02*
X018630Y026808D01*
X018630Y026650D02*
X017720Y026650D01*
X017720Y026491D02*
X018630Y026491D01*
X018630Y026333D02*
X017720Y026333D01*
X017720Y026174D02*
X018630Y026174D01*
X018630Y026016D02*
X017720Y026016D01*
X017720Y025857D02*
X018679Y025857D01*
X018745Y025699D02*
X017720Y025699D01*
X017720Y025540D02*
X018850Y025540D01*
X018850Y025382D02*
X018227Y025382D01*
X017910Y024680D02*
X019410Y024680D01*
X019410Y026430D01*
X019410Y028290D01*
X018630Y028290D01*
X019410Y028290D02*
X021190Y028290D01*
X020632Y029027D02*
X019189Y029027D01*
X019455Y028869D02*
X020366Y028869D01*
X020605Y029344D02*
X019216Y029344D01*
X019466Y029503D02*
X020355Y029503D01*
X020215Y029661D02*
X019605Y029661D01*
X019671Y029820D02*
X020150Y029820D01*
X020110Y029978D02*
X019710Y029978D01*
X019710Y030137D02*
X020110Y030137D01*
X021160Y030070D02*
X021160Y030930D01*
X022160Y030930D02*
X022160Y026430D01*
X020410Y026430D01*
X021076Y025699D02*
X023100Y025699D01*
X023100Y025857D02*
X021142Y025857D01*
X020923Y025540D02*
X023100Y025540D01*
X022594Y025382D02*
X022227Y025382D01*
X021594Y025382D02*
X020642Y025382D01*
X020179Y025382D02*
X019970Y025382D01*
X019269Y023955D02*
X019052Y023955D01*
X018362Y024114D02*
X021459Y024114D01*
X021421Y022212D02*
X029571Y022212D01*
X029522Y022053D02*
X021579Y022053D01*
X022410Y020680D02*
X023410Y019680D01*
X022872Y019200D02*
X021777Y019200D01*
X021866Y019359D02*
X022714Y019359D01*
X022690Y019517D02*
X021932Y019517D01*
X021936Y019676D02*
X022623Y019676D01*
X021936Y019834D02*
X021818Y020119D01*
X021618Y019042D02*
X023031Y019042D01*
X020716Y020332D02*
X020624Y020240D01*
X020415Y020240D01*
X020436Y020289D01*
X020436Y020613D01*
X020716Y020332D01*
X020693Y020310D02*
X020436Y020310D01*
X020436Y020468D02*
X020580Y020468D01*
X019660Y020680D02*
X019660Y019680D01*
X017160Y017180D02*
X017160Y023180D01*
X018660Y023180D01*
X018269Y023955D02*
X017720Y023955D01*
X017720Y023797D02*
X018008Y023797D01*
X021147Y026990D02*
X021072Y027172D01*
X020852Y027391D01*
X020566Y027510D01*
X020255Y027510D01*
X019970Y027392D01*
X019970Y027730D01*
X020347Y027730D01*
X020449Y027629D01*
X020735Y027510D01*
X021600Y027510D01*
X021600Y026990D01*
X021147Y026990D01*
X021091Y027125D02*
X021600Y027125D01*
X021600Y027284D02*
X020960Y027284D01*
X020730Y027442D02*
X021600Y027442D01*
X020517Y027601D02*
X019970Y027601D01*
X019970Y027442D02*
X020091Y027442D01*
X018072Y029027D02*
X016870Y029027D01*
X016790Y028869D02*
X017806Y028869D01*
X017660Y028710D02*
X016698Y028710D01*
X016600Y028552D02*
X017594Y028552D01*
X017550Y028393D02*
X016442Y028393D01*
X016283Y028235D02*
X017550Y028235D01*
X017210Y028076D02*
X016019Y028076D01*
X015627Y027918D02*
X017052Y027918D01*
X018630Y030070D02*
X018630Y030930D01*
X022720Y027918D02*
X023100Y027918D01*
X023100Y027759D02*
X022720Y027759D01*
X022720Y027601D02*
X023100Y027601D01*
X023100Y027442D02*
X022720Y027442D01*
X022720Y027284D02*
X023100Y027284D01*
X023100Y027125D02*
X022720Y027125D01*
X022720Y026967D02*
X023100Y026967D01*
X023100Y026808D02*
X022720Y026808D01*
X022720Y026650D02*
X023100Y026650D01*
X023100Y026491D02*
X022720Y026491D01*
X022720Y026333D02*
X023100Y026333D01*
X023100Y026174D02*
X022660Y026174D01*
X022538Y026016D02*
X023100Y026016D01*
X024220Y026016D02*
X024880Y026016D01*
X024880Y025975D02*
X024999Y025688D01*
X025100Y025587D01*
X025100Y025240D01*
X024619Y025240D01*
X024459Y025400D01*
X024220Y025400D01*
X024220Y027595D01*
X024425Y027510D01*
X025100Y027510D01*
X025100Y027273D01*
X024999Y027172D01*
X024880Y026885D01*
X024880Y025975D01*
X024929Y025857D02*
X024220Y025857D01*
X024220Y025699D02*
X024995Y025699D01*
X025100Y025540D02*
X024220Y025540D01*
X024477Y025382D02*
X025100Y025382D01*
X025660Y024680D02*
X025660Y026430D01*
X025660Y028290D01*
X027440Y028290D01*
X027850Y029070D02*
X026985Y029070D01*
X026699Y028951D01*
X026597Y028850D01*
X025723Y028850D01*
X025622Y028951D01*
X025336Y029070D01*
X024425Y029070D01*
X024220Y028985D01*
X024220Y029375D01*
X024425Y029290D01*
X025336Y029290D01*
X025622Y029409D01*
X025842Y029628D01*
X025960Y029915D01*
X025960Y030200D01*
X026360Y030200D01*
X026360Y029915D01*
X026479Y029628D01*
X026699Y029409D01*
X026985Y029290D01*
X027850Y029290D01*
X027850Y029070D01*
X027850Y029186D02*
X024220Y029186D01*
X024220Y029344D02*
X024295Y029344D01*
X024322Y029027D02*
X024220Y029027D01*
X024880Y028290D02*
X025660Y028290D01*
X025705Y028869D02*
X026616Y028869D01*
X026882Y029027D02*
X025439Y029027D01*
X025466Y029344D02*
X026855Y029344D01*
X026605Y029503D02*
X025716Y029503D01*
X025855Y029661D02*
X026465Y029661D01*
X026400Y029820D02*
X025921Y029820D01*
X025960Y029978D02*
X026360Y029978D01*
X026360Y030137D02*
X025960Y030137D01*
X024910Y030070D02*
X024910Y030930D01*
X027410Y030930D02*
X027410Y030070D01*
X029832Y029027D02*
X030572Y029027D01*
X030306Y028869D02*
X029880Y028869D01*
X029880Y028710D02*
X030160Y028710D01*
X030094Y028552D02*
X029880Y028552D01*
X029880Y028393D02*
X030050Y028393D01*
X030050Y028235D02*
X029733Y028235D01*
X029575Y028076D02*
X030075Y028076D01*
X030140Y027918D02*
X028970Y027918D01*
X028970Y027759D02*
X030258Y027759D01*
X030457Y027601D02*
X028970Y027601D01*
X027850Y027510D02*
X027850Y026990D01*
X027397Y026990D01*
X027322Y027172D01*
X027102Y027391D01*
X026816Y027510D01*
X026505Y027510D01*
X026220Y027392D01*
X026220Y027730D01*
X026597Y027730D01*
X026699Y027629D01*
X026985Y027510D01*
X027850Y027510D01*
X027850Y027442D02*
X026980Y027442D01*
X026767Y027601D02*
X026220Y027601D01*
X026220Y027442D02*
X026341Y027442D01*
X027210Y027284D02*
X027850Y027284D01*
X027850Y027125D02*
X027341Y027125D01*
X025100Y027284D02*
X024220Y027284D01*
X024220Y027442D02*
X025100Y027442D01*
X024980Y027125D02*
X024220Y027125D01*
X024220Y026967D02*
X024914Y026967D01*
X024880Y026808D02*
X024220Y026808D01*
X024220Y026650D02*
X024880Y026650D01*
X024880Y026491D02*
X024220Y026491D01*
X024220Y026333D02*
X024880Y026333D01*
X024880Y026174D02*
X024220Y026174D01*
X024160Y024680D02*
X025660Y024680D01*
X023910Y023680D02*
X023660Y023680D01*
X029238Y021895D02*
X029473Y021895D01*
X029448Y021736D02*
X029396Y021736D01*
X031090Y021551D02*
X031160Y021598D01*
X031231Y021551D01*
X031229Y021534D01*
X031219Y021515D01*
X031205Y021499D01*
X031186Y021489D01*
X031166Y021484D01*
X031144Y021485D01*
X031125Y021493D01*
X031108Y021506D01*
X031096Y021524D01*
X031090Y021544D01*
X031090Y021551D01*
X031130Y021578D02*
X031191Y021578D01*
X032841Y021895D02*
X032904Y021895D01*
X032864Y021736D02*
X033062Y021736D01*
X030440Y019042D02*
X030380Y019042D01*
X030380Y018883D02*
X030440Y018883D01*
X030598Y018725D02*
X030223Y018725D01*
X030065Y018566D02*
X030756Y018566D01*
X031646Y015713D02*
X035440Y015713D01*
X035440Y015555D02*
X031804Y015555D01*
X031880Y015396D02*
X035440Y015396D01*
X035440Y015238D02*
X031880Y015238D01*
X035280Y015079D02*
X035493Y015079D01*
X034910Y013430D02*
X033710Y012230D01*
X033710Y011680D01*
X036170Y012482D02*
X036170Y012648D01*
X036232Y012710D01*
X036398Y012710D01*
X036170Y012482D01*
X036170Y012543D02*
X036231Y012543D01*
X036224Y012702D02*
X036390Y012702D01*
X026410Y006930D02*
X025786Y006180D01*
X025660Y006270D01*
X025660Y005090D02*
X025660Y002430D01*
X025100Y002662D02*
X024928Y002490D01*
X024410Y002490D01*
X024410Y002638D01*
X025100Y003328D01*
X025100Y002662D01*
X025100Y002716D02*
X024488Y002716D01*
X024410Y002558D02*
X024996Y002558D01*
X025100Y002875D02*
X024647Y002875D01*
X024805Y003033D02*
X025100Y003033D01*
X025100Y003192D02*
X024964Y003192D01*
X021660Y003680D02*
X021660Y005306D01*
X020660Y005306D02*
X020660Y003680D01*
X024220Y008422D02*
X024426Y008422D01*
X022100Y010336D02*
X022100Y010337D01*
X021815Y010455D01*
X021506Y010455D01*
X021221Y010337D01*
X021220Y010336D01*
X021220Y011828D01*
X022100Y010948D01*
X022100Y010336D01*
X022100Y010483D02*
X021220Y010483D01*
X021220Y010641D02*
X022100Y010641D01*
X022100Y010800D02*
X021220Y010800D01*
X021220Y010958D02*
X022090Y010958D01*
X021932Y011117D02*
X021220Y011117D01*
X021220Y011275D02*
X021773Y011275D01*
X021615Y011434D02*
X021220Y011434D01*
X021220Y011592D02*
X021456Y011592D01*
X021298Y011751D02*
X021220Y011751D01*
X019100Y014921D02*
X019089Y014921D01*
X018660Y015680D02*
X017160Y017180D01*
X032470Y027442D02*
X032591Y027442D01*
X031160Y030070D02*
X031160Y030930D01*
X050200Y006520D02*
X050468Y006520D01*
X050310Y006362D02*
X050134Y006362D01*
X050151Y006203D02*
X049975Y006203D01*
X049993Y006045D02*
X049817Y006045D01*
X049834Y005886D02*
X049658Y005886D01*
X049676Y005728D02*
X049500Y005728D01*
X049517Y005569D02*
X049436Y005569D01*
X050890Y003984D02*
X051990Y003984D01*
X051990Y003826D02*
X051373Y003826D01*
X051648Y003667D02*
X051990Y003667D01*
X051990Y003509D02*
X051829Y003509D01*
X051988Y003350D02*
X051990Y003350D01*
X051990Y000949D02*
X051990Y000720D01*
X051761Y000720D01*
X051990Y000949D01*
X051990Y000814D02*
X051855Y000814D01*
X013930Y000720D02*
X013700Y000720D01*
X013700Y000949D01*
X013930Y000720D01*
X013836Y000814D02*
X013700Y000814D01*
D27*
X042660Y016930D03*
D28*
X048660Y016930D03*
X048660Y013430D03*
X046910Y008680D03*
X043910Y007930D03*
X043910Y006930D03*
X042410Y006930D03*
X040410Y006930D03*
X039410Y006430D03*
X042910Y008930D03*
X039410Y010805D03*
X035410Y018430D03*
X035410Y021430D03*
X042160Y028180D03*
X029410Y011930D03*
X030160Y009680D03*
X030160Y008680D03*
X030160Y007680D03*
X026410Y006930D03*
X024660Y007680D03*
X026410Y010680D03*
X021660Y009680D03*
X019660Y008680D03*
X021160Y019680D03*
X017660Y027430D03*
X048660Y005680D03*
D29*
X051410Y006430D02*
X051410Y014180D01*
X048660Y016930D01*
X048660Y021680D01*
X046910Y023430D01*
X046410Y023430D01*
X046410Y025180D01*
X047260Y026030D01*
X046410Y026030D01*
X046310Y025930D01*
X044660Y025930D01*
X044660Y026930D02*
X045410Y026930D01*
X044660Y027680D01*
X044660Y028180D01*
X044910Y028180D01*
X044926Y028196D01*
X044926Y029680D01*
X046410Y030930D02*
X046895Y030446D01*
X046895Y029680D01*
X046895Y028196D01*
X047410Y027680D01*
X047410Y026180D01*
X047285Y026055D01*
X047260Y026030D01*
X046410Y026030D02*
X046410Y025180D01*
X046410Y026830D02*
X046310Y026930D01*
X045410Y026930D01*
X044660Y026930D02*
X044660Y027680D01*
X044660Y028180D02*
X043160Y028180D01*
X043160Y023430D01*
X044160Y022430D01*
X044598Y022430D01*
X044598Y023430D02*
X046410Y023430D01*
X044598Y021430D02*
X043660Y021430D01*
X042160Y022930D01*
X042160Y024930D01*
X042160Y025055D01*
X042160Y026930D01*
X041660Y027430D01*
X041160Y027430D01*
X042160Y028180D02*
X043160Y028180D01*
X046410Y030930D02*
X039410Y030930D01*
X034660Y030930D01*
X033660Y030930D01*
X031160Y030930D01*
X028410Y030930D01*
X027410Y030930D01*
X024910Y030930D01*
X023660Y030930D01*
X022160Y030930D01*
X021160Y030930D01*
X018630Y030930D01*
X021160Y030070D02*
X021190Y030070D01*
X024880Y030070D02*
X024910Y030070D01*
X027410Y030070D02*
X027440Y030070D01*
X031130Y030070D02*
X031160Y030070D01*
X033660Y030070D02*
X033690Y030070D01*
X037426Y029680D02*
X037426Y027430D01*
X038160Y027430D01*
X039395Y029680D02*
X039410Y029680D01*
X039410Y030930D01*
X041910Y024930D02*
X042160Y024930D01*
X048660Y013430D02*
X048660Y010680D01*
X048660Y008680D02*
X046910Y008680D01*
X051410Y006430D02*
X046160Y001180D01*
X038410Y001180D01*
X030160Y001180D01*
X030160Y002680D01*
X029160Y002680D02*
X029160Y001180D01*
X028160Y001180D01*
X028160Y002680D01*
X028160Y001180D02*
X021660Y001180D01*
X021660Y002680D01*
X020660Y002680D02*
X020660Y001180D01*
X019660Y001180D01*
X019660Y002680D01*
X020660Y001180D02*
X021660Y001180D01*
X029160Y001180D02*
X030160Y001180D01*
X038410Y001180D02*
X038410Y003055D01*
X039410Y003055D02*
X039410Y006430D01*
X026410Y010680D02*
X026410Y011180D01*
X025660Y011930D01*
X024910Y011930D01*
X027910Y017930D02*
X026910Y018930D01*
X026910Y019680D01*
D30*
X015129Y029708D03*
X015129Y002149D03*
X050562Y002149D03*
X050562Y029708D03*
D31*
X050910Y024430D03*
X051160Y023680D03*
X051910Y023430D03*
X051910Y022430D03*
X051910Y021430D03*
X051160Y021180D03*
X050910Y020430D03*
X049910Y020430D03*
X049660Y021180D03*
X048910Y022430D03*
X048910Y023430D03*
X049660Y023680D03*
X049910Y024430D03*
X048910Y024430D03*
X047910Y024430D03*
X047910Y023430D03*
X046910Y022430D03*
X045910Y022430D03*
X045910Y021430D03*
X045910Y020430D03*
X046910Y020430D03*
X046910Y021430D03*
X047910Y021430D03*
X047910Y020430D03*
X051910Y020430D03*
X051910Y024430D03*
M02*
